<svg xmlns="http://www.w3.org/2000/svg" xmlns:xlink="http://www.w3.org/1999/xlink" width="232.229" height="63.4" viewBox="0 0 232.229 63.4">
  <defs>
    <linearGradient id="linear-gradient" y1="0.5" x2="1" y2="0.5" gradientUnits="objectBoundingBox">
      <stop offset="0" stop-color="#d50054"/>
      <stop offset="0.5" stop-color="#e10b49"/>
      <stop offset="1" stop-color="#ff6b00"/>
    </linearGradient>
  </defs>
  <g data-name="Group 223" transform="translate(-5.855 -12.361)">
    <g data-name="Group 223">
      <path data-name="Path 96" d="M74.431,52.826a20.32,20.32,0,0,0,0,20.491l-1.362.752a20.267,20.267,0,0,1,0-21.994Z" fill="#9e1c64"/>
      <path data-name="Path 97" d="M80.8,59.594h1.786L79.649,70.873H77.675L74.738,59.594h1.785l2.139,9.235Z" fill="#9e1c64"/>
      <path data-name="Path 98" d="M90.834,70.873h-1.48l-.212-.822a4.456,4.456,0,0,1-2.749,1.058c-2.115,0-2.82-1.434-2.82-3.361,0-2.35,1.034-3.29,3.055-3.29H89V62.39c0-1.128-.516-1.409-1.644-1.409a8.043,8.043,0,0,0-2.844.563l-.305-1.5a8.382,8.382,0,0,1,3.407-.681c2.115,0,3.219.7,3.219,2.773ZM89,65.962H86.933c-1.292,0-1.574.612-1.574,1.786,0,1.2.306,1.857,1.5,1.857A4.033,4.033,0,0,0,89,68.947Z" fill="#9e1c64"/>
      <path data-name="Path 99" d="M93.185,70.873V54.753l1.833-.259V70.873Z" fill="#9e1c64"/>
      <path data-name="Path 100" d="M104.981,67.349c0,2.49-1.528,3.76-4.065,3.76a11.51,11.51,0,0,1-3.314-.448V54.753l1.833-.259v5.758a5.185,5.185,0,0,1,2.867-.893c1.739,0,2.679,1.034,2.679,2.984Zm-1.833-4.794c0-1.1-.4-1.574-1.433-1.574a4.634,4.634,0,0,0-2.28.657v7.8a8.357,8.357,0,0,0,1.5.117c1.551,0,2.209-.752,2.209-2.138Z" fill="#9e1c64"/>
      <path data-name="Path 101" d="M108.694,65.892V67.3c0,1.622.658,2.28,2.233,2.28a6.945,6.945,0,0,0,2.655-.517l.282,1.457a8.511,8.511,0,0,1-3.125.588c-2.515,0-3.878-1.387-3.878-3.831V63.1c0-2.608,1.5-3.736,3.642-3.736,2.444,0,3.408,1.363,3.408,3.831v2.7Zm3.5-2.914c0-1.316-.305-2.115-1.668-2.115-1.2,0-1.833.611-1.833,2v1.527h3.5Z" fill="#9e1c64"/>
      <path data-name="Path 102" d="M121.361,70.873V62.179c0-.752-.33-1.1-1.129-1.1a6.039,6.039,0,0,0-2.443.611v9.187h-1.833V59.594h1.551l.164.822a5.7,5.7,0,0,1,3.173-1.057,2.074,2.074,0,0,1,2.349,2.3v9.211Z" fill="#9e1c64"/>
      <path data-name="Path 103" d="M132.476,70.873H131l-.211-.822a4.457,4.457,0,0,1-2.75,1.058c-2.115,0-2.82-1.434-2.82-3.361,0-2.35,1.035-3.29,3.054-3.29h2.375V62.39c0-1.128-.517-1.409-1.646-1.409a8.033,8.033,0,0,0-2.842.563l-.307-1.5a8.385,8.385,0,0,1,3.409-.681c2.115,0,3.218.7,3.218,2.773Zm-1.832-4.911h-2.068c-1.293,0-1.574.612-1.574,1.786,0,1.2.3,1.857,1.5,1.857a4.033,4.033,0,0,0,2.138-.658Z" fill="#9e1c64"/>
      <path data-name="Path 104" d="M134.474,59.594h6.25v1.551l-4.488,8.178h4.582v1.55h-6.461v-1.55l4.489-8.178h-4.372Z" fill="#9e1c64"/>
      <path data-name="Path 105" d="M142.816,57.644V54.753h1.832v2.891Zm0,13.229V59.594h1.832V70.873Z" fill="#9e1c64"/>
      <path data-name="Path 106" d="M152.638,70.873V62.179c0-.752-.328-1.1-1.126-1.1a6.053,6.053,0,0,0-2.446.611v9.187h-1.832V59.594h1.551l.164.822a5.7,5.7,0,0,1,3.172-1.057,2.076,2.076,0,0,1,2.351,2.3v9.211Z" fill="#9e1c64"/>
      <path data-name="Path 107" d="M158.42,65.892V67.3c0,1.622.658,2.28,2.232,2.28a6.936,6.936,0,0,0,2.654-.517l.284,1.457a8.515,8.515,0,0,1-3.125.588c-2.516,0-3.879-1.387-3.879-3.831V63.1c0-2.608,1.5-3.736,3.642-3.736,2.446,0,3.409,1.363,3.409,3.831v2.7Zm3.5-2.914c0-1.316-.307-2.115-1.67-2.115-1.2,0-1.832.611-1.832,2v1.527h3.5Z" fill="#9e1c64"/>
      <path data-name="Path 108" d="M166.387,52.075a20.272,20.272,0,0,1,0,21.994l-1.364-.752a20.307,20.307,0,0,0,0-20.491Z" fill="#9e1c64"/>
      <path data-name="Path 109" d="M175.2,67.49V62.978c0-2.209,1.127-3.619,3.455-3.619a7.771,7.771,0,0,1,2.49.4l-.257,1.481a7.131,7.131,0,0,0-1.975-.305c-1.34,0-1.881.752-1.881,2.02v4.559c0,1.269.541,2.02,1.881,2.02a7.132,7.132,0,0,0,1.975-.3l.257,1.48a7.768,7.768,0,0,1-2.49.4C176.326,71.109,175.2,69.7,175.2,67.49Z" fill="#9e1c64"/>
      <path data-name="Path 110" d="M189.769,70.873h-1.48l-.213-.822a4.453,4.453,0,0,1-2.748,1.058c-2.115,0-2.82-1.434-2.82-3.361,0-2.35,1.033-3.29,3.054-3.29h2.373V62.39c0-1.128-.517-1.409-1.644-1.409a8.043,8.043,0,0,0-2.844.563l-.305-1.5a8.382,8.382,0,0,1,3.407-.681c2.115,0,3.22.7,3.22,2.773Zm-1.834-4.911h-2.068c-1.291,0-1.574.612-1.574,1.786,0,1.2.306,1.857,1.5,1.857a4.033,4.033,0,0,0,2.138-.658Z" fill="#9e1c64"/>
      <path data-name="Path 111" d="M199.5,67.795a3.015,3.015,0,0,1-3.338,3.314,7.1,7.1,0,0,1-2.209-.329V75.5l-1.832.259V59.594h1.5l.187.822a4.994,4.994,0,0,1,2.985-1.057c1.9,0,2.7,1.057,2.7,3.055Zm-1.834-5.31c0-.988-.352-1.528-1.315-1.528a4.6,4.6,0,0,0-2.4.729v7.543a6.357,6.357,0,0,0,1.881.281c1.316,0,1.832-.563,1.832-1.762Z" fill="#9e1c64"/>
      <path data-name="Path 112" d="M204.08,71.109a8.362,8.362,0,0,1-2.75-.471l.283-1.48a6.893,6.893,0,0,0,2.373.423c1.41,0,1.809-.588,1.809-1.645,0-1.2-.235-1.5-1.785-2-2.256-.705-2.821-1.457-2.821-3.478,0-2.232,1.317-3.1,3.455-3.1a7.141,7.141,0,0,1,2.7.47l-.258,1.5a7.352,7.352,0,0,0-2.4-.423c-1.41,0-1.691.517-1.691,1.528,0,1.056.211,1.292,1.762,1.808,2.091.7,2.843,1.34,2.843,3.5C207.6,69.934,206.312,71.109,204.08,71.109Z" fill="#9e1c64"/>
      <path data-name="Path 113" d="M211.2,59.594v8.741c0,.776.354,1.128,1.152,1.128a5.405,5.405,0,0,0,2.327-.658V59.594h1.832V70.873h-1.551l-.188-.822a5.394,5.394,0,0,1-3.078,1.058,2.059,2.059,0,0,1-2.326-2.3V59.594Z" fill="#9e1c64"/>
      <path data-name="Path 114" d="M219.1,70.873V54.753l1.832-.259V70.873Z" fill="#9e1c64"/>
      <path data-name="Path 115" d="M224.994,65.892V67.3c0,1.622.658,2.28,2.232,2.28a6.945,6.945,0,0,0,2.655-.517l.283,1.457a8.515,8.515,0,0,1-3.125.588c-2.516,0-3.879-1.387-3.879-3.831V63.1c0-2.608,1.5-3.736,3.643-3.736,2.445,0,3.408,1.363,3.408,3.831v2.7Zm3.5-2.914c0-1.316-.307-2.115-1.67-2.115-1.2,0-1.832.611-1.832,2v1.527h3.5Z" fill="#9e1c64"/>
      <path data-name="Path 116" d="M234.558,71.109a8.367,8.367,0,0,1-2.75-.471l.284-1.48a6.889,6.889,0,0,0,2.373.423c1.41,0,1.808-.588,1.808-1.645,0-1.2-.234-1.5-1.785-2-2.256-.705-2.82-1.457-2.82-3.478,0-2.232,1.316-3.1,3.455-3.1a7.136,7.136,0,0,1,2.7.47l-.258,1.5a7.351,7.351,0,0,0-2.4-.423c-1.41,0-1.692.517-1.692,1.528,0,1.056.211,1.292,1.762,1.808,2.092.7,2.844,1.34,2.844,3.5C238.084,69.934,236.791,71.109,234.558,71.109Z" fill="#9e1c64"/>
    </g>
    <g data-name="Group 224">
      <path data-name="Path 117" d="M74.471,26.753V48.879H70.482V26.753Z"/>
      <path data-name="Path 118" d="M80.533,48.879V26.753h3.989L95.891,42.922V26.753H99.8V48.879H95.809l-11.416-16.4v16.4Z"/>
      <path data-name="Path 119" d="M122.956,47.773a15.531,15.531,0,0,1-6.453,1.2q-11.4.038-11.434-11.514-.033-10.93,11.56-10.969a17.3,17.3,0,0,1,6.327,1.064v3.721a14.584,14.584,0,0,0-6.015-1.22q-7.755.026-7.732,7.391.025,7.985,7.344,7.961a9.648,9.648,0,0,0,2.467-.381l0-6.465h3.938Z"/>
      <path data-name="Path 120" d="M128.256,48.879V26.753h9.788q6.6-.021,6.615,5.917.012,4.016-5.114,6.669l6.849,9.54h-5.028l-6.588-9.6V37.4q5.718-1.028,5.71-4.593-.009-2.449-2.686-2.441H132.4V48.879Z"/>
      <path data-name="Path 121" d="M164.493,26.753v3.535H153.721V35.9H164v3.643H153.721V45.4H164.76v3.485H149.747V26.753Z"/>
      <path data-name="Path 122" d="M185.524,26.753v3.622l-11.41,15.033h11.46v3.471H169.627V45.408l11.894-15.033H169.857V26.753Z"/>
      <path data-name="Path 123" d="M205.891,26.753v3.622l-11.41,15.033h11.46v3.471H189.994V45.408l11.894-15.033H190.224V26.753Z"/>
      <path data-name="Path 124" d="M212.938,48.879h-4.1l9.07-22.126H222.2l9.4,22.126h-4.29l-2.472-6.012h-7.153l1.36-3.542h4.336l-3.414-8.332Z"/>
      <path data-name="Path 125" d="M231.839,33.251A3.057,3.057,0,0,1,228.679,30a3.168,3.168,0,1,1,6.333.015,3.072,3.072,0,0,1-3.173,3.241m0-6.176a2.72,2.72,0,0,0-2.8,2.92,2.805,2.805,0,1,0,5.6.015,2.742,2.742,0,0,0-2.809-2.935m-1.021,4.611V28.081h.965c.755,0,1.243.39,1.243,1.048a.974.974,0,0,1-.755.991l1.063,1.482-.545.126-1.076-1.538h-.391v1.5Zm.951-3.131h-.462v1.216h.448c.462,0,.755-.21.755-.614s-.267-.6-.741-.6"/>
    </g>
    <g data-name="Group 225">
      <path data-name="Path 126" d="M73.944,20.216A3.653,3.653,0,0,1,70.1,16.307a3.771,3.771,0,0,1,3.861-3.946,3.641,3.641,0,0,1,3.838,3.9A3.771,3.771,0,0,1,73.944,20.216Zm-.024-6.632a2.383,2.383,0,0,0-2.35,2.675c0,1.643.935,2.734,2.4,2.734a2.4,2.4,0,0,0,2.363-2.686A2.423,2.423,0,0,0,73.92,13.584Z" fill="#9e1c64"/>
      <path data-name="Path 127" d="M84.311,12.54H85.7v7.569H84.143l-3.586-5.517v5.444H79.166v-7.5h1.6L84.311,18Z" fill="#9e1c64"/>
      <path data-name="Path 128" d="M92.951,14.22a3.492,3.492,0,0,0-1.967-.6,2.376,2.376,0,0,0-2.434,2.639,2.406,2.406,0,0,0,2.458,2.7,3.671,3.671,0,0,0,2.051-.672l.276,1.344a4.981,4.981,0,0,1-2.387.587,3.629,3.629,0,0,1-3.873-3.909,3.7,3.7,0,0,1,3.909-3.946,5.2,5.2,0,0,1,2.423.588Z" fill="#9e1c64"/>
      <path data-name="Path 129" d="M94.718,20.036v-7.5h5.109v1.236h-3.67v1.883h3.01V16.9h-3.01V18.8h3.67v1.235Z" fill="#9e1c64"/>
      <path data-name="Path 130" d="M100.622,17.734V16.523H104v1.211Z" fill="#9e1c64"/>
      <path data-name="Path 131" d="M107.664,20.036h-2.446v-7.5h2.542c2.555,0,4.042,1.464,4.042,3.7C111.8,18.549,110.326,20.036,107.664,20.036Zm.012-6.26h-1V18.8h1.068a2.306,2.306,0,0,0,2.591-2.494C110.339,14.616,109.391,13.776,107.676,13.776Z" fill="#9e1c64"/>
      <path data-name="Path 132" d="M119.494,20.036h-1.475l-.624-1.774h-3.022l-.612,1.774h-1.475l2.734-7.5H116.8ZM115.9,13.8l-1.139,3.25h2.266Z" fill="#9e1c64"/>
      <path data-name="Path 133" d="M120.434,20.036v-7.5h1.451v7.5Z" fill="#9e1c64"/>
      <path data-name="Path 134" d="M123.638,20.036v-7.5H125.1v6.213h3.382v1.283Z" fill="#9e1c64"/>
      <path data-name="Path 135" d="M132.1,17.134v2.9h-1.452V17.122L128.03,12.54h1.583l1.775,3.239,1.739-3.239H134.7Z" fill="#9e1c64"/>
    </g>
    <path data-name="Path 136" d="M17.178,18.282,33.136,43.757,20.784,63.476h-1.7L31.432,43.757l-10.625-17H5.855L16.484,43.765,5.969,60.716h6.605L23.1,43.753l-7.013-11.2h1.7l7.018,11.2L8.85,69.238H23.8l15.958-25.48L27.408,24.042h1.7L41.464,43.757,30.839,60.724H45.788L56.413,43.757l-10.662-17H39.127l10.662,17L42.773,54.966h-1.7l7.018-11.209L32.128,18.282Z" fill="url(#linear-gradient)"/>
  </g>
</svg>
