<svg id="Layer_1" xmlns="http://www.w3.org/2000/svg" viewBox="0 0 749 419.5"><style>.st1{fill:#20223e}.st2{fill:#f6f8f9}.st3{fill:#edf1f3}.st4{fill:#58596e}.st5{fill:#e40571}.st6{fill:none}.st7{fill:#1f213d}</style><path fill="#fff" d="M13.2 80h540.7v305.3H13.2z"/><path class="st1" d="M32.3 103.9h-2.8l1.4-4 1.4 4zm-.3-5.6h-2.2l-3.4 9.3h1.8l.8-2.2h3.7l.8 2.2h1.8L32 98.3zM40.8 102.3v3.4c-.4.4-.8.6-1.4.6-1.1 0-1.7-.8-1.7-2.2 0-1.3.7-2.2 1.8-2.2.5 0 1 .2 1.3.4zm0-1.6c-.4-.1-1-.2-1.5-.2-1.9 0-3.5 1.5-3.5 3.7 0 2.1 1.2 3.6 3 3.6.8 0 1.5-.4 1.9-.9v.7h1.7V97.4l-1.7.2v3.1zM50.6 100.7h-1.9l-1.6 5-1.8-5h-1.8l2.6 6.9H48zM52.8 103.5c.1-.8.7-1.6 1.6-1.6.9 0 1.3.6 1.3 1.5v.1h-2.9zm0 1l4.5-.1c.1-.3.1-.8.1-1.1 0-1.7-1-2.8-2.8-2.8-2 0-3.5 1.5-3.5 3.7s1.5 3.6 3.6 3.6c.9 0 1.8-.2 2.5-.6l-.2-1.5c-.6.4-1.4.6-2.1.6-1.3.1-2.1-.7-2.1-1.8zM60.6 103.3c.5-.8 1-1.2 1.6-1.2.3 0 .7.1 1 .3l.4-1.6c-.4-.2-.8-.3-1.2-.3-.8 0-1.3.4-1.8 1.1v-1.1l-1.7.3v6.8h1.7v-4.3zM69.6 105.6c0-1.3-1-1.8-2.3-2.1-.8-.2-1.4-.4-1.4-.9 0-.4.4-.7 1-.7s1.5.2 2.1.6l.4-1.4c-.6-.3-1.6-.5-2.5-.5-1.6 0-2.7.8-2.7 2.1s1 1.8 2.3 2.1c.8.2 1.4.4 1.4.9s-.4.8-1.1.8c-.8 0-1.6-.3-2.3-.6l-.4 1.4c.7.4 1.8.6 2.7.6 1.7-.1 2.8-1 2.8-2.3zM72.4 103.5c.1-.8.7-1.6 1.6-1.6.9 0 1.3.6 1.3 1.5v.1h-2.9zm0 1l4.5-.1c.1-.3.1-.8.1-1.1 0-1.7-1-2.8-2.8-2.8-2 0-3.5 1.5-3.5 3.7s1.5 3.6 3.6 3.6c.9 0 1.8-.2 2.5-.6l-.2-1.5c-.6.4-1.4.6-2.1.6-1.3.1-2.1-.7-2.1-1.8zM83.7 102.8v-3h1.2c1.3 0 2 .5 2 1.4 0 1-.7 1.5-1.8 1.6h-1.4zm.1 1.5l1.3-.1 2.1 3.4h2.1l-2.4-3.8c1.3-.4 2-1.3 2-2.7 0-1.7-1.2-2.8-3.6-2.8h-3.2v9.3h1.8v-3.3zM91.6 103.5c.1-.8.7-1.6 1.6-1.6.9 0 1.3.6 1.3 1.5v.1h-2.9zm-.1 1l4.5-.1c.1-.3.1-.8.1-1.1 0-1.7-1-2.8-2.8-2.8-2 0-3.5 1.5-3.5 3.7s1.5 3.6 3.6 3.6c.9 0 1.8-.2 2.5-.6l-.2-1.5c-.6.4-1.4.6-2.1.6-1.2.1-2-.7-2.1-1.8zM101.2 105.9c-.3.3-.8.6-1.3.6-.6 0-1-.4-1-.9 0-.7.6-1.1 2.3-1.3v1.6zm.1.9c.3.7.9 1.1 2.2.9l.1-1.3c-.5 0-.6-.1-.6-.6v-2.4c0-1.9-.8-2.8-2.9-2.8-1.1 0-2.2.4-2.9.8l.4 1.4c.7-.4 1.6-.7 2.3-.7 1 0 1.4.4 1.4 1.3v.2c-3.1.1-4 1.2-4 2.4 0 1.1.9 1.9 2.1 1.9.7-.1 1.3-.5 1.9-1.1zM110.3 107.2l-.3-1.4c-.5.3-1.2.5-1.9.5-1.2 0-1.9-.8-1.9-2.2 0-1.3.7-2.2 1.9-2.2.6 0 1.3.2 1.9.5l.4-1.4c-.6-.4-1.4-.6-2.4-.6-2.1 0-3.6 1.4-3.6 3.7 0 2.2 1.3 3.6 3.5 3.6.9.1 1.8-.1 2.4-.5zM115.7 107.5l-.2-1.4c-.4.1-.7.2-1.1.2-.6 0-.9-.3-.9-.9l.1-3.2h2v-1.4h-1.9v-1.6H112v1.5l-1.1.3v1.1l1.1.1-.1 3.2c-.1 1.6.7 2.3 2.3 2.3.5.1 1 0 1.5-.2zM118.8 107.6v-7l-1.7.3v6.8h1.7zm.2-9.2c0-.6-.4-1.1-1.1-1.1-.7 0-1.1.4-1.1 1.1 0 .6.4 1.1 1.1 1.1.7 0 1.1-.4 1.1-1.1zM125.5 104.2c0 1.3-.6 2.2-1.7 2.2s-1.8-.9-1.8-2.2c0-1.3.6-2.2 1.8-2.2 1-.1 1.7.8 1.7 2.2zm1.7-.1c0-2.3-1.4-3.6-3.5-3.6-2 0-3.5 1.4-3.5 3.7 0 2.3 1.5 3.6 3.5 3.6s3.5-1.4 3.5-3.7zM134.9 107.6v-4.7c0-1.5-.8-2.4-2.2-2.4-.8 0-1.6.4-2.3 1.1v-1.1l-1.7.2v6.8h1.7v-4.9c.3-.3.9-.6 1.5-.6.8 0 1.2.3 1.2 1.3v4.2h1.8z"/><path class="st2" d="M13.2 122h540.7v32.9H13.2z"/><path class="st1" d="M28.2 143.5c-1.1 0-1.9-.4-2.7-.9l-.3.8c.8.5 1.9.9 3 .9 1.9 0 3.1-1.1 3.1-2.7 0-1.7-1.3-2.3-2.7-2.7-1.4-.4-2.3-.8-2.3-1.9 0-.8.7-1.6 2.1-1.6.8 0 1.7.3 2.4.8l.3-.8c-.8-.5-1.7-.8-2.8-.8-1.7 0-3 1.1-3 2.5 0 1.6 1.4 2.2 2.7 2.6 1.5.4 2.3.9 2.3 1.9.1 1.2-.8 1.9-2.1 1.9zM38.3 140.8c0 1.6-.9 2.7-2.4 2.7-1.4 0-2.4-1.1-2.4-2.8 0-1.6.9-2.7 2.4-2.7 1.4 0 2.4 1.2 2.4 2.8zm.9 0c0-2.2-1.4-3.6-3.3-3.6s-3.3 1.4-3.3 3.6 1.4 3.6 3.3 3.6c1.8 0 3.3-1.5 3.3-3.6zM50.3 144.2v-4.6c0-1.5-.8-2.3-2.1-2.3-.8 0-1.6.4-2.4 1.1-.3-.8-1-1.1-1.8-1.1-.7 0-1.5.3-2.1.9v-.9l-.9.2v6.8h.9V139c.5-.5 1.2-.8 1.9-.8 1 0 1.4.5 1.4 1.7v4.4h.9v-4.6-.6c.5-.5 1.2-.9 1.9-.9 1 0 1.4.5 1.4 1.7v4.4h.9zM57.8 144.2v-4.7c0-1.5-.8-2.3-2.2-2.3-.7 0-1.6.4-2.3 1.1v-1.1l-.9.2v6.8h.9v-5.1c.6-.6 1.3-1 2.1-1 1 0 1.5.5 1.5 1.7v4.4h.9zM65.1 140.8c0 1.6-.9 2.7-2.4 2.7-1.4 0-2.4-1.1-2.4-2.8 0-1.6.9-2.7 2.4-2.7s2.4 1.2 2.4 2.8zm.9 0c0-2.2-1.4-3.6-3.3-3.6s-3.3 1.4-3.3 3.6 1.4 3.6 3.3 3.6 3.3-1.5 3.3-3.6zM68.6 144.2V134l-.9.2v10zM71.3 140.1c.1-1.1.9-2.1 2.1-2.1 1.1 0 1.6.7 1.6 1.7v.3l-3.7.1zm0 .7h4.6c.1-.3.1-.7.1-1.1 0-1.5-1-2.5-2.5-2.5-1.8 0-3.2 1.5-3.2 3.6s1.3 3.5 3.3 3.5c.8 0 1.6-.2 2.2-.6l-.2-.8c-.5.3-1.2.6-2 .6-1.4 0-2.3-1.1-2.3-2.7zM83.1 144.2v-4.7c0-1.5-.8-2.3-2.2-2.3-.7 0-1.6.4-2.3 1.1v-1.1l-.9.2v6.8h.9v-5.1c.6-.6 1.3-1 2.1-1 1 0 1.5.5 1.5 1.7v4.4h.9zM90.2 143.8l-.2-.8c-.5.3-1.2.6-1.9.6-1.4 0-2.4-1.1-2.4-2.7s.9-2.7 2.4-2.7c.7 0 1.4.2 1.9.5l.2-.8c-.6-.4-1.3-.6-2.1-.6-1.9 0-3.3 1.5-3.3 3.6s1.3 3.6 3.3 3.6c.8-.1 1.5-.3 2.1-.7zM92.4 140.1c.1-1.1.9-2.1 2.1-2.1 1.1 0 1.6.7 1.6 1.7v.3l-3.7.1zm-.1.7h4.6c.1-.3.1-.7.1-1.1 0-1.5-1-2.5-2.5-2.5-1.8 0-3.2 1.5-3.2 3.6s1.3 3.5 3.3 3.5c.8 0 1.6-.2 2.2-.6l-.2-.8c-.5.3-1.2.6-2 .6-1.3 0-2.3-1.1-2.3-2.7z"/><path class="st3" d="M13.2 154.9h540.7v32.9H13.2z"/><path class="st1" d="M30.7 173.6h-3.5l1.8-4.8 1.7 4.8zm-1.1-5.7h-1.1l-3.5 9.3h1l1-2.7h4.2l1 2.7h1l-3.6-9.3zM39.7 177.1v-4.7c0-1.5-.8-2.3-2.2-2.3-.7 0-1.6.4-2.3 1.1v-1.1l-.9.2v6.8h.9V172c.6-.6 1.3-1 2.1-1 1 0 1.5.5 1.5 1.7v4.4h.9zM45.2 177l-.2-.8c-.4.2-.9.3-1.3.3-.7 0-1-.4-1-1.3l.1-4.1H45v-.8h-2.3v-1.6H42v1.5l-1 .2v.6l1 .1-.1 4c0 1.4.5 2.1 1.8 2.1.4.1 1 0 1.5-.2zM47.6 177.1v-7l-.9.2v6.8h.9zm.1-9c0-.3-.2-.7-.6-.7-.4 0-.6.3-.6.7 0 .4.2.7.6.7.4 0 .6-.4.6-.7zM54.7 176.7l-.2-.8c-.5.3-1.2.6-1.9.6-1.4 0-2.4-1.1-2.4-2.7s.9-2.7 2.4-2.7c.7 0 1.4.2 1.9.5l.2-.8c-.6-.4-1.3-.6-2.1-.6-1.9 0-3.3 1.5-3.3 3.6s1.3 3.6 3.3 3.6c.8-.1 1.5-.3 2.1-.7zM61.8 177.1v-4.7c0-1.5-.8-2.3-2.1-2.3-.8 0-1.6.4-2.4 1.1v-4.3l-.9.2v10h.9V172c.6-.6 1.3-1 2.1-1 1 0 1.5.5 1.5 1.7v4.4h.9zM69.2 173.7c0 1.6-.9 2.7-2.4 2.7s-2.4-1.1-2.4-2.8c0-1.6.9-2.7 2.4-2.7 1.4.1 2.4 1.2 2.4 2.8zm.9 0c0-2.2-1.4-3.6-3.3-3.6s-3.3 1.4-3.3 3.6 1.4 3.6 3.3 3.6 3.3-1.4 3.3-3.6zM72.7 177.1v-10.2l-.9.2v10zM75.8 177.1v-7l-.9.2v6.8h.9zm.1-9c0-.3-.2-.7-.6-.7-.4 0-.6.3-.6.7 0 .4.2.7.6.7.4 0 .6-.4.6-.7zM83.3 177.1v-4.7c0-1.5-.8-2.3-2.2-2.3-.7 0-1.6.4-2.3 1.1v-1.1l-.9.2v6.8h.9V172c.6-.6 1.3-1 2.1-1 1 0 1.5.5 1.5 1.7v4.4h.9zM85.9 173c.1-1.1.9-2.1 2.1-2.1 1.1 0 1.6.7 1.6 1.7v.3l-3.7.1zm0 .7h4.6c.1-.3.1-.7.1-1.1 0-1.5-1-2.5-2.5-2.5-1.8 0-3.2 1.5-3.2 3.6s1.3 3.5 3.3 3.5c.8 0 1.6-.2 2.2-.6l-.2-.8c-.5.3-1.2.6-2 .6-1.4 0-2.3-1.1-2.3-2.7zM93.3 172.8c.5-1.2 1.2-1.7 1.9-1.7.4 0 .7.1 1 .3l.2-.9c-.3-.2-.7-.3-1.2-.3-.9 0-1.6.6-2 1.5v-1.5l-.9.2v6.8h.9v-4.4zM98 177.1c-.9.2-1.5.9-1.5 1.7 0 1.2 1.2 2 3.1 2 1.9 0 3.6-1 3.6-2.5 0-1.1-.8-1.8-2.8-1.8h-.9c-1.2 0-1.5-.3-1.5-.7 0-.4.4-.7.8-.8.3.1.6.2 1 .2 1.5 0 2.6-1.1 2.6-2.5 0-.5-.2-1.2-.5-1.5l1.5.1v-.9l-1.9.1c-.4-.2-.9-.4-1.6-.4-1.6 0-2.7 1.1-2.7 2.5 0 .9.4 1.7 1.1 2.1-.6.2-1.1.7-1.1 1.3-.1.5.2.9.8 1.1zm.8.2h1.4c1.3 0 2.1.3 2.1 1.1 0 .9-1.1 1.6-2.5 1.6s-2.3-.6-2.3-1.4c-.1-.5.5-1.1 1.3-1.3zm-.8-4.6c0-1.1.7-1.8 1.7-1.8 1.1 0 1.7.8 1.7 1.8s-.7 1.8-1.7 1.8c-1-.1-1.7-.8-1.7-1.8zM105.4 177.1v-7l-.9.2v6.8h.9zm.1-9c0-.3-.2-.7-.6-.7-.4 0-.6.3-.6.7 0 .4.2.7.6.7.4 0 .6-.4.6-.7zM112.5 176.7l-.2-.8c-.5.3-1.2.6-1.9.6-1.4 0-2.4-1.1-2.4-2.7s.9-2.7 2.4-2.7c.7 0 1.4.2 1.9.5l.2-.8c-.6-.4-1.3-.6-2.1-.6-1.9 0-3.3 1.5-3.3 3.6s1.3 3.6 3.3 3.6c.8-.1 1.5-.3 2.1-.7zM118.1 173c.1-1.1.9-2.1 2.1-2.1 1.1 0 1.6.7 1.6 1.7v.3l-3.7.1zm0 .7h4.6c.1-.3.1-.7.1-1.1 0-1.5-1-2.5-2.5-2.5-1.8 0-3.2 1.5-3.2 3.6s1.3 3.5 3.3 3.5c.8 0 1.6-.2 2.2-.6l-.2-.8c-.5.3-1.2.6-2 .6-1.4 0-2.3-1.1-2.3-2.7zM125.6 171.2h3.6v5.9h.9v-5.9h2.1v-.8h-2.1v-1.1c0-1.1.4-1.6 1.1-1.6.4 0 .7.1 1.1.3l.2-.8c-.3-.1-.8-.3-1.3-.3-1.2 0-2 .7-2 2.4v1.1h-3.6v-1c0-1.1.4-1.6 1.1-1.6.4 0 .7.1 1 .3l.2-.8c-.3-.1-.8-.3-1.2-.3-1.2 0-2 .7-2 2.4v.9l-1 .2-.1.6 1.1.1v5.9h.9v-5.9zM134 173c.1-1.1.9-2.1 2.1-2.1 1.1 0 1.6.7 1.6 1.7v.3l-3.7.1zm-.1.7h4.6c.1-.3.1-.7.1-1.1 0-1.5-1-2.5-2.5-2.5-1.8 0-3.2 1.5-3.2 3.6s1.3 3.5 3.3 3.5c.8 0 1.6-.2 2.2-.6l-.2-.8c-.5.3-1.2.6-2 .6-1.3 0-2.2-1.1-2.3-2.7zM145.4 176.7l-.2-.8c-.5.3-1.2.6-1.9.6-1.4 0-2.4-1.1-2.4-2.7s.9-2.7 2.4-2.7c.7 0 1.4.2 1.9.5l.2-.8c-.6-.4-1.3-.6-2.1-.6-1.9 0-3.3 1.5-3.3 3.6s1.3 3.6 3.3 3.6c.8-.1 1.5-.3 2.1-.7zM150.5 177l-.2-.8c-.4.2-.9.3-1.3.3-.7 0-1-.4-1-1.3l.1-4.1h2.3v-.8h-2.3v-1.6h-.9v1.5l-1 .2v.6l1 .1-.1 4c0 1.4.5 2.1 1.8 2.1.5.1 1.1 0 1.6-.2zM156 175.3c0-1.3-1-1.7-2-2-.9-.3-1.7-.5-1.7-1.3 0-.7.5-1 1.4-1 .6 0 1.3.2 1.9.5l.3-.8c-.6-.3-1.3-.5-2.1-.5-1.3 0-2.3.7-2.3 2 0 1.2 1 1.6 2 1.9.8.3 1.7.5 1.7 1.3 0 .7-.7 1.1-1.5 1.1-.7 0-1.4-.2-2-.6l-.3.8c.6.4 1.4.6 2.2.6 1.4 0 2.4-.8 2.4-2z"/><path class="st2" d="M13.2 187.8h540.7v32.9H13.2z"/><path class="st1" d="M31.3 207.5c0 1.1-.7 1.7-2.3 1.7h-2.1v-3.3h1.9c1.6-.1 2.5.5 2.5 1.6zm-.3-4.2c0 1.1-.9 1.7-2.3 1.7h-1.8v-3.3h2c1.4-.1 2.1.6 2.1 1.6zm-.8 2c1.2-.3 1.8-1.2 1.8-2.1 0-1.4-.9-2.4-3.2-2.4h-2.9v9.3h3c2.3 0 3.3-1.1 3.3-2.6 0-1.1-.7-1.9-2-2.2zM37.5 209.2c.1.7.6 1 1.5 1l.1-.8c-.6 0-.7-.2-.7-.7v-3.3c0-1.7-.9-2.4-2.4-2.4-.9 0-1.9.4-2.5.8l.2.9c.6-.4 1.5-.8 2.2-.8 1.1 0 1.6.5 1.6 1.6v.4c-3.2.2-4.1 1.2-4.1 2.4 0 1.1.9 1.9 2.1 1.9.8 0 1.5-.4 2-1zm0-.7c-.4.5-1 .9-1.8.9s-1.4-.5-1.4-1.2c0-.9.8-1.4 3.2-1.7v2zM41.3 210v-10.1l-.9.1v10zM47.1 209.2c.1.7.6 1 1.5 1l.1-.8c-.6 0-.7-.2-.7-.7v-3.3c0-1.7-.9-2.4-2.4-2.4-.9 0-1.9.4-2.5.8l.2.9c.6-.4 1.5-.8 2.2-.8 1.1 0 1.6.5 1.6 1.6v.4c-3.2.2-4.1 1.2-4.1 2.4 0 1.1.9 1.9 2.1 1.9.7 0 1.5-.4 2-1zm-.1-.7c-.4.5-1 .9-1.8.9s-1.4-.5-1.4-1.2c0-.9.8-1.4 3.2-1.7v2zM55.4 210v-4.7c0-1.5-.8-2.3-2.2-2.3-.7 0-1.6.4-2.3 1.1V203l-.9.2v6.8h.9v-5.1c.6-.6 1.3-1 2.1-1 1 0 1.5.5 1.5 1.7v4.4h.9zM62.4 209.6l-.2-.8c-.5.3-1.2.6-1.9.6-1.4 0-2.4-1.1-2.4-2.7s.9-2.7 2.4-2.7c.7 0 1.4.2 1.9.5l.2-.8c-.6-.4-1.3-.6-2.1-.6-1.9 0-3.3 1.5-3.3 3.6s1.3 3.6 3.3 3.6c.8-.1 1.6-.3 2.1-.7zM64.6 205.9c.1-1.1.9-2.1 2.1-2.1 1.1 0 1.6.7 1.6 1.7v.3l-3.7.1zm0 .8h4.6c.1-.3.1-.7.1-1.1 0-1.5-1-2.5-2.5-2.5-1.8 0-3.2 1.5-3.2 3.6s1.3 3.5 3.3 3.5c.8 0 1.6-.2 2.2-.6l-.2-.8c-.5.3-1.2.6-2 .6-1.4 0-2.3-1.1-2.3-2.7zM79 204.4v4.2c-.5.4-1.1.8-1.8.8-1.4 0-2.3-1.1-2.3-2.7s.9-2.8 2.4-2.8c.6 0 1.3.2 1.7.5zm0-.9c-.4-.2-1.1-.4-1.6-.4-2 0-3.4 1.5-3.4 3.6s1.2 3.5 3 3.5c.8 0 1.5-.4 2-.8v.6h.9v-10.2l-.9.2v3.5zM83 210v-7l-.9.2v6.8h.9zm.1-9c0-.3-.2-.7-.6-.7-.4 0-.6.3-.6.7 0 .4.2.7.6.7.4 0 .6-.3.6-.7zM89.2 208.2c0-1.3-1-1.7-2-2-.9-.3-1.7-.5-1.7-1.3 0-.7.5-1 1.4-1 .6 0 1.3.2 1.9.5l.3-.8c-.6-.3-1.3-.5-2.1-.5-1.3 0-2.3.7-2.3 2 0 1.2 1 1.6 2 1.9.8.3 1.7.5 1.7 1.3 0 .7-.7 1.1-1.5 1.1-.7 0-1.4-.2-2-.6l-.3.8c.6.4 1.4.6 2.2.6 1.3 0 2.4-.8 2.4-2zM96.1 206.7c0 1.6-.9 2.7-2.4 2.7-1.4 0-2.4-1.1-2.4-2.8 0-1.6.9-2.7 2.4-2.7 1.4 0 2.4 1.1 2.4 2.8zm.9-.1c0-2.2-1.4-3.6-3.3-3.6s-3.3 1.4-3.3 3.6 1.4 3.6 3.3 3.6 3.3-1.4 3.3-3.6zM99.6 205.7c.5-1.2 1.2-1.7 1.9-1.7.4 0 .7.1 1 .3l.2-.9c-.3-.2-.7-.3-1.2-.3-.9 0-1.6.6-2 1.5v-1.5l-.9.2v6.8h.9v-4.4zM108.4 204.4v4.2c-.5.4-1.1.8-1.8.8-1.4 0-2.3-1.1-2.3-2.7s.9-2.8 2.4-2.8c.7 0 1.3.2 1.7.5zm0-.9c-.4-.2-1.1-.4-1.6-.4-2 0-3.4 1.5-3.4 3.6s1.2 3.5 3 3.5c.8 0 1.5-.4 2-.8v.6h.9v-10.2l-.9.2v3.5zM112 205.9c.1-1.1.9-2.1 2.1-2.1 1.1 0 1.6.7 1.6 1.7v.3l-3.7.1zm-.1.8h4.6c.1-.3.1-.7.1-1.1 0-1.5-1-2.5-2.5-2.5-1.8 0-3.2 1.5-3.2 3.6s1.3 3.5 3.3 3.5c.8 0 1.6-.2 2.2-.6l-.2-.8c-.5.3-1.2.6-2 .6-1.3 0-2.2-1.1-2.3-2.7zM119.3 205.7c.5-1.2 1.2-1.7 1.9-1.7.4 0 .7.1 1 .3l.2-.9c-.3-.2-.7-.3-1.2-.3-.9 0-1.6.6-2 1.5v-1.5l-.9.2v6.8h.9v-4.4zM127.8 208.2c0-1.3-1-1.7-2-2-.9-.3-1.7-.5-1.7-1.3 0-.7.5-1 1.4-1 .6 0 1.3.2 1.9.5l.3-.8c-.6-.3-1.3-.5-2.1-.5-1.3 0-2.3.7-2.3 2 0 1.2 1 1.6 2 1.9.8.3 1.7.5 1.7 1.3 0 .7-.7 1.1-1.5 1.1-.7 0-1.4-.2-2-.6l-.3.8c.6.4 1.4.6 2.2.6 1.3 0 2.4-.8 2.4-2zM132.1 199.6h-.7l-3.6 13.4h.7zM136.5 200c-.3-.1-.8-.3-1.2-.3-1.2 0-2 .7-2 2.4v1.1l-1 .2-.1.6 1.1.1v5.9h.9v-5.9h2.1v-.8h-2.1v-1.1c0-1.1.4-1.6 1.1-1.6.4 0 .7.1 1 .3l.2-.9zM141 209.2c.1.7.6 1 1.5 1l.1-.8c-.6 0-.7-.2-.7-.7v-3.3c0-1.7-.9-2.4-2.4-2.4-.9 0-1.9.4-2.5.8l.2.9c.6-.4 1.5-.8 2.2-.8 1.1 0 1.6.5 1.6 1.6v.4c-3.2.2-4.1 1.2-4.1 2.4 0 1.1.9 1.9 2.1 1.9.8 0 1.5-.4 2-1zm0-.7c-.4.5-1 .9-1.8.9s-1.4-.5-1.4-1.2c0-.9.8-1.4 3.2-1.7v2zM144.8 210v-10.1l-.9.1v10zM147.9 210v-10.1l-.9.1v10z"/><path class="st3" d="M13.2 220.7h540.7v32.9H13.2z"/><path class="st1" d="M33.2 242.9v-9.2h-.9v4.2h-5.5v-4.2h-.9v9.2h.9v-4.2h5.5v4.2zM36 238.9c.1-1.1.9-2.1 2.1-2.1 1.1 0 1.6.7 1.6 1.7v.3l-3.7.1zm0 .7h4.6c.1-.3.1-.7.1-1.1 0-1.5-1-2.5-2.5-2.5-1.8 0-3.2 1.5-3.2 3.6s1.3 3.5 3.3 3.5c.8 0 1.6-.2 2.2-.6l-.2-.8c-.5.3-1.2.6-2 .6-1.4 0-2.3-1.1-2.3-2.7zM46 242.1c.1.7.6 1 1.5 1l.1-.8c-.6 0-.7-.2-.7-.7v-3.3c0-1.7-.9-2.4-2.4-2.4-.9 0-1.9.4-2.5.8l.2.9c.6-.4 1.5-.8 2.2-.8 1.1 0 1.6.5 1.6 1.6v.4c-3.2.2-4.1 1.2-4.1 2.4 0 1.1.9 1.9 2.1 1.9.8 0 1.5-.4 2-1zm0-.6c-.4.5-1 .9-1.8.9s-1.4-.5-1.4-1.2c0-.9.8-1.4 3.2-1.7v2zM53.5 237.4v4.2c-.5.4-1.1.8-1.8.8-1.4 0-2.3-1.1-2.3-2.7s.9-2.8 2.4-2.8c.7-.1 1.3.1 1.7.5zm0-1c-.4-.2-1.1-.4-1.6-.4-2 0-3.4 1.5-3.4 3.6s1.2 3.5 3 3.5c.8 0 1.5-.4 2-.8v.6h.9v-10.2l-.9.2v3.5zM60.1 242.1c.1.7.6 1 1.5 1l.1-.8c-.6 0-.7-.2-.7-.7v-3.3c0-1.7-.9-2.4-2.4-2.4-.9 0-1.9.4-2.5.8l.2.9c.6-.4 1.5-.8 2.2-.8 1.1 0 1.6.5 1.6 1.6v.4c-3.2.2-4.1 1.2-4.1 2.4 0 1.1.9 1.9 2.1 1.9.8 0 1.5-.4 2-1zm0-.6c-.4.5-1 .9-1.8.9s-1.4-.5-1.4-1.2c0-.9.8-1.4 3.2-1.7v2zM68 242.6l-.2-.8c-.5.3-1.2.6-1.9.6-1.4 0-2.4-1.1-2.4-2.7s.9-2.7 2.4-2.7c.7 0 1.4.2 1.9.5l.2-.8c-.6-.4-1.3-.6-2.1-.6-1.9 0-3.3 1.5-3.3 3.6s1.3 3.6 3.3 3.6c.8-.2 1.5-.4 2.1-.7zM75.1 242.9v-4.7c0-1.5-.8-2.3-2.1-2.3-.8 0-1.6.4-2.4 1.1v-4.3l-.9.2v10h.9v-5.1c.6-.6 1.3-1 2.1-1 1 0 1.5.5 1.5 1.7v4.4h.9zM77.8 238.9c.1-1.1.9-2.1 2.1-2.1 1.1 0 1.6.7 1.6 1.7v.3l-3.7.1zm-.1.7h4.6c.1-.3.1-.7.1-1.1 0-1.5-1-2.5-2.5-2.5-1.8 0-3.2 1.5-3.2 3.6s1.3 3.5 3.3 3.5c.8 0 1.6-.2 2.2-.6l-.2-.8c-.5.3-1.2.6-2 .6-1.4 0-2.3-1.1-2.3-2.7z"/><path class="st2" d="M13.2 253.6h540.7v32.9H13.2z"/><path class="st1" d="M30.7 272.4h-3.5l1.8-4.8 1.7 4.8zm-1.1-5.8h-1.1l-3.5 9.3h1l1-2.7h4.2l1 2.7h1l-3.6-9.3zM35.2 272.5l3.1 3.4h1.2l-3.3-3.6 3.2-3.2h-1.1l-3.1 3.1v-6.5l-.9.2v10h.9v-3.4zM44.3 275.1c.1.7.6 1 1.5 1l.1-.8c-.6 0-.7-.2-.7-.7v-3.3c0-1.7-.9-2.4-2.4-2.4-.9 0-1.9.4-2.5.8l.2.9c.6-.4 1.5-.8 2.2-.8 1.1 0 1.6.5 1.6 1.6v.4c-3.2.2-4.1 1.2-4.1 2.4 0 1.1.9 1.9 2.1 1.9.8 0 1.5-.5 2-1zm0-.7c-.4.5-1 .9-1.8.9s-1.4-.5-1.4-1.2c0-.9.8-1.4 3.2-1.7v2zM50.6 275.7l-.2-.8c-.4.2-.9.3-1.3.3-.7 0-1-.4-1-1.3l.1-4.1h2.3v-.8h-2.3v-1.6h-.9v1.5l-1 .2v.6l1 .1-.1 4c0 1.4.5 2.1 1.8 2.1.6.2 1.1.1 1.6-.2zM57.5 275.9v-4.7c0-1.5-.8-2.3-2.1-2.3-.8 0-1.6.4-2.4 1.1v-4.3l-.9.2v10h.9v-5.1c.6-.6 1.3-1 2.1-1 1 0 1.5.5 1.5 1.7v4.4h.9zM60.5 275.9v-7l-.9.2v6.8h.9zm.2-9.1c0-.3-.2-.7-.6-.7-.4 0-.6.3-.6.7 0 .4.2.7.6.7.4 0 .6-.3.6-.7zM66.7 274c0-1.3-1-1.7-2-2-.9-.3-1.7-.5-1.7-1.3 0-.7.5-1 1.4-1 .6 0 1.3.2 1.9.5l.3-.8c-.6-.3-1.3-.5-2.1-.5-1.3 0-2.3.7-2.3 2 0 1.2 1 1.6 2 1.9.8.3 1.7.5 1.7 1.3 0 .7-.7 1.1-1.5 1.1-.7 0-1.4-.2-2-.6l-.3.8c.6.4 1.4.6 2.2.6 1.4.1 2.4-.7 2.4-2zM69.3 275.9v-7l-.9.2v6.8h.9zm.2-9.1c0-.3-.2-.7-.6-.7-.4 0-.6.3-.6.7 0 .4.2.7.6.7.4 0 .6-.3.6-.7zM75.1 275.1c.1.7.6 1 1.5 1l.1-.8c-.6 0-.7-.2-.7-.7v-3.3c0-1.7-.9-2.4-2.4-2.4-.9 0-1.9.4-2.5.8l.2.9c.6-.4 1.5-.8 2.2-.8 1.1 0 1.6.5 1.6 1.6v.4c-3.2.2-4.1 1.2-4.1 2.4 0 1.1.9 1.9 2.1 1.9.8 0 1.5-.5 2-1zm-.1-.7c-.4.5-1 .9-1.8.9s-1.4-.5-1.4-1.2c0-.9.8-1.4 3.2-1.7v2z"/><path class="st3" d="M13.2 286.6h540.7v32.9H13.2z"/><path class="st1" d="M32.8 299.5h-1l-3 8.3-3-8.3h-.9l3.3 9.3h1.2zM38.7 305.4c0 1.6-.9 2.7-2.4 2.7-1.4 0-2.4-1.1-2.4-2.8 0-1.6.9-2.7 2.4-2.7s2.4 1.1 2.4 2.8zm.9 0c0-2.2-1.4-3.6-3.3-3.6s-3.3 1.4-3.3 3.6 1.4 3.6 3.3 3.6 3.3-1.5 3.3-3.6zM50.7 308.8v-4.6c0-1.5-.8-2.3-2.1-2.3-.8 0-1.6.4-2.4 1.1-.3-.8-1-1.1-1.8-1.1-.7 0-1.5.3-2.1.9v-.9l-.9.2v6.8h.9v-5.3c.5-.5 1.2-.8 1.9-.8 1 0 1.4.5 1.4 1.7v4.4h.9v-4.6-.6c.5-.5 1.2-.9 1.9-.9 1 0 1.4.5 1.4 1.7v4.4h.9zM53.8 308.8v-7l-.9.2v6.8h.9zm.1-9c0-.3-.2-.7-.6-.7-.4 0-.6.3-.6.7 0 .4.2.7.6.7.4-.1.6-.4.6-.7zM59.3 308.7l-.2-.8c-.4.2-.9.3-1.3.3-.7 0-1-.4-1-1.3l.1-4.1h2.3v-.8H57v-1.6h-.9v1.5l-1 .2v.6l1 .1-.1 4c0 1.4.5 2.1 1.8 2.1.5.1 1 0 1.5-.2zM61.7 308.8v-7l-.9.2v6.8h.9zm.2-9c0-.3-.2-.7-.6-.7-.4 0-.6.3-.6.7 0 .4.2.7.6.7.4-.1.6-.4.6-.7zM69.3 308.8v-4.7c0-1.5-.8-2.3-2.2-2.3-.7 0-1.6.4-2.3 1.1v-1.1l-.9.2v6.8h.9v-5.1c.6-.6 1.3-1 2.1-1 1 0 1.5.5 1.5 1.7v4.4h.9zM71.9 308.8c-.9.2-1.5.9-1.5 1.7 0 1.2 1.2 2 3.1 2 1.9 0 3.6-1 3.6-2.5 0-1.1-.8-1.8-2.8-1.8h-.9c-1.2 0-1.5-.3-1.5-.7 0-.4.4-.7.8-.8.3.1.6.2 1 .2 1.5 0 2.6-1.1 2.6-2.5 0-.5-.2-1.2-.5-1.5l1.5.1v-.9l-1.9.1c-.4-.2-.9-.4-1.6-.4-1.6 0-2.7 1.1-2.7 2.5 0 .9.4 1.7 1.1 2.1-.6.2-1.1.7-1.1 1.3-.1.5.2.9.8 1.1zm.8.2h1.4c1.3 0 2.1.3 2.1 1.1 0 .9-1.1 1.6-2.5 1.6s-2.3-.6-2.3-1.4c-.1-.6.5-1.1 1.3-1.3zm-.8-4.6c0-1.1.7-1.8 1.7-1.8 1.1 0 1.7.8 1.7 1.8s-.7 1.8-1.7 1.8c-1.1-.1-1.7-.9-1.7-1.8z"/><path class="st2" d="M13.2 319.5h540.7v32.9H13.2z"/><path class="st1" d="M32.2 340.4l-5.2-8h-1.1v9.3h.9v-7.9l5.3 8h1v-9.4h-.9zM39 340.9c.1.7.6 1 1.5 1l.1-.8c-.6 0-.7-.2-.7-.7v-3.3c0-1.7-.9-2.4-2.4-2.4-.9 0-1.9.4-2.5.8l.2.9c.6-.4 1.5-.8 2.2-.8 1.1 0 1.6.5 1.6 1.6v.4c-3.2.2-4.1 1.2-4.1 2.4 0 1.1.9 1.9 2.1 1.9.8 0 1.5-.4 2-1zm-.1-.7c-.4.5-1 .9-1.8.9s-1.4-.5-1.4-1.2c0-.9.8-1.4 3.2-1.7v2zM41.8 334.9v4.7c0 1.5.8 2.3 2.1 2.3.8 0 1.6-.4 2.3-1.1v1.1l.9-.2v-6.8h-.9v5.1c-.5.6-1.3 1-2.1 1-1 0-1.5-.5-1.5-1.7v-4.4h-.8zM53.4 339.9c0-1.3-1-1.7-2-2-.9-.3-1.7-.5-1.7-1.3 0-.7.5-1 1.4-1 .6 0 1.3.2 1.9.5l.3-.8c-.6-.3-1.3-.5-2.1-.5-1.3 0-2.3.7-2.3 2 0 1.2 1 1.6 2 1.9.8.3 1.7.5 1.7 1.3 0 .7-.7 1.1-1.5 1.1-.7 0-1.4-.2-2-.6l-.3.8c.6.4 1.4.6 2.2.6 1.4 0 2.4-.8 2.4-2zM55.7 337.6c.1-1.1.9-2.1 2.1-2.1 1.1 0 1.6.7 1.6 1.7v.3l-3.7.1zm-.1.7h4.6c.1-.3.1-.7.1-1.1 0-1.5-1-2.5-2.5-2.5-1.8 0-3.2 1.5-3.2 3.6s1.3 3.5 3.3 3.5c.8 0 1.6-.2 2.2-.6l-.2-.8c-.5.3-1.2.6-2 .6-1.4 0-2.3-1.1-2.3-2.7zM65.7 340.9c.1.7.6 1 1.5 1l.1-.8c-.6 0-.7-.2-.7-.7v-3.3c0-1.7-.9-2.4-2.4-2.4-.9 0-1.9.4-2.5.8l.2.9c.6-.4 1.5-.8 2.2-.8 1.1 0 1.6.5 1.6 1.6v.4c-3.2.2-4.1 1.2-4.1 2.4 0 1.1.9 1.9 2.1 1.9.7 0 1.5-.4 2-1zm-.1-.7c-.4.5-1 .9-1.8.9s-1.4-.5-1.4-1.2c0-.9.8-1.4 3.2-1.7v2z"/><path class="st3" d="M13.2 352.4h540.7v32.9H13.2z"/><path class="st1" d="M30.7 371.1h-3.5l1.8-4.8 1.7 4.8zm-1.1-5.7h-1.1l-3.5 9.3h1l1-2.7h4.2l1 2.7h1l-3.6-9.3zM35.2 370.3c.5-1.2 1.2-1.7 1.9-1.7.4 0 .7.1 1 .3l.2-.9c-.3-.2-.7-.3-1.2-.3-.9 0-1.6.6-2 1.5v-1.5l-.9.2v6.8h.9v-4.4zM43.2 374.5l-.2-.8c-.4.2-.9.3-1.3.3-.7 0-1-.4-1-1.3l.1-4.1h2.3v-.8h-2.3v-1.6H40v1.5l-1 .2v.6l1 .1-.1 4c0 1.4.5 2.1 1.8 2.1.4.1 1 0 1.5-.2zM50.1 374.6V370c0-1.5-.8-2.3-2.1-2.3-.8 0-1.6.4-2.4 1.1v-4.3l-.9.2v10h.9v-5.1c.6-.6 1.3-1 2.1-1 1 0 1.5.5 1.5 1.7v4.4h.9zM53.1 370.3c.5-1.2 1.2-1.7 1.9-1.7.4 0 .7.1 1 .3l.2-.9c-.3-.2-.7-.3-1.2-.3-.9 0-1.6.6-2 1.5v-1.5l-.9.2v6.8h.9v-4.4zM60.9 373.8c.1.7.6 1 1.5 1l.1-.8c-.6 0-.7-.2-.7-.7V370c0-1.7-.9-2.4-2.4-2.4-.9 0-1.9.4-2.5.8l.2.9c.6-.4 1.5-.8 2.2-.8 1.1 0 1.6.5 1.6 1.6v.4c-3.2.2-4.1 1.2-4.1 2.4 0 1.1.9 1.9 2.1 1.9.8 0 1.5-.4 2-1zm0-.7c-.4.5-1 .9-1.8.9s-1.4-.5-1.4-1.2c0-.9.8-1.4 3.2-1.7v2zM64.8 374.6v-10.2l-1 .2v10zM67.4 374.6c-.9.2-1.5.9-1.5 1.7 0 1.2 1.2 2 3.1 2 1.9 0 3.6-1 3.6-2.5 0-1.1-.8-1.8-2.8-1.8h-.9c-1.2 0-1.5-.3-1.5-.7 0-.4.4-.7.8-.8.3.1.6.2 1 .2 1.5 0 2.6-1.1 2.6-2.5 0-.5-.2-1.2-.5-1.5l1.5.1v-.9l-1.9.1c-.4-.2-.9-.4-1.6-.4-1.6 0-2.7 1.1-2.7 2.5 0 .9.4 1.7 1.1 2.1-.6.2-1.1.7-1.1 1.3-.1.5.2.9.8 1.1zm.8.2h1.4c1.3 0 2.1.3 2.1 1.1 0 .9-1.1 1.6-2.5 1.6s-2.3-.6-2.3-1.4c-.1-.5.5-1.1 1.3-1.3zm-.8-4.6c0-1.1.7-1.8 1.7-1.8 1.1 0 1.7.8 1.7 1.8s-.7 1.8-1.7 1.8c-1-.1-1.7-.8-1.7-1.8zM74.8 374.6v-7l-.9.2v6.8h.9zm.1-9c0-.3-.2-.7-.6-.7-.4 0-.6.3-.6.7 0 .4.2.7.6.7.4 0 .6-.3.6-.7zM80.5 373.8c.1.7.6 1 1.5 1l.1-.8c-.6 0-.7-.2-.7-.7V370c0-1.7-.9-2.4-2.4-2.4-.9 0-1.9.4-2.5.8l.2.9c.6-.4 1.5-.8 2.2-.8 1.1 0 1.6.5 1.6 1.6v.4c-3.2.2-4.1 1.2-4.1 2.4 0 1.1.9 1.9 2.1 1.9.8 0 1.5-.4 2-1zm0-.7c-.4.5-1 .9-1.8.9s-1.4-.5-1.4-1.2c0-.9.8-1.4 3.2-1.7v2zM233.3 85.6h1.8v9.3h-1.8zM243.7 92.3l-4.4-6.7h-2v9.2h1.7v-6.7l4.4 6.8h2v-9.3h-1.7zM255.3 94.2v-4.3h-4.1v1.5h2.4v1.8c-.5.2-1.1.4-1.7.4-1.9 0-3-1.3-3-3.4 0-2 1.2-3.3 3-3.3.9 0 1.9.3 2.7.8l.6-1.6c-.8-.5-2.1-.8-3.3-.8-2.9 0-4.8 1.9-4.8 4.9 0 3 2 4.8 4.8 4.8 1.1 0 2.5-.3 3.4-.8zM259 90.1v-3h1.2c1.3 0 2 .5 2 1.4 0 1-.7 1.5-1.8 1.6H259zm0 1.4l1.3-.1 2.1 3.4h2.1l-2.4-3.8c1.3-.4 2-1.3 2-2.7 0-1.7-1.2-2.8-3.6-2.8h-3.2v9.3h1.8v-3.3zM272.2 94.8v-1.5h-4.6v-2.4h3.7v-1.5h-3.7v-2.3h4.6v-1.5h-6.4v9.2zM280.6 94.8v-1.6h-4.9l4.9-6.4v-1.2h-7.1v1.5h4.8l-4.9 6.5v1.2zM289 94.8v-1.6h-4.9l4.9-6.4v-1.2h-7.1v1.5h4.8l-4.9 6.5v1.2zM295.5 91.1h-2.8l1.4-4 1.4 4zm-.3-5.5H293l-3.4 9.3h1.8l.8-2.2h3.7l.8 2.2h1.8l-3.3-9.3zM235.5 116.5l.4-.7c-1.6-.8-3.6-3.1-3.6-6.3 0-3.2 2-5.5 3.6-6.3l-.4-.7c-1.7.9-4 3.3-4 6.9 0 3.8 2.4 6.2 4 7.1zM242.2 112.9v-4.7c0-1.5-.8-2.3-2.2-2.3-.7 0-1.6.4-2.3 1.1v-1.1l-.9.2v6.8h.9v-5.1c.6-.6 1.3-1 2.1-1 1 0 1.5.5 1.5 1.7v4.4h.9zM249.3 111.2l-.1-.8h-5.5l-.1.8h5.7zm0-2.6l.1-.8h-5.6l.1.8h5.4zM255.8 112.9v-.9h-4c2-1.5 3.7-2.6 3.7-4.2 0-1.3-1-2.1-2.4-2.1-1 0-1.8.4-2.5.9l.3.8c.7-.5 1.4-.9 2.1-.9 1 0 1.6.6 1.6 1.4 0 1.2-1.5 2.2-4 4.1v.8h5.2zM258 109.6v-.5c.6-.6 1.4-1 2.3-1 1.1 0 1.9.7 1.9 2s-.8 2.2-2.1 2.2-2.1-1.3-2.1-2.7zm-.9-.2c0 2 1.1 3.7 3.2 3.7 1.9 0 3-1.3 3-3.1s-1.3-2.8-2.7-2.8c-1 0-1.8.4-2.5 1 .4-1.9 1.9-3.4 4.4-4l-.3-.9c-3.5 1-5.1 3.6-5.1 6.1zM269.9 112.9v-.9h-4c2-1.5 3.7-2.6 3.7-4.2 0-1.3-1-2.1-2.4-2.1-1 0-1.8.4-2.5.9l.3.8c.7-.5 1.4-.9 2.1-.9 1 0 1.6.6 1.6 1.4 0 1.2-1.5 2.2-4 4.1v.8h5.2zM270.6 116.5c1.7-.9 4-3.3 4-6.9 0-3.6-2.3-6.1-4-6.9l-.4.7c1.6.8 3.6 3.1 3.6 6.3 0 3.1-2 5.4-3.6 6.3l.4.5zM283.9 116.5l.4-.7c-1.6-.8-3.6-3.1-3.6-6.3 0-3.2 2-5.5 3.6-6.3l-.4-.7c-1.7.9-4 3.3-4 6.9 0 3.8 2.4 6.2 4 7.1zM294.2 110.8c0 1-.7 1.8-1.8 1.8s-1.8-.8-1.8-1.8.7-1.8 1.8-1.8c1.2 0 1.8.9 1.8 1.8zm-5.6-5c0 1-.7 1.8-1.8 1.8s-1.8-.8-1.8-1.8.7-1.8 1.8-1.8c1.1-.1 1.8.8 1.8 1.8zm6.3 5c0-1.3-.9-2.4-2.5-2.4-1.5 0-2.5 1.1-2.5 2.4 0 1.3.9 2.5 2.5 2.5 1.5 0 2.5-1.1 2.5-2.5zm-1.1-7.3h-.8l-7.5 9.7h.8l7.5-9.7zm-4.5 2.3c0-1.3-.9-2.5-2.5-2.5-1.5 0-2.5 1.1-2.5 2.5 0 1.3.9 2.4 2.5 2.4 1.5 0 2.5-1.1 2.5-2.4zM295.3 116.5c1.7-.9 4-3.3 4-6.9 0-3.6-2.3-6.1-4-6.9l-.4.7c1.6.8 3.6 3.1 3.6 6.3 0 3.1-2 5.4-3.6 6.3l.4.5zM251.2 144.2h.9V137l-2.7 1 .1.8 1.7-.6zM260.5 140.7c0 1.6-1.1 2.8-2.7 2.8s-2.6-1.2-2.6-2.8c0-1.6 1.1-2.8 2.6-2.8 1.7 0 2.7 1.2 2.7 2.8zm1 0c0-2.2-1.5-3.7-3.6-3.7-2 0-3.6 1.5-3.6 3.7s1.5 3.7 3.6 3.7c2 0 3.6-1.5 3.6-3.7zM263.9 143.6c0-.4-.3-.7-.7-.7-.4 0-.7.3-.7.7 0 .4.3.8.7.8.4 0 .7-.4.7-.8zM270.3 140.5v.5c-.6.6-1.4 1-2.3 1-1.1 0-1.9-.7-1.9-2s.8-2.2 2.1-2.2c1.3.1 2.1 1.3 2.1 2.7zm.9.2c0-2-1.1-3.7-3.1-3.7-1.9 0-3.1 1.3-3.1 3.1s1.3 2.8 2.7 2.8c1 0 1.8-.4 2.5-1-.4 1.9-1.9 3.4-4.4 4l.3.9c3.5-1 5.1-3.6 5.1-6.1zM282 142.1c0 1-.7 1.8-1.8 1.8s-1.8-.8-1.8-1.8.7-1.8 1.8-1.8 1.8.8 1.8 1.8zm-5.6-5c0 1-.7 1.8-1.8 1.8s-1.8-.8-1.8-1.8.7-1.8 1.8-1.8c1.1-.1 1.8.7 1.8 1.8zm6.2 5c0-1.3-.9-2.4-2.5-2.4-1.5 0-2.5 1.1-2.5 2.4 0 1.3.9 2.5 2.5 2.5s2.5-1.2 2.5-2.5zm-1.1-7.4h-.8l-7.5 9.7h.8l7.5-9.7zm-4.5 2.4c0-1.3-.9-2.5-2.5-2.5-1.5 0-2.5 1.1-2.5 2.5 0 1.3.9 2.4 2.5 2.4s2.5-1.1 2.5-2.4zM253.5 174l.4-3h3.7v-.9h-4.4l-.6 4.6.3.3c.5-.2.9-.3 1.8-.3 1.4 0 2.2.9 2.2 2.1 0 1.4-1 2.2-2.3 2.2-.8 0-1.6-.3-2.2-.6l-.2.9c.6.3 1.5.6 2.4.6 1.8 0 3.2-1.3 3.2-3.2 0-1.6-1.2-2.8-3.1-2.8-.5 0-.8 0-1.2.1zM260.5 176.5c0-.4-.3-.7-.7-.7s-.7.3-.7.7c0 .4.3.8.7.8s.7-.4.7-.8zM266.1 176h-3.5l3.5-4.7v4.7zm2.4.9v-.9H267v-6.1h-.8l-4.8 6.4.1.6h4.5v2.9h.9v-2.9h1.6zM278.8 175c0 1-.7 1.8-1.8 1.8s-1.8-.8-1.8-1.8.7-1.8 1.8-1.8 1.8.8 1.8 1.8zm-5.6-5c0 1-.7 1.8-1.8 1.8s-1.8-.8-1.8-1.8.7-1.8 1.8-1.8c1.1-.1 1.8.7 1.8 1.8zm6.2 5c0-1.3-.9-2.4-2.5-2.4-1.5 0-2.5 1.1-2.5 2.4 0 1.3.9 2.5 2.5 2.5s2.5-1.1 2.5-2.5zm-1.1-7.4h-.8l-7.5 9.7h.8l7.5-9.7zm-4.5 2.4c0-1.3-.9-2.5-2.5-2.5-1.5 0-2.5 1.1-2.5 2.5 0 1.3.9 2.4 2.5 2.4s2.5-1.1 2.5-2.4zM257.9 208.9h-3.5l3.5-4.7v4.7zm2.3.9v-.9h-1.4v-6.1h-.8l-4.8 6.4.1.6h4.5v2.9h.9v-2.9h1.5zM262.7 209.5c0-.4-.3-.7-.7-.7s-.7.3-.7.7c0 .4.3.8.7.8s.7-.4.7-.8zM265.2 210h.9v-7.2l-2.6 1v.9l1.7-.7zM277.8 207.9c0 1-.7 1.8-1.8 1.8s-1.8-.8-1.8-1.8.7-1.8 1.8-1.8 1.8.9 1.8 1.8zm-5.7-5c0 1-.7 1.8-1.8 1.8s-1.8-.8-1.8-1.8.7-1.8 1.8-1.8c1.2 0 1.8.8 1.8 1.8zm6.3 5c0-1.3-.9-2.4-2.5-2.4-1.5 0-2.5 1.1-2.5 2.4 0 1.3.9 2.5 2.5 2.5s2.5-1.1 2.5-2.5zm-1.1-7.3h-.8l-7.5 9.7h.8l7.5-9.7zm-4.5 2.3c0-1.3-.9-2.5-2.5-2.5-1.5 0-2.5 1.1-2.5 2.5 0 1.3.9 2.4 2.5 2.4s2.5-1.1 2.5-2.4zM255.4 240.5c1.1-.4 2-1.3 2-2.4 0-1.3-1-2.3-2.7-2.3-1 0-2 .4-2.6 1l.3.8c.6-.5 1.4-.9 2.2-.9 1.1 0 1.8.5 1.8 1.5 0 1.2-1.3 1.9-3.1 2.3v.8c.5-.1.9-.1 1.3-.1 1.2 0 2.1.7 2.1 1.8 0 1.2-.9 1.9-2.2 1.9-.9 0-1.7-.3-2.2-.6l-.2.8c.6.4 1.5.6 2.4.6 1.8 0 3.2-1.1 3.2-2.9.1-1.2-.8-2.2-2.3-2.3zM260.6 242.4c0-.4-.3-.7-.7-.7-.4 0-.7.3-.7.7 0 .4.3.8.7.8.4-.1.7-.4.7-.8zM266.3 241.9h-3.5l3.5-4.7v4.7zm2.3.8v-.9h-1.4v-6.1h-.8l-4.8 6.4.1.6h4.5v2.9h.9v-2.9h1.5zM278.9 240.8c0 1-.7 1.8-1.8 1.8s-1.8-.8-1.8-1.8.7-1.8 1.8-1.8 1.8.9 1.8 1.8zm-5.6-5c0 1-.7 1.8-1.8 1.8s-1.8-.8-1.8-1.8.7-1.8 1.8-1.8 1.8.8 1.8 1.8zm6.3 5c0-1.3-.9-2.4-2.5-2.4-1.5 0-2.5 1.1-2.5 2.4 0 1.3.9 2.5 2.5 2.5 1.5 0 2.5-1.1 2.5-2.5zm-1.2-7.3h-.8l-7.5 9.7h.8l7.5-9.7zm-4.5 2.3c0-1.3-.9-2.5-2.5-2.5-1.5 0-2.5 1.1-2.5 2.5 0 1.3.9 2.4 2.5 2.4 1.6.1 2.5-1.1 2.5-2.4zM258.5 275.9v-.9h-4c2-1.5 3.7-2.6 3.7-4.2 0-1.3-1-2.1-2.4-2.1-1 0-1.8.4-2.5.9l.3.8c.7-.5 1.4-.9 2.1-.9 1 0 1.6.6 1.6 1.4 0 1.2-1.5 2.2-4 4.1v.8h5.2zM261.2 275.3c0-.4-.3-.7-.7-.7-.4 0-.7.3-.7.7 0 .4.3.8.7.8.4 0 .7-.4.7-.8zM266.8 269.8l-4.1 8.8h.9l4.2-9v-.7H262l-.1.9zM278.3 273.8c0 1-.7 1.8-1.8 1.8s-1.8-.8-1.8-1.8.7-1.8 1.8-1.8 1.8.8 1.8 1.8zm-5.7-5.1c0 1-.7 1.8-1.8 1.8s-1.8-.8-1.8-1.8.7-1.8 1.8-1.8c1.2 0 1.8.8 1.8 1.8zm6.3 5.1c0-1.3-.9-2.4-2.5-2.4-1.5 0-2.5 1.1-2.5 2.4 0 1.3.9 2.5 2.5 2.5 1.6-.1 2.5-1.2 2.5-2.5zm-1.1-7.4h-.8l-7.5 9.7h.8l7.5-9.7zm-4.5 2.3c0-1.3-.9-2.5-2.5-2.5-1.5 0-2.5 1.1-2.5 2.5 0 1.3.9 2.4 2.5 2.4 1.6.1 2.5-1.1 2.5-2.4zM258.1 308.8v-.9h-4c2-1.5 3.7-2.6 3.7-4.2 0-1.3-1-2.1-2.4-2.1-1 0-1.8.4-2.5.9l.3.8c.7-.5 1.4-.9 2.1-.9 1 0 1.6.6 1.6 1.4 0 1.2-1.5 2.2-4 4.1v.8h5.2zM260.8 308.2c0-.4-.3-.7-.7-.7-.4 0-.7.3-.7.7s.3.8.7.8c.4 0 .7-.4.7-.8zM262.7 305.5v-.5c.6-.6 1.4-1 2.3-1 1.1 0 1.9.7 1.9 2s-.8 2.2-2.1 2.2c-1.3-.1-2.1-1.3-2.1-2.7zm-.9-.2c0 2 1.1 3.7 3.2 3.7 1.9 0 3-1.3 3-3.1s-1.3-2.8-2.7-2.8c-1 0-1.8.4-2.5 1 .4-1.9 1.9-3.4 4.4-4l-.3-.9c-3.5.9-5.1 3.6-5.1 6.1zM278.7 306.7c0 1-.7 1.8-1.8 1.8s-1.8-.8-1.8-1.8.7-1.8 1.8-1.8 1.8.8 1.8 1.8zm-5.7-5.1c0 1-.7 1.8-1.8 1.8s-1.8-.8-1.8-1.8.7-1.8 1.8-1.8c1.2 0 1.8.8 1.8 1.8zm6.3 5.1c0-1.3-.9-2.4-2.5-2.4-1.5 0-2.5 1.1-2.5 2.4 0 1.3.9 2.5 2.5 2.5s2.5-1.2 2.5-2.5zm-1.1-7.4h-.8l-7.5 9.7h.8l7.5-9.7zm-4.5 2.3c0-1.3-.9-2.5-2.5-2.5-1.5 0-2.5 1.1-2.5 2.5 0 1.3.9 2.4 2.5 2.4 1.6.1 2.5-1 2.5-2.4zM258.7 341.7v-.9h-4c2-1.5 3.7-2.6 3.7-4.2 0-1.3-1-2.1-2.4-2.1-1 0-1.8.4-2.5.9l.3.8c.7-.5 1.4-.9 2.1-.9 1 0 1.6.6 1.6 1.4 0 1.2-1.5 2.2-4 4.1v.8h5.2zM261.3 341.1c0-.4-.3-.7-.7-.7s-.7.3-.7.7c0 .4.3.8.7.8s.7-.4.7-.8zM265.3 339.2c1.1-.4 2-1.3 2-2.4 0-1.3-1-2.3-2.7-2.3-1 0-2 .4-2.6 1l.3.8c.6-.5 1.4-.9 2.2-.9 1.1 0 1.8.5 1.8 1.5 0 1.2-1.3 1.9-3.1 2.3v.8c.5-.1.9-.1 1.3-.1 1.2 0 2.1.7 2.1 1.8 0 1.2-.9 1.9-2.2 1.9-.9 0-1.7-.3-2.2-.6l-.2.8c.6.4 1.5.6 2.4.6 1.8 0 3.2-1.1 3.2-2.9.1-1.1-.8-2.2-2.3-2.3zM278.1 339.6c0 1-.7 1.8-1.8 1.8s-1.8-.8-1.8-1.8.7-1.8 1.8-1.8 1.8.8 1.8 1.8zm-5.6-5c0 1-.7 1.8-1.8 1.8s-1.8-.8-1.8-1.8.7-1.8 1.8-1.8c1.1-.1 1.8.7 1.8 1.8zm6.3 5c0-1.3-.9-2.4-2.5-2.4-1.5 0-2.5 1.1-2.5 2.4 0 1.3.9 2.5 2.5 2.5 1.5 0 2.5-1.2 2.5-2.5zm-1.1-7.4h-.8l-7.5 9.7h.8l7.5-9.7zm-4.6 2.4c0-1.3-.9-2.5-2.5-2.5-1.5 0-2.5 1.1-2.5 2.5 0 1.3.9 2.4 2.5 2.4s2.5-1.1 2.5-2.4zM258.7 374.6v-.9h-4c2-1.5 3.7-2.6 3.7-4.2 0-1.3-1-2.1-2.4-2.1-1 0-1.8.4-2.5.9l.3.8c.7-.5 1.4-.9 2.1-.9 1 0 1.6.6 1.6 1.4 0 1.2-1.5 2.2-4 4.1v.8h5.2zM261.3 374c0-.4-.3-.7-.7-.7s-.7.3-.7.7c0 .4.3.8.7.8s.7-.4.7-.8zM265.3 372.1c1.1-.4 2-1.3 2-2.4 0-1.3-1-2.3-2.7-2.3-1 0-2 .4-2.6 1l.3.8c.6-.5 1.4-.9 2.2-.9 1.1 0 1.8.5 1.8 1.5 0 1.2-1.3 1.9-3.1 2.3v.8c.5-.1.9-.1 1.3-.1 1.2 0 2.1.7 2.1 1.8 0 1.2-.9 1.9-2.2 1.9-.9 0-1.7-.3-2.2-.6l-.2.8c.6.4 1.5.6 2.4.6 1.8 0 3.2-1.1 3.2-2.9.1-1.1-.8-2.1-2.3-2.3zM278.1 372.5c0 1-.7 1.8-1.8 1.8s-1.8-.8-1.8-1.8.7-1.8 1.8-1.8 1.8.9 1.8 1.8zm-5.6-5c0 1-.7 1.8-1.8 1.8s-1.8-.8-1.8-1.8.7-1.8 1.8-1.8c1.1-.1 1.8.8 1.8 1.8zm6.3 5c0-1.3-.9-2.4-2.5-2.4-1.5 0-2.5 1.1-2.5 2.4 0 1.3.9 2.5 2.5 2.5 1.5 0 2.5-1.1 2.5-2.5zm-1.1-7.3h-.8l-7.5 9.7h.8l7.5-9.7zm-4.6 2.3c0-1.3-.9-2.5-2.5-2.5-1.5 0-2.5 1.1-2.5 2.5 0 1.3.9 2.4 2.5 2.4s2.5-1.1 2.5-2.4zM433.1 88.7c0 1.1-.7 1.7-2.1 1.7h-1.2V87h1.1c1.5.1 2.2.6 2.2 1.7zm1.8 0c0-1.8-1.3-3.1-3.8-3.1h-3v9.3h1.8V92h1.1c2.5-.1 3.9-1.2 3.9-3.3zM438.1 94.8V84.7l-1.7.2v9.9zM443.6 93.2c-.3.3-.8.6-1.3.6-.6 0-1-.4-1-.9 0-.7.6-1.1 2.3-1.3v1.6zm0 .8c.3.7.9 1.1 2.2.9l.1-1.3c-.5 0-.6-.1-.6-.6v-2.4c0-1.9-.8-2.8-2.9-2.8-1.1 0-2.2.4-2.9.8l.4 1.4c.7-.4 1.6-.7 2.3-.7 1 0 1.4.4 1.4 1.3v.2c-3.1.1-4 1.2-4 2.4 0 1.1.9 1.9 2.1 1.9.8-.1 1.4-.5 1.9-1.1zM452.6 94.5l-.3-1.4c-.5.3-1.2.5-1.9.5-1.2 0-1.9-.8-1.9-2.2 0-1.3.7-2.2 1.9-2.2.6 0 1.3.2 1.9.5l.4-1.4c-.6-.4-1.4-.6-2.4-.6-2.1 0-3.6 1.4-3.6 3.7 0 2.2 1.3 3.6 3.5 3.6 1 0 1.8-.2 2.4-.5zM455.4 90.7c.1-.8.7-1.6 1.6-1.6.9 0 1.3.6 1.3 1.5v.1h-2.9zm-.1 1l4.5-.1c.1-.3.1-.8.1-1.1 0-1.7-1-2.8-2.8-2.8-2 0-3.5 1.5-3.5 3.7s1.5 3.6 3.6 3.6c.9 0 1.8-.2 2.5-.6l-.2-1.5c-.6.4-1.4.6-2.1.6-1.3.1-2-.6-2.1-1.8zM466.3 91.4c0 1.3-.7 2.2-1.8 2.2-.5 0-1-.1-1.3-.4v-3.5c.4-.3.8-.6 1.4-.6 1 .1 1.7 1 1.7 2.3zm1.7-.1c0-2.1-1.2-3.6-3-3.6-.8 0-1.5.4-1.9.9v-4l-1.7.2V95l1.7-.3c.4.1 1.1.2 1.5.2 1.9.1 3.4-1.4 3.4-3.6zM474.3 91.4c0 1.3-.6 2.2-1.7 2.2s-1.8-.9-1.8-2.2c0-1.3.6-2.2 1.8-2.2 1.1 0 1.7.9 1.7 2.2zm1.8 0c0-2.3-1.4-3.6-3.5-3.6-2 0-3.5 1.4-3.5 3.7 0 2.3 1.5 3.6 3.5 3.6s3.5-1.5 3.5-3.7zM423.1 116.5l.4-.7c-1.6-.8-3.6-3.1-3.6-6.3 0-3.2 2-5.5 3.6-6.3l-.4-.7c-1.7.9-4 3.3-4 6.9 0 3.8 2.3 6.2 4 7.1zM429.7 112.9v-4.7c0-1.5-.8-2.3-2.2-2.3-.7 0-1.6.4-2.3 1.1v-1.1l-.9.2v6.8h.9v-5.1c.6-.6 1.3-1 2.1-1 1 0 1.5.5 1.5 1.7v4.4h.9zM436.9 111.2l-.1-.8h-5.5l-.1.8h5.7zm-.1-2.6l.1-.8h-5.6l.1.8h5.4zM439.7 112.9h.9v-7.2l-2.6 1v.9l1.7-.7zM446.9 108.3c.8-.3 1.7-1.1 1.7-2.3 0-1.4-1.1-2.4-2.8-2.4s-2.9 1.1-2.9 2.5c0 1.1.8 1.7 1.8 2.2-.8.3-2 1.1-2 2.4 0 1.3.9 2.5 3 2.5 2 0 3-1.2 3-2.6.1-1.2-.8-1.8-1.8-2.3zm-1.4.3c1.2.5 2.3.9 2.3 2.1 0 1-.7 1.6-2 1.6s-2.1-.7-2.1-1.8c.1-.9.9-1.6 1.8-1.9zm.7-.6c-1.2-.5-2.3-.9-2.3-2 0-.9.7-1.6 1.9-1.6 1.1 0 1.9.7 1.9 1.8 0 .8-.7 1.4-1.5 1.8zM453 110.4c1.1-.4 2-1.3 2-2.4 0-1.3-1-2.3-2.7-2.3-1 0-2 .4-2.6 1l.3.8c.6-.5 1.4-.9 2.2-.9 1.1 0 1.8.5 1.8 1.5 0 1.2-1.3 1.9-3.1 2.3v.8c.5-.1.9-.1 1.3-.1 1.2 0 2.1.7 2.1 1.8 0 1.2-.9 1.9-2.2 1.9-.9 0-1.7-.3-2.2-.6l-.2.8c.6.4 1.5.6 2.4.6 1.8 0 3.2-1.1 3.2-2.9 0-1.1-.8-2.1-2.3-2.3zM455.8 116.5c1.7-.9 4-3.3 4-6.9 0-3.6-2.3-6.1-4-6.9l-.4.7c1.6.8 3.6 3.1 3.6 6.3 0 3.1-2 5.4-3.6 6.3l.4.5zM469.2 116.5l.4-.7c-1.6-.8-3.6-3.1-3.6-6.3 0-3.2 2-5.5 3.6-6.3l-.4-.7c-1.7.9-4 3.3-4 6.9 0 3.8 2.3 6.2 4 7.1z"/><path class="st1" d="M479.5 110.8c0 1-.7 1.8-1.8 1.8s-1.8-.8-1.8-1.8.7-1.8 1.8-1.8 1.8.9 1.8 1.8zm-5.6-5c0 1-.7 1.8-1.8 1.8s-1.8-.8-1.8-1.8.7-1.8 1.8-1.8c1.1-.1 1.8.8 1.8 1.8zm6.3 5c0-1.3-.9-2.4-2.5-2.4-1.5 0-2.5 1.1-2.5 2.4 0 1.3.9 2.5 2.5 2.5 1.5 0 2.5-1.1 2.5-2.5zm-1.2-7.3h-.8l-7.5 9.7h.8l7.5-9.7zm-4.5 2.3c0-1.3-.9-2.5-2.5-2.5-1.5 0-2.5 1.1-2.5 2.5 0 1.3.9 2.4 2.5 2.4s2.5-1.1 2.5-2.4zM480.6 116.5c1.7-.9 4-3.3 4-6.9 0-3.6-2.3-6.1-4-6.9l-.4.7c1.6.8 3.6 3.1 3.6 6.3 0 3.1-2 5.4-3.6 6.3l.4.5zM442.8 143.1h-3.5l3.5-4.7v4.7zm2.3.9v-.9h-1.4V137h-.8l-4.8 6.4.1.6h4.5v2.9h.9V144h1.5zM447.6 143.6c0-.4-.3-.7-.7-.7-.4 0-.7.3-.7.7 0 .4.3.8.7.8.4 0 .7-.4.7-.8zM454.2 144.2v-.9h-4c2-1.5 3.7-2.6 3.7-4.2 0-1.3-1-2.1-2.4-2.1-1 0-1.8.4-2.5.9l.3.8c.7-.5 1.4-.9 2.1-.9 1 0 1.6.6 1.6 1.4 0 1.2-1.5 2.2-4 4.1v.8h5.2zM464.9 142.1c0 1-.7 1.8-1.8 1.8s-1.8-.8-1.8-1.8.7-1.8 1.8-1.8 1.8.8 1.8 1.8zm-5.7-5c0 1-.7 1.8-1.8 1.8s-1.8-.8-1.8-1.8.7-1.8 1.8-1.8c1.2-.1 1.8.7 1.8 1.8zm6.3 5c0-1.3-.9-2.4-2.5-2.4-1.5 0-2.5 1.1-2.5 2.4 0 1.3.9 2.5 2.5 2.5s2.5-1.2 2.5-2.5zm-1.1-7.4h-.8l-7.5 9.7h.8l7.5-9.7zm-4.5 2.4c0-1.3-.9-2.5-2.5-2.5-1.5 0-2.5 1.1-2.5 2.5 0 1.3.9 2.4 2.5 2.4s2.5-1.1 2.5-2.4zM442.4 176h-3.5l3.5-4.7v4.7zm2.3.9v-.9h-1.4v-6.1h-.8l-4.8 6.4.1.6h4.5v2.9h.9v-2.9h1.5zM447.2 176.5c0-.4-.3-.7-.7-.7-.4 0-.7.3-.7.7 0 .4.3.8.7.8.4 0 .7-.4.7-.8zM453.5 173.5v.5c-.6.6-1.4 1-2.3 1-1.1 0-1.9-.7-1.9-2s.8-2.2 2.1-2.2 2.1 1.2 2.1 2.7zm1 .1c0-2-1.1-3.7-3.1-3.7-1.9 0-3.1 1.3-3.1 3.1s1.3 2.8 2.7 2.8c1 0 1.8-.4 2.5-1-.4 1.9-1.9 3.4-4.4 4l.3.9c3.5-.9 5.1-3.6 5.1-6.1zM465.2 175c0 1-.7 1.8-1.8 1.8s-1.8-.8-1.8-1.8.7-1.8 1.8-1.8c1.2 0 1.8.8 1.8 1.8zm-5.6-5c0 1-.7 1.8-1.8 1.8s-1.8-.8-1.8-1.8.7-1.8 1.8-1.8c1.1-.1 1.8.7 1.8 1.8zm6.3 5c0-1.3-.9-2.4-2.5-2.4-1.5 0-2.5 1.1-2.5 2.4 0 1.3.9 2.5 2.5 2.5s2.5-1.1 2.5-2.5zm-1.1-7.4h-.8l-7.5 9.7h.8l7.5-9.7zm-4.5 2.4c0-1.3-.9-2.5-2.5-2.5-1.5 0-2.5 1.1-2.5 2.5 0 1.3.9 2.4 2.5 2.4 1.5 0 2.5-1.1 2.5-2.4zM444.4 210v-.9h-4c2-1.5 3.7-2.6 3.7-4.2 0-1.3-1-2.1-2.4-2.1-1 0-1.8.4-2.5.9l.3.8c.7-.5 1.4-.9 2.1-.9 1 0 1.6.6 1.6 1.4 0 1.2-1.5 2.2-4 4.1v.8h5.2zM447.1 209.5c0-.4-.3-.7-.7-.7-.4 0-.7.3-.7.7 0 .4.3.8.7.8.4-.1.7-.4.7-.8zM453.7 210v-.9h-4c2-1.5 3.7-2.6 3.7-4.2 0-1.3-1-2.1-2.4-2.1-1 0-1.8.4-2.5.9l.3.8c.7-.5 1.4-.9 2.1-.9 1 0 1.6.6 1.6 1.4 0 1.2-1.5 2.2-4 4.1v.8h5.2zM464.3 207.9c0 1-.7 1.8-1.8 1.8s-1.8-.8-1.8-1.8.7-1.8 1.8-1.8c1.2 0 1.8.9 1.8 1.8zm-5.6-5c0 1-.7 1.8-1.8 1.8s-1.8-.8-1.8-1.8.7-1.8 1.8-1.8 1.8.8 1.8 1.8zm6.3 5c0-1.3-.9-2.4-2.5-2.4-1.5 0-2.5 1.1-2.5 2.4 0 1.3.9 2.5 2.5 2.5 1.5 0 2.5-1.1 2.5-2.5zm-1.1-7.3h-.8l-7.5 9.7h.8l7.5-9.7zm-4.5 2.3c0-1.3-.9-2.5-2.5-2.5-1.5 0-2.5 1.1-2.5 2.5 0 1.3.9 2.4 2.5 2.4 1.5 0 2.5-1.1 2.5-2.4zM444.5 242.9v-.9h-4c2-1.5 3.7-2.6 3.7-4.2 0-1.3-1-2.1-2.4-2.1-1 0-1.8.4-2.5.9l.3.8c.7-.5 1.4-.9 2.1-.9 1 0 1.6.6 1.6 1.4 0 1.2-1.5 2.2-4 4.1v.8h5.2zM447.1 242.4c0-.4-.3-.7-.7-.7-.4 0-.7.3-.7.7 0 .4.3.8.7.8.4-.1.7-.4.7-.8zM452.8 236.8l-4.1 8.9h.9l4.2-9v-.8h-5.9v.9zM464.2 240.8c0 1-.7 1.8-1.8 1.8s-1.8-.8-1.8-1.8.7-1.8 1.8-1.8c1.2 0 1.8.9 1.8 1.8zm-5.6-5c0 1-.7 1.8-1.8 1.8s-1.8-.8-1.8-1.8.7-1.8 1.8-1.8 1.8.8 1.8 1.8zm6.3 5c0-1.3-.9-2.4-2.5-2.4-1.5 0-2.5 1.1-2.5 2.4 0 1.3.9 2.5 2.5 2.5s2.5-1.1 2.5-2.5zm-1.1-7.3h-.8l-7.5 9.7h.8l7.5-9.7zm-4.5 2.3c0-1.3-.9-2.5-2.5-2.5-1.5 0-2.5 1.1-2.5 2.5 0 1.3.9 2.4 2.5 2.4 1.5.1 2.5-1.1 2.5-2.4zM444.7 272.4c0 1.6-1.1 2.8-2.7 2.8s-2.6-1.2-2.6-2.8c0-1.6 1.1-2.8 2.6-2.8 1.6 0 2.7 1.2 2.7 2.8zm1 0c0-2.2-1.5-3.7-3.6-3.7-2 0-3.6 1.5-3.6 3.7s1.5 3.7 3.6 3.7c2 0 3.6-1.6 3.6-3.7zM448.1 275.3c0-.4-.3-.7-.7-.7-.4 0-.7.3-.7.7 0 .4.3.8.7.8.4 0 .7-.4.7-.8zM450.2 272.8l.4-3h3.7v-.9h-4.4l-.6 4.6.3.3c.5-.2.9-.3 1.8-.3 1.4 0 2.2.9 2.2 2.1 0 1.4-1 2.2-2.3 2.2-.8 0-1.6-.3-2.2-.6l-.2.9c.6.3 1.5.6 2.4.6 1.8 0 3.2-1.3 3.2-3.2 0-1.6-1.2-2.8-3.1-2.8-.5-.1-.9 0-1.2.1zM464.9 273.8c0 1-.7 1.8-1.8 1.8s-1.8-.8-1.8-1.8.7-1.8 1.8-1.8c1.2 0 1.8.8 1.8 1.8zm-5.6-5.1c0 1-.7 1.8-1.8 1.8s-1.8-.8-1.8-1.8.7-1.8 1.8-1.8 1.8.8 1.8 1.8zm6.3 5.1c0-1.3-.9-2.4-2.5-2.4-1.5 0-2.5 1.1-2.5 2.4 0 1.3.9 2.5 2.5 2.5 1.6-.1 2.5-1.2 2.5-2.5zm-1.1-7.4h-.8l-7.5 9.7h.8l7.5-9.7zm-4.5 2.3c0-1.3-.9-2.5-2.5-2.5-1.5 0-2.5 1.1-2.5 2.5 0 1.3.9 2.4 2.5 2.4 1.5.1 2.5-1.1 2.5-2.4zM444.2 305.3c0 1.6-1.1 2.8-2.7 2.8s-2.6-1.2-2.6-2.8c0-1.6 1.1-2.8 2.6-2.8 1.6 0 2.7 1.2 2.7 2.8zm.9 0c0-2.2-1.5-3.7-3.6-3.7-2 0-3.6 1.5-3.6 3.7s1.5 3.7 3.6 3.7 3.6-1.5 3.6-3.7zM447.6 308.2c0-.4-.3-.7-.7-.7-.4 0-.7.3-.7.7s.3.8.7.8c.4 0 .7-.4.7-.8zM449.5 305.5v-.5c.6-.6 1.4-1 2.3-1 1.1 0 1.9.7 1.9 2s-.8 2.2-2.1 2.2c-1.2-.1-2.1-1.3-2.1-2.7zm-.9-.2c0 2 1.1 3.7 3.2 3.7 1.9 0 3-1.3 3-3.1s-1.3-2.8-2.7-2.8c-1 0-1.8.4-2.5 1 .4-1.9 1.9-3.4 4.4-4l-.3-.9c-3.5.9-5.1 3.6-5.1 6.1zM465.5 306.7c0 1-.7 1.8-1.8 1.8s-1.8-.8-1.8-1.8.7-1.8 1.8-1.8 1.8.8 1.8 1.8zm-5.6-5.1c0 1-.7 1.8-1.8 1.8s-1.8-.8-1.8-1.8.7-1.8 1.8-1.8 1.8.8 1.8 1.8zm6.2 5.1c0-1.3-.9-2.4-2.5-2.4-1.5 0-2.5 1.1-2.5 2.4 0 1.3.9 2.5 2.5 2.5s2.5-1.2 2.5-2.5zm-1.1-7.4h-.8l-7.5 9.7h.8l7.5-9.7zm-4.5 2.3c0-1.3-.9-2.5-2.5-2.5-1.5 0-2.5 1.1-2.5 2.5 0 1.3.9 2.4 2.5 2.4 1.6.1 2.5-1 2.5-2.4zM445.5 341.7v-.9h-4c2-1.5 3.7-2.6 3.7-4.2 0-1.3-1-2.1-2.4-2.1-1 0-1.8.4-2.5.9l.3.8c.7-.5 1.4-.9 2.1-.9 1 0 1.6.6 1.6 1.4 0 1.2-1.5 2.2-4 4.1v.8h5.2zM448.2 341.1c0-.4-.3-.7-.7-.7-.4 0-.7.3-.7.7 0 .4.3.8.7.8.4 0 .7-.4.7-.8zM450.7 341.7h.9v-7.2l-2.7 1 .1.8 1.7-.6zM463.2 339.6c0 1-.7 1.8-1.8 1.8s-1.8-.8-1.8-1.8.7-1.8 1.8-1.8c1.2 0 1.8.8 1.8 1.8zm-5.6-5c0 1-.7 1.8-1.8 1.8s-1.8-.8-1.8-1.8.7-1.8 1.8-1.8c1.1-.1 1.8.7 1.8 1.8zm6.3 5c0-1.3-.9-2.4-2.5-2.4-1.5 0-2.5 1.1-2.5 2.4 0 1.3.9 2.5 2.5 2.5 1.5 0 2.5-1.2 2.5-2.5zm-1.1-7.4h-.8l-7.5 9.7h.8l7.5-9.7zm-4.5 2.4c0-1.3-.9-2.5-2.5-2.5-1.5 0-2.5 1.1-2.5 2.5 0 1.3.9 2.4 2.5 2.4 1.5 0 2.5-1.1 2.5-2.4zM444.7 371.1c0 1.6-1.1 2.8-2.7 2.8s-2.6-1.2-2.6-2.8 1.1-2.8 2.6-2.8c1.6 0 2.7 1.2 2.7 2.8zm1 0c0-2.2-1.5-3.7-3.6-3.7-2 0-3.6 1.5-3.6 3.7s1.5 3.7 3.6 3.7c2 0 3.6-1.5 3.6-3.7zM448.1 374c0-.4-.3-.7-.7-.7-.4 0-.7.3-.7.7 0 .4.3.8.7.8.4 0 .7-.4.7-.8zM450.2 371.5l.4-3h3.7v-.9h-4.4l-.6 4.6.3.3c.5-.2.9-.3 1.8-.3 1.4 0 2.2.9 2.2 2.1 0 1.4-1 2.2-2.3 2.2-.8 0-1.6-.3-2.2-.6l-.2.9c.6.3 1.5.6 2.4.6 1.8 0 3.2-1.3 3.2-3.2 0-1.6-1.2-2.8-3.1-2.8-.5 0-.9.1-1.2.1zM464.9 372.5c0 1-.7 1.8-1.8 1.8s-1.8-.8-1.8-1.8.7-1.8 1.8-1.8c1.2 0 1.8.9 1.8 1.8zm-5.6-5c0 1-.7 1.8-1.8 1.8s-1.8-.8-1.8-1.8.7-1.8 1.8-1.8c1.1-.1 1.8.8 1.8 1.8zm6.3 5c0-1.3-.9-2.4-2.5-2.4-1.5 0-2.5 1.1-2.5 2.4 0 1.3.9 2.5 2.5 2.5s2.5-1.1 2.5-2.5zm-1.1-7.3h-.8l-7.5 9.7h.8l7.5-9.7zm-4.5 2.3c0-1.3-.9-2.5-2.5-2.5-1.5 0-2.5 1.1-2.5 2.5 0 1.3.9 2.4 2.5 2.4 1.5 0 2.5-1.1 2.5-2.4z"/><g><path class="st4" d="M589.7 335.4c-1.5 0-2.1-.8-2.1-2.4l.1-4.5-1.2-.1.1-.7 1.2-.3.1-1.7h1v1.8h2.6l-.1.9h-2.5l-.1 4.6c0 1 .3 1.4 1.1 1.4.5 0 1-.2 1.5-.4l.2.9c-.7.4-1.4.5-1.9.5zM596.1 335.4c-2.1 0-3.7-1.6-3.7-4s1.6-4.1 3.8-4.1 3.7 1.6 3.7 4c0 2.5-1.7 4.1-3.8 4.1zm0-7.2c-1.6 0-2.7 1.3-2.7 3.1 0 1.9 1.1 3.1 2.7 3.1s2.7-1.3 2.7-3.1-1-3.1-2.7-3.1zM605.1 335.4c-2.1 0-3.7-1.6-3.7-4s1.6-4.1 3.8-4.1 3.7 1.6 3.7 4c0 2.5-1.7 4.1-3.8 4.1zm.1-7.2c-1.6 0-2.7 1.3-2.7 3.1 0 1.9 1.1 3.1 2.7 3.1s2.7-1.3 2.7-3.1-1.1-3.1-2.7-3.1zM611.9 331.3v3.8h-1v-11.3l1-.2v7.4l3.4-3.5h1.3l-3.7 3.6 3.7 4h-1.3l-3.4-3.8zM626 324.8c-.4-.2-.8-.3-1.2-.3-.9 0-1.3.6-1.3 1.8v1.3h2.4v.9h-2.4v6.7h-1v-6.7l-1.2-.1.1-.7 1.2-.3v-1.2c0-2 1-2.8 2.3-2.8.5 0 1.1.2 1.4.3-.1.2-.3 1.1-.3 1.1zm1.7.9c-.5 0-.7-.4-.7-.8s.2-.7.7-.7c.5 0 .7.4.7.7 0 .5-.3.8-.7.8zm-.5 9.5v-7.7l1-.2v7.9h-1zM631.7 335.2h-1v-7.7l1-.2v1.6c.5-1 1.3-1.6 2.3-1.6.5 0 1 .2 1.3.4l-.3 1c-.3-.2-.7-.3-1.2-.3-.8 0-1.6.6-2.2 2v4.8zM638.8 335.4c-.9 0-1.9-.3-2.5-.7l.3-1c.7.4 1.5.7 2.3.7.9 0 1.7-.5 1.7-1.3 0-.9-1-1.2-1.9-1.5-1.1-.3-2.2-.8-2.2-2.2 0-1.4 1.2-2.2 2.6-2.2.8 0 1.7.2 2.3.6l-.3.9c-.6-.4-1.4-.6-2.1-.6-.9 0-1.5.4-1.5 1.2 0 .9.9 1.1 1.9 1.4 1.1.3 2.3.8 2.3 2.2-.2 1.6-1.4 2.5-2.9 2.5zM645.8 335.4c-1.5 0-2.1-.8-2.1-2.4l.1-4.5-1.2-.1.1-.7 1.2-.3.1-1.7h1v1.8h2.6l-.1.9H645l-.1 4.6c0 1 .3 1.4 1.1 1.4.5 0 1-.2 1.5-.4l.2.9c-.7.4-1.4.5-1.9.5zM647.8 331.6v-1h3.8v1h-3.8zM653.2 334c0-.6.6-1.2 1.3-1.5-.7-.5-1.2-1.3-1.2-2.3 0-1.6 1.2-2.9 3-2.9.8 0 1.4.2 1.8.5l2.1-.2v1l-1.7-.2c.4.4.6 1.1.6 1.7 0 1.6-1.3 2.8-3 2.8-.4 0-.8-.1-1.1-.2-.4.2-.9.5-.9.9 0 .5.4.8 1.7.8h1c2.2 0 3.2.8 3.2 2 0 1.7-1.9 2.8-4 2.8s-3.5-.9-3.5-2.2c0-.9.7-1.6 1.7-1.9-.6-.2-1-.6-1-1.1zm.4 2.9c0 .9 1 1.6 2.6 1.6s2.9-.8 2.9-1.8c0-.9-.8-1.2-2.3-1.2-.5 0-1.2 0-1.6-.1-1 .2-1.6.8-1.6 1.5zm2.6-4.8c1.2 0 1.9-.8 1.9-2 0-1.1-.7-2-2-2-1.2 0-1.9.9-1.9 2 0 1.2.8 2 2 2zM662.1 331.4c0 1.7 1.1 3 2.7 3 .8 0 1.6-.3 2.2-.6l.2 1c-.7.4-1.5.7-2.5.7-2.2 0-3.7-1.7-3.7-4 0-2.4 1.5-4.1 3.6-4.1 1.7 0 2.8 1.1 2.8 2.8 0 .4-.1.9-.2 1.2h-5.1zm4.4-.9v-.3c0-1.2-.6-2-1.8-2-1.4 0-2.3 1.1-2.4 2.3h4.2zM674.6 335.2v-5c0-1.3-.5-1.9-1.7-1.9-.8 0-1.7.5-2.3 1.1v5.8h-1v-7.7l1-.2v1.3c.8-.8 1.8-1.3 2.6-1.3 1.5 0 2.4 1 2.4 2.6v5.3h-1zM678.6 331.4c0 1.7 1.1 3 2.7 3 .8 0 1.6-.3 2.2-.6l.2 1c-.7.4-1.5.7-2.5.7-2.2 0-3.7-1.7-3.7-4 0-2.4 1.5-4.1 3.6-4.1 1.7 0 2.8 1.1 2.8 2.8 0 .4-.1.9-.2 1.2h-5.1zm4.3-.9v-.3c0-1.2-.6-2-1.8-2-1.4 0-2.3 1.1-2.4 2.3h4.2zM687 335.2h-1v-7.7l1-.2v1.6c.5-1 1.3-1.6 2.3-1.6.5 0 1 .2 1.3.4l-.3 1c-.3-.2-.7-.3-1.2-.3-.8 0-1.6.6-2.2 2v4.8zM696.3 334.2c-.5.6-1.3 1.1-2.2 1.1-1.4 0-2.4-.9-2.4-2.1 0-1.4 1.1-2.5 4.6-2.7v-.5c0-1.2-.5-1.8-1.8-1.8-.8 0-1.9.4-2.5.9l-.2-1c.7-.5 1.8-.9 2.8-.9 1.8 0 2.8.8 2.7 2.7v3.7c0 .6.1.8.8.8l-.1.9c-1 .1-1.5-.3-1.7-1.1zm0-3c-2.6.3-3.6.9-3.6 1.9 0 .8.7 1.3 1.6 1.3.8 0 1.5-.5 2-1v-2.2zM701.8 335.4c-1.5 0-2.1-.8-2.1-2.4l.1-4.5-1.2-.1v-.7l1.2-.3v-1.7h1l-.1 1.8h2.6v.9h-2.5l-.1 4.6c0 1 .3 1.4 1.1 1.4.5 0 1-.2 1.5-.4l.2.9c-.5.4-1.1.5-1.7.5zM705.8 325.7c-.5 0-.7-.4-.7-.8s.2-.7.7-.7c.5 0 .7.4.7.7 0 .5-.3.8-.7.8zm-.6 9.5v-7.7l1-.2v7.9h-1zM711.9 335.4c-2.1 0-3.7-1.6-3.7-4s1.6-4.1 3.8-4.1 3.7 1.6 3.7 4c0 2.5-1.7 4.1-3.8 4.1zm0-7.2c-1.6 0-2.7 1.3-2.7 3.1 0 1.9 1.1 3.1 2.7 3.1s2.7-1.3 2.7-3.1c.1-1.8-1-3.1-2.7-3.1zM722.7 335.2v-5c0-1.3-.5-1.9-1.7-1.9-.8 0-1.7.5-2.3 1.1v5.8h-1v-7.7l1-.2v1.3c.8-.8 1.8-1.3 2.6-1.3 1.5 0 2.4 1 2.4 2.6v5.3h-1zM613.1 351c-.5.6-1.3 1.1-2.2 1.1-1.4 0-2.4-.9-2.4-2.1 0-1.4 1.1-2.5 4.6-2.7v-.5c0-1.2-.5-1.8-1.8-1.8-.8 0-1.9.4-2.5.9l-.2-1c.7-.5 1.8-.9 2.8-.9 1.8 0 2.8.8 2.7 2.7v3.7c0 .6.1.8.8.8l-.1.9c-1 0-1.6-.4-1.7-1.1zm-.1-3.1c-2.6.3-3.6.9-3.6 1.9 0 .8.7 1.3 1.6 1.3.8 0 1.5-.5 2-1v-2.2zM621.6 351.9v-5c0-1.3-.5-1.9-1.7-1.9-.8 0-1.7.5-2.3 1.1v5.8h-1v-7.7l1-.2v1.3c.8-.8 1.8-1.3 2.6-1.3 1.5 0 2.4 1 2.4 2.6v5.3h-1zM627.2 352.1c-1.5 0-2.1-.8-2.1-2.4l.1-4.5-1.2-.1.1-.7 1.2-.3.1-1.7h1v1.8h2.6l-.1.9h-2.5l-.1 4.6c0 1 .3 1.4 1.1 1.4.5 0 1-.2 1.5-.4l.2.9c-.8.4-1.4.5-1.9.5zM631.1 342.5c-.5 0-.7-.4-.7-.8s.2-.7.7-.7c.5 0 .7.4.7.7 0 .4-.3.8-.7.8zm-.5 9.4v-7.7l1-.2v7.9h-1zM637.3 344c2.1 0 3.4 1.6 3.4 4s-1.6 4.1-3.8 4.1c-.6 0-1.4-.2-1.9-.4v4.1h-1v-11.6l1-.2v1c.6-.5 1.3-1 2.3-1zm-2.2 6.6c.5.4 1.2.6 1.9.6 1.6 0 2.7-1.3 2.7-3.1s-1-3-2.5-3c-.8 0-1.5.4-2.1.9v4.6zM644.6 352.1c-.9 0-1.9-.3-2.5-.7l.3-1c.7.4 1.5.7 2.3.7.9 0 1.7-.5 1.7-1.3 0-.9-1-1.2-1.9-1.5-1.1-.3-2.2-.8-2.2-2.2 0-1.4 1.2-2.2 2.6-2.2.8 0 1.7.2 2.3.6l-.3.9c-.6-.4-1.4-.6-2.1-.6-.9 0-1.5.4-1.5 1.2 0 .9.9 1.1 1.9 1.4 1.1.3 2.3.8 2.3 2.2-.2 1.6-1.4 2.5-2.9 2.5zM652.4 351.8l-.6 1.7c-.7 1.9-1.4 2.4-2.5 2.4-.6 0-1-.2-1.5-.4l.3-1c.4.2.8.3 1.2.3.6 0 1-.3 1.6-1.8l.5-1.4-3-7.5h1.1l2.4 6.3 2.4-6.3h1.1l-3 7.7zM659.9 352.1c-2.3 0-3.7-1.7-3.7-4 0-2.4 1.6-4.1 3.8-4.1.9 0 1.7.2 2.4.7l-.3.9c-.6-.4-1.3-.6-2.1-.6-1.7 0-2.7 1.2-2.7 3.1 0 1.9 1.1 3.1 2.7 3.1.8 0 1.5-.3 2.1-.6l.2 1c-.7.2-1.6.5-2.4.5zM669.1 351.9v-5c0-1.3-.5-1.9-1.6-1.9-.9 0-1.7.5-2.4 1.1v5.8h-1v-11.3l1-.2v4.8c.8-.8 1.8-1.2 2.7-1.2 1.5 0 2.4 1 2.4 2.6v5.3h-1.1zM675.8 352.1c-2.1 0-3.7-1.6-3.7-4s1.6-4.1 3.8-4.1 3.7 1.6 3.7 4c-.1 2.5-1.7 4.1-3.8 4.1zm0-7.2c-1.6 0-2.7 1.3-2.7 3.1 0 1.9 1.1 3.1 2.7 3.1s2.7-1.3 2.7-3.1-1.1-3.1-2.7-3.1zM683.6 352.1c-1.5 0-2.1-.8-2.1-2.4l.1-4.5-1.2-.1v-.7l1.2-.3v-1.7h1l-.1 1.8h2.6v.9h-2.5l-.1 4.6c0 1 .3 1.4 1.1 1.4.5 0 1-.2 1.5-.4l.2.9c-.6.4-1.2.5-1.7.5zM687.5 342.5c-.5 0-.7-.4-.7-.8s.2-.7.7-.7c.5 0 .7.4.7.7 0 .4-.3.8-.7.8zm-.5 9.4v-7.7l1-.2v7.9h-1zM693.7 352.1c-2.3 0-3.7-1.7-3.7-4 0-2.4 1.6-4.1 3.8-4.1.9 0 1.7.2 2.4.7l-.3.9c-.6-.4-1.3-.6-2.1-.6-1.7 0-2.7 1.2-2.7 3.1 0 1.9 1.1 3.1 2.7 3.1.8 0 1.5-.3 2.1-.6l.2 1c-.7.2-1.5.5-2.4.5zM700 352.1c-.9 0-1.9-.3-2.5-.7l.3-1c.7.4 1.5.7 2.3.7.9 0 1.7-.5 1.7-1.3 0-.9-1-1.2-1.9-1.5-1.1-.3-2.2-.8-2.2-2.2 0-1.4 1.2-2.2 2.6-2.2.8 0 1.7.2 2.3.6l-.3.9c-.6-.4-1.4-.6-2.1-.6-.9 0-1.5.4-1.5 1.2 0 .9.9 1.1 1.9 1.4 1.1.3 2.3.8 2.3 2.2-.1 1.6-1.3 2.5-2.9 2.5z"/></g><g><path class="st5" d="M615.3 317.1l-.2-5.7c9.8-9.3 14.1-12.5 14.1-17.1 0-2.4-1.8-4.2-4.5-4.2-2.6 0-5.2 1.3-7.2 3.1l-2.5-5.9c2.8-2.1 6.9-3.9 11.1-3.9 7.2 0 11.1 4.2 11.1 9.6 0 5.8-4.3 9.9-13.1 17.4H638l.2 6.6h-22.9zM641.8 290.7l.2-6.6h23.2l.2 5.8-13.8 27.1h-7.4l13.4-26.4h-15.8zM673.6 296.6c-3.8 0-6.1-2.5-6.1-6.1s2.3-6.1 6.2-6.1c3.8 0 6.1 2.5 6.1 6.1-.1 3.6-2.4 6.1-6.2 6.1zm.8 11h-4.1l18.1-22.9h4.1l-18.1 22.9zm-.8-20.4c-1.5 0-2.5 1.3-2.5 3.3 0 2 1 3.3 2.6 3.3 1.5 0 2.5-1.3 2.5-3.3-.1-2-1.1-3.3-2.6-3.3zm15.5 20.8c-3.8 0-6.1-2.5-6.1-6.1 0-3.6 2.3-6.1 6.2-6.1 3.8 0 6.1 2.5 6.1 6.1 0 3.6-2.3 6.1-6.2 6.1zm.1-9.4c-1.6 0-2.6 1.3-2.6 3.3 0 2.1 1 3.3 2.6 3.3 1.5 0 2.5-1.3 2.5-3.3 0-2-1-3.3-2.5-3.3z"/></g><g><path class="st4" d="M579.4 208.1c-1.5 0-2.1-.8-2.1-2.4l.1-4.5-1.2-.1.1-.7 1.2-.3.1-1.7h1v1.8h2.6l-.1.9h-2.5l-.1 4.6c0 1 .3 1.4 1.1 1.4.5 0 1-.2 1.5-.4l.2.9c-.7.3-1.4.5-1.9.5zM585.8 208.1c-2.1 0-3.7-1.6-3.7-4s1.6-4.1 3.8-4.1 3.7 1.6 3.7 4c-.1 2.4-1.7 4.1-3.8 4.1zm0-7.2c-1.6 0-2.7 1.3-2.7 3.1 0 1.9 1.1 3.1 2.7 3.1s2.7-1.3 2.7-3.1-1.1-3.1-2.7-3.1zM594.8 208.1c-2.1 0-3.7-1.6-3.7-4s1.6-4.1 3.8-4.1 3.7 1.6 3.7 4-1.7 4.1-3.8 4.1zm0-7.2c-1.6 0-2.7 1.3-2.7 3.1 0 1.9 1.1 3.1 2.7 3.1s2.7-1.3 2.7-3.1-1-3.1-2.7-3.1zM601.6 204v3.8h-1v-11.3l1-.2v7.4l3.4-3.5h1.3l-3.7 3.6 3.7 4H605l-3.4-3.8zM613.8 208.1c-.9 0-1.9-.3-2.5-.7l.3-1c.7.4 1.5.7 2.3.7.9 0 1.7-.5 1.7-1.3 0-.9-1-1.2-1.9-1.5-1.1-.3-2.2-.8-2.2-2.2 0-1.4 1.2-2.2 2.6-2.2.8 0 1.7.2 2.3.6l-.3.9c-.6-.4-1.4-.6-2.1-.6-.9 0-1.5.4-1.5 1.2 0 .9.9 1.1 1.9 1.4 1.1.3 2.3.8 2.3 2.2-.1 1.6-1.3 2.5-2.9 2.5zM619.1 204.1c0 1.7 1.1 3 2.7 3 .8 0 1.6-.3 2.2-.6l.2 1c-.7.4-1.5.7-2.5.7-2.2 0-3.7-1.7-3.7-4 0-2.4 1.5-4.1 3.6-4.1 1.7 0 2.8 1.1 2.8 2.8 0 .4-.1.9-.2 1.2h-5.1zm4.3-.9v-.3c0-1.2-.6-2-1.8-2-1.4 0-2.3 1.1-2.4 2.3h4.2zM629.7 208.1c-2.3 0-3.7-1.7-3.7-4 0-2.4 1.6-4.1 3.8-4.1.9 0 1.7.2 2.4.7l-.3.9c-.6-.4-1.3-.6-2.1-.6-1.7 0-2.7 1.2-2.7 3.1 0 1.9 1.1 3.1 2.7 3.1.8 0 1.5-.3 2.1-.6l.2 1c-.6.2-1.5.5-2.4.5zM637 208.1c-2.1 0-3.7-1.6-3.7-4s1.6-4.1 3.8-4.1 3.7 1.6 3.7 4-1.7 4.1-3.8 4.1zm0-7.2c-1.6 0-2.7 1.3-2.7 3.1 0 1.9 1.1 3.1 2.7 3.1s2.7-1.3 2.7-3.1-1-3.1-2.7-3.1zM647.8 207.8v-5c0-1.3-.5-1.9-1.7-1.9-.8 0-1.7.5-2.3 1.1v5.8h-1v-7.7l1-.2v1.3c.8-.8 1.8-1.3 2.6-1.3 1.5 0 2.4 1 2.4 2.6v5.3h-1zM656.4 196.6l1-.2v11.5h-1v-.7c-.5.5-1.3.9-2.2.9-2.1 0-3.4-1.7-3.4-4 0-2.4 1.6-4.1 3.8-4.1.7 0 1.4.2 1.9.4v-3.8zm-1.9 4.4c-1.6 0-2.7 1.3-2.7 3.1s1 3 2.5 3c.8 0 1.5-.4 2-.9v-4.7c-.3-.3-1-.5-1.8-.5zM659.5 204.3v-1h3.8v1h-3.8zM665 206.6c0-.6.6-1.2 1.3-1.5-.7-.5-1.2-1.3-1.2-2.3 0-1.6 1.2-2.9 3-2.9.8 0 1.4.2 1.8.5l2.1-.2v1l-1.7-.2c.4.4.6 1.1.6 1.7 0 1.6-1.3 2.8-3 2.8-.4 0-.8-.1-1.1-.2-.4.2-.9.5-.9.9 0 .5.4.8 1.7.8h1c2.2 0 3.2.8 3.2 2 0 1.7-1.9 2.8-4 2.8s-3.5-.9-3.5-2.2c0-.9.7-1.6 1.7-1.9-.6-.1-1-.5-1-1.1zm.4 3c0 .9 1 1.6 2.6 1.6s2.9-.8 2.9-1.8c0-.9-.8-1.2-2.3-1.2-.5 0-1.2 0-1.6-.1-1 .2-1.6.8-1.6 1.5zm2.6-4.8c1.2 0 1.9-.8 1.9-2 0-1.1-.7-2-2-2-1.2 0-1.9.9-1.9 2 0 1.2.7 2 2 2zM673.9 204.1c0 1.7 1.1 3 2.7 3 .8 0 1.6-.3 2.2-.6l.2 1c-.7.4-1.5.7-2.5.7-2.2 0-3.7-1.7-3.7-4 0-2.4 1.5-4.1 3.6-4.1 1.7 0 2.8 1.1 2.8 2.8 0 .4-.1.9-.2 1.2h-5.1zm4.3-.9v-.3c0-1.2-.6-2-1.8-2-1.4 0-2.3 1.1-2.4 2.3h4.2zM686.3 207.8v-5c0-1.3-.5-1.9-1.7-1.9-.8 0-1.7.5-2.3 1.1v5.8h-1v-7.7l1-.2v1.3c.8-.8 1.8-1.3 2.6-1.3 1.5 0 2.4 1 2.4 2.6v5.3h-1zM690.3 204.1c0 1.7 1.1 3 2.7 3 .8 0 1.6-.3 2.2-.6l.2 1c-.7.4-1.5.7-2.5.7-2.2 0-3.7-1.7-3.7-4 0-2.4 1.5-4.1 3.6-4.1 1.7 0 2.8 1.1 2.8 2.8 0 .4-.1.9-.2 1.2h-5.1zm4.4-.9v-.3c0-1.2-.6-2-1.8-2-1.4 0-2.3 1.1-2.4 2.3h4.2zM698.7 207.8h-1v-7.7l1-.2v1.6c.5-1 1.3-1.6 2.3-1.6.5 0 1 .2 1.3.4l-.3 1c-.3-.2-.7-.3-1.2-.3-.8 0-1.6.6-2.2 2v4.8zM708.1 206.9c-.5.6-1.3 1.1-2.2 1.1-1.4 0-2.4-.9-2.4-2.1 0-1.4 1.1-2.5 4.6-2.7v-.5c0-1.2-.5-1.8-1.8-1.8-.8 0-1.9.4-2.5.9l-.2-1c.7-.5 1.8-.9 2.8-.9 1.8 0 2.8.8 2.7 2.7v3.7c0 .6.1.8.8.8l-.1.9c-1 .1-1.6-.3-1.7-1.1zm0-3c-2.6.3-3.6.9-3.6 1.9 0 .8.7 1.3 1.6 1.3.8 0 1.5-.5 2-1v-2.2zM713.6 208.1c-1.5 0-2.1-.8-2.1-2.4l.1-4.5-1.2-.1v-.7l1.2-.3.1-1.7h1v1.8h2.6v.9h-2.5l-.1 4.6c0 1 .3 1.4 1.1 1.4.5 0 1-.2 1.5-.4l.2.9c-.7.3-1.3.5-1.9.5zM717.5 198.4c-.5 0-.7-.4-.7-.8s.2-.7.7-.7.7.4.7.7c0 .5-.2.8-.7.8zm-.5 9.4v-7.7l1-.2v7.9h-1zM723.7 208.1c-2.1 0-3.7-1.6-3.7-4s1.6-4.1 3.8-4.1 3.7 1.6 3.7 4c-.1 2.4-1.7 4.1-3.8 4.1zm0-7.2c-1.6 0-2.7 1.3-2.7 3.1 0 1.9 1.1 3.1 2.7 3.1s2.7-1.3 2.7-3.1-1.1-3.1-2.7-3.1zM734.5 207.8v-5c0-1.3-.5-1.9-1.7-1.9-.8 0-1.7.5-2.3 1.1v5.8h-1v-7.7l1-.2v1.3c.8-.8 1.8-1.3 2.6-1.3 1.5 0 2.4 1 2.4 2.6v5.3h-1zM613.8 223.6c-.5.6-1.3 1.1-2.2 1.1-1.4 0-2.4-.9-2.4-2.1 0-1.4 1.1-2.5 4.6-2.7v-.5c0-1.2-.5-1.8-1.8-1.8-.8 0-1.9.4-2.5.9l-.2-1c.7-.5 1.8-.9 2.8-.9 1.8 0 2.8.8 2.7 2.7v3.7c0 .6.1.8.8.8l-.1.9c-1 .1-1.5-.3-1.7-1.1zm0-3c-2.6.3-3.6.9-3.6 1.9 0 .8.7 1.3 1.6 1.3.8 0 1.5-.5 2-1v-2.2zM622.3 224.6v-5c0-1.3-.5-1.9-1.7-1.9-.8 0-1.7.5-2.3 1.1v5.8h-1v-7.7l1-.2v1.3c.8-.8 1.8-1.3 2.6-1.3 1.5 0 2.4 1 2.4 2.6v5.3h-1zM627.9 224.8c-1.5 0-2.1-.8-2.1-2.4l.1-4.5-1.2-.1v-.7l1.2-.3.1-1.7h1v1.8h2.6v.9h-2.5l-.1 4.6c0 1 .3 1.4 1.1 1.4.5 0 1-.2 1.5-.4l.2.9c-.8.4-1.4.5-1.9.5zM631.8 215.1c-.5 0-.7-.4-.7-.8s.2-.7.7-.7c.5 0 .7.4.7.7 0 .5-.2.8-.7.8zm-.5 9.5v-7.7l1-.2v7.9h-1zM638 216.7c2.1 0 3.4 1.6 3.4 4s-1.6 4.1-3.8 4.1c-.6 0-1.4-.2-1.9-.4v4.1h-1v-11.6l1-.2v1c.6-.5 1.4-1 2.3-1zm-2.2 6.5c.5.4 1.2.6 1.9.6 1.6 0 2.7-1.3 2.7-3.1s-1-3-2.5-3c-.8 0-1.5.4-2.1.9v4.6zM645.3 224.8c-.9 0-1.9-.3-2.5-.7l.3-1c.7.4 1.5.7 2.3.7.9 0 1.7-.5 1.7-1.3 0-.9-1-1.2-1.9-1.5-1.1-.3-2.2-.8-2.2-2.2 0-1.4 1.2-2.2 2.6-2.2.8 0 1.7.2 2.3.6l-.3.9c-.6-.4-1.4-.6-2.1-.6-.9 0-1.5.4-1.5 1.2 0 .9.9 1.1 1.9 1.4 1.1.3 2.3.8 2.3 2.2-.2 1.6-1.4 2.5-2.9 2.5zM653.1 224.5l-.6 1.7c-.7 1.9-1.4 2.4-2.5 2.4-.6 0-1-.2-1.5-.4l.3-1c.4.2.8.3 1.2.3.6 0 1-.3 1.6-1.8l.5-1.4-3-7.5h1.1l2.4 6.3 2.4-6.3h1.1l-3 7.7zM660.6 224.8c-2.3 0-3.7-1.7-3.7-4 0-2.4 1.6-4.1 3.8-4.1.9 0 1.7.2 2.4.7l-.3.9c-.6-.4-1.3-.6-2.1-.6-1.7 0-2.7 1.2-2.7 3.1 0 1.9 1.1 3.1 2.7 3.1.8 0 1.5-.3 2.1-.6l.2 1c-.7.2-1.5.5-2.4.5zM669.8 224.6v-5c0-1.3-.5-1.9-1.6-1.9-.9 0-1.7.5-2.4 1.1v5.8h-1v-11.3l1-.2v4.8c.8-.8 1.8-1.2 2.7-1.2 1.5 0 2.4 1 2.4 2.6v5.3h-1.1zM676.5 224.8c-2.1 0-3.7-1.6-3.7-4s1.6-4.1 3.8-4.1 3.7 1.6 3.7 4c-.1 2.5-1.7 4.1-3.8 4.1zm0-7.2c-1.6 0-2.7 1.3-2.7 3.1 0 1.9 1.1 3.1 2.7 3.1s2.7-1.3 2.7-3.1-1.1-3.1-2.7-3.1zM684.3 224.8c-1.5 0-2.1-.8-2.1-2.4l.1-4.5-1.2-.1v-.7l1.2-.3.1-1.7h1l-.1 1.8h2.6v.9h-2.5l-.1 4.6c0 1 .3 1.4 1.1 1.4.5 0 1-.2 1.5-.4l.2.9c-.6.4-1.3.5-1.8.5zM688.2 215.1c-.5 0-.7-.4-.7-.8s.2-.7.7-.7.7.4.7.7c0 .5-.2.8-.7.8zm-.5 9.5v-7.7l1-.2v7.9h-1zM694.4 224.8c-2.3 0-3.7-1.7-3.7-4 0-2.4 1.6-4.1 3.8-4.1.9 0 1.7.2 2.4.7l-.3.9c-.6-.4-1.3-.6-2.1-.6-1.7 0-2.7 1.2-2.7 3.1 0 1.9 1.1 3.1 2.7 3.1.8 0 1.5-.3 2.1-.6l.2 1c-.7.2-1.5.5-2.4.5zM700.8 224.8c-.9 0-1.9-.3-2.5-.7l.3-1c.7.4 1.5.7 2.3.7.9 0 1.7-.5 1.7-1.3 0-.9-1-1.2-1.9-1.5-1.1-.3-2.2-.8-2.2-2.2 0-1.4 1.2-2.2 2.6-2.2.8 0 1.7.2 2.3.6l-.3.9c-.6-.4-1.4-.6-2.1-.6-.9 0-1.5.4-1.5 1.2 0 .9.9 1.1 1.9 1.4 1.1.3 2.3.8 2.3 2.2-.2 1.6-1.4 2.5-2.9 2.5z"/></g><g><path class="st5" d="M627.7 190.6c-7.4 0-12.3-3.5-12.3-9.2 0-3.6 2.7-6.2 6.7-7.6-3.4-1.5-6.1-3.8-6.1-7.7 0-5.7 4-10 12.1-10 7.1 0 11.6 3.6 11.6 9.2 0 3.4-2.3 5.9-6 7.2 3.5 1.6 6.6 3.9 6.6 8-.1 5.6-4.1 10.1-12.6 10.1zm-1.2-15.4c-2.4 1.3-3.6 3.3-3.6 5.2 0 2.6 1.9 4.6 5.1 4.6 3.1 0 4.8-1.5 4.8-4.2.1-2.6-2.5-4.5-6.3-5.6zm1.5-13.8c-2.9 0-4.5 1.9-4.5 4.2 0 2.5 2 4.3 5.7 5.4 2.1-1.3 3.2-3.1 3.2-5.1 0-2.7-1.8-4.5-4.4-4.5zM654 169.5c7.4 0 11.6 3.9 11.6 9.8 0 6.6-4.4 11.4-12.8 11.4-3 0-7-.6-9.8-1.9l.7-6.7c2.1 1.2 5.6 2.2 8.6 2.2 3.3 0 5.7-1.6 5.7-4.7 0-2.9-2.4-4.7-6.4-4.7-2.9 0-5.3.5-6.9 1.2l-1.1-1.2 2.2-18h19.1l.2 6.5h-13.2l-.8 6.4c.6-.2 1.8-.3 2.9-.3zM674.6 169.3c-3.8 0-6.1-2.5-6.1-6.1s2.3-6.1 6.2-6.1c3.8 0 6.1 2.5 6.1 6.1-.1 3.6-2.4 6.1-6.2 6.1zm.8 11h-4.1l18.1-22.9h4.1l-18.1 22.9zm-.8-20.4c-1.5 0-2.5 1.3-2.5 3.3 0 2 1 3.3 2.6 3.3 1.5 0 2.5-1.3 2.5-3.3-.1-2-1.1-3.3-2.6-3.3zm15.5 20.8c-3.8 0-6.1-2.5-6.1-6.1 0-3.6 2.3-6.1 6.2-6.1 3.8 0 6.1 2.5 6.1 6.1 0 3.6-2.3 6.1-6.2 6.1zm.1-9.4c-1.6 0-2.6 1.3-2.6 3.3 0 2.1 1 3.3 2.6 3.3 1.5 0 2.5-1.3 2.5-3.3s-1-3.3-2.5-3.3z"/></g><g><path class="st6" d="M4.8 23.1h563v34.3H4.8z"/><path class="st7" d="M62.9 35.4h-2.2l-.9-2.7h-4.5l-.9 2.7h-2.2l4.1-11.3H59l3.9 11.3zM57.5 26l-1.7 4.9h3.4L57.5 26zM69.6 23.3l2.1-.3v12.3h-2.1v-.8c-.6.5-1.3 1.1-2.3 1.1-2.2 0-3.6-1.8-3.6-4.4 0-2.6 1.8-4.5 4.2-4.5.6 0 1.2.1 1.8.3v-3.7zM68 28.5c-1.4 0-2.2 1.2-2.2 2.7 0 1.6.8 2.6 2.1 2.6.7 0 1.2-.3 1.7-.7v-4.2c-.4-.2-1-.4-1.6-.4zM78.3 35.4H76l-3.2-8.3h2.3l2.1 6.1 2-6.1h2.3l-3.2 8.3zM84.1 31.7c.1 1.4 1 2.3 2.5 2.3.9 0 1.8-.3 2.6-.8l.3 1.8c-.8.4-1.9.7-3 .7-2.7 0-4.4-1.7-4.4-4.3 0-2.7 1.8-4.5 4.3-4.5 2.2 0 3.4 1.3 3.4 3.4 0 .5-.1 1-.2 1.4-.1-.2-5.5-.1-5.5 0zm3.6-1.3v-.1c0-1.1-.5-1.8-1.6-1.8-1.2 0-1.9 1-2 2l3.6-.1zM93.6 35.4h-2.1v-8.2l2.1-.3v1.4c.5-.9 1.2-1.4 2.2-1.4.5 0 1 .1 1.5.4l-.5 1.9c-.4-.2-.8-.3-1.2-.3-.7 0-1.4.5-2 1.5v5zM101.1 35.7c-1.1 0-2.4-.3-3.2-.8l.5-1.7c.8.5 1.9.8 2.8.8.8 0 1.4-.3 1.4-.9 0-.6-.7-.9-1.7-1.1-1.6-.4-2.8-1-2.8-2.6s1.3-2.6 3.3-2.6c1 0 2.3.3 3 .7l-.5 1.7c-.8-.4-1.9-.7-2.6-.7-.8 0-1.2.3-1.2.8 0 .6.7.8 1.7 1.1 1.6.4 2.8 1 2.8 2.6 0 1.5-1.3 2.7-3.5 2.7zM107.9 31.7c.1 1.4 1 2.3 2.5 2.3.9 0 1.8-.3 2.6-.8l.3 1.8c-.8.4-1.9.7-3 .7-2.7 0-4.4-1.7-4.4-4.3 0-2.7 1.8-4.5 4.3-4.5 2.2 0 3.4 1.3 3.4 3.4 0 .5-.1 1-.2 1.4-.1-.2-5.5-.1-5.5 0zm3.6-1.3v-.1c0-1.1-.5-1.8-1.6-1.8-1.2 0-1.9 1-2 2l3.6-.1zM121.5 35.4h-2.1v-8.2l2.1-.3v1.4c.5-.9 1.2-1.4 2.2-1.4.5 0 1 .1 1.5.4l-.5 1.9c-.4-.2-.8-.3-1.2-.3-.7 0-1.4.5-2 1.5v5zM127.9 31.7c.1 1.4 1 2.3 2.5 2.3.9 0 1.8-.3 2.6-.8l.3 1.8c-.8.4-1.9.7-3 .7-2.7 0-4.4-1.7-4.4-4.3 0-2.7 1.8-4.5 4.3-4.5 2.2 0 3.4 1.3 3.4 3.4 0 .5-.1 1-.2 1.4 0-.2-5.5-.1-5.5 0zm3.7-1.3v-.1c0-1.1-.5-1.8-1.6-1.8-1.2 0-1.9 1-2 2l3.6-.1zM139.7 34.4c-.6.7-1.3 1.2-2.3 1.2-1.5 0-2.6-1-2.6-2.3 0-1.5 1.1-2.8 4.9-3v-.2c0-1.1-.5-1.6-1.7-1.6-.8 0-1.9.4-2.8.9l-.4-1.7c.8-.5 2.1-1 3.5-1 2.6 0 3.5 1.1 3.5 3.4v3c0 .6.1.7.7.8l-.2 1.6c-1.5.2-2.2-.3-2.6-1.1zm0-2.9c-2.1.3-2.8.7-2.8 1.5 0 .6.5 1.1 1.2 1.1s1.2-.3 1.6-.7v-1.9zM147.8 35.6c-2.7 0-4.3-1.7-4.3-4.4s1.8-4.4 4.4-4.4c1.1 0 2.1.3 2.9.7l-.5 1.7c-.7-.4-1.5-.7-2.3-.7-1.5 0-2.4 1-2.4 2.6 0 1.7 1 2.7 2.4 2.7.9 0 1.7-.2 2.3-.6l.3 1.7c-.6.5-1.7.7-2.8.7zM155.4 35.6c-1.9 0-2.8-.8-2.8-2.8l.1-3.9-1.3-.1.1-1.4 1.3-.4v-1.8h2.1v1.9h2.3l-.1 1.7h-2.4l-.1 3.8c0 .8.4 1.1 1.1 1.1.4 0 .9-.1 1.3-.3l.3 1.7c-.6.4-1.2.5-1.9.5zM159.9 25.6c-.8 0-1.3-.5-1.3-1.3s.5-1.3 1.3-1.3 1.3.5 1.3 1.3c.1.7-.4 1.3-1.3 1.3zm-1 9.8v-8.2l2.1-.3v8.6h-2.1zM167 35.6c-2.4 0-4.2-1.7-4.2-4.4s1.9-4.4 4.3-4.4 4.2 1.7 4.2 4.4-1.9 4.4-4.3 4.4zm0-7.1c-1.4 0-2.1 1.1-2.1 2.7s.8 2.7 2.2 2.7c1.4 0 2.1-1.1 2.1-2.7s-.8-2.7-2.2-2.7zM178.5 35.4v-5.1c0-1.2-.5-1.6-1.4-1.6-.7 0-1.4.4-1.8.8v5.9h-2.1v-8.3l2.1-.3v1.3c.7-.8 1.7-1.3 2.7-1.3 1.7 0 2.7 1.1 2.7 2.9v5.7h-2.2zM185.4 35.7c-1.1 0-2.4-.3-3.2-.8l.5-1.7c.8.5 1.9.8 2.8.8.8 0 1.4-.3 1.4-.9 0-.6-.7-.9-1.7-1.1-1.6-.4-2.8-1-2.8-2.6s1.3-2.6 3.3-2.6c1 0 2.3.3 3 .7l-.5 1.7c-.8-.4-1.9-.7-2.6-.7-.8 0-1.2.3-1.2.8 0 .6.7.8 1.7 1.1 1.6.4 2.8 1 2.8 2.6-.1 1.5-1.4 2.7-3.5 2.7zM195.7 25.6c-.8 0-1.3-.5-1.3-1.3s.5-1.3 1.3-1.3 1.3.5 1.3 1.3c0 .7-.4 1.3-1.3 1.3zm-1 9.8v-8.2l2.1-.3v8.6h-2.1zM204.5 35.4v-5.1c0-1.2-.5-1.6-1.4-1.6-.7 0-1.4.4-1.8.8v5.9h-2.1v-8.3l2.1-.3v1.3c.7-.8 1.7-1.3 2.7-1.3 1.7 0 2.7 1.1 2.7 2.9v5.7h-2.2zM219.7 35.1c0 2.3-2 3.6-4.4 3.6-1.2 0-2.4-.3-3.3-.8l.3-1.8c.8.5 1.8.8 2.9.8 1.4 0 2.3-.6 2.3-1.8 0-1.1-.8-1.6-2.3-1.6-.5 0-1 0-1.5.1V32c1.7-.4 3.3-.9 3.3-2.2 0-.9-.7-1.4-1.8-1.4-.9 0-1.8.4-2.6 1l-.6-1.6c.9-.7 2.1-1.2 3.6-1.2 2.2 0 3.7 1.2 3.7 2.9 0 1.3-1 2.4-2.3 2.8 1.8.3 2.7 1.5 2.7 2.8zM229.7 26.8c2.2 0 3.6 1.8 3.6 4.3 0 2.6-1.8 4.5-4.2 4.5-.5 0-1.2-.1-1.8-.2v3.9h-2.1V27.1l2.1-.3v1c.6-.5 1.4-1 2.4-1zm-2.3 6.7c.4.3.9.5 1.6.5 1.4 0 2.2-1.2 2.2-2.7 0-1.6-.8-2.6-2.1-2.6-.7 0-1.2.3-1.7.7v4.1zM235.1 35.4v-12l2.1-.3v12.3h-2.1zM243.9 34.4c-.6.7-1.3 1.2-2.3 1.2-1.5 0-2.6-1-2.6-2.3 0-1.5 1.1-2.8 4.9-3v-.2c0-1.1-.5-1.6-1.7-1.6-.8 0-1.9.4-2.8.9l-.4-1.7c.8-.5 2.1-1 3.5-1 2.6 0 3.5 1.1 3.5 3.4v3c0 .6.1.7.7.8l-.2 1.6c-1.5.2-2.2-.3-2.6-1.1zm0-2.9c-2.1.3-2.8.7-2.8 1.5 0 .6.5 1.1 1.2 1.1s1.2-.3 1.6-.7v-1.9zM252 35.6c-2.7 0-4.3-1.7-4.3-4.4s1.8-4.4 4.4-4.4c1.1 0 2.1.3 2.9.7l-.5 1.7c-.7-.4-1.5-.7-2.3-.7-1.5 0-2.4 1-2.4 2.6 0 1.7 1 2.7 2.4 2.7.9 0 1.7-.2 2.3-.6l.3 1.7c-.6.5-1.7.7-2.8.7zM258.1 31.7c.1 1.4 1 2.3 2.5 2.3.9 0 1.8-.3 2.6-.8l.3 1.8c-.8.4-1.9.7-3 .7-2.7 0-4.4-1.7-4.4-4.3 0-2.7 1.8-4.5 4.3-4.5 2.2 0 3.4 1.3 3.4 3.4 0 .5-.1 1-.2 1.4 0-.2-5.5-.1-5.5 0zm3.7-1.3v-.1c0-1.1-.5-1.8-1.6-1.8-1.2 0-1.9 1-2 2l3.6-.1zM269.4 35.6c-.5 0-1.3-.1-1.9-.3l-2 .3V23.3l2.1-.3v4.8c.6-.5 1.3-1.1 2.3-1.1 2.2 0 3.6 1.8 3.6 4.3.1 2.8-1.7 4.6-4.1 4.6zm0-7c-.7 0-1.2.3-1.7.7v4.2c.4.3.9.5 1.6.5 1.4 0 2.2-1.2 2.2-2.7 0-1.7-.8-2.7-2.1-2.7zM279 35.6c-2.4 0-4.2-1.7-4.2-4.4s1.9-4.4 4.3-4.4 4.2 1.7 4.2 4.4c.1 2.7-1.8 4.4-4.3 4.4zm.1-7.1c-1.4 0-2.1 1.1-2.1 2.7s.8 2.7 2.2 2.7c1.4 0 2.1-1.1 2.1-2.7-.1-1.6-.8-2.7-2.2-2.7zM284.5 31.9v-1.8h5.1v1.8h-5.1zM295.1 35.6c-2.7 0-4.3-1.7-4.3-4.4s1.8-4.4 4.4-4.4c1.1 0 2.1.3 2.9.7l-.5 1.7c-.7-.4-1.5-.7-2.3-.7-1.5 0-2.4 1-2.4 2.6 0 1.7 1 2.7 2.4 2.7.9 0 1.7-.2 2.3-.6l.4 1.8c-.8.4-1.8.6-2.9.6zM303.4 35.6c-2.4 0-4.2-1.7-4.2-4.4s1.9-4.4 4.3-4.4 4.2 1.7 4.2 4.4-1.9 4.4-4.3 4.4zm0-7.1c-1.4 0-2.1 1.1-2.1 2.7s.8 2.7 2.2 2.7c1.4 0 2.1-1.1 2.1-2.7s-.8-2.7-2.2-2.7zM314.9 35.4v-5.1c0-1.2-.5-1.6-1.4-1.6-.7 0-1.4.4-1.8.8v5.9h-2.1v-8.3l2.1-.3v1.3c.7-.8 1.7-1.3 2.7-1.3 1.7 0 2.7 1.1 2.7 2.9v5.7h-2.2zM322.1 35.6c-1.9 0-2.8-.8-2.8-2.8l.1-3.9-1.3-.1.1-1.4 1.3-.4v-1.8h2.1v1.9h2.3l-.1 1.7h-2.4l-.1 3.8c0 .8.4 1.1 1.1 1.1.4 0 .9-.1 1.3-.3l.3 1.7c-.6.4-1.1.5-1.9.5zM327.8 35.4h-2.1v-8.2l2.1-.3v1.4c.5-.9 1.2-1.4 2.2-1.4.5 0 1 .1 1.5.4l-.5 1.9c-.4-.2-.8-.3-1.2-.3-.7 0-1.4.5-2 1.5v5zM336.3 35.6c-2.4 0-4.2-1.7-4.2-4.4s1.9-4.4 4.3-4.4 4.2 1.7 4.2 4.4-1.9 4.4-4.3 4.4zm0-7.1c-1.4 0-2.1 1.1-2.1 2.7s.8 2.7 2.2 2.7c1.4 0 2.1-1.1 2.1-2.7s-.8-2.7-2.2-2.7zM342.4 35.4v-12l2.1-.3v12.3h-2.1zM346.8 35.4v-12l2.1-.3v12.3h-2.1zM352.8 31.7c.1 1.4 1 2.3 2.5 2.3.9 0 1.8-.3 2.6-.8l.3 1.8c-.8.4-1.9.7-3 .7-2.7 0-4.4-1.7-4.4-4.3 0-2.7 1.8-4.5 4.3-4.5 2.2 0 3.4 1.3 3.4 3.4 0 .5-.1 1-.2 1.4-.1-.2-5.5-.1-5.5 0zm3.6-1.3v-.1c0-1.1-.5-1.8-1.6-1.8-1.2 0-1.9 1-2 2l3.6-.1zM365.6 23.3l2.1-.3v12.3h-2.1v-.8c-.6.5-1.3 1.1-2.3 1.1-2.2 0-3.6-1.8-3.6-4.4 0-2.6 1.8-4.5 4.2-4.5.6 0 1.2.1 1.8.3v-3.7zm-1.5 5.2c-1.4 0-2.2 1.2-2.2 2.7 0 1.6.8 2.6 2.1 2.6.7 0 1.2-.3 1.7-.7v-4.2c-.5-.2-1-.4-1.6-.4zM376.7 35.7c-1.1 0-2.4-.3-3.2-.8l.5-1.7c.8.5 1.9.8 2.8.8.8 0 1.4-.3 1.4-.9 0-.6-.7-.9-1.7-1.1-1.6-.4-2.8-1-2.8-2.6s1.3-2.6 3.3-2.6c1 0 2.3.3 3 .7l-.5 1.7c-.8-.4-1.9-.7-2.6-.7-.8 0-1.2.3-1.2.8 0 .6.7.8 1.7 1.1 1.6.4 2.8 1 2.8 2.6 0 1.5-1.4 2.7-3.5 2.7zM384.8 35.6c-1.9 0-2.8-.8-2.8-2.8l.1-3.9-1.3-.1.1-1.4 1.3-.4v-1.8h2.1v1.9h2.3l-.1 1.7h-2.4l-.1 3.8c0 .8.4 1.1 1.1 1.1.4 0 .9-.1 1.3-.3l.3 1.7c-.6.4-1.2.5-1.9.5zM390.4 27.1v5.1c0 1.2.5 1.6 1.4 1.6.8 0 1.4-.3 1.8-.7v-6h2.1v8.2l-2.1.3v-1.2c-.7.7-1.7 1.3-2.7 1.3-1.6 0-2.6-1.1-2.6-2.9v-5.7h2.1zM403.5 23.3l2.1-.3v12.3h-2.1v-.8c-.6.5-1.3 1.1-2.3 1.1-2.2 0-3.6-1.8-3.6-4.4 0-2.6 1.8-4.5 4.2-4.5.6 0 1.2.1 1.8.3v-3.7zm-1.6 5.2c-1.4 0-2.2 1.2-2.2 2.7 0 1.6.8 2.6 2.1 2.6.7 0 1.2-.3 1.7-.7v-4.2c-.5-.2-1-.4-1.6-.4zM408.9 25.6c-.8 0-1.3-.5-1.3-1.3s.5-1.3 1.3-1.3 1.3.5 1.3 1.3c0 .7-.4 1.3-1.3 1.3zm-1 9.8v-8.2l2.1-.3v8.6h-2.1zM413.8 31.7c.1 1.4 1 2.3 2.5 2.3.9 0 1.8-.3 2.6-.8l.3 1.8c-.8.4-1.9.7-3 .7-2.7 0-4.4-1.7-4.4-4.3 0-2.7 1.8-4.5 4.3-4.5 2.2 0 3.4 1.3 3.4 3.4 0 .5-.1 1-.2 1.4 0-.2-5.5-.1-5.5 0zm3.7-1.3v-.1c0-1.1-.5-1.8-1.6-1.8-1.2 0-1.9 1-2 2l3.6-.1zM423.8 35.7c-1.1 0-2.4-.3-3.2-.8l.5-1.7c.8.5 1.9.8 2.8.8.8 0 1.4-.3 1.4-.9 0-.6-.7-.9-1.7-1.1-1.6-.4-2.8-1-2.8-2.6s1.3-2.6 3.3-2.6c1 0 2.3.3 3 .7l-.5 1.7c-.8-.4-1.9-.7-2.6-.7-.8 0-1.2.3-1.2.8 0 .6.7.8 1.7 1.1 1.6.4 2.8 1 2.8 2.6 0 1.5-1.4 2.7-3.5 2.7zM436.8 35.6c-2.4 0-4.2-1.7-4.2-4.4s1.9-4.4 4.3-4.4 4.2 1.7 4.2 4.4-1.9 4.4-4.3 4.4zm0-7.1c-1.4 0-2.1 1.1-2.1 2.7s.8 2.7 2.2 2.7c1.4 0 2.1-1.1 2.1-2.7s-.8-2.7-2.2-2.7zM447.8 25.1c-.4-.2-.9-.3-1.4-.3-.8 0-1.1.5-1.1 1.5v.9h2.5l-.1 1.7h-2.4v6.5h-2.1v-6.5l-1.4-.1.1-1.4 1.4-.4v-.9c.1-2.4 1.2-3.3 3-3.3.8 0 1.5.2 2 .4-.1.1-.5 1.9-.5 1.9zM457.5 34.4c-.6.7-1.3 1.2-2.3 1.2-1.5 0-2.6-1-2.6-2.3 0-1.5 1.1-2.8 4.9-3v-.2c0-1.1-.5-1.6-1.7-1.6-.8 0-1.9.4-2.8.9l-.4-1.7c.8-.5 2.1-1 3.5-1 2.6 0 3.5 1.1 3.5 3.4v3c0 .6.1.7.7.8l-.2 1.6c-1.5.2-2.2-.3-2.6-1.1zm0-2.9c-2.1.3-2.8.7-2.8 1.5 0 .6.5 1.1 1.2 1.1s1.2-.3 1.6-.7v-1.9zM472.1 23.6l.6 1.8c-2.5.5-4.4 1.8-5 3.8h.1c.7-.6 1.6-1.1 2.8-1.1 1.9 0 3.3 1.4 3.3 3.5 0 2.3-1.6 4-4.2 4-2.7 0-4.2-2.2-4.2-4.9 0-3.3 2.3-6.3 6.6-7.1zm-2.3 10.3c1.2 0 1.9-.8 1.9-2.1 0-1.2-.8-2-1.9-2-.8 0-1.6.4-2.1.8-.1.2-.1.5-.1.8.1 1.3.9 2.5 2.2 2.5zM475.1 31.9v-1.8h5.1v1.8h-5.1zM483.4 35.4l-2.5-8.3h2.2l1.4 5.8 1.7-5.8h2.1l1.8 5.8 1.2-5.8h2.3l-2.4 8.3h-2.1l-1.9-5.8-1.8 5.8h-2zM496.6 31.7c.1 1.4 1 2.3 2.5 2.3.9 0 1.8-.3 2.6-.8l.3 1.8c-.8.4-1.9.7-3 .7-2.7 0-4.4-1.7-4.4-4.3 0-2.7 1.8-4.5 4.3-4.5 2.2 0 3.4 1.3 3.4 3.4 0 .5-.1 1-.2 1.4-.1-.2-5.5-.1-5.5 0zm3.6-1.3v-.1c0-1.1-.5-1.8-1.6-1.8-1.2 0-1.9 1-2 2l3.6-.1zM505.5 31.7c.1 1.4 1 2.3 2.5 2.3.9 0 1.8-.3 2.6-.8l.3 1.8c-.8.4-1.9.7-3 .7-2.7 0-4.4-1.7-4.4-4.3 0-2.7 1.8-4.5 4.3-4.5 2.2 0 3.4 1.3 3.4 3.4 0 .5-.1 1-.2 1.4 0-.2-5.5-.1-5.5 0zm3.7-1.3v-.1c0-1.1-.5-1.8-1.6-1.8-1.2 0-1.9 1-2 2l3.6-.1zM515 31.4v4h-2.1v-12l2.1-.4v7.7l3-3.7h2.5l-3.4 3.9 3.5 4.4h-2.5l-3.1-3.9zM23.2 57.2c-1.9 0-2.8-.8-2.8-2.8l.1-3.9-1.3-.1.1-1.4 1.3-.4v-1.8h2.1v1.9H25v1.8h-2.4l-.1 3.8c0 .8.4 1.1 1.1 1.1.4 0 .9-.1 1.3-.3l.3 1.7c-.7.3-1.3.4-2 .4zM28.9 57h-2.1v-8.2l2.1-.3v1.4c.5-.9 1.2-1.4 2.2-1.4.5 0 1 .1 1.5.4l-.6 1.8c-.4-.2-.8-.3-1.2-.3-.7 0-1.4.5-2 1.5V57zM35.3 53.3c.1 1.4 1 2.3 2.5 2.3.9 0 1.8-.3 2.6-.8l.3 1.8c-.8.4-1.9.7-3 .7-2.7 0-4.4-1.7-4.4-4.3 0-2.7 1.8-4.5 4.3-4.5 2.2 0 3.4 1.3 3.4 3.4 0 .5-.1 1-.2 1.4-.1-.2-5.5-.1-5.5 0zm3.6-1.3v-.1c0-1.1-.5-1.8-1.6-1.8-1.2 0-1.9 1-2 2l3.6-.1zM47 56c-.6.7-1.3 1.2-2.3 1.2-1.5 0-2.6-1-2.6-2.3 0-1.5 1.1-2.8 4.9-3v-.2c0-1.1-.5-1.6-1.7-1.6-.8 0-1.9.4-2.8.9l-.4-1.7c.8-.5 2.1-1 3.5-1 2.6 0 3.5 1.1 3.5 3.4v3c0 .6.1.7.7.8l-.2 1.6c-1.5.2-2.2-.3-2.6-1.1zm0-2.9c-2.1.3-2.8.7-2.8 1.5 0 .6.5 1.1 1.2 1.1s1.2-.3 1.6-.7v-1.9zM54.2 57.2c-1.9 0-2.8-.8-2.8-2.8l.1-3.9-1.3-.1.1-1.4 1.3-.4v-1.8h2.1v1.9H56v1.8h-2.4l-.1 3.8c0 .8.4 1.1 1.1 1.1.4 0 .9-.1 1.3-.3l.3 1.7c-.7.3-1.2.4-2 .4zM68.2 57v-5c0-1.2-.5-1.7-1.4-1.7-.7 0-1.3.4-1.7.7v6H63v-5c0-1.2-.5-1.7-1.4-1.7-.8 0-1.3.3-1.7.7v6h-2.1v-8.3l2.1-.3v1.2c.8-.8 1.6-1.2 2.6-1.2s1.9.5 2.3 1.4c.8-.9 1.8-1.4 3-1.4 1.6 0 2.6 1.1 2.6 2.9V57h-2.2zM74.1 53.3c.1 1.4 1 2.3 2.5 2.3.9 0 1.8-.3 2.6-.8l.3 1.8c-.8.4-1.9.7-3 .7-2.7 0-4.4-1.7-4.4-4.3 0-2.7 1.8-4.5 4.3-4.5 2.2 0 3.4 1.3 3.4 3.4 0 .5-.1 1-.2 1.4-.1-.2-5.5-.1-5.5 0zm3.6-1.3v-.1c0-1.1-.5-1.8-1.6-1.8-1.2 0-1.9 1-2 2l3.6-.1zM86.9 57v-5.1c0-1.2-.5-1.6-1.4-1.6-.7 0-1.4.4-1.8.8V57h-2.1v-8.3l2.1-.3v1.3c.7-.8 1.7-1.3 2.7-1.3 1.7 0 2.7 1.1 2.7 2.9V57h-2.2zM94.1 57.2c-1.9 0-2.8-.8-2.8-2.8l.1-3.9-1.3-.1.1-1.4 1.3-.4v-1.8h2.1v1.9H96l-.1 1.7h-2.4l-.1 3.8c0 .8.4 1.1 1.1 1.1.4 0 .9-.1 1.3-.3l.3 1.7c-.7.4-1.2.5-2 .5zM107.2 44.9l2.1-.3V57h-2.1v-.8c-.6.5-1.3 1.1-2.3 1.1-2.2 0-3.6-1.8-3.6-4.4 0-2.6 1.8-4.5 4.2-4.5.6 0 1.2.1 1.8.3v-3.8zm-1.5 5.2c-1.4 0-2.2 1.2-2.2 2.7 0 1.6.8 2.6 2.1 2.6.7 0 1.2-.3 1.7-.7v-4.2c-.5-.2-1-.4-1.6-.4zM113.7 48.7v5.1c0 1.2.5 1.6 1.4 1.6.8 0 1.4-.3 1.8-.7v-6h2.1v8.2l-2.1.3V56c-.7.7-1.7 1.3-2.7 1.3-1.6 0-2.6-1.1-2.6-2.9v-5.7h2.1zM123.4 57h-2.1v-8.2l2.1-.3v1.4c.5-.9 1.2-1.4 2.2-1.4.5 0 1 .1 1.5.4l-.5 1.9c-.4-.2-.8-.3-1.2-.3-.7 0-1.4.5-2 1.5v5zM132.6 56c-.6.7-1.3 1.2-2.3 1.2-1.5 0-2.6-1-2.6-2.3 0-1.5 1.1-2.8 4.9-3v-.2c0-1.1-.5-1.6-1.7-1.6-.8 0-1.9.4-2.8.9l-.4-1.7c.8-.5 2.1-1 3.5-1 2.6 0 3.5 1.1 3.5 3.4v3c0 .6.1.7.7.8l-.2 1.6c-1.5.2-2.2-.3-2.6-1.1zm0-2.9c-2.1.3-2.8.7-2.8 1.5 0 .6.5 1.1 1.2 1.1s1.2-.3 1.6-.7v-1.9zM139.8 57.2c-1.9 0-2.8-.8-2.8-2.8l.1-3.9-1.3-.1.1-1.4 1.3-.4v-1.8h2.1v1.9h2.3l-.1 1.7h-2.4l-.1 3.8c0 .8.4 1.1 1.1 1.1.4 0 .9-.1 1.3-.3l.3 1.7c-.6.4-1.2.5-1.9.5zM144.4 47.2c-.8 0-1.3-.5-1.3-1.3s.5-1.3 1.3-1.3 1.3.5 1.3 1.3c0 .7-.5 1.3-1.3 1.3zm-1.1 9.8v-8.2l2.1-.3V57h-2.1zM151.4 57.2c-2.4 0-4.2-1.7-4.2-4.4s1.9-4.4 4.3-4.4 4.2 1.7 4.2 4.4-1.8 4.4-4.3 4.4zm.1-7.1c-1.4 0-2.1 1.1-2.1 2.7s.8 2.7 2.2 2.7c1.4 0 2.1-1.1 2.1-2.7s-.9-2.7-2.2-2.7zM162.9 57v-5.1c0-1.2-.5-1.6-1.4-1.6-.7 0-1.4.4-1.8.8V57h-2.1v-8.3l2.1-.3v1.3c.7-.8 1.7-1.3 2.7-1.3 1.7 0 2.7 1.1 2.7 2.9V57h-2.2zM173.5 57h-2.1v-8.2l2.1-.3v1.4c.5-.9 1.2-1.4 2.2-1.4.5 0 1 .1 1.5.4l-.5 1.9c-.4-.2-.8-.3-1.2-.3-.7 0-1.4.5-2 1.5v5zM179.9 53.3c.1 1.4 1 2.3 2.5 2.3.9 0 1.8-.3 2.6-.8l.3 1.8c-.8.4-1.9.7-3 .7-2.7 0-4.4-1.7-4.4-4.3 0-2.7 1.8-4.5 4.3-4.5 2.2 0 3.4 1.3 3.4 3.4 0 .5-.1 1-.2 1.4-.1-.2-5.5-.1-5.5 0zm3.6-1.3v-.1c0-1.1-.5-1.8-1.6-1.8-1.2 0-1.9 1-2 2l3.6-.1zM191.7 48.4c2.2 0 3.6 1.8 3.6 4.3 0 2.6-1.8 4.5-4.2 4.5-.5 0-1.2-.1-1.8-.2v3.9h-2.1V48.7l2.1-.3v1c.6-.5 1.4-1 2.4-1zm-2.3 6.7c.4.3.9.5 1.6.5 1.4 0 2.2-1.2 2.2-2.7 0-1.6-.8-2.6-2.1-2.6-.7 0-1.2.3-1.7.7v4.1zM200.8 57.2c-2.4 0-4.2-1.7-4.2-4.4s1.9-4.4 4.3-4.4 4.2 1.7 4.2 4.4-1.8 4.4-4.3 4.4zm.1-7.1c-1.4 0-2.1 1.1-2.1 2.7s.8 2.7 2.2 2.7c1.4 0 2.1-1.1 2.1-2.7s-.9-2.7-2.2-2.7zM209 57h-2.1v-8.2l2.1-.3v1.4c.5-.9 1.2-1.4 2.2-1.4.5 0 1 .1 1.5.4l-.5 1.9c-.4-.2-.8-.3-1.2-.3-.7 0-1.4.5-2 1.5v5zM217.1 57.2c-1.9 0-2.8-.8-2.8-2.8l.1-3.9-1.3-.1.1-1.4 1.3-.4v-1.8h2.1v1.9h2.3l-.1 1.7h-2.4l-.1 3.8c0 .8.4 1.1 1.1 1.1.4 0 .9-.1 1.3-.3l.3 1.7c-.6.4-1.2.5-1.9.5zM222.1 53.3c.1 1.4 1 2.3 2.5 2.3.9 0 1.8-.3 2.6-.8l.3 1.8c-.8.4-1.9.7-3 .7-2.7 0-4.4-1.7-4.4-4.3 0-2.7 1.8-4.5 4.3-4.5 2.2 0 3.4 1.3 3.4 3.4 0 .5-.1 1-.2 1.4-.1-.2-5.5-.1-5.5 0zm3.6-1.3v-.1c0-1.1-.5-1.8-1.6-1.8-1.2 0-1.9 1-2 2l3.6-.1zM234.9 44.9l2.1-.3V57h-2.1v-.8c-.6.5-1.3 1.1-2.3 1.1-2.2 0-3.6-1.8-3.6-4.4 0-2.6 1.8-4.5 4.2-4.5.6 0 1.2.1 1.8.3v-3.8zm-1.5 5.2c-1.4 0-2.2 1.2-2.2 2.7 0 1.6.8 2.6 2.1 2.6.7 0 1.2-.3 1.7-.7v-4.2c-.5-.2-1-.4-1.6-.4zM247.8 56c-.6.7-1.3 1.2-2.3 1.2-1.5 0-2.6-1-2.6-2.3 0-1.5 1.1-2.8 4.9-3v-.2c0-1.1-.5-1.6-1.7-1.6-.8 0-1.9.4-2.8.9l-.4-1.7c.8-.5 2.1-1 3.5-1 2.6 0 3.5 1.1 3.5 3.4v3c0 .6.1.7.7.8l-.2 1.6c-1.5.2-2.2-.3-2.6-1.1zm0-2.9c-2.1.3-2.8.7-2.8 1.5 0 .6.5 1.1 1.2 1.1s1.2-.3 1.6-.7v-1.9zM255 57.2c-1.9 0-2.8-.8-2.8-2.8l.1-3.9-1.3-.1.1-1.4 1.3-.4v-1.8h2.1v1.9h2.3l-.1 1.7h-2.4l-.1 3.8c0 .8.4 1.1 1.1 1.1.4 0 .9-.1 1.3-.3l.3 1.7c-.6.4-1.2.5-1.9.5zM262.6 57l.1-1.7h6.3V57h-6.4zm0-3.7l4.6-1.8v-.2l-4.6-1.8v-1.7l6.5 2.6v1.9l-6.5 2.6v-1.6zM271 57v-1.6c2.7-1.8 4.6-3 4.6-4.2 0-.7-.6-1.2-1.5-1.2-.8 0-1.7.4-2.6 1l-.6-1.7c.9-.7 2.2-1.2 3.6-1.2 2.1 0 3.4 1.1 3.4 2.7 0 1.7-1.5 2.8-3.9 4.3h4.2v1.8H271zM282.2 51.4c-1.9 0-3.1-1.3-3.1-3 0-1.8 1.2-3.1 3.1-3.1 1.9 0 3.1 1.3 3.1 3.1 0 1.7-1.2 3-3.1 3zm0-4.9c-1 0-1.7.8-1.7 1.9 0 1.1.6 1.9 1.7 1.9 1 0 1.7-.8 1.7-1.9 0-1.2-.7-1.9-1.7-1.9zm0 10.7h-1.6l9.1-11.8h1.6l-9.1 11.8zm7.4.2c-1.9 0-3.1-1.3-3.1-3.1 0-1.7 1.2-3 3.1-3 1.9 0 3.1 1.3 3.1 3 0 1.8-1.2 3.1-3.1 3.1zm0-4.9c-1 0-1.7.8-1.7 1.9 0 1.1.6 1.9 1.7 1.9 1 0 1.6-.8 1.6-1.9.1-1.1-.5-1.9-1.6-1.9zM302.6 56c-.6.7-1.3 1.2-2.3 1.2-1.5 0-2.6-1-2.6-2.3 0-1.5 1.1-2.8 4.9-3v-.2c0-1.1-.5-1.6-1.7-1.6-.8 0-1.9.4-2.8.9l-.4-1.7c.8-.5 2.1-1 3.5-1 2.6 0 3.5 1.1 3.5 3.4v3c0 .6.1.7.7.8l-.2 1.6c-1.5.2-2.2-.3-2.6-1.1zm0-2.9c-2.1.3-2.8.7-2.8 1.5 0 .6.5 1.1 1.2 1.1s1.2-.3 1.6-.7v-1.9zM312.3 57v-5.1c0-1.2-.5-1.6-1.4-1.6-.7 0-1.4.4-1.8.8V57H307v-8.3l2.1-.3v1.3c.7-.8 1.7-1.3 2.7-1.3 1.7 0 2.7 1.1 2.7 2.9V57h-2.2zM322.1 44.9l2.1-.3V57h-2.1v-.8c-.6.5-1.3 1.1-2.3 1.1-2.2 0-3.6-1.8-3.6-4.4 0-2.6 1.8-4.5 4.2-4.5.6 0 1.2.1 1.8.3v-3.8zm-1.6 5.2c-1.4 0-2.2 1.2-2.2 2.7 0 1.6.8 2.6 2.1 2.6.7 0 1.2-.3 1.7-.7v-4.2c-.4-.2-.9-.4-1.6-.4zM330.2 56.8V55l4.9-2.1v-.2l-4.9-2.2v-1.8l7.2 3.3v1.4l-7.2 3.4zM343.8 48.4c2.2 0 3.6 1.8 3.6 4.3 0 2.6-1.8 4.5-4.2 4.5-.5 0-1.2-.1-1.8-.2v3.9h-2.1V48.7l2.1-.3v1c.7-.5 1.4-1 2.4-1zm-2.3 6.7c.4.3.9.5 1.6.5 1.4 0 2.2-1.2 2.2-2.7 0-1.6-.8-2.6-2.1-2.6-.7 0-1.2.3-1.7.7v4.1zM349.2 57V45l2.1-.3V57h-2.1zM358 56c-.6.7-1.3 1.2-2.3 1.2-1.5 0-2.6-1-2.6-2.3 0-1.5 1.1-2.8 4.9-3v-.2c0-1.1-.5-1.6-1.7-1.6-.8 0-1.9.4-2.8.9l-.4-1.7c.8-.5 2.1-1 3.5-1 2.6 0 3.5 1.1 3.5 3.4v3c0 .6.1.7.7.8l-.2 1.6c-1.5.2-2.2-.3-2.6-1.1zm0-2.9c-2.1.3-2.8.7-2.8 1.5 0 .6.5 1.1 1.2 1.1s1.2-.3 1.6-.7v-1.9zM366.1 57.2c-2.7 0-4.3-1.7-4.3-4.4s1.8-4.4 4.4-4.4c1.1 0 2.1.3 2.9.7l-.5 1.7c-.7-.4-1.5-.7-2.3-.7-1.5 0-2.4 1-2.4 2.6 0 1.7 1 2.7 2.4 2.7.9 0 1.7-.2 2.3-.6l.3 1.7c-.6.5-1.7.7-2.8.7zM372.3 53.3c.1 1.4 1 2.3 2.5 2.3.9 0 1.8-.3 2.6-.8l.3 1.8c-.8.4-1.9.7-3 .7-2.7 0-4.4-1.7-4.4-4.3 0-2.7 1.8-4.5 4.3-4.5 2.2 0 3.4 1.3 3.4 3.4 0 .5-.1 1-.2 1.4-.1-.2-5.5-.1-5.5 0zm3.6-1.3v-.1c0-1.1-.5-1.8-1.6-1.8-1.2 0-1.9 1-2 2l3.6-.1zM383.5 57.2c-.5 0-1.3-.1-1.9-.3l-2 .3V44.9l2.1-.3v4.8c.6-.5 1.3-1.1 2.3-1.1 2.2 0 3.6 1.8 3.6 4.3.1 2.8-1.7 4.6-4.1 4.6zm0-7c-.7 0-1.2.3-1.7.7v4.2c.4.3.9.5 1.6.5 1.4 0 2.2-1.2 2.2-2.7 0-1.7-.8-2.7-2.1-2.7zM393.2 57.2c-2.4 0-4.2-1.7-4.2-4.4s1.9-4.4 4.3-4.4 4.2 1.7 4.2 4.4-1.9 4.4-4.3 4.4zm0-7.1c-1.4 0-2.1 1.1-2.1 2.7s.8 2.7 2.2 2.7c1.4 0 2.1-1.1 2.1-2.7s-.8-2.7-2.2-2.7zM403.3 52.9c0-4.5 2.8-7.6 5.2-8.8l1 1.4c-2 1.2-4.3 3.8-4.3 7.4 0 3.5 2.2 6.2 4.3 7.4l-1 1.4c-2.3-1.2-5.2-4.4-5.2-8.8zM413 57.3c-1.1 0-2.4-.3-3.2-.8l.5-1.7c.8.5 1.9.8 2.8.8.8 0 1.4-.3 1.4-.9 0-.6-.7-.9-1.7-1.1-1.6-.4-2.8-1-2.8-2.6s1.3-2.6 3.3-2.6c1 0 2.3.3 3 .7l-.5 1.7c-.8-.4-1.9-.7-2.6-.7-.8 0-1.2.3-1.2.8 0 .6.7.8 1.7 1.1 1.6.4 2.8 1 2.8 2.6 0 1.5-1.4 2.7-3.5 2.7zM422.6 56c-.6.7-1.3 1.2-2.3 1.2-1.5 0-2.6-1-2.6-2.3 0-1.5 1.1-2.8 4.9-3v-.2c0-1.1-.5-1.6-1.7-1.6-.8 0-1.9.4-2.8.9l-.4-1.7c.8-.5 2.1-1 3.5-1 2.6 0 3.5 1.1 3.5 3.4v3c0 .6.1.7.7.8l-.2 1.6c-1.5.2-2.3-.3-2.6-1.1zm0-2.9c-2.1.3-2.8.7-2.8 1.5 0 .6.5 1.1 1.2 1.1s1.2-.3 1.6-.7v-1.9zM431.8 46.7c-.4-.2-.9-.3-1.4-.3-.8 0-1.1.5-1.1 1.5v.9h2.5l-.1 1.7h-2.4V57h-2.1v-6.5l-1.4-.1.1-1.4 1.4-.4v-.9c.1-2.4 1.2-3.3 3-3.3.8 0 1.5.2 2 .4-.1.1-.5 1.9-.5 1.9zM434.7 53.3c.1 1.4 1 2.3 2.5 2.3.9 0 1.8-.3 2.6-.8l.3 1.8c-.8.4-1.9.7-3 .7-2.7 0-4.4-1.7-4.4-4.3 0-2.7 1.8-4.5 4.3-4.5 2.2 0 3.4 1.3 3.4 3.4 0 .5-.1 1-.2 1.4-.1-.2-5.5-.1-5.5 0zm3.6-1.3v-.1c0-1.1-.5-1.8-1.6-1.8-1.2 0-1.9 1-2 2l3.6-.1zM445 57.2c-1.9 0-2.8-.8-2.8-2.8l.1-3.9-1.3-.1.1-1.4 1.3-.4v-1.8h2.1v1.9h2.3l-.1 1.7h-2.4l-.1 3.8c0 .8.4 1.1 1.1 1.1.4 0 .9-.1 1.3-.3l.3 1.7c-.6.4-1.2.5-1.9.5zM452.8 56.8l-.5 1.3c-.8 2.3-1.8 3-3.3 3-.8 0-1.4-.2-2.1-.5l.6-1.7c.5.2.9.4 1.3.4.6 0 .9-.3 1.4-1.4l.4-1-3.2-8.2h2.3l2.1 5.9 2-5.9h2.3l-3.3 8.1zM465.6 48.4c2.2 0 3.6 1.8 3.6 4.3 0 2.6-1.8 4.5-4.2 4.5-.5 0-1.2-.1-1.8-.2v3.9h-2.1V48.7l2.1-.3v1c.6-.5 1.4-1 2.4-1zm-2.3 6.7c.4.3.9.5 1.6.5 1.4 0 2.2-1.2 2.2-2.7 0-1.6-.8-2.6-2.1-2.6-.7 0-1.2.3-1.7.7v4.1zM474.7 57.2c-2.4 0-4.2-1.7-4.2-4.4s1.9-4.4 4.3-4.4 4.2 1.7 4.2 4.4-1.9 4.4-4.3 4.4zm.1-7.1c-1.4 0-2.1 1.1-2.1 2.7s.8 2.7 2.2 2.7c1.4 0 2.1-1.1 2.1-2.7s-.9-2.7-2.2-2.7zM485.2 48.4c2.2 0 3.6 1.8 3.6 4.3 0 2.6-1.8 4.5-4.2 4.5-.5 0-1.2-.1-1.8-.2v3.9h-2.1V48.7l2.1-.3v1c.7-.5 1.4-1 2.4-1zm-2.3 6.7c.4.3.9.5 1.6.5 1.4 0 2.2-1.2 2.2-2.7 0-1.6-.8-2.6-2.1-2.6-.7 0-1.2.3-1.7.7v4.1zM492.7 48.7v5.1c0 1.2.5 1.6 1.4 1.6.8 0 1.4-.3 1.8-.7v-6h2.1v8.2l-2.1.3V56c-.7.7-1.7 1.3-2.7 1.3-1.6 0-2.6-1.1-2.6-2.9v-5.7h2.1zM500.3 57V45l2.1-.3V57h-2.1zM509.1 56c-.6.7-1.3 1.2-2.3 1.2-1.5 0-2.6-1-2.6-2.3 0-1.5 1.1-2.8 4.9-3v-.2c0-1.1-.5-1.6-1.7-1.6-.8 0-1.9.4-2.8.9l-.4-1.7c.8-.5 2.1-1 3.5-1 2.6 0 3.5 1.1 3.5 3.4v3c0 .6.1.7.7.8l-.2 1.6c-1.5.2-2.2-.3-2.6-1.1zm0-2.9c-2.1.3-2.8.7-2.8 1.5 0 .6.5 1.1 1.2 1.1s1.2-.3 1.6-.7v-1.9zM516.3 57.2c-1.9 0-2.8-.8-2.8-2.8l.1-3.9-1.3-.1.1-1.4 1.3-.4v-1.8h2.1v1.9h2.3l-.1 1.7h-2.4l-.1 3.8c0 .8.4 1.1 1.1 1.1.4 0 .9-.1 1.3-.3l.3 1.7c-.6.4-1.2.5-1.9.5zM520.9 47.2c-.8 0-1.3-.5-1.3-1.3s.5-1.3 1.3-1.3 1.3.5 1.3 1.3c0 .7-.5 1.3-1.3 1.3zm-1.1 9.8v-8.2l2.1-.3V57h-2.1zM527.9 57.2c-2.4 0-4.2-1.7-4.2-4.4s1.9-4.4 4.3-4.4 4.2 1.7 4.2 4.4-1.8 4.4-4.3 4.4zm.1-7.1c-1.4 0-2.1 1.1-2.1 2.7s.8 2.7 2.2 2.7c1.4 0 2.1-1.1 2.1-2.7s-.9-2.7-2.2-2.7zM539.4 57v-5.1c0-1.2-.5-1.6-1.4-1.6-.7 0-1.4.4-1.8.8V57H534v-8.3l2.1-.3v1.3c.7-.8 1.7-1.3 2.7-1.3 1.7 0 2.7 1.1 2.7 2.9V57h-2.1zM542.4 60.3c2.1-1.2 4.3-3.9 4.3-7.4 0-3.5-2.2-6.2-4.3-7.4l1.1-1.4c2.3 1.2 5.2 4.3 5.2 8.8s-2.8 7.6-5.2 8.8l-1.1-1.4zM551.3 47.2l-1.2.3v-1.1l2.5-.7V51h-1.2v-3.8z"/></g><g><path class="st6" d="M15.2 401.2h534.6v12.2H15.2z"/><path d="M17.2 406.6h-1.3v-5h1.4c1.6 0 2.6 1 2.6 2.5 0 1.6-1 2.5-2.7 2.5zm0-4.5h-.8v4.1h.8c1.3 0 2.2-.7 2.2-2s-.8-2.1-2.2-2.1zM21.1 402.1c-.2 0-.3-.2-.3-.4s.1-.4.3-.4.3.2.3.4c0 .3-.1.4-.3.4zm-.3 4.5V403l.5-.1v3.8h-.5zM23.4 406.8c-.4 0-.9-.1-1.2-.3l.1-.5c.3.2.7.3 1.1.3.4 0 .8-.2.8-.6 0-.4-.5-.6-.9-.7-.5-.2-1.1-.4-1.1-1 0-.7.6-1.1 1.2-1.1.4 0 .8.1 1.1.3l-.1.4c-.3-.2-.7-.3-1-.3-.4 0-.7.2-.7.6 0 .4.4.5.9.7.5.2 1.1.4 1.1 1.1 0 .6-.6 1.1-1.3 1.1zM27.1 406.8c-1.1 0-1.8-.8-1.8-1.9 0-1.1.8-1.9 1.8-1.9.4 0 .8.1 1.1.3l-.1.4c-.3-.2-.6-.3-1-.3-.8 0-1.3.6-1.3 1.5s.5 1.5 1.3 1.5c.4 0 .7-.1 1-.3l.1.5c-.2 0-.6.2-1.1.2zM30.7 406.8c-1 0-1.8-.8-1.8-1.9 0-1.2.8-1.9 1.8-1.9s1.8.8 1.8 1.9c0 1.1-.8 1.9-1.8 1.9zm0-3.5c-.8 0-1.3.6-1.3 1.5s.5 1.5 1.3 1.5 1.3-.6 1.3-1.5-.5-1.5-1.3-1.5zM35.8 406.6v-2.4c0-.6-.3-.9-.8-.9-.4 0-.8.2-1.1.5v2.8h-.5V403l.5-.1v.6c.4-.4.9-.6 1.2-.6.7 0 1.2.5 1.2 1.3v2.5h-.5zM38.5 406.8c-.7 0-1-.4-1-1.2l.1-2.2H37v-.3l.6-.1v-.8h.4v.9h1.2v.4H38l-.1 2.2c0 .5.2.7.5.7.2 0 .5-.1.7-.2l.1.4c-.2.1-.5.2-.7.2zM40.3 402.1c-.2 0-.3-.2-.3-.4s.1-.4.3-.4.3.2.3.4c.1.3 0 .4-.3.4zm-.2 4.5V403l.5-.1v3.8h-.5zM44.2 406.6v-2.4c0-.6-.3-.9-.8-.9-.4 0-.8.2-1.1.5v2.8h-.5V403l.5-.1v.6c.4-.4.9-.6 1.2-.6.7 0 1.2.5 1.2 1.3v2.5h-.5zM46.3 403v2.4c0 .6.3.9.8.9.4 0 .8-.2 1.1-.5V403h.5v3.7l-.5.1v-.6c-.4.4-.9.6-1.3.6-.7 0-1.2-.5-1.2-1.3V403h.6zM51.7 406.2c-.2.3-.6.5-1.1.5-.7 0-1.2-.4-1.2-1 0-.7.5-1.2 2.2-1.3v-.2c0-.6-.3-.9-.9-.9-.4 0-.9.2-1.2.4l-.1-.5c.3-.2.9-.4 1.4-.4.8 0 1.3.4 1.3 1.3v1.8c0 .3 0 .4.4.4v.4c-.4.1-.7-.1-.8-.5zm0-1.4c-1.3.1-1.7.4-1.7.9 0 .4.3.6.8.6.4 0 .7-.2 1-.5v-1zM54.3 406.8c-.7 0-1-.4-1-1.2l.1-2.2h-.6v-.3l.6-.1v-.8h.5v.9h1.2v.4h-1.2l-.1 2.2c0 .5.2.7.5.7.2 0 .5-.1.7-.2l.1.4c-.2.1-.5.2-.8.2zM56.2 402.1c-.2 0-.3-.2-.3-.4s.1-.4.3-.4c.2 0 .3.2.3.4.1.3 0 .4-.3.4zm-.2 4.5V403l.5-.1v3.8H56zM59.2 406.8c-1 0-1.8-.8-1.8-1.9 0-1.2.8-1.9 1.8-1.9s1.8.8 1.8 1.9c0 1.1-.8 1.9-1.8 1.9zm0-3.5c-.8 0-1.3.6-1.3 1.5s.5 1.5 1.3 1.5 1.3-.6 1.3-1.5-.5-1.5-1.3-1.5zM64.3 406.6v-2.4c0-.6-.3-.9-.8-.9-.4 0-.8.2-1.1.5v2.8h-.5V403l.5-.1v.6c.4-.4.9-.6 1.2-.6.7 0 1.2.5 1.2 1.3v2.5h-.5zM70.2 401.3l.5-.1v5.5h-.5v-.3c-.2.2-.6.4-1.1.4-1 0-1.6-.8-1.6-1.9 0-1.1.8-1.9 1.8-1.9.3 0 .6.1.9.2v-1.9zm-.9 2.1c-.8 0-1.3.6-1.3 1.5 0 .8.5 1.5 1.2 1.5.4 0 .7-.2 1-.4v-2.3c-.2-.2-.5-.3-.9-.3zM72.3 403v2.4c0 .6.3.9.8.9.4 0 .8-.2 1.1-.5V403h.5v3.7l-.5.1v-.6c-.4.4-.9.6-1.3.6-.7 0-1.2-.5-1.2-1.3V403h.6zM76.2 404.9c0 .8.5 1.4 1.3 1.4.4 0 .8-.1 1.1-.3l.1.5c-.3.2-.7.3-1.2.3-1.1 0-1.8-.8-1.8-1.9 0-1.2.7-2 1.7-2 .8 0 1.3.5 1.3 1.4 0 .2 0 .4-.1.6h-2.4zm2-.5v-.2c0-.6-.3-.9-.9-.9-.7 0-1.1.5-1.2 1.1h2.1zM82.5 406.8c-.7 0-1-.4-1-1.2l.1-2.2H81v-.3l.6-.1v-.8h.5v.9h1.2v.4H82l-.1 2.2c0 .5.2.7.5.7.2 0 .5-.1.7-.2l.1.4c-.1.1-.4.2-.7.2zM85.6 406.8c-1 0-1.8-.8-1.8-1.9 0-1.2.8-1.9 1.8-1.9s1.8.8 1.8 1.9c0 1.1-.8 1.9-1.8 1.9zm0-3.5c-.8 0-1.3.6-1.3 1.5s.5 1.5 1.3 1.5 1.3-.6 1.3-1.5-.5-1.5-1.3-1.5zM92.1 406.2c-.2.3-.6.5-1.1.5-.7 0-1.2-.4-1.2-1 0-.7.5-1.2 2.2-1.3v-.2c0-.6-.3-.9-.9-.9-.4 0-.9.2-1.2.4l-.1-.5c.3-.2.9-.4 1.4-.4.8 0 1.3.4 1.3 1.3v1.8c0 .3 0 .4.4.4v.4c-.5.1-.8-.1-.8-.5zm0-1.4c-1.3.1-1.7.4-1.7.9 0 .4.3.6.8.6.4 0 .7-.2 1-.5v-1zM96.1 401.3l.5-.1v5.5h-.5v-.3c-.2.2-.6.4-1.1.4-1 0-1.6-.8-1.6-1.9 0-1.1.8-1.9 1.8-1.9.3 0 .6.1.9.2v-1.9zm-.9 2.1c-.8 0-1.3.6-1.3 1.5 0 .8.5 1.5 1.2 1.5.4 0 .7-.2 1-.4v-2.3c-.2-.2-.5-.3-.9-.3zM99.1 406.7h-.4l-1.4-3.7h.5l1.2 3 1.1-3h.5l-1.5 3.7zM101.4 404.9c0 .8.5 1.4 1.3 1.4.4 0 .8-.1 1.1-.3l.1.5c-.3.2-.7.3-1.2.3-1.1 0-1.8-.8-1.8-1.9 0-1.2.7-2 1.7-2 .8 0 1.3.5 1.3 1.4 0 .2 0 .4-.1.6h-2.4zm2.1-.5v-.2c0-.6-.3-.9-.9-.9-.7 0-1.1.5-1.2 1.1h2.1zM105.4 406.6h-.5V403l.5-.1v.8c.2-.5.6-.8 1.1-.8.2 0 .5.1.6.2l-.1.5c-.2-.1-.4-.2-.6-.2-.4 0-.7.3-1 .9v2.3zM108.6 406.8c-.4 0-.9-.1-1.2-.3l.1-.5c.3.2.7.3 1.1.3.4 0 .8-.2.8-.6 0-.4-.5-.6-.9-.7-.5-.2-1.1-.4-1.1-1 0-.7.6-1.1 1.2-1.1.4 0 .8.1 1.1.3l-.1.4c-.3-.2-.7-.3-1-.3-.4 0-.7.2-.7.6 0 .4.4.5.9.7.5.2 1.1.4 1.1 1.1 0 .6-.5 1.1-1.3 1.1zM111.1 404.9c0 .8.5 1.4 1.3 1.4.4 0 .8-.1 1.1-.3l.1.5c-.3.2-.7.3-1.2.3-1.1 0-1.8-.8-1.8-1.9 0-1.2.7-2 1.7-2 .8 0 1.3.5 1.3 1.4 0 .2 0 .4-.1.6h-2.4zm2.1-.5v-.2c0-.6-.3-.9-.9-.9-.7 0-1.1.5-1.2 1.1h2.1zM116.9 406.6h-.5V403l.5-.1v.8c.2-.5.6-.8 1.1-.8.2 0 .5.1.6.2l-.1.5c-.2-.1-.4-.2-.6-.2-.4 0-.7.3-1 .9v2.3zM119.4 404.9c0 .8.5 1.4 1.3 1.4.4 0 .8-.1 1.1-.3l.1.5c-.3.2-.7.3-1.2.3-1.1 0-1.8-.8-1.8-1.9 0-1.2.7-2 1.7-2 .8 0 1.3.5 1.3 1.4 0 .2 0 .4-.1.6h-2.4zm2.1-.5v-.2c0-.6-.3-.9-.9-.9-.7 0-1.1.5-1.2 1.1h2.1zM124.9 406.2c-.2.3-.6.5-1.1.5-.7 0-1.2-.4-1.2-1 0-.7.5-1.2 2.2-1.3v-.2c0-.6-.3-.9-.9-.9-.4 0-.9.2-1.2.4l-.1-.5c.3-.2.9-.4 1.4-.4.8 0 1.3.4 1.3 1.3v1.8c0 .3 0 .4.4.4v.4c-.5.1-.8-.1-.8-.5zm-.1-1.4c-1.3.1-1.7.4-1.7.9 0 .4.3.6.8.6.4 0 .7-.2 1-.5v-1zM128 406.8c-1.1 0-1.8-.8-1.8-1.9 0-1.1.8-1.9 1.8-1.9.4 0 .8.1 1.1.3l-.1.4c-.3-.2-.6-.3-1-.3-.8 0-1.3.6-1.3 1.5s.5 1.5 1.3 1.5c.4 0 .7-.1 1-.3l.1.5c-.3 0-.7.2-1.1.2zM131.1 406.8c-.7 0-1-.4-1-1.2l.1-2.2h-.6v-.3l.6-.1v-.8h.5v.9h1.2v.4h-1.2l-.1 2.2c0 .5.2.7.5.7.2 0 .5-.1.7-.2l.1.4c-.3.1-.6.2-.8.2zM132.9 402.1c-.2 0-.3-.2-.3-.4s.1-.4.3-.4c.2 0 .3.2.3.4.1.3 0 .4-.3.4zm-.2 4.5V403l.5-.1v3.8h-.5zM135.9 406.8c-1 0-1.8-.8-1.8-1.9 0-1.2.8-1.9 1.8-1.9s1.8.8 1.8 1.9c0 1.1-.8 1.9-1.8 1.9zm0-3.5c-.8 0-1.3.6-1.3 1.5s.5 1.5 1.3 1.5 1.3-.6 1.3-1.5-.5-1.5-1.3-1.5zM141 406.6v-2.4c0-.6-.3-.9-.8-.9-.4 0-.8.2-1.1.5v2.8h-.5V403l.5-.1v.6c.4-.4.9-.6 1.2-.6.7 0 1.2.5 1.2 1.3v2.5h-.5zM143.5 406.8c-.4 0-.9-.1-1.2-.3l.1-.5c.3.2.7.3 1.1.3.4 0 .8-.2.8-.6 0-.4-.5-.6-.9-.7-.5-.2-1.1-.4-1.1-1 0-.7.6-1.1 1.2-1.1.4 0 .8.1 1.1.3l-.1.4c-.3-.2-.7-.3-1-.3-.4 0-.7.2-.7.6 0 .4.4.5.9.7.5.2 1.1.4 1.1 1.1 0 .6-.5 1.1-1.3 1.1zM148.2 406.7l-1.1-3.7h.5l.8 2.9 1-2.9h.4l1 2.9.8-2.9h.5l-1.1 3.7h-.4l-1-3-1 3h-.4zM154.8 406.2c-.2.3-.6.5-1.1.5-.7 0-1.2-.4-1.2-1 0-.7.5-1.2 2.2-1.3v-.2c0-.6-.3-.9-.9-.9-.4 0-.9.2-1.2.4l-.1-.5c.3-.2.9-.4 1.4-.4.8 0 1.3.4 1.3 1.3v1.8c0 .3 0 .4.4.4v.4c-.5.1-.7-.1-.8-.5zm0-1.4c-1.3.1-1.7.4-1.7.9 0 .4.3.6.8.6.4 0 .7-.2 1-.5v-1zM157.3 406.8c-.4 0-.9-.1-1.2-.3l.1-.5c.3.2.7.3 1.1.3.4 0 .8-.2.8-.6 0-.4-.5-.6-.9-.7-.5-.2-1.1-.4-1.1-1 0-.7.6-1.1 1.2-1.1.4 0 .8.1 1.1.3l-.1.4c-.3-.2-.7-.3-1-.3-.4 0-.7.2-.7.6 0 .4.4.5.9.7.5.2 1.1.4 1.1 1.1 0 .6-.6 1.1-1.3 1.1zM163.9 406.6c0 .9-.8 1.5-1.7 1.5-.5 0-1-.1-1.3-.3l.1-.5c.3.2.7.3 1.2.3.7 0 1.2-.4 1.2-1s-.5-.9-1.1-1c-.2 0-.5 0-.7.1v-.4c1-.2 1.7-.6 1.7-1.3 0-.5-.4-.8-1-.8-.4 0-.8.2-1.2.5l-.2-.4c.4-.3.9-.5 1.4-.5.9 0 1.4.5 1.4 1.2 0 .6-.5 1.1-1.1 1.3.9.1 1.3.6 1.3 1.3zM165.5 404.1c-.8 0-1.3-.6-1.3-1.3 0-.7.5-1.3 1.3-1.3s1.3.6 1.3 1.3c.1.7-.4 1.3-1.3 1.3zm0-2.3c-.6 0-1 .4-1 1 0 .5.4 1 1 1s1-.5 1-1c0-.6-.4-1-1-1zm-.2 5h-.4l4.1-5.2h.4l-4.1 5.2zm3.3 0c-.8 0-1.3-.6-1.3-1.3 0-.7.5-1.3 1.3-1.3s1.3.6 1.3 1.3c0 .7-.5 1.3-1.3 1.3zm0-2.3c-.6 0-1 .5-1 1 0 .6.4 1 1 1s1-.4 1-1c-.1-.5-.4-1-1-1zM173.1 406.7L172 403h.5l.8 2.9 1-2.9h.4l1 2.9.8-2.9h.5l-1.1 3.7h-.4l-1-3-1 3h-.4zM178 402.1c-.2 0-.3-.2-.3-.4s.1-.4.3-.4c.2 0 .3.2.3.4 0 .3-.1.4-.3.4zm-.3 4.5V403l.5-.1v3.8h-.5zM180.4 406.8c-.7 0-1-.4-1-1.2l.1-2.2h-.6v-.3l.6-.1v-.8h.5v.9h1.2v.4H180l-.1 2.2c0 .5.2.7.5.7.2 0 .5-.1.7-.2l.1.4c-.2.1-.5.2-.8.2zM184.4 406.6v-2.4c0-.6-.3-.9-.8-.9-.4 0-.8.2-1.1.5v2.8h-.5v-5.4l.5-.1v2.3c.4-.4.9-.6 1.3-.6.7 0 1.1.5 1.1 1.3v2.5h-.5zM188 406.6v-5h.5v5h-.5zM193.2 401.6h.5v5h-.6l-2.9-4.3v4.3h-.5v-5h.6l2.8 4.3v-4.3zM197.1 406.8c-1.4 0-2.4-1-2.4-2.6s1-2.6 2.4-2.6c.6 0 1.2.2 1.6.4l-.2.5c-.4-.2-.9-.4-1.4-.4-1.1 0-1.9.8-1.9 2.1s.8 2.1 1.9 2.1c.5 0 .9-.1 1.2-.3v-1.4h-1.4v-.5h1.9v2.1c-.4.4-1.1.6-1.7.6zM200.5 406.6h-.5v-5h1.3c1.2 0 1.8.6 1.8 1.4 0 .8-.5 1.2-1.2 1.4l1.4 2.2h-.6l-1.3-2.1-1 .1v2zm.9-2.4c.7 0 1.2-.4 1.2-1 0-.7-.5-1-1.4-1h-.8v2.1l1-.1zM204.2 406.6v-5h3v.5h-2.5v1.8h2.1v.5h-2.1v1.8h2.5v.5h-3zM207.9 406.6v-.4l3-4.2H208v-.5h3.5v.4l-3 4.1h3v.5h-3.6zM212.1 406.6v-.4l3-4.2h-2.9v-.5h3.5v.4l-3 4.1h3v.5h-3.6zM220.5 406.6h-.5l-.5-1.4h-2.3l-.5 1.4h-.5l1.9-5h.6l1.8 5zm-2.2-4.4l-1 2.6h1.9l-.9-2.6zM224.3 406.7h-.4l-1.4-3.7h.5l1.2 3 1.1-3h.5l-1.5 3.7zM227.3 406.8c-.4 0-.9-.1-1.2-.3l.1-.5c.3.2.7.3 1.1.3.4 0 .8-.2.8-.6 0-.4-.5-.6-.9-.7-.5-.2-1.1-.4-1.1-1 0-.7.6-1.1 1.2-1.1.4 0 .8.1 1.1.3l-.1.4c-.3-.2-.7-.3-1-.3-.4 0-.7.2-.7.6 0 .4.4.5.9.7.5.2 1.1.4 1.1 1.1 0 .6-.6 1.1-1.3 1.1zM231.1 406.6v-.5c1.3-1 2.2-1.6 2.2-2.2 0-.4-.3-.8-.8-.8-.4 0-.8.2-1.1.5l-.2-.4c.4-.3.8-.5 1.4-.5.8 0 1.3.5 1.3 1.2 0 .9-.9 1.4-2 2.3h2.2v.5h-3zM235.7 404.1c-.8 0-1.3-.6-1.3-1.3 0-.7.5-1.3 1.3-1.3s1.3.6 1.3 1.3c0 .7-.5 1.3-1.3 1.3zm0-2.3c-.6 0-1 .4-1 1 0 .5.4 1 1 1s1-.5 1-1c0-.6-.4-1-1-1zm-.3 5h-.4l4.1-5.2h.4l-4.1 5.2zm3.3 0c-.8 0-1.3-.6-1.3-1.3 0-.7.5-1.3 1.3-1.3s1.3.6 1.3 1.3c.1.7-.4 1.3-1.3 1.3zm0-2.3c-.6 0-1 .5-1 1 0 .6.4 1 1 1s1-.4 1-1c0-.5-.4-1-1-1zM243.3 406.7l-1.1-3.7h.5l.8 2.9 1-2.9h.4l1 2.9.8-2.9h.5l-1.1 3.7h-.4l-1-3-1 3h-.4zM248.1 402.1c-.2 0-.3-.2-.3-.4s.1-.4.3-.4.3.2.3.4c.1.3 0 .4-.3.4zm-.2 4.5V403l.5-.1v3.8h-.5zM250.6 406.8c-.7 0-1-.4-1-1.2l.1-2.2h-.6v-.3l.6-.1v-.8h.5v.9h1.2v.4h-1.2l-.1 2.2c0 .5.2.7.5.7.2 0 .5-.1.7-.2l.1.4c-.3.1-.6.2-.8.2zM254.6 406.6v-2.4c0-.6-.3-.9-.8-.9-.4 0-.8.2-1.1.5v2.8h-.5v-5.4l.5-.1v2.3c.4-.4.9-.6 1.3-.6.7 0 1.1.5 1.1 1.3v2.5h-.5zM259.6 402.9c1 0 1.6.8 1.6 1.9 0 1.1-.8 2-1.8 2-.3 0-.7-.1-.9-.2v2h-.5V403l.5-.1v.5c.3-.3.7-.5 1.1-.5zm-1 3.1c.2.2.6.3.9.3.8 0 1.3-.6 1.3-1.5 0-.8-.5-1.4-1.2-1.4-.4 0-.7.2-1 .4v2.2zM262.2 406.6v-5.4l.5-.1v5.5h-.5zM265.7 406.2c-.2.3-.6.5-1.1.5-.7 0-1.2-.4-1.2-1 0-.7.5-1.2 2.2-1.3v-.2c0-.6-.3-.9-.9-.9-.4 0-.9.2-1.2.4l-.1-.5c.3-.2.9-.4 1.4-.4.8 0 1.3.4 1.3 1.3v1.8c0 .3 0 .4.4.4v.4c-.4.1-.7-.1-.8-.5zm0-1.4c-1.3.1-1.7.4-1.7.9 0 .4.3.6.8.6.4 0 .7-.2 1-.5v-1zM268.9 406.8c-1.1 0-1.8-.8-1.8-1.9 0-1.1.8-1.9 1.8-1.9.4 0 .8.1 1.1.3l-.1.4c-.3-.2-.6-.3-1-.3-.8 0-1.3.6-1.3 1.5s.5 1.5 1.3 1.5c.4 0 .7-.1 1-.3l.1.5c-.3 0-.7.2-1.1.2zM271.2 404.9c0 .8.5 1.4 1.3 1.4.4 0 .8-.1 1.1-.3l.1.5c-.3.2-.7.3-1.2.3-1.1 0-1.8-.8-1.8-1.9 0-1.2.7-2 1.7-2 .8 0 1.3.5 1.3 1.4 0 .2 0 .4-.1.6h-2.4zm2-.5v-.2c0-.6-.3-.9-.9-.9-.7 0-1.1.5-1.2 1.1h2.1zM276.1 406.8c-.3 0-.7-.1-.9-.2l-.5.2v-5.5l.5-.1v2.2c.2-.2.6-.5 1.1-.5 1 0 1.6.8 1.6 1.9 0 1.1-.8 2-1.8 2zm.1-3.4c-.4 0-.7.2-1 .4v2.2c.2.2.6.3.9.3.8 0 1.3-.6 1.3-1.5 0-.8-.5-1.4-1.2-1.4zM280.3 406.8c-1 0-1.8-.8-1.8-1.9 0-1.2.8-1.9 1.8-1.9s1.8.8 1.8 1.9c0 1.1-.8 1.9-1.8 1.9zm0-3.5c-.8 0-1.3.6-1.3 1.5s.5 1.5 1.3 1.5 1.3-.6 1.3-1.5-.5-1.5-1.3-1.5zM283.2 402.1l-.5.2v-.3l.8-.3v2.3h-.3v-1.9zM284.7 406.8c-.2 0-.4-.2-.4-.4s.2-.4.4-.4.4.2.4.4-.2.4-.4.4z"/></g></svg>