<svg xmlns="http://www.w3.org/2000/svg" viewBox="0 0 44.8 45.6"><style>.st0{display:none}.st1{fill:#595478}.st2{fill:#a6bbc3}</style><g id="Type"><path id="Path_409" class="st1" d="M22.2 43.5c-11.6 0-21-9.4-21-21s9.4-21 21-21 21 9.4 21 21-9.4 21-21 21zm0-40.4c-10.7 0-19.4 8.7-19.4 19.4s8.7 19.4 19.4 19.4 19.4-8.7 19.4-19.4S32.9 3.1 22.2 3.1z"/><path class="st2" d="M19.9 24.3h4.6v8h-4.6zM11.2 16.8h4.6v4.3h-4.6zM19.9 16.8h4.6v4.3h-4.6zM28.3 16.8h4.6v4.3h-4.6zM11.2 24.3h4.6v4.3h-4.6zM28.3 24.3h4.6v4.3h-4.6z"/><path class="st2" d="M10.9 13.7l22.4.1c1.3 0 2.3 1 2.3 2.3v13.5c0 1.3-1 2.3-2.3 2.3H10.9c-1.3 0-2.3-1-2.3-2.3V16c0-1.2 1.1-2.3 2.3-2.3m0-1.2c-2 0-3.6 1.6-3.6 3.6v13.5c0 2 1.6 3.6 3.6 3.6h22.4c2 0 3.6-1.6 3.6-3.6V16.1c0-2-1.6-3.6-3.6-3.6H10.9z"/><circle cx="22.2" cy="10.8" r="4.1" fill="#fff" stroke="#a6bbc3" stroke-miterlimit="10"/><path class="st1" d="M21.6 8.4h1.2v4.7h-1.2z"/><path class="st1" d="M19.9 10.2h4.7v1.2h-4.7z"/><g><circle class="st1" cx="34.5" cy="35.6" r="5.8"/><path fill="none" stroke="#fff" stroke-width="1.121" stroke-linecap="round" stroke-miterlimit="10" d="M37.5 33.6l-3.9 4-2.2-2.1"/><g><path class="st1" d="M43.2 44.8c-.2 0-.5-.1-.7-.3l-5.7-5.1c-.4-.4-.5-1-.1-1.4.4-.4 1-.5 1.4-.1l5.7 5.1c.4.4.5 1 .1 1.4-.2.3-.4.4-.7.4z"/></g></g></g></svg>