<svg id="Layer_1" xmlns="http://www.w3.org/2000/svg" viewBox="0 0 116.2 41.7"><style>.st0{fill:#595478}</style><path class="st0" d="M14.4 13.5l-6.5 1.4L7.7 9l13.7-2.8v29h-7.1V13.5zM44.4 28.4v6.7h-6v-6.7H26.5l-.3-4.7L36.5 6.5h8v16.7h3.3l.1 5.3h-3.5zm-5.8-16.7l-6.9 11.8h6.9V11.7zM54.4 35.9c-2.6 0-4.4-1.7-4.4-4.2s1.8-4.2 4.4-4.2c2.6 0 4.3 1.7 4.3 4.2s-1.8 4.2-4.3 4.2zM71.6 17.6c6.4 0 10.1 3.4 10.1 8.4 0 5.7-3.8 9.8-11.1 9.8-2.6 0-6.1-.6-8.5-1.7l.6-5.8c1.8 1.1 4.9 1.9 7.5 1.9 2.8 0 4.9-1.4 4.9-4.1 0-2.5-2.1-4.1-5.6-4.1-2.5 0-4.6.5-5.9 1.1l-.9-1 1.9-15.6h16.5l.1 5.6H69.8l-.7 5.5c.6.1 1.6 0 2.5 0zM89.3 17.2C86 17.2 84 15 84 11.9c0-3.1 2-5.2 5.3-5.2s5.2 2.1 5.2 5.2c.1 3.1-1.9 5.3-5.2 5.3zm.7 9.4h-3.5L102 7h3.5L90 26.6zm-.7-17.5c-1.3 0-2.2 1.1-2.2 2.9 0 1.7.8 2.8 2.2 2.8 1.3 0 2.2-1.1 2.2-2.8 0-1.8-.9-2.9-2.2-2.9zm13.3 17.8c-3.3 0-5.2-2.1-5.2-5.2s2-5.2 5.3-5.2 5.2 2.1 5.2 5.2-2 5.2-5.3 5.2zm.1-8c-1.4 0-2.2 1.1-2.2 2.8 0 1.8.8 2.8 2.2 2.8 1.3 0 2.2-1.1 2.2-2.8-.1-1.7-.9-2.8-2.2-2.8z"/></svg>