<svg xmlns="http://www.w3.org/2000/svg" viewBox="0 0 44.79 45.58"><style>.st0{display:none}.st3{fill:none;stroke:#a6bbc3;stroke-width:1.1209;stroke-linecap:round;stroke-miterlimit:10}</style><g id="Type"><path id="Path_409" d="M22.22 43.52c-11.62 0-21.03-9.42-21.03-21.03S10.6 1.46 22.22 1.46s21.03 9.42 21.03 21.03c-.01 11.61-9.42 21.02-21.03 21.03zm0-40.43c-10.72 0-19.4 8.69-19.4 19.4s8.69 19.4 19.4 19.4 19.4-8.69 19.4-19.4c-.01-10.71-8.69-19.39-19.4-19.4z" fill="#595478"/><g opacity=".5"><path class="st3" d="M15.17 24.47l-6.24.15M20.33 15.97l-1.3 5.99M16.41 22.08l-2.14-3.28"/></g><path d="M38.11 28.83h.01c-.05-.16-.05-.41-.05-.47.02-.37.06-1.21-.09-3.96.1-.02.16-.03.16-.03.03-.25.03-1.72-.46-3.97s-3.24-4.83-3.24-4.83c-.8-1.02-3.51-1.23-3.51-1.23-.74-.1-1.18-.55-1.45-1.05.5-.07.96-.49 1.34-.89.06-.06.34 0 .37-.09.05-.15-.26-.44-.31-.6-.2-.73.22-1.81-1.07-1.93-.04-.18.11-.59.01-.65-.11-.16-.46-.02-.58-.18-.12-.17-.26-.33-.44-.42-.1-.05-.21-.06-.32-.07-.45-.43-1.02-.28-1.24-.07l-.58-.03h-.04c-.08 0-.16-.01-.24-.01a1.71 1.71 0 0 0-.32 0c-.3-.07-.58.1-.73.4l-.16.19c-.24.3-.47.61-.71.91l.15.09c-.67.25-.53 1.11.02 1.12-.29.11-.16.55.11.52-.36.38.36 1.31.99.89.03.24-.09.65.05.73.17.3.52.29.6.6.12.44.81.74 1.34.54.21.59-.01.75-.01.75-.76.52-1.44.28-2.13 1.08s-1.78 4.71-1.83 5.91-.09 2.68.09 2.92c.05.07-.6.17-.43.19-.26.02.27-.02 0 0-.78-.12-1.55-.24-2.33-.37-.83-.13-1.69-.26-2.48.04-.38.14-.74.41-.92.79-.3.18-.36.47-.61.54-.3.09-3.52 2.36-4.31 2.76-.14.03-2.25 1.61-2.39 1.68-.44.14-1.03.01-1.53.18l-.13-.37c-.75-.01-1.59.37-1.83 1.55-.01.03-.02.06-.02.1 0 .12.09.22.21.22h6.69c.11 0 .21-.1.21-.22s-.09-.22-.21-.22h-.05c.31-.19.12-.26.18-.52.04-.17 1.1 0 2.64-.22-.21.25-.43.5-.69.74-.78.7-1.59 1.69-.08 1.33.84-.2 2.11-.33 2.95-.52.26-.06.59-.23.53-.51-.05-.25-.38-.3-.52-.51-.11-.17-.08-.4-.05-.6.46-.27 1.1-.66 1.34-1.05.07-.04.14-.07.21-.11.19.06.49.06.83.03.03.26.06.5.09.71.06.41-.21.37-.08.64l.36.38c.02.05.04.09.07.13.28.49.97.27 1.43.15.75-.18 3.26.27 5.98.07 2.75-.2 5.28-1.38 5.71-4.05.27-1.66-.08-2.45-.09-3.05.17-.14.3-.29.37-.43-.4-1.38-.26-1.85-.63-2.4.03-.77.26-1.42.26-1.42s.95 3.57.89 4.25c.21-.05.42-.1.64-.15.29 1.28.43 2.73.42 3.65h-.01s0 .2-.02.49h.01c-.02.23-.06.38-.12.42-.28.2-1.35-.15-1.52-.05-.16.1-1.11 1.33-1.1 1.38.13.16.55-.05.55-.05s-.16.22-.08.32c.09.1.56-.17.59-.2-.01.05-.18.29-.18.29.12.09 1.02-.5.98-.4-.04.09-.17.44-.17.44.03.07.37-.05.49-.22.13-.17.54-.31 1.18-.3s1.1-.06 1.21-.63c.13-.49-.07-.75-.17-1.07zm-12.04-5.41c.28-.06.95-1.6.95-1.6.06.46-.22 3.26-.22 3.26-.31-.02-.59-.05-1.34-.02.37-2.26.29-1.57.61-1.64zM8.76 31.88h-.04.04zm2.5 0h.06-.06z" fill="#a6bbc3"/></g></svg>