<svg id="Layer_1" xmlns="http://www.w3.org/2000/svg" viewBox="0 0 463.1 207.9"><style>.st0{fill:#e6e7e8}.st1{fill:#595478}.st2{fill:#fff}.st3{opacity:.5;fill:none;stroke:#a6bbc3;stroke-width:.375;stroke-miterlimit:10}.st4{fill:#626366}.st5{fill:none}.st6{fill:#1f213d}</style><path class="st0" d="M57.2 87.6l48.2.8c-.5 26.6-22.4 47.9-49.1 47.4-26.6-.4-47.8-22.4-47.3-49 .5-26.3 21.9-47.4 48.2-47.4v48.2z"/><path class="st1" d="M57.2 87.6V39.4c26.6 0 48.2 21.6 48.2 48.2v.8l-48.2-.8z"/><circle class="st2" cx="57.6" cy="87.5" r="28.1"/><path class="st1" d="M38.1 91.8l-.1-1.9c3.2-3.1 4.6-4.1 4.6-5.6 0-.8-.6-1.4-1.5-1.4s-1.7.4-2.4 1L38 82c.9-.7 2.3-1.3 3.7-1.3 2.4 0 3.6 1.4 3.6 3.2 0 1.9-1.4 3.3-4.3 5.7h4.6l.1 2.2h-7.6zM50.5 85.1c2.4 0 3.8 1.3 3.8 3.2 0 2.2-1.4 3.7-4.2 3.7-1 0-2.3-.2-3.2-.6l.2-2.2c.7.5 1.9.8 2.9.8 1.1 0 1.9-.5 1.9-1.6 0-.9-.8-1.5-2.1-1.5-.9 0-1.8.2-2.3.4l-.4-.4.7-5.9h6.3l.1 2.1h-4.3l-.3 2.1c.2 0 .6-.1.9-.1zM57.5 92.1c-1 0-1.7-.6-1.7-1.6s.7-1.6 1.7-1.6 1.6.6 1.6 1.6c.1.9-.6 1.6-1.6 1.6zM68.1 88.7c0 2.1-1.9 3.4-4.3 3.4-1.3 0-2.4-.3-3.2-.7l.4-2c.8.3 1.9.7 2.8.7 1.1 0 2.1-.4 2.1-1.4 0-.8-.7-1.4-2.2-1.3-.6 0-1.2.1-1.7.2v-1.8c2.2-.4 3.5-.8 3.5-1.8 0-.6-.4-1.1-1.4-1.1-.9 0-1.9.4-2.5.9l-.8-1.9c.9-.6 2.1-1.1 3.6-1.1 2.1 0 3.6.9 3.6 2.7 0 1.3-.9 2.2-2.7 2.7 1.8-.1 2.8 1 2.8 2.5zM70.9 84.7c-1.2 0-2-.8-2-2s.8-2 2-2 2 .8 2 2-.8 2-2 2zm.3 3.5h-1.3l5.8-7.4H77l-5.8 7.4zm-.3-6.5c-.5 0-.8.4-.8 1.1 0 .7.3 1 .8 1s.8-.4.8-1c0-.7-.3-1.1-.8-1.1zm5 6.6c-1.2 0-2-.8-2-2s.8-2 2-2 2 .8 2 2c0 1.3-.8 2-2 2zm0-3c-.5 0-.8.4-.8 1.1 0 .7.3 1.1.8 1.1s.8-.4.8-1.1c0-.7-.3-1.1-.8-1.1z"/><path class="st0" d="M173.1 87.6l45.9 14.9c-8.2 25.3-35.4 39.2-60.8 31s-39.2-35.4-31-60.8c6.6-20.3 24.6-33.3 45.9-33.3v48.2z"/><path class="st1" d="M173.1 87.6V39.4c26.6 0 48.2 21.6 48.2 48.2 0 5.3-.7 9.8-2.4 14.9l-45.8-14.9z"/><circle class="st2" cx="173.5" cy="87.5" r="28.1"/><path class="st1" d="M163.1 88.7c0 2.1-1.9 3.4-4.3 3.4-1.3 0-2.4-.3-3.2-.7l.4-2c.8.3 1.9.7 2.8.7 1.1 0 2.1-.4 2.1-1.4 0-.8-.7-1.4-2.2-1.3-.6 0-1.2.1-1.7.2v-1.8c2.2-.4 3.5-.8 3.5-1.8 0-.6-.4-1.1-1.4-1.1-.9 0-1.9.4-2.5.9l-.8-1.9c.9-.6 2.1-1.1 3.6-1.1 2.1 0 3.6.9 3.6 2.7 0 1.3-.9 2.2-2.7 2.7 1.8-.1 2.8 1 2.8 2.5zM168.1 92.1c-2.6 0-3.9-2-3.9-5.6 0-3.6 1.4-5.7 4-5.7s3.9 2.1 3.9 5.6c0 3.6-1.4 5.7-4 5.7zm0-9.4c-.8 0-1.5.8-1.5 3.7 0 2.9.7 3.7 1.6 3.7.8 0 1.5-.8 1.5-3.7 0-2.9-.8-3.7-1.6-3.7zM175 92.1c-1 0-1.7-.6-1.7-1.6s.7-1.6 1.7-1.6 1.6.6 1.6 1.6c0 .9-.6 1.6-1.6 1.6zM181.7 92.1c-2.6 0-3.9-2-3.9-5.6 0-3.6 1.4-5.7 4-5.7s3.9 2.1 3.9 5.6c0 3.6-1.4 5.7-4 5.7zm0-9.4c-.8 0-1.5.8-1.5 3.7 0 2.9.7 3.7 1.6 3.7.8 0 1.5-.8 1.5-3.7 0-2.9-.7-3.7-1.6-3.7zM188.3 84.7c-1.2 0-2-.8-2-2s.8-2 2-2 2 .8 2 2-.7 2-2 2zm.3 3.5h-1.3l5.8-7.4h1.3l-5.8 7.4zm-.3-6.5c-.5 0-.8.4-.8 1.1 0 .7.3 1 .8 1s.8-.4.8-1c.1-.7-.3-1.1-.8-1.1zm5 6.6c-1.2 0-2-.8-2-2s.8-2 2-2 2 .8 2 2c0 1.3-.7 2-2 2zm.1-3c-.5 0-.8.4-.8 1.1 0 .7.3 1.1.8 1.1s.8-.4.8-1.1c0-.7-.4-1.1-.8-1.1z"/><path class="st0" d="M288.2 87.6l46.4-13.3c7.3 25.6-7.5 52.3-33.1 59.7-25.6 7.3-52.3-7.5-59.7-33.1-7.3-25.6 7.5-52.3 33.1-59.7 4.4-1.3 8.7-1.9 13.3-1.9v48.3z"/><path class="st1" d="M288.2 87.6V39.4c22.1 0 40.3 13.7 46.4 34.9l-46.4 13.3z"/><circle class="st2" cx="288.5" cy="87.7" r="28.1"/><circle class="st3" cx="288.5" cy="87.7" r="52.3"/><circle class="st3" cx="403.1" cy="87.7" r="52.3"/><circle class="st3" cx="173.3" cy="87.7" r="52.3"/><circle class="st3" cx="57.3" cy="87.7" r="52.3"/><g><path class="st1" d="M269.8 91.8l-.1-1.9c3.2-3.1 4.6-4.1 4.6-5.6 0-.8-.6-1.4-1.5-1.4s-1.7.4-2.4 1l-.8-1.9c.9-.7 2.3-1.3 3.7-1.3 2.4 0 3.6 1.4 3.6 3.2 0 1.9-1.4 3.3-4.3 5.7h4.6l.1 2.2h-7.5zM282.3 92.1c-2.6 0-3.9-2-3.9-5.6 0-3.6 1.4-5.7 4-5.7s3.9 2.1 3.9 5.6c0 3.6-1.4 5.7-4 5.7zm0-9.4c-.8 0-1.5.8-1.5 3.7 0 2.9.7 3.7 1.6 3.7s1.5-.8 1.5-3.7c0-2.9-.7-3.7-1.6-3.7zM289.2 92.1c-1 0-1.7-.6-1.7-1.6s.7-1.6 1.7-1.6 1.6.6 1.6 1.6c0 .9-.6 1.6-1.6 1.6zM292.1 83.1l.1-2.2h7.6l.1 1.9-4.5 8.9H293l4.4-8.7h-5.3zM302.6 84.7c-1.2 0-2-.8-2-2s.8-2 2-2 2 .8 2 2c-.1 1.2-.8 2-2 2zm.2 3.5h-1.3l5.8-7.4h1.3l-5.8 7.4zm-.2-6.5c-.5 0-.8.4-.8 1.1 0 .7.3 1 .8 1s.8-.4.8-1c0-.7-.4-1.1-.8-1.1zm5 6.6c-1.2 0-2-.8-2-2s.8-2 2-2 2 .8 2 2c-.1 1.3-.8 2-2 2zm0-3c-.5 0-.8.4-.8 1.1 0 .7.3 1.1.8 1.1s.8-.4.8-1.1c0-.7-.3-1.1-.8-1.1z"/></g><g><path class="st0" d="M403 87.6l20.4-43.7c24.1 11.3 34.6 40 23.3 64.1s-40 34.6-64.1 23.3c-24.1-11.3-34.6-40-23.3-64.1 8-17.2 24.7-27.8 43.7-27.8v48.2z"/><path class="st1" d="M403 87.6V39.4c7.7 0 13.4 1.3 20.4 4.5L403 87.6z"/><circle class="st2" cx="403.4" cy="87.5" r="28.1"/></g><g><path class="st4" d="M27.3 151.5c-1.4 0-2.4-.9-2.4-2.4s1.1-2.5 2.5-2.5 2.5.9 2.5 2.4c-.1 1.5-1.2 2.5-2.6 2.5zm0-4c-.8 0-1.2.6-1.2 1.5s.5 1.5 1.3 1.5 1.2-.6 1.2-1.5-.5-1.5-1.3-1.5zM32.6 151.4h-1.3l-1.3-3.5h1.2l.7 2.4.7-2.4H34l-1.4 3.5zM35.3 149.9c0 .5.4.7.9.7.4 0 .8-.1 1.1-.3l.1.9c-.4.2-.9.3-1.4.3-1.2 0-2-.7-2-1.8s.8-1.9 1.9-1.9c1 0 1.5.6 1.5 1.5 0 .2 0 .5-.1.6h-2zm1.2-.6c0-.5-.2-.7-.5-.7-.4 0-.6.3-.7.7h1.2zM39.4 151.4h-1.2V148l1.2-.1v.5c.2-.4.5-.5.8-.5.2 0 .4 0 .6.1l-.2 1c-.1-.1-.3-.1-.4-.1-.3 0-.5.1-.8.5v2zM43.1 151c-.2.3-.5.5-1 .5-.6 0-1.1-.4-1.1-1 0-.7.5-1.2 2.1-1.2v-.1c0-.4-.2-.5-.6-.5-.4 0-.8.2-1.2.4l-.2-.8c.4-.2.9-.4 1.6-.4 1.2 0 1.6.5 1.6 1.5v1c0 .2 0 .3.3.3l-.1.8c-.9 0-1.2-.2-1.4-.5zm0-1.2c-.7.1-1 .2-1 .5 0 .2.2.4.4.4s.4-.1.5-.2v-.7zM45 151.4v-5l1.2-.1v5.1H45zM47 151.4v-5l1.2-.1v5.1H47zM52.8 147.8c.9 0 1.5.7 1.5 1.8 0 1.2-.8 1.9-1.7 1.9-.2 0-.5 0-.7-.1v1.6h-1.2v-5l1.2-.1v.4c.2-.3.5-.5.9-.5zm-.9 2.7c.1.1.3.1.5.1.5 0 .8-.4.8-1s-.3-1-.7-1c-.3 0-.4.1-.6.2v1.7zM56.1 151.4H55V148l1.2-.1v.5c.2-.4.5-.5.8-.5.2 0 .4 0 .6.1l-.2 1c-.1-.1-.3-.1-.4-.1-.3 0-.5.1-.8.5v2zM58.9 149.9c0 .5.4.7.9.7.4 0 .8-.1 1.1-.3l.1.9c-.4.2-.9.3-1.4.3-1.2 0-2-.7-2-1.8s.8-1.9 1.9-1.9c1 0 1.5.6 1.5 1.5 0 .2 0 .5-.1.6h-2zm1.2-.6c0-.5-.2-.7-.5-.7-.4 0-.6.3-.7.7h1.2zM64 151.4h-1.3l-1.3-3.5h1.2l.7 2.4.7-2.4h1.2l-1.2 3.5zM67.6 151c-.2.3-.5.5-1 .5-.6 0-1.1-.4-1.1-1 0-.7.5-1.2 2.1-1.2v-.1c0-.4-.2-.5-.6-.5-.4 0-.8.2-1.2.4l-.2-.8c.4-.2.9-.4 1.6-.4 1.2 0 1.6.5 1.6 1.5v1c0 .2 0 .3.3.3l-.1.8c-.9 0-1.3-.2-1.4-.5zm0-1.2c-.7.1-1 .2-1 .5 0 .2.2.4.4.4s.4-.1.5-.2v-.7zM69.5 151.4v-5l1.2-.1v5.1h-1.2zM72.4 149.9c0 .5.4.7.9.7.4 0 .8-.1 1.1-.3l.1.9c-.4.2-.9.3-1.4.3-1.2 0-2-.7-2-1.8s.8-1.9 1.9-1.9c1 0 1.5.6 1.5 1.5 0 .2 0 .5-.1.6h-2zm1.3-.6c0-.5-.2-.7-.5-.7-.4 0-.6.3-.7.7h1.2zM77.7 151.4v-2.1c0-.4-.2-.6-.5-.6s-.5.1-.6.3v2.4h-1.2V148l1.2-.1v.6c.3-.4.7-.6 1.2-.6.7 0 1.1.5 1.1 1.2v2.4h-1.2zM81.3 151.5c-1.2 0-1.9-.6-1.9-1.8 0-1.2.8-1.9 1.9-1.9.5 0 1 .1 1.3.3l-.2.9c-.3-.2-.6-.3-.9-.3-.6 0-.9.4-.9 1s.4 1 .9 1c.4 0 .7-.1.9-.3l.2.9c-.3.1-.8.2-1.3.2zM84.2 149.9c0 .5.4.7.9.7.4 0 .8-.1 1.1-.3l.1.9c-.4.2-.9.3-1.4.3-1.2 0-2-.7-2-1.8s.8-1.9 1.9-1.9c1 0 1.5.6 1.5 1.5 0 .2 0 .5-.1.6h-2zm1.2-.6c0-.5-.2-.7-.5-.7-.4 0-.6.3-.7.7h1.2z"/></g><g><path class="st4" d="M88 148.9c-.1 0-.3 0-.5-.1l-.6.1v-3l.7-.1v1.2c.1-.1.3-.3.6-.3.5 0 .9.4.9 1.1-.1.7-.5 1.1-1.1 1.1zm-.1-1.6c-.1 0-.2.1-.3.1v.9c.1.1.2.1.3.1.3 0 .5-.2.5-.6-.1-.3-.2-.5-.5-.5z"/></g><g><path class="st4" d="M136.4 147.9c-.4-.2-.8-.3-1.2-.3-.8 0-1.3.5-1.3 1.4 0 .9.5 1.5 1.3 1.5.5 0 .9-.1 1.2-.4l.2 1.1c-.4.2-1 .3-1.5.3-1.5 0-2.5-.9-2.5-2.4s1-2.5 2.5-2.5c.6 0 1.1.1 1.6.4l-.3.9zM138.5 147.9v2.1c0 .4.2.6.5.6.2 0 .5-.1.6-.2V148h1.2v3.4l-1.2.1v-.5c-.3.3-.7.5-1.1.5-.7 0-1.1-.5-1.1-1.2v-2.4h1.1zM142.7 151.4h-1.2V148l1.2-.1v.5c.2-.4.5-.5.8-.5.2 0 .4 0 .6.1l-.2 1c-.1-.1-.3-.1-.4-.1-.3 0-.5.1-.8.5v2zM145.7 151.4h-1.2V148l1.2-.1v.5c.2-.4.5-.5.8-.5.2 0 .4 0 .6.1l-.2 1c-.1-.1-.3-.1-.4-.1-.3 0-.5.1-.8.5v2zM148.5 149.9c0 .5.4.7.9.7.4 0 .8-.1 1.1-.3l.1.9c-.4.2-.9.3-1.4.3-1.2 0-2-.7-2-1.8s.8-1.9 1.9-1.9c1 0 1.5.6 1.5 1.5 0 .2 0 .5-.1.6h-2zm1.2-.6c0-.5-.2-.7-.5-.7-.4 0-.6.3-.7.7h1.2zM153.7 151.4v-2.1c0-.4-.2-.6-.5-.6s-.5.1-.6.3v2.4h-1.2V148l1.2-.1v.6c.3-.4.7-.6 1.2-.6.7 0 1.1.5 1.1 1.2v2.4h-1.2zM157.1 151.5c-.9 0-1.3-.4-1.3-1.3l.1-1.3-.5-.1v-.7l.5-.2v-.8h1.1v.8h.9v.9h-.9v1.3c0 .3.2.5.5.5.1 0 .3 0 .5-.1l.1.9c-.5 0-.7.1-1 .1zM162.4 147.3c-.2-.1-.3-.1-.5-.1-.3 0-.4.2-.4.5v.3h.9v.9h-.8v2.5h-1.2v-2.5h-.6v-.7l.6-.2v-.3c0-1 .5-1.4 1.4-1.4.3 0 .6.1.8.1 0-.1-.2.9-.2.9zm1 .2c-.4 0-.7-.2-.7-.6 0-.4.3-.6.7-.6s.7.2.7.6c0 .4-.3.6-.7.6zm-.6 3.9V148l1.2-.1v3.6h-1.2zM165.9 151.4h-1.2V148l1.2-.1v.5c.2-.4.5-.5.8-.5.2 0 .4 0 .6.1l-.2 1c-.1-.1-.3-.1-.4-.1-.3 0-.5.1-.8.5v2zM169 151.5c-.5 0-1.1-.1-1.5-.3l.2-.8c.4.2.9.3 1.3.3.3 0 .5-.1.5-.3 0-.2-.2-.3-.6-.4-.8-.2-1.3-.5-1.3-1.1 0-.7.6-1.1 1.5-1.1.5 0 1.1.1 1.4.3l-.2.8c-.4-.2-.9-.3-1.2-.3-.3 0-.4.1-.4.3 0 .2.2.3.6.3.8.2 1.3.5 1.3 1.1 0 .7-.6 1.2-1.6 1.2zM172.6 151.5c-.9 0-1.3-.4-1.3-1.3l.1-1.3-.5-.1v-.7l.5-.2v-.8h1.1v.8h.9v.9h-.9v1.3c0 .3.2.5.5.5.1 0 .3 0 .5-.1l.1.9c-.4 0-.6.1-1 .1zM173.8 150v-.9h2.4v.9h-2.4zM176.6 151c0-.3.3-.7.7-.8-.4-.2-.7-.6-.7-1.1 0-.8.6-1.4 1.7-1.4.4 0 .8.1 1.1.2l1-.1.1.9-.7-.1c.1.1.1.3.1.4 0 .7-.6 1.3-1.5 1.3-.2 0-.3 0-.5-.1-.1.1-.2.1-.2.3 0 .2.2.2.6.2h.4c1 0 1.6.2 1.6 1 0 .9-1 1.4-2.2 1.4-.9 0-1.7-.3-1.7-.9 0-.3.3-.7.8-.7-.3 0-.6-.2-.6-.5zm.8 1.1c0 .3.3.5.9.5.6 0 1-.2 1-.5s-.3-.3-.9-.3h-.7c-.2 0-.3.1-.3.3zm.8-2.4c.4 0 .5-.3.5-.6 0-.4-.2-.6-.5-.6s-.5.3-.5.6c0 .4.2.6.5.6z"/><path class="st4" d="M181.7 149.9c0 .5.4.7.9.7.4 0 .8-.1 1.1-.3l.1.9c-.4.2-.9.3-1.4.3-1.2 0-2-.7-2-1.8s.8-1.9 1.9-1.9c1 0 1.5.6 1.5 1.5 0 .2 0 .5-.1.6h-2zm1.2-.6c0-.5-.2-.7-.5-.7-.4 0-.6.3-.7.7h1.2zM186.9 151.4v-2.1c0-.4-.2-.6-.5-.6s-.5.1-.6.3v2.4h-1.2V148l1.2-.1v.6c.3-.4.7-.6 1.2-.6.7 0 1.1.5 1.1 1.2v2.4h-1.2zM189.8 149.9c0 .5.4.7.9.7.4 0 .8-.1 1.1-.3l.1.9c-.4.2-.9.3-1.4.3-1.2 0-2-.7-2-1.8s.8-1.9 1.9-1.9c1 0 1.5.6 1.5 1.5 0 .2 0 .5-.1.6h-2zm1.2-.6c0-.5-.2-.7-.5-.7-.4 0-.6.3-.7.7h1.2zM193.9 151.4h-1.2V148l1.2-.1v.5c.2-.4.5-.5.8-.5.2 0 .4 0 .6.1l-.2 1c-.1-.1-.3-.1-.4-.1-.3 0-.5.1-.8.5v2zM197.6 151c-.2.3-.5.5-1 .5-.6 0-1.1-.4-1.1-1 0-.7.5-1.2 2.1-1.2v-.1c0-.4-.2-.5-.6-.5-.4 0-.8.2-1.2.4l-.2-.8c.4-.2.9-.4 1.6-.4 1.2 0 1.6.5 1.6 1.5v1c0 .2 0 .3.3.3l-.1.8c-.8 0-1.2-.2-1.4-.5zm0-1.2c-.7.1-1 .2-1 .5 0 .2.2.4.4.4s.4-.1.5-.2v-.7zM201 151.5c-.9 0-1.3-.4-1.3-1.3l.1-1.3-.5-.1v-.7l.5-.2v-.8h1.1v.8h.9v.9h-.9v1.3c0 .3.2.5.5.5.1 0 .3 0 .5-.1l.1.9c-.5 0-.7.1-1 .1zM203 147.4c-.4 0-.7-.2-.7-.6 0-.4.3-.6.7-.6.4 0 .7.2.7.6 0 .4-.3.6-.7.6zm-.6 4V148l1.2-.1v3.6h-1.2zM206 151.5c-1.1 0-1.9-.7-1.9-1.8 0-1.2.8-1.9 1.9-1.9 1.1 0 1.8.7 1.8 1.8.1 1.2-.7 1.9-1.8 1.9zm.1-2.8c-.5 0-.7.4-.7 1s.3 1 .7 1 .7-.4.7-1c0-.7-.3-1-.7-1zM210.8 151.4v-2.1c0-.4-.2-.6-.5-.6s-.5.1-.6.3v2.4h-1.2V148l1.2-.1v.6c.3-.4.7-.6 1.2-.6.7 0 1.1.5 1.1 1.2v2.4h-1.2zM135.5 160c-.2.3-.5.5-1 .5-.6 0-1.1-.4-1.1-1 0-.7.5-1.2 2.1-1.2v-.1c0-.4-.2-.5-.6-.5-.4 0-.8.2-1.2.4l-.2-.8c.4-.2.9-.4 1.6-.4 1.2 0 1.6.5 1.6 1.5v1c0 .2 0 .3.3.3l-.1.8c-.9 0-1.3-.2-1.4-.5zm0-1.2c-.7.1-1 .2-1 .5 0 .2.2.4.4.4s.4-.1.5-.2v-.7zM139.7 160.4v-2.1c0-.4-.2-.6-.5-.6s-.5.1-.6.3v2.4h-1.2V157l1.2-.1v.6c.3-.4.7-.6 1.2-.6.7 0 1.1.5 1.1 1.2v2.4h-1.2zM143.1 160.5c-.9 0-1.3-.4-1.3-1.3l.1-1.3-.5-.1v-.7l.5-.2v-.8h1.1v.8h.9v.9h-.9v1.3c0 .3.2.5.5.5.1 0 .3 0 .5-.1l.1.9c-.5 0-.7.1-1 .1zM145.1 156.4c-.4 0-.7-.2-.7-.6 0-.4.3-.6.7-.6.4 0 .7.2.7.6-.1.4-.3.6-.7.6zm-.6 4V157l1.2-.1v3.6h-1.2zM148.6 156.8c.9 0 1.5.7 1.5 1.8 0 1.2-.8 1.9-1.7 1.9-.2 0-.5 0-.7-.1v1.6h-1.2v-5l1.2-.1v.4c.1-.3.4-.5.9-.5zm-1 2.7c.1.1.3.1.5.1.5 0 .8-.4.8-1s-.3-1-.7-1c-.3 0-.4.1-.6.2v1.7zM152 160.5c-.5 0-1.1-.1-1.5-.3l.2-.8c.4.2.9.3 1.3.3.3 0 .5-.1.5-.3 0-.2-.2-.3-.6-.4-.8-.2-1.3-.5-1.3-1.1 0-.7.6-1.1 1.5-1.1.5 0 1.1.1 1.4.3l-.2.8c-.4-.2-.9-.3-1.2-.3-.3 0-.4.1-.4.3 0 .2.2.3.6.3.8.2 1.3.5 1.3 1.1 0 .7-.6 1.2-1.6 1.2zM156.3 160.2l-.2.5c-.4 1-.8 1.3-1.5 1.3-.4 0-.7-.1-1-.2l.3-.9c.2.1.4.2.5.2.2 0 .4-.1.5-.4l.1-.3-1.4-3.5h1.2l.7 2.3.7-2.3h1.2l-1.1 3.3zM159.7 160.5c-1.2 0-1.9-.6-1.9-1.8 0-1.2.8-1.9 1.9-1.9.5 0 1 .1 1.3.3l-.2.9c-.3-.2-.6-.3-.9-.3-.6 0-.9.4-.9 1s.4 1 .9 1c.4 0 .7-.1.9-.3l.2.9c-.4.1-.8.2-1.3.2zM163.9 160.4v-2.1c0-.4-.2-.6-.5-.6s-.5.1-.6.3v2.4h-1.2v-5l1.2-.1v2.1c.3-.4.7-.6 1.2-.6.7 0 1.1.5 1.1 1.2v2.4h-1.2zM167.5 160.5c-1.1 0-1.9-.7-1.9-1.8 0-1.2.8-1.9 1.9-1.9 1.1 0 1.8.7 1.8 1.8.1 1.2-.8 1.9-1.8 1.9zm0-2.8c-.5 0-.7.4-.7 1s.3 1 .7 1 .7-.4.7-1c0-.7-.2-1-.7-1zM171.4 160.5c-.9 0-1.3-.4-1.3-1.3l.1-1.3-.5-.1v-.7l.5-.2v-.8h1.1v.8h.9v.9h-.9v1.3c0 .3.2.5.5.5.1 0 .3 0 .5-.1l.1.9c-.4 0-.6.1-1 .1zM173.4 156.4c-.4 0-.7-.2-.7-.6 0-.4.3-.6.7-.6.4 0 .7.2.7.6 0 .4-.3.6-.7.6zm-.6 4V157l1.2-.1v3.6h-1.2zM176.5 160.5c-1.2 0-1.9-.6-1.9-1.8 0-1.2.8-1.9 1.9-1.9.5 0 1 .1 1.3.3l-.2.9c-.3-.2-.6-.3-.9-.3-.6 0-.9.4-.9 1s.4 1 .9 1c.4 0 .7-.1.9-.3l.2.9c-.3.1-.8.2-1.3.2zM181.6 160.5c-.9 0-1.3-.4-1.3-1.3l.1-1.3-.5-.1v-.7l.5-.2v-.8h1.1v.8h.9v.9h-.9v1.3c0 .3.2.5.5.5.1 0 .3 0 .5-.1l.1.9c-.5 0-.7.1-1 .1zM184.1 160.4H183V157l1.2-.1v.5c.2-.4.5-.5.8-.5.2 0 .4 0 .6.1l-.2 1c-.1-.1-.3-.1-.4-.1-.3 0-.5.1-.8.5v2zM186.9 158.9c0 .5.4.7.9.7.4 0 .8-.1 1.1-.3l.1.9c-.4.2-.9.3-1.4.3-1.2 0-2-.7-2-1.8s.8-1.9 1.9-1.9c1 0 1.5.6 1.5 1.5 0 .2 0 .5-.1.6h-2zm1.2-.6c0-.5-.2-.7-.5-.7-.4 0-.6.3-.7.7h1.2zM191.7 160c-.2.3-.5.5-1 .5-.6 0-1.1-.4-1.1-1 0-.7.5-1.2 2.1-1.2v-.1c0-.4-.2-.5-.6-.5-.4 0-.8.2-1.2.4l-.2-.8c.4-.2.9-.4 1.6-.4 1.2 0 1.6.5 1.6 1.5v1c0 .2 0 .3.3.3l-.1.8c-.9 0-1.2-.2-1.4-.5zm0-1.2c-.7.1-1 .2-1 .5 0 .2.2.4.4.4s.4-.1.5-.2v-.7zM195 160.5c-.9 0-1.3-.4-1.3-1.3l.1-1.3-.5-.1v-.7l.5-.2v-.8h1.1v.8h.9v.9h-.9v1.3c0 .3.2.5.5.5.1 0 .3 0 .5-.1l.1.9c-.4 0-.6.1-1 .1zM200.9 160.4v-2.1c0-.4-.2-.6-.5-.6-.2 0-.4.1-.6.2V160.3h-1.2v-2.1c0-.4-.2-.6-.5-.6-.2 0-.4.1-.6.2v2.4h-1.2v-3.4l1.2-.1v.5c.3-.3.7-.5 1.1-.5.4 0 .8.2 1 .6.3-.4.7-.6 1.2-.6.7 0 1.1.5 1.1 1.2v2.4h-1zM203.8 158.9c0 .5.4.7.9.7.4 0 .8-.1 1.1-.3l.1.9c-.4.2-.9.3-1.4.3-1.2 0-2-.7-2-1.8s.8-1.9 1.9-1.9c1 0 1.5.6 1.5 1.5 0 .2 0 .5-.1.6h-2zm1.2-.6c0-.5-.2-.7-.5-.7-.4 0-.6.3-.7.7h1.2zM209 160.4v-2.1c0-.4-.2-.6-.5-.6s-.5.1-.6.3v2.4h-1.2V157l1.2-.1v.6c.3-.4.7-.6 1.2-.6.7 0 1.1.5 1.1 1.2v2.4H209zM212.3 160.5c-.9 0-1.3-.4-1.3-1.3l.1-1.3-.5-.1v-.7l.5-.2v-.8h1.1v.8h.9v.9h-.9v1.3c0 .3.2.5.5.5.1 0 .3 0 .5-.1l.1.9c-.4 0-.6.1-1 .1zM128.7 167.7c0-1.8 1.2-3.1 2-3.5l.2.3c-.8.4-1.8 1.6-1.8 3.2s1 2.8 1.8 3.2l-.2.3c-.9-.5-2-1.7-2-3.5zM131.6 167.7c0 .8.5 1.3 1.2 1.3.4 0 .7-.1 1-.3l.1.4c-.3.2-.7.3-1.1.3-1 0-1.7-.7-1.7-1.8s.7-1.8 1.6-1.8c.8 0 1.3.5 1.3 1.3 0 .2 0 .4-.1.5l-2.3.1zm1.9-.4v-.1c0-.5-.3-.9-.8-.9-.6 0-1 .5-1.1 1h1.9zM134.6 168.8c0-.3.2-.5.6-.7-.3-.2-.6-.6-.6-1.1 0-.7.5-1.3 1.4-1.3.4 0 .6.1.8.2l1-.1v.5l-.8-.1c.2.2.3.5.3.8 0 .7-.6 1.3-1.3 1.3-.2 0-.3 0-.5-.1-.2.1-.4.2-.4.4s.2.4.8.4h.4c1 0 1.4.3 1.4.9 0 .8-.8 1.3-1.8 1.3-.9 0-1.6-.4-1.6-1 0-.4.3-.7.7-.8-.2-.1-.4-.3-.4-.6zm.2 1.3c0 .4.4.7 1.2.7.7 0 1.3-.3 1.3-.8 0-.4-.4-.5-1-.5h-.7c-.5.1-.8.4-.8.6zm1.2-2.1c.5 0 .9-.4.9-.9s-.3-.9-.9-.9c-.5 0-.9.4-.9.9s.3.9.9.9zM138.5 168.7c.3 0 .5.2.5.6 0 .5-.4 1-.9 1.3l-.2-.2c.5-.3.7-.6.7-.9 0-.2-.1-.3-.5-.4 0-.3.1-.4.4-.4zM143.7 169.4v-2.2c0-.6-.2-.9-.7-.9-.4 0-.8.2-1.1.5v2.6h-.5v-5.1l.5-.1v2.2c.4-.4.8-.5 1.2-.5.7 0 1.1.4 1.1 1.2v2.4h-.5zM147.1 169c-.2.3-.6.5-1 .5-.6 0-1.1-.4-1.1-1s.5-1.1 2.1-1.2v-.2c0-.5-.2-.8-.8-.8-.4 0-.8.2-1.1.4l-.1-.4c.3-.2.8-.4 1.3-.4.8 0 1.2.4 1.2 1.2v1.7c0 .2 0 .4.3.3v.4c-.5 0-.8-.2-.8-.5zm-.1-1.4c-1.2.1-1.6.4-1.6.9 0 .4.3.6.7.6.4 0 .7-.2.9-.5v-1zM148.5 169.4v-5.1l.5-.1v5.2h-.5zM151.5 169.5c-1 0-1.7-.7-1.7-1.8s.7-1.8 1.7-1.8 1.7.7 1.7 1.8c0 1-.7 1.8-1.7 1.8zm0-3.2c-.7 0-1.2.6-1.2 1.4 0 .8.5 1.4 1.2 1.4s1.2-.6 1.2-1.4c.1-.9-.4-1.4-1.2-1.4zM155.5 165.9c.9 0 1.5.7 1.5 1.8s-.7 1.8-1.7 1.8c-.3 0-.6-.1-.8-.2v1.8h-.5v-5.2l.5-.1v.5c.3-.2.6-.4 1-.4zm-1 2.9c.2.2.5.3.9.3.7 0 1.2-.6 1.2-1.4 0-.8-.4-1.4-1.1-1.4-.4 0-.7.2-.9.4-.1 0-.1 2.1-.1 2.1zM158.2 167.7c0 .8.5 1.3 1.2 1.3.4 0 .7-.1 1-.3l.1.4c-.3.2-.7.3-1.1.3-1 0-1.7-.7-1.7-1.8s.7-1.8 1.6-1.8c.8 0 1.3.5 1.3 1.3 0 .2 0 .4-.1.5l-2.3.1zm1.9-.4v-.1c0-.5-.3-.9-.8-.9-.6 0-1 .5-1.1 1h1.9zM161.9 169.4h-.5V166l.5-.1v.7c.2-.4.6-.7 1-.7.2 0 .4.1.6.2l-.1.4c-.2-.1-.3-.1-.5-.1-.4 0-.7.3-1 .9v2.1zM164.4 165.1c-.2 0-.3-.2-.3-.3 0-.2.1-.3.3-.3s.3.2.3.3c0 .2-.1.3-.3.3zm-.3 4.3V166l.5-.1v3.5h-.5zM168 164.3l.5-.1v5.2h-.5v-.3c-.2.2-.6.4-1 .4-.9 0-1.5-.7-1.5-1.8s.7-1.8 1.7-1.8c.3 0 .6.1.8.2v-1.8zm-.8 2c-.7 0-1.2.6-1.2 1.4 0 .8.4 1.4 1.1 1.4.4 0 .7-.2.9-.4v-2.1c-.2-.2-.5-.3-.8-.3zM171 169.5c-1 0-1.7-.7-1.7-1.8s.7-1.8 1.7-1.8 1.7.7 1.7 1.8c0 1-.8 1.8-1.7 1.8zm0-3.2c-.7 0-1.2.6-1.2 1.4 0 .8.5 1.4 1.2 1.4s1.2-.6 1.2-1.4c0-.9-.5-1.4-1.2-1.4zM173.5 169.4v-5.1l.5-.1v5.2h-.5zM175.2 168.7c.3 0 .5.2.5.6 0 .5-.4 1-.9 1.3l-.2-.2c.5-.3.7-.6.7-.9 0-.2-.1-.3-.5-.4 0-.3.2-.4.4-.4zM179.8 164.7c-.2-.1-.3-.1-.5-.1-.4 0-.6.2-.6.8v.6h1.1v.4h-1.1v3h-.5v-3h-.6v-.3l.5-.1v-.5c0-.9.4-1.2 1-1.2.2 0 .5.1.6.1.3-.1.1.3.1.3zm.6 4.7v-5.1l.5-.1v5.2h-.5zM182.4 165.9v2.2c0 .6.2.9.7.9.4 0 .8-.2 1.1-.5v-2.6h.5v3.4l-.5.1v-.6c-.4.4-.8.6-1.2.6-.7 0-1.1-.4-1.1-1.2v-2.4h.5zM187.2 165.9c.9 0 1.5.7 1.5 1.8s-.7 1.8-1.7 1.8c-.3 0-.6-.1-.8-.2v1.8h-.5v-5.2l.5-.1v.5c.2-.2.6-.4 1-.4zm-1 2.9c.2.2.5.3.9.3.7 0 1.2-.6 1.2-1.4 0-.8-.4-1.4-1.1-1.4-.4 0-.7.2-.9.4-.1 0-.1 2.1-.1 2.1zM191.8 169.4v-2.2c0-.6-.2-.9-.7-.9-.4 0-.8.2-1.1.5v2.6h-.5v-5.1l.5-.1v2.2c.4-.4.8-.5 1.2-.5.7 0 1.1.4 1.1 1.2v2.4h-.5zM193.6 167.7c0 .8.5 1.3 1.2 1.3.4 0 .7-.1 1-.3l.1.4c-.3.2-.7.3-1.1.3-1 0-1.7-.7-1.7-1.8s.7-1.8 1.6-1.8c.8 0 1.3.5 1.3 1.3 0 .2 0 .4-.1.5l-2.3.1zm1.9-.4v-.1c0-.5-.3-.9-.8-.9-.6 0-1 .5-1.1 1h1.9zM199.2 169.4v-2.2c0-.6-.2-.9-.8-.9-.4 0-.8.2-1 .5v2.6h-.5V166l.5-.1v.6c.4-.4.8-.6 1.2-.6.7 0 1.1.4 1.1 1.2v2.4h-.5zM202.5 169c-.2.3-.6.5-1 .5-.6 0-1.1-.4-1.1-1s.5-1.1 2.1-1.2v-.2c0-.5-.2-.8-.8-.8-.4 0-.8.2-1.1.4l-.1-.4c.3-.2.8-.4 1.3-.4.8 0 1.2.4 1.2 1.2v1.7c0 .2 0 .4.3.3v.4c-.5 0-.7-.2-.8-.5zm0-1.4c-1.2.1-1.6.4-1.6.9 0 .4.3.6.7.6.4 0 .7-.2.9-.5v-1zM203.6 169.4v-.4l2-2.7h-2v-.4h2.5v.4l-2 2.7h2v.4h-2.5zM207.2 165.1c-.2 0-.3-.2-.3-.3 0-.2.1-.3.3-.3s.3.2.3.3c0 .2-.1.3-.3.3zm-.3 4.3V166l.5-.1v3.5h-.5zM210.7 169.4v-2.2c0-.6-.2-.9-.8-.9-.4 0-.8.2-1 .5v2.6h-.5V166l.5-.1v.6c.4-.4.8-.6 1.2-.6.7 0 1.1.4 1.1 1.2v2.4h-.5zM212.5 167.7c0 .8.5 1.3 1.2 1.3.4 0 .7-.1 1-.3l.1.4c-.3.2-.7.3-1.1.3-1 0-1.7-.7-1.7-1.8s.7-1.8 1.6-1.8c.8 0 1.3.5 1.3 1.3 0 .2 0 .4-.1.5l-2.3.1zm1.9-.4v-.1c0-.5-.3-.9-.8-.9-.6 0-1 .5-1.1 1h1.9zM215.9 168.7c.3 0 .5.2.5.6 0 .5-.4 1-.9 1.3l-.2-.2c.5-.3.7-.6.7-.9 0-.2-.1-.3-.5-.4 0-.3.2-.4.4-.4zM123.5 178.5c-1 0-1.7-.7-1.7-1.8s.7-1.8 1.7-1.8c.4 0 .8.1 1.1.3l-.1.4c-.3-.2-.6-.3-1-.3-.7 0-1.2.6-1.2 1.4 0 .8.5 1.4 1.2 1.4.3 0 .7-.1 1-.3l.1.4c-.4.2-.7.3-1.1.3zM127.6 178.4v-2.2c0-.6-.2-.9-.7-.9-.4 0-.8.2-1.1.5v2.6h-.5v-5.1l.5-.1v2.2c.4-.4.8-.5 1.2-.5.7 0 1.1.4 1.1 1.2v2.4h-.5zM129.2 178.4v-5.1l.5-.1v5.2h-.5zM132.1 178.5c-1 0-1.7-.7-1.7-1.8s.7-1.8 1.7-1.8 1.7.7 1.7 1.8c0 1-.7 1.8-1.7 1.8zm.1-3.2c-.7 0-1.2.6-1.2 1.4 0 .8.5 1.4 1.2 1.4s1.2-.6 1.2-1.4c0-.9-.5-1.4-1.2-1.4zM135.2 178.4h-.5V175l.5-.1v.7c.2-.4.6-.7 1-.7.2 0 .4.1.6.2l-.1.4c-.2-.1-.3-.1-.5-.1-.4 0-.7.3-1 .9v2.1zM138.8 174.9c.9 0 1.5.7 1.5 1.8s-.7 1.8-1.7 1.8c-.3 0-.6-.1-.8-.2v1.8h-.5v-5.2l.5-.1v.5c.3-.2.6-.4 1-.4zm-1 2.9c.2.2.5.3.9.3.7 0 1.2-.6 1.2-1.4 0-.8-.4-1.4-1.1-1.4-.4 0-.7.2-.9.4-.1 0-.1 2.1-.1 2.1zM141.7 178.4h-.5V175l.5-.1v.7c.2-.4.6-.7 1-.7.2 0 .4.1.6.2l-.1.4c-.2-.1-.3-.1-.5-.1-.4 0-.7.3-1 .9v2.1zM145.3 178.5c-1 0-1.7-.7-1.7-1.8s.7-1.8 1.7-1.8 1.7.7 1.7 1.8c0 1-.7 1.8-1.7 1.8zm0-3.2c-.7 0-1.2.6-1.2 1.4 0 .8.5 1.4 1.2 1.4s1.2-.6 1.2-1.4c.1-.9-.4-1.4-1.2-1.4zM152.2 178.4v-2.2c0-.6-.2-.9-.7-.9-.4 0-.7.2-1 .4V178.3h-.5v-2.2c0-.6-.2-.9-.7-.9-.4 0-.7.2-1 .4v2.7h-.5v-3.4l.5-.1v.5c.4-.3.7-.5 1.1-.5.4 0 .8.2.9.6.4-.4.8-.6 1.2-.6.7 0 1.1.4 1.1 1.2v2.3h-.4zM155.5 178c-.2.3-.6.5-1 .5-.6 0-1.1-.4-1.1-1s.5-1.1 2.1-1.2v-.2c0-.5-.2-.8-.8-.8-.4 0-.8.2-1.1.4l-.1-.4c.3-.2.8-.4 1.3-.4.8 0 1.2.4 1.2 1.2v1.7c0 .2 0 .4.3.3v.4c-.5 0-.7-.2-.8-.5zm0-1.4c-1.2.1-1.6.4-1.6.9 0 .4.3.6.7.6.4 0 .7-.2.9-.5v-1zM156.6 178.4v-.4l2-2.7h-2v-.4h2.5v.4l-2 2.7h2v.4h-2.5zM160.2 174.1c-.2 0-.3-.2-.3-.3 0-.2.1-.3.3-.3s.3.2.3.3c0 .2-.1.3-.3.3zm-.3 4.3V175l.5-.1v3.5h-.5zM163.8 178.4v-2.2c0-.6-.2-.9-.8-.9-.4 0-.8.2-1 .5v2.6h-.5V175l.5-.1v.6c.4-.4.8-.6 1.2-.6.7 0 1.1.4 1.1 1.2v2.4h-.5zM165.5 176.7c0 .8.5 1.3 1.2 1.3.4 0 .7-.1 1-.3l.1.4c-.3.2-.7.3-1.1.3-1 0-1.7-.7-1.7-1.8s.7-1.8 1.6-1.8c.8 0 1.3.5 1.3 1.3 0 .2 0 .4-.1.5l-2.3.1zm2-.4v-.1c0-.5-.3-.9-.8-.9-.6 0-1 .5-1.1 1h1.9zM168.9 177.7c.3 0 .5.2.5.6 0 .5-.4 1-.9 1.3l-.2-.2c.5-.3.7-.6.7-.9 0-.2-.1-.3-.5-.4.1-.3.2-.4.4-.4zM173.4 174.9c.9 0 1.5.7 1.5 1.8s-.7 1.8-1.7 1.8c-.3 0-.6-.1-.8-.2v1.8h-.5v-5.2l.5-.1v.5c.2-.2.6-.4 1-.4zm-1 2.9c.2.2.5.3.9.3.7 0 1.2-.6 1.2-1.4 0-.8-.4-1.4-1.1-1.4-.4 0-.7.2-.9.4-.1 0-.1 2.1-.1 2.1zM176.2 178.4h-.5V175l.5-.1v.7c.2-.4.6-.7 1-.7.2 0 .4.1.6.2l-.1.4c-.2-.1-.3-.1-.5-.1-.4 0-.7.3-1 .9v2.1zM179.9 178.5c-1 0-1.7-.7-1.7-1.8s.7-1.8 1.7-1.8 1.7.7 1.7 1.8c0 1-.8 1.8-1.7 1.8zm0-3.2c-.7 0-1.2.6-1.2 1.4 0 .8.5 1.4 1.2 1.4s1.2-.6 1.2-1.4c0-.9-.5-1.4-1.2-1.4zM183.9 178.5c-1 0-1.7-.7-1.7-1.8s.7-1.8 1.7-1.8c.4 0 .8.1 1.1.3l-.1.4c-.3-.2-.6-.3-1-.3-.7 0-1.2.6-1.2 1.4 0 .8.5 1.4 1.2 1.4.3 0 .7-.1 1-.3l.1.4c-.3.2-.7.3-1.1.3zM188.1 178.4v-2.2c0-.6-.2-.9-.7-.9-.4 0-.8.2-1.1.5v2.6h-.5v-5.1l.5-.1v2.2c.4-.4.8-.5 1.2-.5.7 0 1.1.4 1.1 1.2v2.4h-.5zM189.6 178.4v-5.1l.5-.1v5.2h-.5zM192.6 178.5c-1 0-1.7-.7-1.7-1.8s.7-1.8 1.7-1.8 1.7.7 1.7 1.8c0 1-.8 1.8-1.7 1.8zm0-3.2c-.7 0-1.2.6-1.2 1.4 0 .8.5 1.4 1.2 1.4s1.2-.6 1.2-1.4c0-.9-.5-1.4-1.2-1.4zM195.6 178.4h-.5V175l.5-.1v.7c.2-.4.6-.7 1-.7.2 0 .4.1.6.2l-.1.4c-.2-.1-.3-.1-.5-.1-.4 0-.7.3-1 .9v2.1zM199.3 174.9c.9 0 1.5.7 1.5 1.8s-.7 1.8-1.7 1.8c-.3 0-.6-.1-.8-.2v1.8h-.5v-5.2l.5-.1v.5c.2-.2.5-.4 1-.4zm-1 2.9c.2.2.5.3.9.3.7 0 1.2-.6 1.2-1.4 0-.8-.4-1.4-1.1-1.4-.4 0-.7.2-.9.4-.1 0-.1 2.1-.1 2.1zM201.9 176.7c0 .8.5 1.3 1.2 1.3.4 0 .7-.1 1-.3l.1.4c-.3.2-.7.3-1.1.3-1 0-1.7-.7-1.7-1.8s.7-1.8 1.6-1.8c.8 0 1.3.5 1.3 1.3 0 .2 0 .4-.1.5l-2.3.1zm1.9-.4v-.1c0-.5-.3-.9-.8-.9-.6 0-1 .5-1.1 1h1.9zM205.7 178.4h-.5V175l.5-.1v.7c.2-.4.6-.7 1-.7.2 0 .4.1.6.2l-.1.4c-.2-.1-.3-.1-.5-.1-.4 0-.7.3-1 .9v2.1zM209.7 178c-.2.3-.6.5-1 .5-.6 0-1.1-.4-1.1-1s.5-1.1 2.1-1.2v-.2c0-.5-.2-.8-.8-.8-.4 0-.8.2-1.1.4l-.1-.4c.3-.2.8-.4 1.3-.4.8 0 1.2.4 1.2 1.2v1.7c0 .2 0 .4.3.3v.4c-.5 0-.8-.2-.8-.5zm0-1.4c-1.2.1-1.6.4-1.6.9 0 .4.3.6.7.6.4 0 .7-.2.9-.5v-1zM210.8 178.4v-.4l2-2.7h-2v-.4h2.5v.4l-2 2.7h2v.4h-2.5zM214.3 174.1c-.2 0-.3-.2-.3-.3 0-.2.1-.3.3-.3s.3.2.3.3c0 .2-.1.3-.3.3zm-.2 4.3V175l.5-.1v3.5h-.5zM217.9 178.4v-2.2c0-.6-.2-.9-.8-.9-.4 0-.8.2-1 .5v2.6h-.5V175l.5-.1v.6c.4-.4.8-.6 1.2-.6.7 0 1.1.4 1.1 1.2v2.4h-.5zM219.7 176.7c0 .8.5 1.3 1.2 1.3.4 0 .7-.1 1-.3l.1.4c-.3.2-.7.3-1.1.3-1 0-1.7-.7-1.7-1.8s.7-1.8 1.6-1.8c.8 0 1.3.5 1.3 1.3 0 .2 0 .4-.1.5l-2.3.1zm1.9-.4v-.1c0-.5-.3-.9-.8-.9-.6 0-1 .5-1.1 1h1.9zM222.3 179.9c.8-.4 1.8-1.6 1.8-3.2s-1-2.8-1.8-3.2l.2-.3c.8.4 2 1.7 2 3.5s-1.2 3.1-2 3.5l-.2-.3z"/></g><g><path class="st4" d="M361.7 148.8c-.4-.2-.8-.3-1.2-.3-.8 0-1.3.5-1.3 1.4 0 .9.5 1.5 1.3 1.5.5 0 .9-.1 1.2-.4l.2 1.1c-.4.2-1 .3-1.5.3-1.5 0-2.5-.9-2.5-2.4s1-2.5 2.5-2.5c.6 0 1.1.1 1.6.4l-.3.9zM363.8 148.8v2.1c0 .4.2.6.5.6.2 0 .5-.1.6-.2v-2.4h1.2v3.4l-1.2.1v-.5c-.3.3-.7.5-1.1.5-.7 0-1.1-.5-1.1-1.2v-2.4h1.1zM368 152.2h-1.2v-3.4l1.2-.1v.5c.2-.4.5-.5.8-.5.2 0 .4 0 .6.1l-.2 1c-.1-.1-.3-.1-.4-.1-.3 0-.5.1-.8.5v2zM371 152.2h-1.2v-3.4l1.2-.1v.5c.2-.4.5-.5.8-.5.2 0 .4 0 .6.1l-.2 1c-.1-.1-.3-.1-.4-.1-.3 0-.5.1-.8.5v2zM373.7 150.8c0 .5.4.7.9.7.4 0 .8-.1 1.1-.3l.1.9c-.4.2-.9.3-1.4.3-1.2 0-2-.7-2-1.8s.8-1.9 1.9-1.9c1 0 1.5.6 1.5 1.5 0 .2 0 .5-.1.6h-2zm1.2-.6s0-.1 0 0c0-.5-.2-.7-.5-.7-.4 0-.6.3-.7.7h1.2zM378.9 152.2v-2.1c0-.4-.2-.6-.5-.6s-.5.1-.6.3v2.4h-1.2v-3.4l1.2-.1v.6c.3-.4.7-.6 1.2-.6.7 0 1.1.5 1.1 1.2v2.4h-1.2zM382.3 152.4c-.9 0-1.3-.4-1.3-1.3l.1-1.3-.5-.1v-.7l.5-.2v-.8h1.1v.8h.9v.9h-.9v1.3c0 .3.2.5.5.5.1 0 .3 0 .5-.1l.1.9c-.4 0-.7.1-1 .1zM386.7 152.4c-.5 0-1.1-.1-1.5-.3l.2-.8c.4.2.9.3 1.3.3.3 0 .5-.1.5-.3 0-.2-.2-.3-.6-.4-.8-.2-1.3-.5-1.3-1.1 0-.7.6-1.1 1.5-1.1.5 0 1.1.1 1.4.3l-.2.8c-.4-.2-.9-.3-1.2-.3-.3 0-.4.1-.4.3 0 .2.2.3.6.3.8.2 1.3.5 1.3 1.1-.1.6-.6 1.2-1.6 1.2zM389.8 150.8c0 .5.4.7.9.7.4 0 .8-.1 1.1-.3l.1.9c-.4.2-.9.3-1.4.3-1.2 0-2-.7-2-1.8s.8-1.9 1.9-1.9c1 0 1.5.6 1.5 1.5 0 .2 0 .5-.1.6h-2zm1.2-.6s0-.1 0 0c0-.5-.2-.7-.5-.7-.4 0-.6.3-.7.7h1.2zM394.5 152.4c-1.2 0-1.9-.6-1.9-1.8 0-1.2.8-1.9 1.9-1.9.5 0 1 .1 1.3.3l-.2.9c-.3-.2-.6-.3-.9-.3-.6 0-.9.4-.9 1s.4 1 .9 1c.4 0 .7-.1.9-.3l.2.9c-.4.1-.8.2-1.3.2zM398 152.4c-1.1 0-1.9-.7-1.9-1.8 0-1.2.8-1.9 1.9-1.9 1.1 0 1.8.7 1.8 1.8.1 1.2-.8 1.9-1.8 1.9zm0-2.9c-.5 0-.7.4-.7 1s.3 1 .7 1c.5 0 .7-.4.7-1s-.2-1-.7-1zM402.8 152.2v-2.1c0-.4-.2-.6-.5-.6s-.5.1-.6.3v2.4h-1.2v-3.4l1.2-.1v.6c.3-.4.7-.6 1.2-.6.7 0 1.1.5 1.1 1.2v2.4h-1.2zM407.1 147.3l1.2-.1v5.1h-1.2v-.4c-.2.2-.5.5-1 .5-.9 0-1.5-.7-1.5-1.8 0-1.2.8-1.9 1.8-1.9.3 0 .5 0 .7.1v-1.5zm-.6 2.2c-.5 0-.8.4-.8 1s.3.9.7.9c.3 0 .4-.1.6-.2v-1.5c-.1-.1-.3-.2-.5-.2zM408.8 150.9v-.9h2.4v.9h-2.4zM411.6 151.9c0-.3.3-.7.7-.8-.4-.2-.7-.6-.7-1.1 0-.8.6-1.4 1.7-1.4.4 0 .8.1 1.1.2l1-.1.1.9-.7-.1c.1.1.1.3.1.4 0 .7-.6 1.3-1.5 1.3-.2 0-.3 0-.5-.1-.1.1-.2.1-.2.3 0 .2.2.2.6.2h.4c1 0 1.6.2 1.6 1 0 .9-1 1.4-2.2 1.4-.9 0-1.7-.3-1.7-.9 0-.3.3-.7.8-.7-.3 0-.6-.2-.6-.5zm.8 1.1c0 .3.3.5.9.5.6 0 1-.2 1-.5s-.3-.3-.9-.3h-.7c-.2 0-.3.1-.3.3zm.9-2.4c.4 0 .5-.3.5-.6 0-.4-.2-.6-.5-.6s-.5.3-.5.6c-.1.4.1.6.5.6z"/><path class="st4" d="M416.7 150.8c0 .5.4.7.9.7.4 0 .8-.1 1.1-.3l.1.9c-.4.2-.9.3-1.4.3-1.2 0-2-.7-2-1.8s.8-1.9 1.9-1.9c1 0 1.5.6 1.5 1.5 0 .2 0 .5-.1.6h-2zm1.3-.6s0-.1 0 0c0-.5-.2-.7-.5-.7-.4 0-.6.3-.7.7h1.2zM422 152.2v-2.1c0-.4-.2-.6-.5-.6s-.5.1-.6.3v2.4h-1.2v-3.4l1.2-.1v.6c.3-.4.7-.6 1.2-.6.7 0 1.1.5 1.1 1.2v2.4H422zM424.9 150.8c0 .5.4.7.9.7.4 0 .8-.1 1.1-.3l.1.9c-.4.2-.9.3-1.4.3-1.2 0-2-.7-2-1.8s.8-1.9 1.9-1.9c1 0 1.5.6 1.5 1.5 0 .2 0 .5-.1.6h-2zm1.2-.6s0-.1 0 0c0-.5-.2-.7-.5-.7-.4 0-.6.3-.7.7h1.2zM429 152.2h-1.2v-3.4l1.2-.1v.5c.2-.4.5-.5.8-.5.2 0 .4 0 .6.1l-.2 1c-.1-.1-.3-.1-.4-.1-.3 0-.5.1-.8.5v2zM432.7 151.8c-.2.3-.5.5-1 .5-.6 0-1.1-.4-1.1-1 0-.7.5-1.2 2.1-1.2v-.1c0-.4-.2-.5-.6-.5-.4 0-.8.2-1.2.4l-.2-.8c.4-.2.9-.4 1.6-.4 1.2 0 1.6.5 1.6 1.5v1c0 .2 0 .3.3.3l-.1.8c-.9.1-1.2-.1-1.4-.5zm0-1.1c-.7.1-1 .2-1 .5 0 .2.2.4.4.4s.4-.1.5-.2v-.7zM436 152.4c-.9 0-1.3-.4-1.3-1.3l.1-1.3-.5-.1v-.7l.5-.2v-.8h1.1v.8h.9v.9h-.9v1.3c0 .3.2.5.5.5.1 0 .3 0 .5-.1l.1.9c-.4 0-.6.1-1 .1zM438 148.3c-.4 0-.7-.2-.7-.6 0-.4.3-.6.7-.6.4 0 .7.2.7.6 0 .3-.2.6-.7.6zm-.5 3.9v-3.4l1.2-.1v3.6h-1.2zM441.1 152.4c-1.1 0-1.9-.7-1.9-1.8 0-1.2.8-1.9 1.9-1.9 1.1 0 1.8.7 1.8 1.8.1 1.2-.8 1.9-1.8 1.9zm0-2.9c-.5 0-.7.4-.7 1s.3 1 .7 1c.5 0 .7-.4.7-1s-.2-1-.7-1zM445.9 152.2v-2.1c0-.4-.2-.6-.5-.6s-.5.1-.6.3v2.4h-1.2v-3.4l1.2-.1v.6c.3-.4.7-.6 1.2-.6.7 0 1.1.5 1.1 1.2v2.4h-1.2z"/><g><path class="st4" d="M364.7 160.8c-.2.3-.5.5-1 .5-.6 0-1.1-.4-1.1-1 0-.7.5-1.2 2.1-1.2v-.1c0-.4-.2-.5-.6-.5-.4 0-.8.2-1.2.4l-.2-.8c.4-.2.9-.4 1.6-.4 1.2 0 1.6.5 1.6 1.5v1c0 .2 0 .3.3.3l-.1.8c-.8.1-1.2-.1-1.4-.5zm0-1.1c-.7.1-1 .2-1 .5 0 .2.2.4.4.4s.4-.1.5-.2v-.7zM369 161.2v-2.1c0-.4-.2-.6-.5-.6s-.5.1-.6.3v2.4h-1.2v-3.4l1.2-.1v.6c.3-.4.7-.6 1.2-.6.7 0 1.1.5 1.1 1.2v2.4H369zM372.3 161.4c-.9 0-1.3-.4-1.3-1.3l.1-1.3-.5-.1v-.7l.5-.2v-.8h1.1v.8h.9v.9h-.9v1.3c0 .3.2.5.5.5.1 0 .3 0 .5-.1l.1.9c-.4 0-.6.1-1 .1zM374.3 157.3c-.4 0-.7-.2-.7-.6 0-.4.3-.6.7-.6.4 0 .7.2.7.6 0 .3-.2.6-.7.6zm-.6 3.9v-3.4l1.2-.1v3.6h-1.2zM377.9 157.6c.9 0 1.5.7 1.5 1.8 0 1.2-.8 1.9-1.7 1.9-.2 0-.5 0-.7-.1v1.6h-1.2v-5l1.2-.1v.4c.1-.2.4-.5.9-.5zm-1 2.7c.1.1.3.1.5.1.5 0 .8-.4.8-1s-.3-1-.7-1c-.3 0-.4.1-.6.2v1.7zM381.2 161.4c-.5 0-1.1-.1-1.5-.3l.2-.8c.4.2.9.3 1.3.3.3 0 .5-.1.5-.3 0-.2-.2-.3-.6-.4-.8-.2-1.3-.5-1.3-1.1 0-.7.6-1.1 1.5-1.1.5 0 1.1.1 1.4.3l-.2.8c-.4-.2-.9-.3-1.2-.3-.3 0-.4.1-.4.3 0 .2.2.3.6.3.8.2 1.3.5 1.3 1.1 0 .6-.5 1.2-1.6 1.2zM385.6 161.1l-.2.5c-.4 1-.8 1.3-1.5 1.3-.4 0-.7-.1-1-.2l.3-.9c.2.1.4.2.5.2.2 0 .4-.1.5-.4l.1-.3-1.4-3.5h1.2l.7 2.3.7-2.3h1.2l-1.1 3.3zM388.9 161.4c-1.2 0-1.9-.6-1.9-1.8 0-1.2.8-1.9 1.9-1.9.5 0 1 .1 1.3.3l-.2.9c-.3-.2-.6-.3-.9-.3-.6 0-.9.4-.9 1s.4 1 .9 1c.4 0 .7-.1.9-.3l.2.9c-.3.1-.8.2-1.3.2zM393.1 161.2v-2.1c0-.4-.2-.6-.5-.6s-.5.1-.6.3v2.4h-1.2v-5l1.2-.1v2.1c.3-.4.7-.6 1.2-.6.7 0 1.1.5 1.1 1.2v2.4h-1.2zM396.8 161.4c-1.1 0-1.9-.7-1.9-1.8 0-1.2.8-1.9 1.9-1.9 1.1 0 1.8.7 1.8 1.8.1 1.2-.8 1.9-1.8 1.9zm0-2.9c-.5 0-.7.4-.7 1s.3 1 .7 1c.5 0 .7-.4.7-1s-.3-1-.7-1zM400.7 161.4c-.9 0-1.3-.4-1.3-1.3l.1-1.3-.5-.1v-.7l.5-.2v-.8h1.1v.8h.9v.9h-.9v1.3c0 .3.2.5.5.5.1 0 .3 0 .5-.1l.1.9c-.4 0-.7.1-1 .1zM402.7 157.3c-.4 0-.7-.2-.7-.6 0-.4.3-.6.7-.6.4 0 .7.2.7.6 0 .3-.3.6-.7.6zm-.6 3.9v-3.4l1.2-.1v3.6h-1.2zM405.8 161.4c-1.2 0-1.9-.6-1.9-1.8 0-1.2.8-1.9 1.9-1.9.5 0 1 .1 1.3.3l-.2.9c-.3-.2-.6-.3-.9-.3-.6 0-.9.4-.9 1s.4 1 .9 1c.4 0 .7-.1.9-.3l.2.9c-.3.1-.8.2-1.3.2zM410.8 161.4c-.9 0-1.3-.4-1.3-1.3l.1-1.3-.5-.1v-.7l.5-.2v-.8h1.1v.8h.9v.9h-.9v1.3c0 .3.2.5.5.5.1 0 .3 0 .5-.1l.1.9c-.4 0-.6.1-1 .1zM413.4 161.2h-1.2v-3.4l1.2-.1v.5c.2-.4.5-.5.8-.5.2 0 .4 0 .6.1l-.2 1c-.1-.1-.3-.1-.4-.1-.3 0-.5.1-.8.5v2zM416.1 159.8c0 .5.4.7.9.7.4 0 .8-.1 1.1-.3l.1.9c-.4.2-.9.3-1.4.3-1.2 0-2-.7-2-1.8s.8-1.9 1.9-1.9c1 0 1.5.6 1.5 1.5 0 .2 0 .5-.1.6h-2zm1.3-.6s0-.1 0 0c0-.5-.2-.7-.5-.7-.4 0-.6.3-.7.7h1.2zM421 160.8c-.2.3-.5.5-1 .5-.6 0-1.1-.4-1.1-1 0-.7.5-1.2 2.1-1.2v-.1c0-.4-.2-.5-.6-.5-.4 0-.8.2-1.2.4l-.2-.8c.4-.2.9-.4 1.6-.4 1.2 0 1.6.5 1.6 1.5v1c0 .2 0 .3.3.3l-.1.8c-.9.1-1.3-.1-1.4-.5zm0-1.1c-.7.1-1 .2-1 .5 0 .2.2.4.4.4s.4-.1.5-.2v-.7zM424.3 161.4c-.9 0-1.3-.4-1.3-1.3l.1-1.3-.5-.1v-.7l.5-.2v-.8h1.1v.8h.9v.9h-.9v1.3c0 .3.2.5.5.5.1 0 .3 0 .5-.1l.1.9c-.4 0-.6.1-1 .1zM430.1 161.2v-2.1c0-.4-.2-.6-.5-.6-.2 0-.4.1-.6.2V161.1h-1.2V159c0-.4-.2-.6-.5-.6-.2 0-.4.1-.6.2v2.4h-1.2v-3.4l1.2-.1v.5c.3-.3.7-.5 1.1-.5.4 0 .8.2 1 .6.3-.4.7-.6 1.2-.6.7 0 1.1.5 1.1 1.2v2.4h-1zM433 159.8c0 .5.4.7.9.7.4 0 .8-.1 1.1-.3l.1.9c-.4.2-.9.3-1.4.3-1.2 0-2-.7-2-1.8s.8-1.9 1.9-1.9c1 0 1.5.6 1.5 1.5 0 .2 0 .5-.1.6h-2zm1.2-.6s0-.1 0 0c0-.5-.2-.7-.5-.7-.4 0-.6.3-.7.7h1.2zM438.3 161.2v-2.1c0-.4-.2-.6-.5-.6s-.5.1-.6.3v2.4H436v-3.4l1.2-.1v.6c.3-.4.7-.6 1.2-.6.7 0 1.1.5 1.1 1.2v2.4h-1.2zM441.6 161.4c-.9 0-1.3-.4-1.3-1.3l.1-1.3-.5-.1v-.7l.5-.2v-.8h1.1v.8h.9v.9h-.9v1.3c0 .3.2.5.5.5.1 0 .3 0 .5-.1l.1.9c-.4 0-.6.1-1 .1z"/></g><g><path class="st4" d="M355.4 170.3l-1-3.5h1.2l.5 2.3.6-2.3h1.2l.6 2.3.4-2.3h1.2l-1 3.5h-1.2l-.7-2.3-.7 2.3h-1.1zM361.1 166.3c-.4 0-.7-.2-.7-.6 0-.4.3-.6.7-.6.4 0 .7.2.7.6 0 .3-.3.6-.7.6zm-.6 3.9v-3.4l1.2-.1v3.6h-1.2zM363.9 170.4c-.9 0-1.3-.4-1.3-1.3l.1-1.3-.5-.1v-.7l.5-.2v-.8h1.1v.8h.9v.9h-.9v1.3c0 .3.2.5.5.5.1 0 .3 0 .5-.1l.1.9c-.4 0-.6.1-1 .1zM367.6 170.2v-2.1c0-.4-.2-.6-.5-.6s-.5.1-.6.3v2.4h-1.2v-5l1.2-.1v2.1c.3-.4.7-.6 1.2-.6.7 0 1.1.5 1.1 1.2v2.4h-1.2zM373.6 170.2v-2.1c0-.4-.2-.6-.5-.6s-.5.1-.6.3v2.4h-1.2v-3.4l1.2-.1v.6c.3-.4.7-.6 1.2-.6.7 0 1.1.5 1.1 1.2v2.4h-1.2zM377.2 170.4c-1.1 0-1.9-.7-1.9-1.8 0-1.2.8-1.9 1.9-1.9 1.1 0 1.8.7 1.8 1.8.1 1.2-.8 1.9-1.8 1.9zm0-2.9c-.5 0-.7.4-.7 1s.3 1 .7 1c.5 0 .7-.4.7-1s-.2-1-.7-1zM383.6 166.6c.9 0 1.5.7 1.5 1.8 0 1.2-.8 1.9-1.7 1.9-.2 0-.5 0-.7-.1v1.6h-1.2v-5l1.2-.1v.4c.1-.2.4-.5.9-.5zm-1 2.7c.1.1.3.1.5.1.5 0 .8-.4.8-1s-.3-1-.7-1c-.3 0-.4.1-.6.2v1.7zM386.9 170.2h-1.2v-3.4l1.2-.1v.5c.2-.4.5-.5.8-.5.2 0 .4 0 .6.1l-.2 1c-.1-.1-.3-.1-.4-.1-.3 0-.5.1-.8.5v2zM389.3 166.3c-.4 0-.7-.2-.7-.6 0-.4.3-.6.7-.6.4 0 .7.2.7.6 0 .3-.3.6-.7.6zm-.6 3.9v-3.4l1.2-.1v3.6h-1.2zM392.3 170.4c-1.1 0-1.9-.7-1.9-1.8 0-1.2.8-1.9 1.9-1.9 1.1 0 1.8.7 1.8 1.8.1 1.2-.7 1.9-1.8 1.9zm.1-2.9c-.5 0-.7.4-.7 1s.3 1 .7 1c.5 0 .7-.4.7-1s-.3-1-.7-1zM396 170.2h-1.2v-3.4l1.2-.1v.5c.2-.4.5-.5.8-.5.2 0 .4 0 .6.1l-.2 1c-.1-.1-.3-.1-.4-.1-.3 0-.5.1-.8.5v2zM401.8 166.1c-.2-.1-.3-.1-.5-.1-.3 0-.4.2-.4.5v.3h.9v.9h-.8v2.5h-1.2v-2.5h-.6v-.7l.6-.2v-.3c0-1 .5-1.4 1.4-1.4.3 0 .6.1.8.1l-.2.9zm1 .3c-.4 0-.7-.2-.7-.6 0-.4.3-.6.7-.6.4 0 .7.2.7.6 0 .3-.3.6-.7.6zm-.6 3.8v-3.4l1.2-.1v3.6h-1.2zM405.2 170.2H404v-3.4l1.2-.1v.5c.2-.4.5-.5.8-.5.2 0 .4 0 .6.1l-.2 1c-.1-.1-.3-.1-.4-.1-.3 0-.5.1-.8.5v2zM408.3 170.4c-.5 0-1.1-.1-1.5-.3l.2-.8c.4.2.9.3 1.3.3.3 0 .5-.1.5-.3 0-.2-.2-.3-.6-.4-.8-.2-1.3-.5-1.3-1.1 0-.7.6-1.1 1.5-1.1.5 0 1.1.1 1.4.3l-.2.8c-.4-.2-.9-.3-1.2-.3-.3 0-.4.1-.4.3 0 .2.2.3.6.3.8.2 1.3.5 1.3 1.1-.1.6-.6 1.2-1.6 1.2zM411.8 170.4c-.9 0-1.3-.4-1.3-1.3l.1-1.3-.5-.1v-.7l.5-.2v-.8h1.1v.8h.9v.9h-.9v1.3c0 .3.2.5.5.5.1 0 .3 0 .5-.1l.1.9c-.4 0-.6.1-1 .1zM412.9 168.9v-.9h2.4v.9h-2.4zM415.6 169.9c0-.3.3-.7.7-.8-.4-.2-.7-.6-.7-1.1 0-.8.6-1.4 1.7-1.4.4 0 .8.1 1.1.2l1-.1.1.9-.7-.1c.1.1.1.3.1.4 0 .7-.6 1.3-1.5 1.3-.2 0-.3 0-.5-.1-.1.1-.2.1-.2.3 0 .2.2.2.6.2h.4c1 0 1.6.2 1.6 1 0 .9-1 1.4-2.2 1.4-.9 0-1.7-.3-1.7-.9 0-.3.3-.7.8-.7-.3 0-.6-.2-.6-.5zm.8 1.1c0 .3.3.5.9.5.6 0 1-.2 1-.5s-.3-.3-.9-.3h-.7c-.2 0-.3.1-.3.3zm.9-2.4c.4 0 .5-.3.5-.6 0-.4-.2-.6-.5-.6s-.5.3-.5.6c-.1.4.1.6.5.6z"/><path class="st4" d="M420.7 168.8c0 .5.4.7.9.7.4 0 .8-.1 1.1-.3l.1.9c-.4.2-.9.3-1.4.3-1.2 0-2-.7-2-1.8s.8-1.9 1.9-1.9c1 0 1.5.6 1.5 1.5 0 .2 0 .5-.1.6h-2zm1.2-.6s0-.1 0 0c0-.5-.2-.7-.5-.7-.4 0-.6.3-.7.7h1.2zM425.8 170.2v-2.1c0-.4-.2-.6-.5-.6s-.5.1-.6.3v2.4h-1.2v-3.4l1.2-.1v.6c.3-.4.7-.6 1.2-.6.7 0 1.1.5 1.1 1.2v2.4h-1.2zM428.6 168.8c0 .5.4.7.9.7.4 0 .8-.1 1.1-.3l.1.9c-.4.2-.9.3-1.4.3-1.2 0-2-.7-2-1.8s.8-1.9 1.9-1.9c1 0 1.5.6 1.5 1.5 0 .2 0 .5-.1.6h-2zm1.3-.6s0-.1 0 0c0-.5-.2-.7-.5-.7-.4 0-.6.3-.7.7h1.2zM432.7 170.2h-1.2v-3.4l1.2-.1v.5c.2-.4.5-.5.8-.5.2 0 .4 0 .6.1l-.2 1c-.1-.1-.3-.1-.4-.1-.3 0-.5.1-.8.5v2zM436.3 169.8c-.2.3-.5.5-1 .5-.6 0-1.1-.4-1.1-1 0-.7.5-1.2 2.1-1.2v-.1c0-.4-.2-.5-.6-.5-.4 0-.8.2-1.2.4l-.2-.8c.4-.2.9-.4 1.6-.4 1.2 0 1.6.5 1.6 1.5v1c0 .2 0 .3.3.3l-.1.8c-.8.1-1.2-.1-1.4-.5zm0-1.1c-.7.1-1 .2-1 .5 0 .2.2.4.4.4s.4-.1.5-.2v-.7zM439.6 170.4c-.9 0-1.3-.4-1.3-1.3l.1-1.3-.5-.1v-.7l.5-.2v-.8h1.1v.8h.9v.9h-.9v1.3c0 .3.2.5.5.5.1 0 .3 0 .5-.1l.1.9c-.4 0-.6.1-1 .1zM441.5 166.3c-.4 0-.7-.2-.7-.6 0-.4.3-.6.7-.6.4 0 .7.2.7.6 0 .3-.2.6-.7.6zm-.6 3.9v-3.4l1.2-.1v3.6h-1.2zM444.5 170.4c-1.1 0-1.9-.7-1.9-1.8 0-1.2.8-1.9 1.9-1.9 1.1 0 1.8.7 1.8 1.8.1 1.2-.7 1.9-1.8 1.9zm0-2.9c-.5 0-.7.4-.7 1s.3 1 .7 1c.5 0 .7-.4.7-1 .1-.6-.2-1-.7-1zM449.3 170.2v-2.1c0-.4-.2-.6-.5-.6s-.5.1-.6.3v2.4H447v-3.4l1.2-.1v.6c.3-.4.7-.6 1.2-.6.7 0 1.1.5 1.1 1.2v2.4h-1.2z"/></g><g><path class="st4" d="M366.8 178.8c-.2.3-.5.5-1 .5-.6 0-1.1-.4-1.1-1 0-.7.5-1.2 2.1-1.2v-.1c0-.4-.2-.5-.6-.5-.4 0-.8.2-1.2.4l-.2-.8c.4-.2.9-.4 1.6-.4 1.2 0 1.6.5 1.6 1.5v1c0 .2 0 .3.3.3l-.1.8c-.9.1-1.3-.1-1.4-.5zm0-1.1c-.7.1-1 .2-1 .5 0 .2.2.4.4.4s.4-.1.5-.2v-.7zM370.9 179.2v-2.1c0-.4-.2-.6-.5-.6s-.5.1-.6.3v2.4h-1.2v-3.4l1.2-.1v.6c.3-.4.7-.6 1.2-.6.7 0 1.1.5 1.1 1.2v2.4h-1.2zM374.2 179.4c-.9 0-1.3-.4-1.3-1.3l.1-1.3-.5-.1v-.7l.5-.2v-.8h1.1v.8h.9v.9h-1v1.3c0 .3.2.5.5.5.1 0 .3 0 .5-.1l.1.9c-.3 0-.5.1-.9.1zM376.1 175.3c-.4 0-.7-.2-.7-.6 0-.4.3-.6.7-.6.4 0 .7.2.7.6 0 .3-.2.6-.7.6zm-.5 3.9v-3.4l1.2-.1v3.6h-1.2zM379.6 175.6c.9 0 1.5.7 1.5 1.8 0 1.2-.8 1.9-1.7 1.9-.2 0-.5 0-.7-.1v1.6h-1.2v-5l1.2-.1v.4c.2-.2.5-.5.9-.5zm-1 2.7c.1.1.3.1.5.1.5 0 .8-.4.8-1s-.3-1-.7-1c-.3 0-.4.1-.6.2v1.7zM382.9 179.4c-.5 0-1.1-.1-1.5-.3l.2-.8c.4.2.9.3 1.3.3.3 0 .5-.1.5-.3 0-.2-.2-.3-.6-.4-.8-.2-1.3-.5-1.3-1.1 0-.7.6-1.1 1.5-1.1.5 0 1.1.1 1.4.3l-.2.8c-.4-.2-.9-.3-1.2-.3-.3 0-.4.1-.4.3 0 .2.2.3.6.3.8.2 1.3.5 1.3 1.1 0 .6-.5 1.2-1.6 1.2zM387.2 179.1l-.2.5c-.4 1-.8 1.3-1.5 1.3-.4 0-.7-.1-1-.2l.3-.9c.2.1.4.2.5.2.2 0 .4-.1.5-.4l.1-.3-1.4-3.5h1.2l.7 2.3.7-2.3h1.2l-1.1 3.3zM390.5 179.4c-1.2 0-1.9-.6-1.9-1.8 0-1.2.8-1.9 1.9-1.9.5 0 1 .1 1.3.3l-.2.9c-.3-.2-.6-.3-.9-.3-.6 0-.9.4-.9 1s.4 1 .9 1c.4 0 .7-.1.9-.3l.2.9c-.3.1-.8.2-1.3.2zM394.6 179.2v-2.1c0-.4-.2-.6-.5-.6s-.5.1-.6.3v2.4h-1.2v-5l1.2-.1v2.1c.3-.4.7-.6 1.2-.6.7 0 1.1.5 1.1 1.2v2.4h-1.2zM398.2 179.4c-1.1 0-1.9-.7-1.9-1.8 0-1.2.8-1.9 1.9-1.9 1.1 0 1.8.7 1.8 1.8.1 1.2-.8 1.9-1.8 1.9zm0-2.9c-.5 0-.7.4-.7 1s.3 1 .7 1c.5 0 .7-.4.7-1s-.2-1-.7-1zM402 179.4c-.9 0-1.3-.4-1.3-1.3l.1-1.3-.5-.1v-.7l.5-.2v-.8h1.1v.8h.9v.9h-.9v1.3c0 .3.2.5.5.5.1 0 .3 0 .5-.1l.1.9c-.4 0-.6.1-1 .1zM404 175.3c-.4 0-.7-.2-.7-.6 0-.4.3-.6.7-.6.4 0 .7.2.7.6-.1.3-.3.6-.7.6zm-.6 3.9v-3.4l1.2-.1v3.6h-1.2zM407 179.4c-1.2 0-1.9-.6-1.9-1.8 0-1.2.8-1.9 1.9-1.9.5 0 1 .1 1.3.3l-.2.9c-.3-.2-.6-.3-.9-.3-.6 0-.9.4-.9 1s.4 1 .9 1c.4 0 .7-.1.9-.3l.2.9c-.3.1-.8.2-1.3.2zM411.5 177.8c0 .5.4.7.9.7.4 0 .8-.1 1.1-.3l.1.9c-.4.2-.9.3-1.4.3-1.2 0-2-.7-2-1.8s.8-1.9 1.9-1.9c1 0 1.5.6 1.5 1.5 0 .2 0 .5-.1.6h-2zm1.2-.6s0-.1 0 0c0-.5-.2-.7-.5-.7-.4 0-.6.3-.7.7h1.2zM416.6 179.2l-.7-1.1-.7 1.1H414l1.2-1.8-1.2-1.7h1.2l.6 1 .6-1h1.2l-1.2 1.7 1.2 1.8h-1zM420.3 175.6c.9 0 1.5.7 1.5 1.8 0 1.2-.8 1.9-1.7 1.9-.2 0-.5 0-.7-.1v1.6h-1.2v-5l1.2-.1v.4c.1-.2.5-.5.9-.5zm-1 2.7c.1.1.3.1.5.1.5 0 .8-.4.8-1s-.3-1-.7-1c-.3 0-.4.1-.6.2v1.7zM424.1 179.4c-1.1 0-1.9-.7-1.9-1.8 0-1.2.8-1.9 1.9-1.9 1.1 0 1.8.7 1.8 1.8.1 1.2-.7 1.9-1.8 1.9zm0-2.9c-.5 0-.7.4-.7 1s.3 1 .7 1c.5 0 .7-.4.7-1 .1-.6-.2-1-.7-1zM427.9 179.4c-.5 0-1.1-.1-1.5-.3l.2-.8c.4.2.9.3 1.3.3.3 0 .5-.1.5-.3 0-.2-.2-.3-.6-.4-.8-.2-1.3-.5-1.3-1.1 0-.7.6-1.1 1.5-1.1.5 0 1.1.1 1.4.3l-.2.8c-.4-.2-.9-.3-1.2-.3-.3 0-.4.1-.4.3 0 .2.2.3.6.3.8.2 1.3.5 1.3 1.1 0 .6-.6 1.2-1.6 1.2zM431.2 175.8v2.1c0 .4.2.6.5.6.2 0 .5-.1.6-.2v-2.4h1.2v3.4l-1.2.1v-.5c-.3.3-.7.5-1.1.5-.7 0-1.1-.5-1.1-1.2v-2.4h1.1zM435.4 179.2h-1.2v-3.4l1.2-.1v.5c.2-.4.5-.5.8-.5.2 0 .4 0 .6.1l-.2 1c-.1-.1-.3-.1-.4-.1-.3 0-.5.1-.8.5v2zM438.2 177.8c0 .5.4.7.9.7.4 0 .8-.1 1.1-.3l.1.9c-.4.2-.9.3-1.4.3-1.2 0-2-.7-2-1.8s.8-1.9 1.9-1.9c1 0 1.5.6 1.5 1.5 0 .2 0 .5-.1.6h-2zm1.2-.6s0-.1 0 0c0-.5-.2-.7-.5-.7-.4 0-.6.3-.7.7h1.2zM442.3 173.9l.7-.1v3h-.7v-.2c-.1.1-.3.3-.6.3-.5 0-.9-.4-.9-1.1 0-.7.5-1.1 1-1.1.1 0 .3 0 .4.1v-.9zm-.4 1.3c-.3 0-.5.2-.5.6 0 .3.2.6.4.6.1 0 .3-.1.3-.1v-.9c.1-.2 0-.2-.2-.2z"/></g></g><g><path class="st5" d="M237.1 146.2h104.2v68.3H237.1z"/><path class="st4" d="M249.5 147.8c-.4-.2-.8-.3-1.2-.3-.8 0-1.3.5-1.3 1.4 0 .9.5 1.5 1.3 1.5.5 0 .9-.1 1.2-.4l.2 1.1c-.4.2-1 .3-1.5.3-1.5 0-2.5-.9-2.5-2.4s1-2.5 2.5-2.5c.6 0 1.1.1 1.6.4l-.3.9zM251.5 147.8v2.1c0 .4.2.6.5.6.2 0 .5-.1.6-.2v-2.4h1.2v3.4l-1.2.1v-.5c-.3.3-.7.5-1.1.5-.7 0-1.1-.5-1.1-1.2v-2.4h1.1zM255.6 151.3h-1.2v-3.4l1.2-.1v.5c.2-.4.5-.5.8-.5.2 0 .4 0 .6.1l-.2 1c-.1-.1-.3-.1-.4-.1-.3 0-.5.1-.8.5v2zM258.5 151.3h-1.2v-3.4l1.2-.1v.5c.2-.4.5-.5.8-.5.2 0 .4 0 .6.1l-.2 1c-.1-.1-.3-.1-.4-.1-.3 0-.5.1-.8.5v2zM261.2 149.8c0 .5.4.7.9.7.4 0 .8-.1 1.1-.3l.1.9c-.4.2-.9.3-1.4.3-1.2 0-2-.7-2-1.8s.8-1.9 1.9-1.9c1 0 1.5.6 1.5 1.5 0 .2 0 .5-.1.6h-2zm1.2-.6s0-.1 0 0c0-.5-.2-.7-.5-.7-.4 0-.6.3-.7.7h1.2zM266.3 151.3v-2.1c0-.4-.2-.6-.5-.6s-.5.1-.6.3v2.4H264v-3.4l1.2-.1v.6c.3-.4.7-.6 1.2-.6.7 0 1.1.5 1.1 1.2v2.4h-1.2zM269.6 151.4c-.9 0-1.3-.4-1.3-1.3l.1-1.3-.5-.1v-.7l.5-.2v-.8h1.1v.8h.9v.9h-.9v1.3c0 .3.2.5.5.5.1 0 .3 0 .5-.1l.1.9c-.4 0-.7.1-1 .1zM273.8 151.4c-.5 0-1.1-.1-1.5-.3l.2-.8c.4.2.9.3 1.3.3.3 0 .5-.1.5-.3 0-.2-.2-.3-.6-.4-.8-.2-1.3-.5-1.3-1.1 0-.7.6-1.1 1.5-1.1.5 0 1.1.1 1.4.3l-.2.8c-.4-.2-.9-.3-1.2-.3-.3 0-.4.1-.4.3 0 .2.2.3.6.3.8.2 1.3.5 1.3 1.1-.1.7-.6 1.2-1.6 1.2zM276.8 149.8c0 .5.4.7.9.7.4 0 .8-.1 1.1-.3l.1.9c-.4.2-.9.3-1.4.3-1.2 0-2-.7-2-1.8s.8-1.9 1.9-1.9c1 0 1.5.6 1.5 1.5 0 .2 0 .5-.1.6h-2zm1.2-.6s0-.1 0 0c0-.5-.2-.7-.5-.7-.4 0-.6.3-.7.7h1.2zM281.3 151.4c-1.2 0-1.9-.6-1.9-1.8 0-1.2.8-1.9 1.9-1.9.5 0 1 .1 1.3.3l-.2.9c-.3-.2-.6-.3-.9-.3-.6 0-.9.4-.9 1s.4 1 .9 1c.4 0 .7-.1.9-.3l.2.9c-.3.1-.7.2-1.3.2zM284.8 151.4c-1.1 0-1.9-.7-1.9-1.8 0-1.2.8-1.9 1.9-1.9 1.1 0 1.8.7 1.8 1.8.1 1.2-.7 1.9-1.8 1.9zm0-2.9c-.5 0-.7.4-.7 1s.3 1 .7 1c.5 0 .7-.4.7-1 .1-.6-.2-1-.7-1zM289.5 151.3v-2.1c0-.4-.2-.6-.5-.6s-.5.1-.6.3v2.4h-1.2v-3.4l1.2-.1v.6c.3-.4.7-.6 1.2-.6.7 0 1.1.5 1.1 1.2v2.4h-1.2zM293.7 146.3l1.2-.1v5.1h-1.2v-.4c-.2.2-.5.5-1 .5-.9 0-1.5-.7-1.5-1.8 0-1.2.8-1.9 1.7-1.9.3 0 .5 0 .7.1v-1.5zm-.6 2.2c-.5 0-.8.4-.8 1s.3.9.7.9c.3 0 .4-.1.6-.2v-1.5c-.1-.1-.2-.2-.5-.2zM295.3 149.9v-.9h2.4v.9h-2.4zM298 150.9c0-.3.3-.7.7-.8-.4-.2-.7-.6-.7-1.1 0-.8.6-1.4 1.7-1.4.4 0 .8.1 1.1.2l1-.1.1.9-.7-.1c.1.1.1.3.1.4 0 .7-.6 1.3-1.5 1.3-.2 0-.3 0-.5-.1-.1.1-.2.1-.2.3 0 .2.2.2.6.2h.4c1 0 1.6.2 1.6 1 0 .9-1 1.4-2.2 1.4-.9 0-1.7-.3-1.7-.9 0-.3.3-.7.8-.7-.3 0-.6-.2-.6-.5zm.8 1.1c0 .3.3.5.9.5.6 0 1-.2 1-.5s-.3-.3-.9-.3h-.7c-.2 0-.3.1-.3.3zm.9-2.4c.4 0 .5-.3.5-.6 0-.4-.2-.6-.5-.6s-.5.3-.5.6c0 .4.1.6.5.6z"/><path class="st4" d="M303 149.8c0 .5.4.7.9.7.4 0 .8-.1 1.1-.3l.1.9c-.4.2-.9.3-1.4.3-1.2 0-2-.7-2-1.8s.8-1.9 1.9-1.9c1 0 1.5.6 1.5 1.5 0 .2 0 .5-.1.6h-2zm1.3-.6s0-.1 0 0c0-.5-.2-.7-.5-.7-.4 0-.6.3-.7.7h1.2zM308.2 151.3v-2.1c0-.4-.2-.6-.5-.6s-.5.1-.6.3v2.4h-1.2v-3.4l1.2-.1v.6c.3-.4.7-.6 1.2-.6.7 0 1.1.5 1.1 1.2v2.4h-1.2zM310.9 149.8c0 .5.4.7.9.7.4 0 .8-.1 1.1-.3l.1.9c-.4.2-.9.3-1.4.3-1.2 0-2-.7-2-1.8s.8-1.9 1.9-1.9c1 0 1.5.6 1.5 1.5 0 .2 0 .5-.1.6h-2zm1.3-.6s0-.1 0 0c0-.5-.2-.7-.5-.7-.4 0-.6.3-.7.7h1.2zM314.9 151.3h-1.2v-3.4l1.2-.1v.5c.2-.4.5-.5.8-.5.2 0 .4 0 .6.1l-.2 1c-.1-.1-.3-.1-.4-.1-.3 0-.5.1-.8.5v2zM318.6 150.8c-.2.3-.5.5-1 .5-.6 0-1.1-.4-1.1-1 0-.7.5-1.2 2.1-1.2v-.1c0-.4-.2-.5-.6-.5-.4 0-.8.2-1.2.4l-.2-.8c.4-.2.9-.4 1.6-.4 1.2 0 1.6.5 1.6 1.5v1c0 .2 0 .3.3.3l-.1.8c-.9.1-1.2-.1-1.4-.5zm0-1.1c-.7.1-1 .2-1 .5 0 .2.2.4.4.4s.4-.1.5-.2v-.7zM321.8 151.4c-.9 0-1.3-.4-1.3-1.3l.1-1.3-.5-.1v-.7l.5-.2v-.8h1.1v.8h.9v.9h-.9v1.3c0 .3.2.5.5.5.1 0 .3 0 .5-.1l.1.9c-.4 0-.6.1-1 .1zM323.7 147.3c-.4 0-.7-.2-.7-.6 0-.4.3-.6.7-.6.4 0 .7.2.7.6 0 .4-.3.6-.7.6zm-.6 4v-3.4l1.2-.1v3.6h-1.2zM326.7 151.4c-1.1 0-1.9-.7-1.9-1.8 0-1.2.8-1.9 1.9-1.9 1.1 0 1.8.7 1.8 1.8.1 1.2-.8 1.9-1.8 1.9zm0-2.9c-.5 0-.7.4-.7 1s.3 1 .7 1c.5 0 .7-.4.7-1s-.2-1-.7-1zM331.4 151.3v-2.1c0-.4-.2-.6-.5-.6s-.5.1-.6.3v2.4h-1.2v-3.4l1.2-.1v.6c.3-.4.7-.6 1.2-.6.7 0 1.1.5 1.1 1.2v2.4h-1.2zM244.5 159.8c-.2.3-.5.5-1 .5-.6 0-1.1-.4-1.1-1 0-.7.5-1.2 2.1-1.2v-.1c0-.4-.2-.5-.6-.5-.4 0-.8.2-1.2.4l-.2-.8c.4-.2.9-.4 1.6-.4 1.2 0 1.6.5 1.6 1.5v1c0 .2 0 .3.3.3l-.1.8c-.8.1-1.2-.1-1.4-.5zm0-1.1c-.7.1-1 .2-1 .5 0 .2.2.4.4.4s.4-.1.5-.2v-.7zM248.6 160.3v-2.1c0-.4-.2-.6-.5-.6s-.5.1-.6.3v2.4h-1.2v-3.4l1.2-.1v.6c.3-.4.7-.6 1.2-.6.7 0 1.1.5 1.1 1.2v2.4h-1.2zM251.9 160.4c-.9 0-1.3-.4-1.3-1.3l.1-1.3-.5-.1v-.7l.5-.2v-.8h1.1v.8h.9v.9h-.9v1.3c0 .3.2.5.5.5.1 0 .3 0 .5-.1l.1.9c-.4 0-.7.1-1 .1zM253.8 156.3c-.4 0-.7-.2-.7-.6 0-.4.3-.6.7-.6.4 0 .7.2.7.6 0 .4-.3.6-.7.6zm-.6 4v-3.4l1.2-.1v3.6h-1.2zM257.2 156.7c.9 0 1.5.7 1.5 1.8 0 1.2-.8 1.9-1.7 1.9-.2 0-.5 0-.7-.1v1.6h-1.2v-5l1.2-.1v.4c.1-.3.5-.5.9-.5zm-1 2.7c.1.1.3.1.5.1.5 0 .8-.4.8-1s-.3-1-.7-1c-.3 0-.4.1-.6.2v1.7zM260.5 160.4c-.5 0-1.1-.1-1.5-.3l.2-.8c.4.2.9.3 1.3.3.3 0 .5-.1.5-.3 0-.2-.2-.3-.6-.4-.8-.2-1.3-.5-1.3-1.1 0-.7.6-1.1 1.5-1.1.5 0 1.1.1 1.4.3l-.2.8c-.4-.2-.9-.3-1.2-.3-.3 0-.4.1-.4.3 0 .2.2.3.6.3.8.2 1.3.5 1.3 1.1 0 .7-.6 1.2-1.6 1.2zM264.8 160.1l-.2.5c-.4 1-.8 1.3-1.5 1.3-.4 0-.7-.1-1-.2l.3-.9c.2.1.4.2.5.2.2 0 .4-.1.5-.4l.1-.3-1.4-3.5h1.2l.7 2.3.7-2.3h1.2l-1.1 3.3zM268 160.4c-1.2 0-1.9-.6-1.9-1.8 0-1.2.8-1.9 1.9-1.9.5 0 1 .1 1.3.3l-.2.9c-.3-.2-.6-.3-.9-.3-.6 0-.9.4-.9 1s.4 1 .9 1c.4 0 .7-.1.9-.3l.2.9c-.3.1-.8.2-1.3.2zM272.1 160.3v-2.1c0-.4-.2-.6-.5-.6s-.5.1-.6.3v2.4h-1.2v-5l1.2-.1v2.1c.3-.4.7-.6 1.2-.6.7 0 1.1.5 1.1 1.2v2.4h-1.2zM275.6 160.4c-1.1 0-1.9-.7-1.9-1.8 0-1.2.8-1.9 1.9-1.9 1.1 0 1.8.7 1.8 1.8.1 1.2-.7 1.9-1.8 1.9zm0-2.9c-.5 0-.7.4-.7 1s.3 1 .7 1c.5 0 .7-.4.7-1 .1-.6-.2-1-.7-1zM279.4 160.4c-.9 0-1.3-.4-1.3-1.3l.1-1.3-.5-.1v-.7l.5-.2v-.8h1.1v.8h.9v.9h-.9v1.3c0 .3.2.5.5.5.1 0 .3 0 .5-.1l.1.9c-.4 0-.6.1-1 .1zM281.3 156.3c-.4 0-.7-.2-.7-.6 0-.4.3-.6.7-.6.4 0 .7.2.7.6 0 .4-.2.6-.7.6zm-.5 4v-3.4l1.2-.1v3.6h-1.2zM284.3 160.4c-1.2 0-1.9-.6-1.9-1.8 0-1.2.8-1.9 1.9-1.9.5 0 1 .1 1.3.3l-.2.9c-.3-.2-.6-.3-.9-.3-.6 0-.9.4-.9 1s.4 1 .9 1c.4 0 .7-.1.9-.3l.2.9c-.3.1-.8.2-1.3.2zM289.2 160.4c-.9 0-1.3-.4-1.3-1.3l.1-1.3-.5-.1v-.7l.5-.2v-.8h1.1v.8h.9v.9h-1v1.3c0 .3.2.5.5.5.1 0 .3 0 .5-.1l.1.9c-.4 0-.6.1-.9.1zM291.6 160.3h-1.2v-3.4l1.2-.1v.5c.2-.4.5-.5.8-.5.2 0 .4 0 .6.1l-.2 1c-.1-.1-.3-.1-.4-.1-.3 0-.5.1-.8.5v2zM294.3 158.8c0 .5.4.7.9.7.4 0 .8-.1 1.1-.3l.1.9c-.4.2-.9.3-1.4.3-1.2 0-2-.7-2-1.8s.8-1.9 1.9-1.9c1 0 1.5.6 1.5 1.5 0 .2 0 .5-.1.6h-2zm1.2-.6s0-.1 0 0c0-.5-.2-.7-.5-.7-.4 0-.6.3-.7.7h1.2zM299 159.8c-.2.3-.5.5-1 .5-.6 0-1.1-.4-1.1-1 0-.7.5-1.2 2.1-1.2v-.1c0-.4-.2-.5-.6-.5-.4 0-.8.2-1.2.4l-.2-.8c.4-.2.9-.4 1.6-.4 1.2 0 1.6.5 1.6 1.5v1c0 .2 0 .3.3.3l-.1.8c-.8.1-1.2-.1-1.4-.5zm0-1.1c-.7.1-1 .2-1 .5 0 .2.2.4.4.4s.4-.1.5-.2v-.7zM302.3 160.4c-.9 0-1.3-.4-1.3-1.3l.1-1.3-.5-.1v-.7l.5-.2v-.8h1.1v.8h.9v.9h-.9v1.3c0 .3.2.5.5.5.1 0 .3 0 .5-.1l.1.9c-.4 0-.7.1-1 .1zM308 160.3v-2.1c0-.4-.2-.6-.5-.6-.2 0-.4.1-.6.2V160.2h-1.2v-2.1c0-.4-.2-.6-.5-.6-.2 0-.4.1-.6.2v2.4h-1.2v-3.4l1.2-.1v.5c.3-.3.7-.5 1.1-.5.4 0 .8.2 1 .6.3-.4.7-.6 1.2-.6.7 0 1.1.5 1.1 1.2v2.4h-1zM310.8 158.8c0 .5.4.7.9.7.4 0 .8-.1 1.1-.3l.1.9c-.4.2-.9.3-1.4.3-1.2 0-2-.7-2-1.8s.8-1.9 1.9-1.9c1 0 1.5.6 1.5 1.5 0 .2 0 .5-.1.6h-2zm1.2-.6s0-.1 0 0c0-.5-.2-.7-.5-.7-.4 0-.6.3-.7.7h1.2zM315.9 160.3v-2.1c0-.4-.2-.6-.5-.6s-.5.1-.6.3v2.4h-1.2v-3.4l1.2-.1v.6c.3-.4.7-.6 1.2-.6.7 0 1.1.5 1.1 1.2v2.4h-1.2zM319.2 160.4c-.9 0-1.3-.4-1.3-1.3l.1-1.3-.5-.1v-.7l.5-.2v-.8h1.1v.8h.9v.9h-1v1.3c0 .3.2.5.5.5.1 0 .3 0 .5-.1l.1.9c-.3 0-.6.1-.9.1zM322.8 160.3l-1-3.5h1.2l.5 2.3.6-2.3h1.2l.6 2.3.4-2.3h1.2l-1 3.5h-1.2l-.7-2.3-.7 2.3h-1.1zM328.4 156.3c-.4 0-.7-.2-.7-.6 0-.4.3-.6.7-.6.4 0 .7.2.7.6-.1.4-.3.6-.7.6zm-.6 4v-3.4l1.2-.1v3.6h-1.2zM331.1 160.4c-.9 0-1.3-.4-1.3-1.3l.1-1.3-.5-.1v-.7l.5-.2v-.8h1.1v.8h.9v.9h-.9v1.3c0 .3.2.5.5.5.1 0 .3 0 .5-.1l.1.9c-.5 0-.7.1-1 .1zM334.7 160.3v-2.1c0-.4-.2-.6-.5-.6s-.5.1-.6.3v2.4h-1.2v-5l1.2-.1v2.1c.3-.4.7-.6 1.2-.6.7 0 1.1.5 1.1 1.2v2.4h-1.2zM245.7 165.8v2.1c0 .4.2.6.5.6.2 0 .5-.1.6-.2v-2.4h1.2v3.4l-1.2.1v-.5c-.3.3-.7.5-1.1.5-.7 0-1.1-.5-1.1-1.2v-2.4h1.1zM250.9 169.3v-2.1c0-.4-.2-.6-.5-.6s-.5.1-.6.3v2.4h-1.2v-3.4l1.2-.1v.6c.3-.4.7-.6 1.2-.6.7 0 1.1.5 1.1 1.2v2.4h-1.2zM254 169.4c-.5 0-1.1-.1-1.5-.3l.2-.8c.4.2.9.3 1.3.3.3 0 .5-.1.5-.3 0-.2-.2-.3-.6-.4-.8-.2-1.3-.5-1.3-1.1 0-.7.6-1.1 1.5-1.1.5 0 1.1.1 1.4.3l-.2.8c-.4-.2-.9-.3-1.2-.3-.3 0-.4.1-.4.3 0 .2.2.3.6.3.8.2 1.3.5 1.3 1.1 0 .7-.6 1.2-1.6 1.2zM258.2 165.7c.9 0 1.5.7 1.5 1.8 0 1.2-.8 1.9-1.7 1.9-.2 0-.5 0-.7-.1v1.6h-1.2v-5l1.2-.1v.4c.2-.3.5-.5.9-.5zm-1 2.7c.1.1.3.1.5.1.5 0 .8-.4.8-1s-.3-1-.7-1c-.3 0-.4.1-.6.2v1.7zM261.2 167.8c0 .5.4.7.9.7.4 0 .8-.1 1.1-.3l.1.9c-.4.2-.9.3-1.4.3-1.2 0-2-.7-2-1.8s.8-1.9 1.9-1.9c1 0 1.5.6 1.5 1.5 0 .2 0 .5-.1.6h-2zm1.2-.6s0-.1 0 0c0-.5-.2-.7-.5-.7-.4 0-.6.3-.7.7h1.2zM265.8 169.4c-1.2 0-1.9-.6-1.9-1.8 0-1.2.8-1.9 1.9-1.9.5 0 1 .1 1.3.3l-.2.9c-.3-.2-.6-.3-.9-.3-.6 0-.9.4-.9 1s.4 1 .9 1c.4 0 .7-.1.9-.3l.2.9c-.4.1-.8.2-1.3.2zM268.1 165.3c-.4 0-.7-.2-.7-.6 0-.4.3-.6.7-.6.4 0 .7.2.7.6 0 .4-.2.6-.7.6zm-.5 4v-3.4l1.2-.1v3.6h-1.2zM271.6 165.1c-.2-.1-.3-.1-.5-.1-.3 0-.4.2-.4.5v.3h.9v.9h-.8v2.5h-1.2v-2.5h-.6v-.7l.6-.2v-.3c0-1 .5-1.4 1.4-1.4.3 0 .6.1.8.1l-.2.9zm1 .3c-.4 0-.7-.2-.7-.6 0-.4.3-.6.7-.6.4 0 .7.2.7.6 0 .3-.2.6-.7.6zm-.5 3.9v-3.4l1.2-.1v3.6h-1.2zM274.9 167.8c0 .5.4.7.9.7.4 0 .8-.1 1.1-.3l.1.9c-.4.2-.9.3-1.4.3-1.2 0-2-.7-2-1.8s.8-1.9 1.9-1.9c1 0 1.5.6 1.5 1.5 0 .2 0 .5-.1.6h-2zm1.2-.6s0-.1 0 0c0-.5-.2-.7-.5-.7-.4 0-.6.3-.7.7h1.2zM280 164.3l1.2-.1v5.1H280v-.4c-.2.2-.5.5-1 .5-.9 0-1.5-.7-1.5-1.8 0-1.2.8-1.9 1.7-1.9.3 0 .5 0 .7.1v-1.5zm-.6 2.2c-.5 0-.8.4-.8 1s.3.9.7.9c.3 0 .4-.1.6-.2v-1.5c0-.1-.2-.2-.5-.2zM285.6 165.1c-.2-.1-.3-.1-.5-.1-.3 0-.4.2-.4.5v.3h.9v.9h-.8v2.5h-1.2v-2.5h-.6v-.7l.6-.2v-.3c0-1 .5-1.4 1.4-1.4.3 0 .6.1.8.1l-.2.9zm1.1.3c-.4 0-.7-.2-.7-.6 0-.4.3-.6.7-.6.4 0 .7.2.7.6 0 .3-.3.6-.7.6zm-.6 3.9v-3.4l1.2-.1v3.6h-1.2zM289.1 169.3h-1.2v-3.4l1.2-.1v.5c.2-.4.5-.5.8-.5.2 0 .4 0 .6.1l-.2 1c-.1-.1-.3-.1-.4-.1-.3 0-.5.1-.8.5v2zM292.1 169.4c-.5 0-1.1-.1-1.5-.3l.2-.8c.4.2.9.3 1.3.3.3 0 .5-.1.5-.3 0-.2-.2-.3-.6-.4-.8-.2-1.3-.5-1.3-1.1 0-.7.6-1.1 1.5-1.1.5 0 1.1.1 1.4.3l-.2.8c-.4-.2-.9-.3-1.2-.3-.3 0-.4.1-.4.3 0 .2.2.3.6.3.8.2 1.3.5 1.3 1.1 0 .7-.6 1.2-1.6 1.2zM295.6 169.4c-.9 0-1.3-.4-1.3-1.3l.1-1.3-.5-.1v-.7l.5-.2v-.8h1.1v.8h.9v.9h-.9v1.3c0 .3.2.5.5.5.1 0 .3 0 .5-.1l.1.9c-.4 0-.7.1-1 .1zM296.7 167.9v-.9h2.4v.9h-2.4zM299.4 168.9c0-.3.3-.7.7-.8-.4-.2-.7-.6-.7-1.1 0-.8.6-1.4 1.7-1.4.4 0 .8.1 1.1.2l1-.1.1.9-.7-.1c.1.1.1.3.1.4 0 .7-.6 1.3-1.5 1.3-.2 0-.3 0-.5-.1-.1.1-.2.1-.2.3 0 .2.2.2.6.2h.4c1 0 1.6.2 1.6 1 0 .9-1 1.4-2.2 1.4-.9 0-1.7-.3-1.7-.9 0-.3.3-.7.8-.7-.3 0-.6-.2-.6-.5zm.8 1.1c0 .3.3.5.9.5.6 0 1-.2 1-.5s-.3-.3-.9-.3h-.7c-.2 0-.3.1-.3.3zm.9-2.4c.4 0 .5-.3.5-.6 0-.4-.2-.6-.5-.6s-.5.3-.5.6c-.1.4.1.6.5.6z"/><path class="st4" d="M304.4 167.8c0 .5.4.7.9.7.4 0 .8-.1 1.1-.3l.1.9c-.4.2-.9.3-1.4.3-1.2 0-2-.7-2-1.8s.8-1.9 1.9-1.9c1 0 1.5.6 1.5 1.5 0 .2 0 .5-.1.6h-2zm1.2-.6s0-.1 0 0c0-.5-.2-.7-.5-.7-.4 0-.6.3-.7.7h1.2zM309.5 169.3v-2.1c0-.4-.2-.6-.5-.6s-.5.1-.6.3v2.4h-1.2v-3.4l1.2-.1v.6c.3-.4.7-.6 1.2-.6.7 0 1.1.5 1.1 1.2v2.4h-1.2zM312.3 167.8c0 .5.4.7.9.7.4 0 .8-.1 1.1-.3l.1.9c-.4.2-.9.3-1.4.3-1.2 0-2-.7-2-1.8s.8-1.9 1.9-1.9c1 0 1.5.6 1.5 1.5 0 .2 0 .5-.1.6h-2zm1.2-.6s0-.1 0 0c0-.5-.2-.7-.5-.7-.4 0-.6.3-.7.7h1.2zM316.3 169.3h-1.2v-3.4l1.2-.1v.5c.2-.4.5-.5.8-.5.2 0 .4 0 .6.1l-.2 1c-.1-.1-.3-.1-.4-.1-.3 0-.5.1-.8.5v2zM319.9 168.8c-.2.3-.5.5-1 .5-.6 0-1.1-.4-1.1-1 0-.7.5-1.2 2.1-1.2v-.1c0-.4-.2-.5-.6-.5-.4 0-.8.2-1.2.4l-.2-.8c.4-.2.9-.4 1.6-.4 1.2 0 1.6.5 1.6 1.5v1c0 .2 0 .3.3.3l-.1.8c-.8.1-1.2-.1-1.4-.5zm0-1.1c-.7.1-1 .2-1 .5 0 .2.2.4.4.4s.4-.1.5-.2v-.7zM323.2 169.4c-.9 0-1.3-.4-1.3-1.3l.1-1.3-.5-.1v-.7l.5-.2v-.8h1.1v.8h.9v.9h-1v1.3c0 .3.2.5.5.5.1 0 .3 0 .5-.1l.1.9c-.3 0-.6.1-.9.1zM325.1 165.3c-.4 0-.7-.2-.7-.6 0-.4.3-.6.7-.6.4 0 .7.2.7.6 0 .4-.3.6-.7.6zm-.6 4v-3.4l1.2-.1v3.6h-1.2zM328 169.4c-1.1 0-1.9-.7-1.9-1.8 0-1.2.8-1.9 1.9-1.9 1.1 0 1.8.7 1.8 1.8.1 1.2-.7 1.9-1.8 1.9zm0-2.9c-.5 0-.7.4-.7 1s.3 1 .7 1c.5 0 .7-.4.7-1 .1-.6-.2-1-.7-1zM332.7 169.3v-2.1c0-.4-.2-.6-.5-.6s-.5.1-.6.3v2.4h-1.2v-3.4l1.2-.1v.6c.3-.4.7-.6 1.2-.6.7 0 1.1.5 1.1 1.2v2.4h-1.2zM253 177.8c-.2.3-.5.5-1 .5-.6 0-1.1-.4-1.1-1 0-.7.5-1.2 2.1-1.2v-.1c0-.4-.2-.5-.6-.5-.4 0-.8.2-1.2.4l-.2-.8c.4-.2.9-.4 1.6-.4 1.2 0 1.6.5 1.6 1.5v1c0 .2 0 .3.3.3l-.1.8c-.9.1-1.2-.1-1.4-.5zm0-1.1c-.7.1-1 .2-1 .5 0 .2.2.4.4.4s.4-.1.5-.2v-.7zM257.1 178.3v-2.1c0-.4-.2-.6-.5-.6s-.5.1-.6.3v2.4h-1.2v-3.4l1.2-.1v.6c.3-.4.7-.6 1.2-.6.7 0 1.1.5 1.1 1.2v2.4h-1.2zM260.4 178.4c-.9 0-1.3-.4-1.3-1.3l.1-1.3-.5-.1v-.7l.5-.2v-.8h1.1v.8h.9v.9h-.9v1.3c0 .3.2.5.5.5.1 0 .3 0 .5-.1l.1.9c-.5 0-.7.1-1 .1zM262.3 174.3c-.4 0-.7-.2-.7-.6 0-.4.3-.6.7-.6.4 0 .7.2.7.6-.1.4-.3.6-.7.6zm-.6 4v-3.4l1.2-.1v3.6h-1.2zM265.7 174.7c.9 0 1.5.7 1.5 1.8 0 1.2-.8 1.9-1.7 1.9-.2 0-.5 0-.7-.1v1.6h-1.2v-5l1.2-.1v.4c.1-.3.4-.5.9-.5zm-1 2.7c.1.1.3.1.5.1.5 0 .8-.4.8-1s-.3-1-.7-1c-.3 0-.4.1-.6.2v1.7zM269 178.4c-.5 0-1.1-.1-1.5-.3l.2-.8c.4.2.9.3 1.3.3.3 0 .5-.1.5-.3 0-.2-.2-.3-.6-.4-.8-.2-1.3-.5-1.3-1.1 0-.7.6-1.1 1.5-1.1.5 0 1.1.1 1.4.3l-.2.8c-.4-.2-.9-.3-1.2-.3-.3 0-.4.1-.4.3 0 .2.2.3.6.3.8.2 1.3.5 1.3 1.1 0 .7-.6 1.2-1.6 1.2z"/><path class="st4" d="M273.2 178.1l-.2.5c-.4 1-.8 1.3-1.5 1.3-.4 0-.7-.1-1-.2l.3-.9c.2.1.4.2.5.2.2 0 .4-.1.5-.4l.1-.3-1.4-3.5h1.2l.7 2.3.7-2.3h1.2l-1.1 3.3zM276.5 178.4c-1.2 0-1.9-.6-1.9-1.8 0-1.2.8-1.9 1.9-1.9.5 0 1 .1 1.3.3l-.2.9c-.3-.2-.6-.3-.9-.3-.6 0-.9.4-.9 1s.4 1 .9 1c.4 0 .7-.1.9-.3l.2.9c-.3.1-.8.2-1.3.2zM280.6 178.3v-2.1c0-.4-.2-.6-.5-.6s-.5.1-.6.3v2.4h-1.2v-5l1.2-.1v2.1c.3-.4.7-.6 1.2-.6.7 0 1.1.5 1.1 1.2v2.4h-1.2zM284.1 178.4c-1.1 0-1.9-.7-1.9-1.8 0-1.2.8-1.9 1.9-1.9 1.1 0 1.8.7 1.8 1.8.1 1.2-.8 1.9-1.8 1.9zm0-2.9c-.5 0-.7.4-.7 1s.3 1 .7 1c.5 0 .7-.4.7-1s-.2-1-.7-1zM287.9 178.4c-.9 0-1.3-.4-1.3-1.3l.1-1.3-.5-.1v-.7l.5-.2v-.8h1.1v.8h.9v.9h-.9v1.3c0 .3.2.5.5.5.1 0 .3 0 .5-.1l.1.9c-.4 0-.6.1-1 .1zM289.8 174.3c-.4 0-.7-.2-.7-.6 0-.4.3-.6.7-.6.4 0 .7.2.7.6 0 .4-.3.6-.7.6zm-.6 4v-3.4l1.2-.1v3.6h-1.2zM292.8 178.4c-1.2 0-1.9-.6-1.9-1.8 0-1.2.8-1.9 1.9-1.9.5 0 1 .1 1.3.3l-.2.9c-.3-.2-.6-.3-.9-.3-.6 0-.9.4-.9 1s.4 1 .9 1c.4 0 .7-.1.9-.3l.2.9c-.3.1-.8.2-1.3.2zM297.2 176.8c0 .5.4.7.9.7.4 0 .8-.1 1.1-.3l.1.9c-.4.2-.9.3-1.4.3-1.2 0-2-.7-2-1.8s.8-1.9 1.9-1.9c1 0 1.5.6 1.5 1.5 0 .2 0 .5-.1.6h-2zm1.2-.6s0-.1 0 0c0-.5-.2-.7-.5-.7-.4 0-.6.3-.7.7h1.2zM302.1 178.3l-.7-1.1-.7 1.1h-1.2l1.2-1.8-1.2-1.7h1.2l.6 1 .6-1h1.2l-1.2 1.7 1.2 1.8h-1zM305.8 174.7c.9 0 1.5.7 1.5 1.8 0 1.2-.8 1.9-1.7 1.9-.2 0-.5 0-.7-.1v1.6h-1.2v-5l1.2-.1v.4c.1-.3.4-.5.9-.5zm-1 2.7c.1.1.3.1.5.1.5 0 .8-.4.8-1s-.3-1-.7-1c-.3 0-.4.1-.6.2v1.7zM309.5 178.4c-1.1 0-1.9-.7-1.9-1.8 0-1.2.8-1.9 1.9-1.9 1.1 0 1.8.7 1.8 1.8.1 1.2-.8 1.9-1.8 1.9zm0-2.9c-.5 0-.7.4-.7 1s.3 1 .7 1c.5 0 .7-.4.7-1s-.2-1-.7-1zM313.2 178.4c-.5 0-1.1-.1-1.5-.3l.2-.8c.4.2.9.3 1.3.3.3 0 .5-.1.5-.3 0-.2-.2-.3-.6-.4-.8-.2-1.3-.5-1.3-1.1 0-.7.6-1.1 1.5-1.1.5 0 1.1.1 1.4.3l-.2.8c-.4-.2-.9-.3-1.2-.3-.3 0-.4.1-.4.3 0 .2.2.3.6.3.8.2 1.3.5 1.3 1.1-.1.7-.6 1.2-1.6 1.2zM316.4 174.8v2.1c0 .4.2.6.5.6.2 0 .5-.1.6-.2v-2.4h1.2v3.4l-1.2.1v-.5c-.3.3-.7.5-1.1.5-.7 0-1.1-.5-1.1-1.2v-2.4h1.1zM320.5 178.3h-1.2v-3.4l1.2-.1v.5c.2-.4.5-.5.8-.5.2 0 .4 0 .6.1l-.2 1c-.1-.1-.3-.1-.4-.1-.3 0-.5.1-.8.5v2zM323.2 176.8c0 .5.4.7.9.7.4 0 .8-.1 1.1-.3l.1.9c-.4.2-.9.3-1.4.3-1.2 0-2-.7-2-1.8s.8-1.9 1.9-1.9c1 0 1.5.6 1.5 1.5 0 .2 0 .5-.1.6h-2zm1.2-.6s0-.1 0 0c0-.5-.2-.7-.5-.7-.4 0-.6.3-.7.7h1.2zM326.8 175.8c-.7 0-1.1-.4-1.1-1.1 0-.7.4-1.1 1.1-1.1.3 0 .6.1.7.2l-.1.5c-.2-.1-.4-.2-.5-.2-.3 0-.5.2-.5.6 0 .4.2.6.5.6.2 0 .4-.1.5-.2l.1.5c-.1.2-.4.2-.7.2zM249.7 185.6c0-1.8 1.2-3.1 2-3.5l.2.3c-.8.4-1.8 1.6-1.8 3.2s1 2.8 1.8 3.2l-.2.3c-.9-.5-2-1.7-2-3.5zM252.6 185.6c0 .8.5 1.3 1.2 1.3.4 0 .7-.1 1-.3l.1.4c-.3.2-.7.3-1.1.3-1 0-1.7-.7-1.7-1.8s.7-1.8 1.6-1.8c.8 0 1.3.5 1.3 1.3 0 .2 0 .4-.1.5l-2.3.1zm1.9-.4v-.1c0-.5-.3-.9-.8-.9-.6 0-1 .5-1.1 1h1.9zM255.6 186.7c0-.3.2-.5.6-.7-.3-.2-.6-.6-.6-1.1 0-.7.5-1.3 1.4-1.3.4 0 .6.1.8.2l1-.1v.5l-.8-.1c.2.2.3.5.3.8 0 .7-.6 1.3-1.3 1.3-.2 0-.3 0-.5-.1-.2.1-.4.2-.4.4s.2.4.8.4h.4c1 0 1.4.3 1.4.9 0 .8-.8 1.3-1.8 1.3-.9 0-1.6-.4-1.6-1 0-.4.3-.7.7-.8-.2-.1-.4-.3-.4-.6zm.2 1.3c0 .4.4.7 1.2.7.7 0 1.3-.3 1.3-.8 0-.4-.4-.5-1-.5h-.7c-.5.1-.8.3-.8.6zm1.2-2.1c.5 0 .9-.4.9-.9s-.3-.9-.9-.9c-.5 0-.9.4-.9.9s.3.9.9.9zM259.5 186.5c.3 0 .5.2.5.6 0 .5-.4 1-.9 1.3l-.2-.2c.5-.3.7-.6.7-.9 0-.2-.1-.3-.5-.4 0-.2.1-.4.4-.4zM264.8 189v-2.1c-.2.2-.6.4-1 .4-.9 0-1.5-.7-1.5-1.8s.7-1.8 1.7-1.8c.3 0 .7.1.9.2l.4-.2v5.3h-.5zm-.9-4.8c-.7 0-1.2.6-1.2 1.4 0 .8.4 1.4 1.1 1.4.4 0 .7-.2.9-.4v-2.1c-.1-.2-.5-.3-.8-.3zM266.8 183.8v2.2c0 .6.2.9.7.9.4 0 .8-.2 1.1-.5v-2.6h.5v3.4l-.5.1v-.6c-.4.4-.8.6-1.2.6-.7 0-1.1-.4-1.1-1.2v-2.4h.5zM270.3 185.6c0 .8.5 1.3 1.2 1.3.4 0 .7-.1 1-.3l.1.4c-.3.2-.7.3-1.1.3-1 0-1.7-.7-1.7-1.8s.7-1.8 1.6-1.8c.8 0 1.3.5 1.3 1.3 0 .2 0 .4-.1.5l-2.3.1zm2-.4v-.1c0-.5-.3-.9-.8-.9-.6 0-1 .5-1.1 1h1.9zM274.6 187.4c-.7 0-.9-.4-.9-1.1l.1-2h-.5v-.3l.5-.1v-.8h.4v.8h1.1v.4h-1.1l-.1 2.1c0 .4.1.6.5.6.2 0 .5-.1.7-.2l.1.4c-.3.1-.6.2-.8.2zM276.3 183c-.2 0-.3-.2-.3-.3 0-.2.1-.3.3-.3.2 0 .3.2.3.3 0 .2-.1.3-.3.3zm-.2 4.3v-3.4l.5-.1v3.5h-.5zM279.5 186.8c-.2.3-.6.5-1 .5-.6 0-1.1-.4-1.1-1s.5-1.1 2.1-1.2v-.2c0-.5-.2-.8-.8-.8-.4 0-.8.2-1.1.4l-.1-.4c.3-.2.8-.4 1.3-.4.8 0 1.2.4 1.2 1.2v1.7c0 .2 0 .4.3.3v.4c-.5.1-.8-.1-.8-.5zm0-1.3c-1.2.1-1.6.4-1.6.9 0 .4.3.6.7.6.4 0 .7-.2.9-.5v-1zM282.4 183.7c.9 0 1.5.7 1.5 1.8s-.7 1.8-1.7 1.8c-.3 0-.6-.1-.8-.2v1.8h-.4v-5.2l.5-.1v.5c.1-.2.5-.4.9-.4zm-1 3c.2.2.5.3.9.3.7 0 1.2-.6 1.2-1.4 0-.8-.4-1.4-1.1-1.4-.4 0-.7.2-.9.4-.1-.1-.1 2.1-.1 2.1zM285.1 183c-.2 0-.3-.2-.3-.3 0-.2.1-.3.3-.3.2 0 .3.2.3.3 0 .2-.1.3-.3.3zm-.3 4.3v-3.4l.5-.1v3.5h-.5zM288.6 187.3V185c0-.6-.2-.9-.8-.9-.4 0-.8.2-1 .5v2.6h-.5v-3.4l.5-.1v.6c.4-.4.8-.6 1.2-.6.7 0 1.1.4 1.1 1.2v2.4h-.5zM290.4 185.6c0 .8.5 1.3 1.2 1.3.4 0 .7-.1 1-.3l.1.4c-.3.2-.7.3-1.1.3-1 0-1.7-.7-1.7-1.8s.7-1.8 1.6-1.8c.8 0 1.3.5 1.3 1.3 0 .2 0 .4-.1.5l-2.3.1zm2-.4v-.1c0-.5-.3-.9-.8-.9-.6 0-1 .5-1.1 1h1.9zM293.8 186.5c.3 0 .5.2.5.6 0 .5-.4 1-.9 1.3l-.2-.2c.5-.3.7-.6.7-.9 0-.2-.1-.3-.5-.4 0-.2.2-.4.4-.4zM298.2 187.4c-1 0-1.7-.7-1.7-1.8s.7-1.8 1.7-1.8 1.7.7 1.7 1.8c0 1-.7 1.8-1.7 1.8zm.1-3.3c-.7 0-1.2.6-1.2 1.4 0 .8.5 1.4 1.2 1.4s1.2-.6 1.2-1.4c0-.8-.5-1.4-1.2-1.4zM300.8 187.3v-5.1l.5-.1v5.2h-.5zM304.1 186.8c-.2.3-.6.5-1 .5-.6 0-1.1-.4-1.1-1s.5-1.1 2.1-1.2v-.2c0-.5-.2-.8-.8-.8-.4 0-.8.2-1.1.4l-.1-.4c.3-.2.8-.4 1.3-.4.8 0 1.2.4 1.2 1.2v1.7c0 .2 0 .4.3.3v.4c-.4.1-.7-.1-.8-.5zm0-1.3c-1.2.1-1.6.4-1.6.9 0 .4.3.6.7.6.4 0 .7-.2.9-.5v-1zM307.9 187.3V185c0-.6-.2-.9-.8-.9-.4 0-.8.2-1 .5v2.6h-.5v-3.4l.5-.1v.6c.4-.4.8-.6 1.2-.6.7 0 1.1.4 1.1 1.2v2.4h-.5zM309 187.3v-.4l2-2.7h-2v-.4h2.5v.4l-2 2.7h2v.4H309zM314.2 186.8c-.2.3-.6.5-1 .5-.6 0-1.1-.4-1.1-1s.5-1.1 2.1-1.2v-.2c0-.5-.2-.8-.8-.8-.4 0-.8.2-1.1.4l-.1-.4c.3-.2.8-.4 1.3-.4.8 0 1.2.4 1.2 1.2v1.7c0 .2 0 .4.3.3v.4c-.5.1-.8-.1-.8-.5zm-.1-1.3c-1.2.1-1.6.4-1.6.9 0 .4.3.6.7.6.4 0 .7-.2.9-.5v-1zM317.1 183.7c.9 0 1.5.7 1.5 1.8s-.7 1.8-1.7 1.8c-.3 0-.6-.1-.8-.2v1.8h-.5v-5.2l.5-.1v.5c.2-.2.6-.4 1-.4zm-1 3c.2.2.5.3.9.3.7 0 1.2-.6 1.2-1.4 0-.8-.4-1.4-1.1-1.4-.4 0-.7.2-.9.4-.1-.1-.1 2.1-.1 2.1zM319.7 183c-.2 0-.3-.2-.3-.3 0-.2.1-.3.3-.3.2 0 .3.2.3.3.1.2 0 .3-.3.3zm-.2 4.3v-3.4l.5-.1v3.5h-.5zM323.3 187.3V185c0-.6-.2-.9-.8-.9-.4 0-.8.2-1 .5v2.6h-.5v-3.4l.5-.1v.6c.4-.4.8-.6 1.2-.6.7 0 1.1.4 1.1 1.2v2.4h-.5zM325.1 185.6c0 .8.5 1.3 1.2 1.3.4 0 .7-.1 1-.3l.1.4c-.3.2-.7.3-1.1.3-1 0-1.7-.7-1.7-1.8s.7-1.8 1.6-1.8c.8 0 1.3.5 1.3 1.3 0 .2 0 .4-.1.5l-2.3.1zm1.9-.4v-.1c0-.5-.3-.9-.8-.9-.6 0-1 .5-1.1 1h1.9zM328.5 186.5c.3 0 .5.2.5.6 0 .5-.4 1-.9 1.3l-.2-.2c.5-.3.7-.6.7-.9 0-.2-.1-.3-.5-.4 0-.2.2-.4.4-.4zM254.9 195.8c-.2.3-.6.5-1 .5-.6 0-1.1-.4-1.1-1s.5-1.1 2.1-1.2v-.2c0-.5-.2-.8-.8-.8-.4 0-.8.2-1.1.4l-.1-.4c.3-.2.8-.4 1.3-.4.8 0 1.2.4 1.2 1.2v1.7c0 .2 0 .4.3.3v.4c-.4.1-.7-.1-.8-.5zm0-1.3c-1.2.1-1.6.4-1.6.9 0 .4.3.6.7.6.4 0 .7-.2.9-.5v-1zM256.9 196.3h-.5v-3.4l.5-.1v.7c.2-.4.6-.7 1-.7.2 0 .4.1.6.2l-.1.4c-.2-.1-.3-.1-.5-.1-.4 0-.7.3-1 .9v2.1zM259.3 192c-.2 0-.3-.2-.3-.3 0-.2.1-.3.3-.3.2 0 .3.2.3.3.1.2 0 .3-.3.3zm-.2 4.3v-3.4l.5-.1v3.5h-.5zM262.1 192.7c.9 0 1.5.7 1.5 1.8s-.7 1.8-1.7 1.8c-.3 0-.6-.1-.8-.2v1.8h-.5v-5.2l.5-.1v.5c.3-.2.6-.4 1-.4zm-1 3c.2.2.5.3.9.3.7 0 1.2-.6 1.2-1.4 0-.8-.4-1.4-1.1-1.4-.4 0-.7.2-.9.4-.1-.1-.1 2.1-.1 2.1zM264.8 192c-.2 0-.3-.2-.3-.3 0-.2.1-.3.3-.3.2 0 .3.2.3.3 0 .2-.1.3-.3.3zm-.3 4.3v-3.4l.5-.1v3.5h-.5zM267.6 192.7c.9 0 1.5.7 1.5 1.8s-.7 1.8-1.7 1.8c-.3 0-.6-.1-.8-.2v1.8h-.5v-5.2l.5-.1v.5c.2-.2.5-.4 1-.4zm-1 3c.2.2.5.3.9.3.7 0 1.2-.6 1.2-1.4 0-.8-.4-1.4-1.1-1.4-.4 0-.7.2-.9.4-.1-.1-.1 2.1-.1 2.1zM270.4 196.3h-.4v-3.4l.5-.1v.7c.2-.4.6-.7 1-.7.2 0 .4.1.6.2l-.1.4c-.2-.1-.3-.1-.5-.1-.4 0-.7.3-1 .9v2.1zM274.4 195.8c-.2.3-.6.5-1 .5-.6 0-1.1-.4-1.1-1s.5-1.1 2.1-1.2v-.2c0-.5-.2-.8-.8-.8-.4 0-.8.2-1.1.4l-.1-.4c.3-.2.8-.4 1.3-.4.8 0 1.2.4 1.2 1.2v1.7c0 .2 0 .4.3.3v.4c-.4.1-.7-.1-.8-.5zm0-1.3c-1.2.1-1.6.4-1.6.9 0 .4.3.6.7.6.4 0 .7-.2.9-.5v-1zM275.5 196.3v-.4l2-2.7h-2v-.4h2.5v.4l-2 2.7h2v.4h-2.5zM280.3 196.4c-1 0-1.7-.7-1.7-1.8s.7-1.8 1.7-1.8 1.7.7 1.7 1.8c0 1-.8 1.8-1.7 1.8zm0-3.3c-.7 0-1.2.6-1.2 1.4 0 .8.5 1.4 1.2 1.4s1.2-.6 1.2-1.4c0-.8-.5-1.4-1.2-1.4zM282.8 196.3v-5.1l.5-.1v5.2h-.5zM284.6 194.6c0 .8.5 1.3 1.2 1.3.4 0 .7-.1 1-.3l.1.4c-.3.2-.7.3-1.1.3-1 0-1.7-.7-1.7-1.8s.7-1.8 1.6-1.8c.8 0 1.3.5 1.3 1.3 0 .2 0 .4-.1.5l-2.3.1zm2-.4v-.1c0-.5-.3-.9-.8-.9-.6 0-1 .5-1.1 1h1.9zM288.1 195.5c.3 0 .5.2.5.6 0 .5-.4 1-.9 1.3l-.2-.2c.5-.3.7-.6.7-.9 0-.2-.1-.3-.5-.4 0-.2.1-.4.4-.4zM291.5 196.3h-.5v-3.4l.5-.1v.7c.2-.4.6-.7 1-.7.2 0 .4.1.6.2l-.1.4c-.2-.1-.3-.1-.5-.1-.4 0-.7.3-1 .9v2.1zM293.9 192c-.2 0-.3-.2-.3-.3 0-.2.1-.3.3-.3.2 0 .3.2.3.3.1.2-.1.3-.3.3zm-.2 4.3v-3.4l.5-.1v3.5h-.5zM296.1 196.4c-.4 0-.8-.1-1.1-.3l.1-.4c.3.2.7.3 1 .3.4 0 .8-.2.8-.6 0-.4-.4-.5-.9-.7-.5-.1-1-.4-1-1s.5-1 1.2-1c.4 0 .8.1 1 .3l-.1.4c-.3-.2-.6-.3-.9-.3-.4 0-.7.2-.7.5 0 .4.4.5.8.6.5.1 1 .4 1 1 0 .7-.5 1.2-1.2 1.2zM299.6 192.7c.9 0 1.5.7 1.5 1.8s-.7 1.8-1.7 1.8c-.3 0-.6-.1-.8-.2v1.8h-.5v-5.2l.5-.1v.5c.3-.2.6-.4 1-.4zm-1 3c.2.2.5.3.9.3.7 0 1.2-.6 1.2-1.4 0-.8-.4-1.4-1.1-1.4-.4 0-.7.2-.9.4-.1-.1-.1 2.1-.1 2.1zM302.3 194.6c0 .8.5 1.3 1.2 1.3.4 0 .7-.1 1-.3l.1.4c-.3.2-.7.3-1.1.3-1 0-1.7-.7-1.7-1.8s.7-1.8 1.6-1.8c.8 0 1.3.5 1.3 1.3 0 .2 0 .4-.1.5l-2.3.1zm1.9-.4v-.1c0-.5-.3-.9-.8-.9-.6 0-1 .5-1.1 1h1.9zM306 196.3h-.5v-3.4l.5-.1v.7c.2-.4.6-.7 1-.7.2 0 .4.1.6.2l-.1.4c-.2-.1-.3-.1-.5-.1-.4 0-.7.3-1 .9v2.1zM308.5 192c-.2 0-.3-.2-.3-.3 0-.2.1-.3.3-.3.2 0 .3.2.3.3 0 .2-.1.3-.3.3zm-.3 4.3v-3.4l.5-.1v3.5h-.5zM312.1 191.2l.5-.1v5.2h-.5v-.3c-.2.2-.6.4-1 .4-.9 0-1.5-.7-1.5-1.8s.7-1.8 1.7-1.8c.3 0 .6.1.8.2v-1.8zm-.9 2c-.7 0-1.2.6-1.2 1.4 0 .8.4 1.4 1.1 1.4.4 0 .7-.2.9-.4v-2.1c-.1-.2-.4-.3-.8-.3zM315.1 196.4c-1 0-1.7-.7-1.7-1.8s.7-1.8 1.7-1.8 1.7.7 1.7 1.8c0 1-.8 1.8-1.7 1.8zm0-3.3c-.7 0-1.2.6-1.2 1.4 0 .8.5 1.4 1.2 1.4s1.2-.6 1.2-1.4c0-.8-.5-1.4-1.2-1.4zM319.9 196.3V194c0-.6-.2-.9-.8-.9-.4 0-.8.2-1 .5v2.6h-.5v-3.4l.5-.1v.6c.4-.4.8-.6 1.2-.6.7 0 1.1.4 1.1 1.2v2.4h-.5zM321.7 194.6c0 .8.5 1.3 1.2 1.3.4 0 .7-.1 1-.3l.1.4c-.3.2-.7.3-1.1.3-1 0-1.7-.7-1.7-1.8s.7-1.8 1.6-1.8c.8 0 1.3.5 1.3 1.3 0 .2 0 .4-.1.5l-2.3.1zm1.9-.4v-.1c0-.5-.3-.9-.8-.9-.6 0-1 .5-1.1 1h1.9zM325.1 195.5c.3 0 .5.2.5.6 0 .5-.4 1-.9 1.3l-.2-.2c.5-.3.7-.6.7-.9 0-.2-.1-.3-.5-.4 0-.2.1-.4.4-.4zM251.7 201c-.2 0-.3-.2-.3-.3 0-.2.1-.3.3-.3.2 0 .3.2.3.3 0 .2-.1.3-.3.3zm-.3 4.3v-3.4l.5-.1v3.5h-.5zM253 205.3v-5.1l.5-.1v5.2h-.5zM256 205.4c-1 0-1.7-.7-1.7-1.8s.7-1.8 1.7-1.8 1.7.7 1.7 1.8c0 1-.8 1.8-1.7 1.8zm0-3.3c-.7 0-1.2.6-1.2 1.4 0 .8.5 1.4 1.2 1.4s1.2-.6 1.2-1.4c0-.8-.5-1.4-1.2-1.4zM260 201.7c.9 0 1.5.7 1.5 1.8s-.7 1.8-1.7 1.8c-.3 0-.6-.1-.8-.2v1.8h-.5v-5.2l.5-.1v.5c.2-.2.6-.4 1-.4zm-1 3c.2.2.5.3.9.3.7 0 1.2-.6 1.2-1.4 0-.8-.4-1.4-1.1-1.4-.4 0-.7.2-.9.4-.1-.1-.1 2.1-.1 2.1zM262.6 203.6c0 .8.5 1.3 1.2 1.3.4 0 .7-.1 1-.3l.1.4c-.3.2-.7.3-1.1.3-1 0-1.7-.7-1.7-1.8s.7-1.8 1.6-1.8c.8 0 1.3.5 1.3 1.3 0 .2 0 .4-.1.5l-2.3.1zm2-.4v-.1c0-.5-.3-.9-.8-.9-.6 0-1 .5-1.1 1h1.9zM266.4 205.3h-.5v-3.4l.5-.1v.7c.2-.4.6-.7 1-.7.2 0 .4.1.6.2l-.1.4c-.2-.1-.3-.1-.5-.1-.4 0-.7.3-1 .9v2.1zM268.8 201c-.2 0-.3-.2-.3-.3 0-.2.1-.3.3-.3.2 0 .3.2.3.3 0 .2-.1.3-.3.3zm-.2 4.3v-3.4l.5-.1v3.5h-.5zM272.4 200.2l.5-.1v5.2h-.5v-.3c-.2.2-.6.4-1 .4-.9 0-1.5-.7-1.5-1.8s.7-1.8 1.7-1.8c.3 0 .6.1.8.2v-1.8zm-.8 2c-.7 0-1.2.6-1.2 1.4 0 .8.4 1.4 1.1 1.4.4 0 .7-.2.9-.4v-2.1c-.2-.2-.5-.3-.8-.3zM275.4 205.4c-1 0-1.7-.7-1.7-1.8s.7-1.8 1.7-1.8 1.7.7 1.7 1.8c0 1-.7 1.8-1.7 1.8zm0-3.3c-.7 0-1.2.6-1.2 1.4 0 .8.5 1.4 1.2 1.4s1.2-.6 1.2-1.4c.1-.8-.4-1.4-1.2-1.4zM280.2 205.3V203c0-.6-.2-.9-.8-.9-.4 0-.8.2-1 .5v2.6h-.4v-3.4l.5-.1v.6c.4-.4.8-.6 1.2-.6.7 0 1.1.4 1.1 1.2v2.4h-.6zM282 203.6c0 .8.5 1.3 1.2 1.3.4 0 .7-.1 1-.3l.1.4c-.3.2-.7.3-1.1.3-1 0-1.7-.7-1.7-1.8s.7-1.8 1.6-1.8c.8 0 1.3.5 1.3 1.3 0 .2 0 .4-.1.5l-2.3.1zm1.9-.4v-.1c0-.5-.3-.9-.8-.9-.6 0-1 .5-1.1 1h1.9zM285.4 204.5c.3 0 .5.2.5.6 0 .5-.4 1-.9 1.3l-.2-.2c.5-.3.7-.6.7-.9 0-.2-.1-.3-.5-.4 0-.2.2-.4.4-.4zM289.9 201.7c.9 0 1.5.7 1.5 1.8s-.7 1.8-1.7 1.8c-.3 0-.6-.1-.8-.2v1.8h-.5v-5.2l.5-.1v.5c.2-.2.5-.4 1-.4zm-1 3c.2.2.5.3.9.3.7 0 1.2-.6 1.2-1.4 0-.8-.4-1.4-1.1-1.4-.4 0-.7.2-.9.4-.1-.1-.1 2.1-.1 2.1zM294.1 204.8c-.2.3-.6.5-1 .5-.6 0-1.1-.4-1.1-1s.5-1.1 2.1-1.2v-.2c0-.5-.2-.8-.8-.8-.4 0-.8.2-1.1.4l-.1-.4c.3-.2.8-.4 1.3-.4.8 0 1.2.4 1.2 1.2v1.7c0 .2 0 .4.3.3v.4c-.5.1-.8-.1-.8-.5zm0-1.3c-1.2.1-1.6.4-1.6.9 0 .4.3.6.7.6.4 0 .7-.2.9-.5v-1zM295.5 205.3v-5.1l.5-.1v5.2h-.5zM297.3 201c-.2 0-.3-.2-.3-.3 0-.2.1-.3.3-.3.2 0 .3.2.3.3.1.2-.1.3-.3.3zm-.2 4.3v-3.4l.5-.1v3.5h-.5zM300.1 201.7c.9 0 1.5.7 1.5 1.8s-.7 1.8-1.7 1.8c-.3 0-.6-.1-.8-.2v1.8h-.5v-5.2l.5-.1v.5c.3-.2.6-.4 1-.4zm-1 3c.2.2.5.3.9.3.7 0 1.2-.6 1.2-1.4 0-.8-.4-1.4-1.1-1.4-.4 0-.7.2-.9.4-.1-.1-.1 2.1-.1 2.1zM302.8 203.6c0 .8.5 1.3 1.2 1.3.4 0 .7-.1 1-.3l.1.4c-.3.2-.7.3-1.1.3-1 0-1.7-.7-1.7-1.8s.7-1.8 1.6-1.8c.8 0 1.3.5 1.3 1.3 0 .2 0 .4-.1.5l-2.3.1zm1.9-.4v-.1c0-.5-.3-.9-.8-.9-.6 0-1 .5-1.1 1h1.9zM306.5 205.3h-.5v-3.4l.5-.1v.7c.2-.4.6-.7 1-.7.2 0 .4.1.6.2l-.1.4c-.2-.1-.3-.1-.5-.1-.4 0-.7.3-1 .9v2.1zM309 201c-.2 0-.3-.2-.3-.3 0-.2.1-.3.3-.3.2 0 .3.2.3.3 0 .2-.1.3-.3.3zm-.3 4.3v-3.4l.5-.1v3.5h-.5zM312.6 200.2l.5-.1v5.2h-.5v-.3c-.2.2-.6.4-1 .4-.9 0-1.5-.7-1.5-1.8s.7-1.8 1.7-1.8c.3 0 .6.1.8.2v-1.8zm-.9 2c-.7 0-1.2.6-1.2 1.4 0 .8.4 1.4 1.1 1.4.4 0 .7-.2.9-.4v-2.1c-.1-.2-.4-.3-.8-.3zM315.6 205.4c-1 0-1.7-.7-1.7-1.8s.7-1.8 1.7-1.8 1.7.7 1.7 1.8c0 1-.8 1.8-1.7 1.8zm0-3.3c-.7 0-1.2.6-1.2 1.4 0 .8.5 1.4 1.2 1.4s1.2-.6 1.2-1.4c0-.8-.5-1.4-1.2-1.4zM320.4 205.3V203c0-.6-.2-.9-.8-.9-.4 0-.8.2-1 .5v2.6h-.5v-3.4l.5-.1v.6c.4-.4.8-.6 1.2-.6.7 0 1.1.4 1.1 1.2v2.4h-.5zM322.2 203.6c0 .8.5 1.3 1.2 1.3.4 0 .7-.1 1-.3l.1.4c-.3.2-.7.3-1.1.3-1 0-1.7-.7-1.7-1.8s.7-1.8 1.6-1.8c.8 0 1.3.5 1.3 1.3 0 .2 0 .4-.1.5l-2.3.1zm1.9-.4v-.1c0-.5-.3-.9-.8-.9-.6 0-1 .5-1.1 1h1.9zM324.8 206.7c.8-.4 1.8-1.6 1.8-3.2s-1-2.8-1.8-3.2l.2-.3c.8.4 2 1.7 2 3.5s-1.2 3.1-2 3.5l-.2-.3z"/></g><g><path class="st1" d="M390.5 83.1l.1-2.2h7.6l.1 1.9-4.5 8.9h-2.4l4.4-8.7h-5.3zM401.2 92.1c-1 0-1.7-.6-1.7-1.6s.7-1.6 1.7-1.6 1.6.6 1.6 1.6c0 .9-.6 1.6-1.6 1.6zM404.2 91.8l-.1-1.9c3.2-3.1 4.6-4.1 4.6-5.6 0-.8-.6-1.4-1.5-1.4s-1.7.4-2.4 1L404 82c.9-.7 2.3-1.3 3.7-1.3 2.4 0 3.6 1.4 3.6 3.2 0 1.9-1.4 3.3-4.3 5.7h4.6l.1 2.2h-7.5zM414.6 84.7c-1.2 0-2-.8-2-2s.8-2 2-2 2 .8 2 2c-.1 1.2-.8 2-2 2zm.2 3.5h-1.3l5.8-7.4h1.3l-5.8 7.4zm-.2-6.5c-.5 0-.8.4-.8 1.1 0 .7.3 1 .8 1s.8-.4.8-1c0-.7-.3-1.1-.8-1.1zm5 6.6c-1.2 0-2-.8-2-2s.8-2 2-2 2 .8 2 2c-.1 1.3-.8 2-2 2zm0-3c-.5 0-.8.4-.8 1.1 0 .7.3 1.1.8 1.1s.8-.4.8-1.1c0-.7-.3-1.1-.8-1.1z"/></g><g><path class="st5" d="M67.2 14.1h318.9v16.3H67.2z"/><path class="st6" d="M133.5 16.1v6.2H132v-6.2h-2.5v-1.3h6.5v1.3h-2.5zM139.6 22.3h-2.4v-7.5h2.5c2.6 0 4 1.5 4 3.7 0 2.3-1.4 3.8-4.1 3.8zm0-6.2h-1v5h1.1c1.6 0 2.6-.8 2.6-2.5s-1-2.5-2.7-2.5zM150.8 16.6c1.5 0 2.4 1.2 2.4 2.9 0 1.8-1.2 3-2.8 3-.4 0-.8 0-1.2-.2V25h-1.4v-8.1l1.4-.2v.7c.4-.4.9-.8 1.6-.8zm-1.5 4.4c.3.2.6.3 1 .3.9 0 1.5-.8 1.5-1.8 0-1.1-.5-1.8-1.4-1.8-.5 0-.8.2-1.1.5V21zM155.8 22.3h-1.4v-5.5l1.4-.2v.9c.3-.6.8-.9 1.4-.9.3 0 .7.1 1 .3l-.3 1.3c-.3-.1-.5-.2-.8-.2-.5 0-.9.3-1.3 1v3.3zM160.1 19.9c.1.9.7 1.5 1.7 1.5.6 0 1.2-.2 1.7-.5l.2 1.2c-.5.3-1.3.5-2 .5-1.8 0-3-1.1-3-2.9 0-1.8 1.2-3 2.9-3 1.5 0 2.3.9 2.3 2.2 0 .3 0 .7-.1.9-.1 0-3.7 0-3.7.1zm2.4-.9s0-.1 0 0c0-.8-.3-1.3-1.1-1.3s-1.2.6-1.3 1.3h2.4zM167.9 22.3h-1.5l-2.1-5.5h1.5l1.4 4 1.3-4h1.5l-2.1 5.5zM173.9 21.7c-.4.5-.9.8-1.6.8-1 0-1.7-.7-1.7-1.6 0-1 .7-1.9 3.3-2v-.1c0-.7-.3-1.1-1.1-1.1-.6 0-1.2.3-1.8.6l-.3-1.1c.5-.3 1.4-.6 2.3-.6 1.7 0 2.4.8 2.3 2.3v2c0 .4.1.5.5.5l-.1 1.1c-1 .1-1.5-.3-1.8-.8zm0-2c-1.4.2-1.9.4-1.9 1 0 .4.3.7.8.7.4 0 .8-.2 1.1-.5v-1.2zM176.8 22.3v-8l1.4-.2v8.2h-1.4zM180.8 19.9c.1.9.7 1.5 1.7 1.5.6 0 1.2-.2 1.7-.5l.2 1.2c-.5.3-1.3.5-2 .5-1.8 0-3-1.1-3-2.9 0-1.8 1.2-3 2.9-3 1.5 0 2.3.9 2.3 2.2 0 .3 0 .7-.1.9-.1 0-3.7 0-3.7.1zm2.4-.9s0-.1 0 0c0-.8-.3-1.3-1.1-1.3s-1.2.6-1.3 1.3h2.4zM189.3 22.3v-3.4c0-.8-.3-1.1-1-1.1-.5 0-.9.3-1.2.5v3.9h-1.4v-5.5l1.4-.2v.9c.5-.5 1.2-.9 1.8-.9 1.1 0 1.8.7 1.8 1.9v3.8h-1.4zM194.7 22.5c-1.8 0-2.9-1.1-2.9-2.9 0-1.8 1.2-3 2.9-3 .8 0 1.4.2 1.9.5l-.3 1.1c-.5-.3-1-.4-1.5-.4-1 0-1.6.7-1.6 1.8s.6 1.8 1.6 1.8c.6 0 1.1-.2 1.5-.4l.2 1.2c-.3.1-1 .3-1.8.3zM198.8 19.9c.1.9.7 1.5 1.7 1.5.6 0 1.2-.2 1.7-.5l.2 1.2c-.5.3-1.3.5-2 .5-1.8 0-3-1.1-3-2.9 0-1.8 1.2-3 2.9-3 1.5 0 2.3.9 2.3 2.2 0 .3 0 .7-.1.9 0 0-3.7 0-3.7.1zm2.5-.9s0-.1 0 0c0-.8-.3-1.3-1.1-1.3s-1.2.6-1.3 1.3h2.4zM209.1 22.5c-.4 0-.9-.1-1.2-.2l-1.4.2v-8.2l1.4-.2v3.2c.4-.4.9-.7 1.5-.7 1.5 0 2.4 1.2 2.4 2.9.1 1.8-1.1 3-2.7 3zm0-4.7c-.5 0-.8.2-1.1.5v2.8c.3.2.6.3 1 .3.9 0 1.5-.8 1.5-1.8-.1-1.1-.6-1.8-1.4-1.8zM215.8 22.2l-.3.9c-.6 1.5-1.2 2-2.2 2-.5 0-1-.1-1.4-.3l.4-1.2c.3.2.6.3.9.3.4 0 .6-.2.9-.9l.2-.6-2.2-5.5h1.5l1.4 4 1.3-4h1.5l-2 5.3zM224.3 21.7c-.4.5-.9.8-1.6.8-1 0-1.7-.7-1.7-1.6 0-1 .7-1.9 3.3-2v-.1c0-.7-.3-1.1-1.1-1.1-.6 0-1.2.3-1.8.6l-.3-1.1c.5-.3 1.4-.6 2.3-.6 1.7 0 2.4.8 2.3 2.3v2c0 .4.1.5.5.5l-.1 1.1c-1.1.1-1.5-.3-1.8-.8zm0-2c-1.4.2-1.9.4-1.9 1 0 .4.3.7.8.7.4 0 .8-.2 1.1-.5v-1.2zM230.8 22.3v-3.4c0-.8-.3-1.1-1-1.1-.5 0-.9.3-1.2.5v3.9h-1.4v-5.5l1.4-.2v.9c.5-.5 1.2-.9 1.8-.9 1.1 0 1.8.7 1.8 1.9v3.8h-1.4zM235.6 22.5c-1.2 0-1.9-.5-1.8-1.9l.1-2.6-.9-.1V17l.9-.3v-1.2h1.4v1.3h1.6V18h-1.6l-.1 2.6c0 .5.3.8.7.8.3 0 .6-.1.9-.2l.2 1.2c-.5 0-.9.1-1.4.1zM238.7 15.8c-.6 0-.9-.3-.9-.9 0-.5.3-.9.9-.9.6 0 .9.3.9.9-.1.5-.4.9-.9.9zm-.7 6.5v-5.5l1.4-.2v5.7H238zM243.9 16.6c1.5 0 2.4 1.2 2.4 2.9 0 1.8-1.2 3-2.8 3-.4 0-.8 0-1.2-.2V25h-1.4v-8.1l1.4-.2v.7c.4-.4.9-.8 1.6-.8zm-1.6 4.4c.3.2.6.3 1 .3.9 0 1.5-.8 1.5-1.8 0-1.1-.5-1.8-1.4-1.8-.5 0-.8.2-1.1.5V21zM249.2 22.5c-.7 0-1.6-.2-2.1-.5l.3-1.1c.6.3 1.3.5 1.9.5.6 0 .9-.2.9-.6 0-.4-.5-.6-1.1-.7-1-.2-1.9-.7-1.9-1.7s.9-1.7 2.2-1.7c.7 0 1.5.2 2 .4l-.3 1.1c-.5-.3-1.2-.5-1.7-.5s-.8.2-.8.6c0 .4.5.6 1.1.7 1.1.3 1.9.7 1.9 1.7-.1 1-1 1.8-2.4 1.8zM255.5 22.2l-.3.9c-.6 1.5-1.2 2-2.2 2-.5 0-1-.1-1.4-.3l.4-1.2c.3.2.6.3.9.3.4 0 .6-.2.9-.9l.2-.6-2.2-5.5h1.5l1.4 4 1.3-4h1.5l-2 5.3zM260.8 22.5c-1.8 0-2.9-1.1-2.9-2.9 0-1.8 1.2-3 2.9-3 .8 0 1.4.2 1.9.5l-.3 1.1c-.5-.3-1-.4-1.5-.4-1 0-1.6.7-1.6 1.8s.6 1.8 1.6 1.8c.6 0 1.1-.2 1.5-.4l.2 1.2c-.4.1-1 .3-1.8.3zM267.5 22.3v-3.4c0-.8-.3-1.1-.9-1.1-.5 0-1 .3-1.3.5v3.9h-1.4v-8l1.4-.2v3.4c.5-.5 1.2-.9 1.9-.9 1.1 0 1.7.7 1.7 1.9v3.8h-1.4zM272.9 22.5c-1.6 0-2.8-1.1-2.8-2.9 0-1.8 1.2-3 2.9-3s2.8 1.1 2.8 3c-.1 1.8-1.3 2.9-2.9 2.9zm0-4.8c-.9 0-1.4.7-1.4 1.8s.5 1.8 1.5 1.8c.9 0 1.4-.7 1.4-1.8s-.6-1.8-1.5-1.8zM278.9 22.5c-1.2 0-1.9-.5-1.8-1.9l.1-2.6-.9-.1V17l.9-.3v-1.2h1.4v1.3h1.6V18h-1.6l-.1 2.6c0 .5.3.8.7.8.3 0 .6-.1.9-.2l.2 1.2c-.6 0-.9.1-1.4.1zM281.9 15.8c-.6 0-.9-.3-.9-.9 0-.5.3-.9.9-.9.6 0 .9.3.9.9 0 .5-.3.9-.9.9zm-.7 6.5v-5.5l1.4-.2v5.7h-1.4zM286.7 22.5c-1.8 0-2.9-1.1-2.9-2.9 0-1.8 1.2-3 2.9-3 .8 0 1.4.2 1.9.5l-.3 1.1c-.5-.3-1-.4-1.5-.4-1 0-1.6.7-1.6 1.8s.6 1.8 1.6 1.8c.6 0 1.1-.2 1.5-.4l.2 1.2c-.4.1-1.1.3-1.8.3zM295.1 22.5c-1.8 0-2.9-1.1-2.9-2.9 0-1.8 1.2-3 2.9-3 .8 0 1.4.2 1.9.5l-.3 1.1c-.5-.3-1-.4-1.5-.4-1 0-1.6.7-1.6 1.8s.6 1.8 1.6 1.8c.6 0 1.1-.2 1.5-.4l.3 1c-.5.3-1.2.5-1.9.5zM298.2 22.3v-8l1.4-.2v8.2h-1.4zM304 21.7c-.4.5-.9.8-1.6.8-1 0-1.7-.7-1.7-1.6 0-1 .7-1.9 3.3-2v-.1c0-.7-.3-1.1-1.1-1.1-.6 0-1.2.3-1.8.6l-.3-1.1c.5-.3 1.4-.6 2.3-.6 1.7 0 2.4.8 2.3 2.3v2c0 .4.1.5.5.5l-.1 1.1c-1.1.1-1.6-.3-1.8-.8zm0-2c-1.4.2-1.9.4-1.9 1 0 .4.3.7.8.7.4 0 .8-.2 1.1-.5v-1.2zM308.6 22.5c-.7 0-1.6-.2-2.1-.5l.3-1.1c.6.3 1.3.5 1.9.5.6 0 .9-.2.9-.6 0-.4-.5-.6-1.1-.7-1-.2-1.9-.7-1.9-1.7s.9-1.7 2.2-1.7c.7 0 1.5.2 2 .4l-.3 1.1c-.5-.3-1.2-.5-1.7-.5s-.8.2-.8.6c0 .4.5.6 1.1.7 1.1.3 1.9.7 1.9 1.7-.1 1-1 1.8-2.4 1.8zM313.8 22.5c-.7 0-1.6-.2-2.1-.5l.3-1.1c.6.3 1.3.5 1.9.5.6 0 .9-.2.9-.6 0-.4-.5-.6-1.1-.7-1-.2-1.9-.7-1.9-1.7s.9-1.7 2.2-1.7c.7 0 1.5.2 2 .4l-.3 1.1c-.5-.3-1.2-.5-1.7-.5s-.8.2-.8.6c0 .4.5.6 1.1.7 1.1.3 1.9.7 1.9 1.7-.1 1-1 1.8-2.4 1.8zM317.5 15.8l-.8.2v-.7l1.6-.4v3.4h-.8v-2.5zM319.7 17.3c.4 0 .7.3.7.8 0 .6-.5 1.1-1.1 1.4l-.4-.3c.4-.3.7-.6.7-.8 0-.2-.1-.3-.6-.5.1-.4.4-.6.7-.6zM322.7 18c-.2.3-.5.5-.9.5-.6 0-1-.4-1-.9 0-.6.4-1.1 1.9-1.1v-.1c0-.4-.2-.6-.6-.6-.3 0-.7.1-1.1.3l-.2-.6c.3-.2.8-.4 1.3-.4 1 0 1.4.4 1.4 1.3v1.2c0 .2 0 .3.3.3l-.1.6c-.5 0-.8-.2-1-.5zm0-1.2c-.8.1-1.1.3-1.1.6 0 .2.2.4.5.4s.5-.1.6-.3v-.7z"/></g></svg>