<svg xmlns="http://www.w3.org/2000/svg" viewBox="0 0 44.8 45.6"><style>.st0{display:none}.st1{fill:#595478}.st2{fill:#a6bbc3}</style><g id="Type"><path id="Path_409" class="st1" d="M22.2 43.5c-11.6 0-21-9.4-21-21s9.4-21 21-21 21 9.4 21 21-9.4 21-21 21zm0-40.4c-10.7 0-19.4 8.7-19.4 19.4s8.7 19.4 19.4 19.4 19.4-8.7 19.4-19.4S32.9 3.1 22.2 3.1z"/><path class="st2" d="M18.8 21.9h9.3v1h-9.3zM18.8 17.9h9.3v1h-9.3zM18.8 25.8h9.3v1h-9.3zM14.9 29.8h13.2v1H14.9z"/><path class="st2" d="M14.7 9.8l13.8.1c1.2 0 2.2 1 2.2 2.2v20.3c0 1.2-1 2.2-2.2 2.2H14.7c-1.2 0-2.2-1-2.2-2.2V12c0-1.2 1-2.2 2.2-2.2m0-1.2c-1.9 0-3.4 1.5-3.4 3.4v20.4c0 1.9 1.5 3.4 3.4 3.4h13.8c1.9 0 3.4-1.5 3.4-3.4V12.1c0-1.9-1.5-3.4-3.4-3.4l-13.8-.1z"/><path class="st1" d="M17.9 17.8l-.6-.7-1.4 1.4-.8-.8-.7.6 1.5 1.5zM17.9 21.4l-.6-.6-1.4 1.4-.8-.9-.7.7 1.5 1.5zM17.9 25.1l-.6-.7-1.4 1.4-.8-.8-.7.6 1.5 1.5z"/><circle class="st1" cx="30.1" cy="31.5" r="5.6"/><path fill="none" stroke="#fff" stroke-width="1.096" stroke-linecap="round" stroke-miterlimit="10" d="M33 29.5l-3.8 3.9-2.1-2.1"/><g><path class="st1" d="M20.9 11.4h1.4v5.5h-1.4z"/><path class="st1" d="M18.9 13.4h5.5v1.4h-5.5z"/></g></g></svg>