<svg xmlns="http://www.w3.org/2000/svg" viewBox="0 0 44.8 45.6"><style>.st0{display:none}.st1{fill:#a6bbc3}</style><g id="Type"><path class="st1" d="M30.1 11.9l-2.8 6.8-7.3.5 5.6 4.7-1.8 7.1 6.3-3.8 6.2 3.8-1.8-7.1 5.6-4.7-7.3-.5zM13 19.6c3.9 0 6.5 2.1 6.5 5.5 0 3.7-2.6 6.3-6.9 6.3-1.8 0-4-.5-5.4-1.2l.4-3c1.2.7 3.1 1.3 4.9 1.3 2.1 0 3.6-1.1 3.6-3.3 0-1.9-1.4-3.1-3.9-3.1-1.7 0-3.1.4-4 .8l-.5-.6L9 12.2h10.2l.1 3h-7.6l-.6 4.5c.4 0 1.1-.1 1.9-.1z"/><path id="Path_409" d="M22.2 43.5c-11.6 0-21-9.4-21-21s9.4-21 21-21 21 9.4 21 21-9.4 21-21 21zm0-40.4c-10.7 0-19.4 8.7-19.4 19.4s8.7 19.4 19.4 19.4 19.4-8.7 19.4-19.4S32.9 3.1 22.2 3.1z" fill="#595478"/></g></svg>