<svg xmlns="http://www.w3.org/2000/svg" viewBox="0 0 44.8 45.6"><style>.st0{display:none}.st2{fill:#fff}.st3{fill:none;stroke:#a6bbc3;stroke-width:.5;stroke-miterlimit:10}.st4{fill:#a6bbc3}</style><g id="Type"><path id="Path_409" d="M22.2 43.5c-11.6 0-21-9.4-21-21s9.4-21 21-21 21 9.4 21 21-9.4 21-21 21zm0-40.4c-10.7 0-19.4 8.7-19.4 19.4s8.7 19.4 19.4 19.4 19.4-8.7 19.4-19.4S32.9 3.1 22.2 3.1z" fill="#595478"/><path class="st2" d="M33.3 27.3c0 .5-.4.9-.9.9H11.8c-.5 0-.9-.4-.9-.9v-1.1c0-.5.4-.9.9-.9h20.6c.5 0 .9.4.9.9v1.1z"/><path class="st3" d="M33.3 27.3c0 .5-.4.9-.9.9H11.8c-.5 0-.9-.4-.9-.9v-1.1c0-.5.4-.9.9-.9h20.6c.5 0 .9.4.9.9v1.1z"/><path class="st4" d="M10.9 25.5h17.9v2.4H10.9z"/><path class="st2" d="M33.3 31.7c0 .5-.4.9-.9.9H11.8c-.5 0-.9-.4-.9-.9v-1.1c0-.5.4-.9.9-.9h20.6c.5 0 .9.4.9.9v1.1z"/><path class="st3" d="M33.3 31.7c0 .5-.4.9-.9.9H11.8c-.5 0-.9-.4-.9-.9v-1.1c0-.5.4-.9.9-.9h20.6c.5 0 .9.4.9.9v1.1z"/><path class="st4" d="M10.9 30h13.4v2.4H10.9z"/><path class="st2" d="M33.3 36.1c0 .5-.4.9-.9.9H11.8c-.5 0-.9-.4-.9-.9V35c0-.5.4-.9.9-.9h20.6c.5 0 .9.4.9.9v1.1z"/><path class="st3" d="M33.3 36.1c0 .5-.4.9-.9.9H11.8c-.5 0-.9-.4-.9-.9V35c0-.5.4-.9.9-.9h20.6c.5 0 .9.4.9.9v1.1z"/><path class="st4" d="M10.9 34.3h9.6v2.4h-9.6z"/><g><circle class="st4" cx="13.1" cy="13.1" r="3.7"/><path class="st4" d="M7.2 23.1c0-3.7 2.7-6.6 6-6.6s6 3 6 6.6"/></g><g><circle class="st4" cx="31.2" cy="13.1" r="3.7"/><path class="st4" d="M25.2 23.1c0-3.7 2.7-6.6 6-6.6s6 3 6 6.6"/></g><g><circle class="st4" cx="21.9" cy="9.2" r="2.6"/><path class="st4" d="M17.7 16.1c0-2.6 1.9-4.6 4.2-4.6s4.2 2.1 4.2 4.6"/></g></g></svg>