<svg id="Layer_1" xmlns="http://www.w3.org/2000/svg" viewBox="0 0 266.6 87.9"><style>.st0{fill:#595478}</style><path class="st0" d="M11.8 24.8H6.7V9.2H12c5.3 0 8.4 3 8.4 7.7 0 4.8-3 7.9-8.6 7.9zm0-13h-2v10.5H12c3.3 0 5.4-1.7 5.4-5.2 0-3.6-2-5.3-5.6-5.3zM26.3 24.8h-3V9.2h5.5c3.9 0 6 1.9 6 4.7 0 2.2-1.2 3.8-3.4 4.5l4.1 6.4H32l-3.5-5.7-2.2.1v5.6zm2.2-8c1.9-.1 3.1-.9 3.1-2.6 0-1.6-1.2-2.4-3.4-2.4h-2v5.1l2.3-.1zM49.8 20.4c0 2.6-1.5 4.5-6.1 4.5h-6.1V9.2h6c4.2 0 5.7 1.7 5.7 4.1 0 1.7-1 2.8-2.8 3.4 2.1.5 3.3 1.8 3.3 3.7zm-6.3-8.7h-2.9v4.2h2.6c1.9 0 3-.8 3-2.2.1-1.3-.9-2-2.7-2zm0 6.4h-2.8v4.2h3c2 0 3-.7 3-2.1 0-1.5-1.3-2.1-3.2-2.1zM65.7 24.8h-3.1l-1.3-3.7H55l-1.3 3.7h-3.1l5.7-15.6H60l5.7 15.6zm-7.5-13l-2.4 6.8h4.7l-2.3-6.8zM75.6 20.6c0-1.3-1.2-1.8-3.5-2.4-2.2-.6-4.8-1.6-4.8-4.7 0-2.8 2.1-4.6 5.6-4.6 2.1 0 3.9.5 5.4 1.4l-.7 2.6c-1.4-.8-3.1-1.4-4.6-1.4-1.8 0-2.6.8-2.6 1.8 0 1.3 1.4 1.8 3.5 2.3 2.3.6 4.8 1.7 4.8 4.7 0 2.8-2.3 4.9-5.9 4.9-2.1 0-4.1-.5-5.6-1.4l.7-2.6c1.4.9 3.1 1.5 5 1.5 1.5-.1 2.7-.9 2.7-2.1zM88.3 11.2c-1.1 0-1.8-.7-1.8-1.8 0-1 .6-1.8 1.8-1.8 1.2 0 1.8.7 1.8 1.8.1 1.1-.6 1.8-1.8 1.8zm-1.4 13.6V13.4l2.9-.4v11.9h-2.9zM100.2 24.8v-7c0-1.7-.7-2.3-2-2.3-1 0-2 .5-2.5 1.1v8.2h-2.9V13.4l2.9-.4v1.8c1-1.1 2.4-1.8 3.8-1.8 2.3 0 3.7 1.5 3.7 4v7.9h-3zM111.4 25.2c-3.7 0-6-2.3-6-6.1 0-3.7 2.4-6.2 6.1-6.2 1.6 0 2.9.3 4 1l-.6 2.4c-.9-.6-2-.9-3.1-.9-2.1 0-3.3 1.4-3.3 3.7 0 2.3 1.3 3.7 3.3 3.7 1.2 0 2.3-.3 3.2-.9l.5 2.4c-1.1.5-2.5.9-4.1.9zM117.7 24.8V8.1l2.9-.4v17.1h-2.9zM126.4 13.3v7c0 1.7.7 2.2 1.9 2.2 1 0 2-.5 2.5-1v-8.3h2.9v11.4l-2.9.4v-1.7c-.9 1-2.3 1.7-3.8 1.7-2.2 0-3.6-1.5-3.6-4v-7.9h3zM144.5 8.1l2.9-.4v17.1h-2.9v-1.1c-.8.7-1.8 1.5-3.2 1.5-3 0-5-2.5-5-6 0-3.7 2.5-6.2 5.8-6.2.8 0 1.7.1 2.4.4V8.1zm-2.2 7.2c-2 0-3.1 1.6-3.1 3.7 0 2.2 1.1 3.7 2.9 3.7 1 0 1.7-.4 2.4-.9V16c-.6-.5-1.3-.7-2.2-.7zM152.7 19.7c.1 1.9 1.4 3.1 3.4 3.1 1.2 0 2.5-.4 3.6-1l.4 2.4c-1.1.6-2.6.9-4.2.9-3.7 0-6.1-2.3-6.1-6s2.5-6.2 5.9-6.2c3 0 4.7 1.8 4.7 4.7 0 .6-.1 1.4-.2 1.9 0 0-7.5.1-7.5.2zm5-1.8v-.2c0-1.5-.7-2.5-2.2-2.5-1.6 0-2.6 1.3-2.7 2.7h4.9zM175.2 10.5c-.5-.2-1.1-.4-1.7-.4-1.1 0-1.5.6-1.5 2v1.3h3.3l-.1 2.4H172v9h-2.9v-9l-2-.2.1-1.9 1.9-.5V12c.1-3.3 1.6-4.6 4.2-4.6.9 0 1.9.3 2.5.5 0 .1-.6 2.6-.6 2.6zm3.2.9c-1.2 0-1.8-.7-1.8-1.7 0-1.1.6-1.8 1.8-1.8s1.8.7 1.8 1.8c0 1-.6 1.7-1.8 1.7zm-1.5 13.4V13.4l2.9-.4v11.9h-2.9zM185.8 24.8h-2.9V13.4l2.9-.4v1.9c.7-1.2 1.6-1.9 3-1.9.7 0 1.4.1 2 .5l-.6 2.6c-.5-.3-1.1-.5-1.6-.5-1 0-2 .6-2.7 2v7.2zM196.2 25.2c-1.5 0-3.3-.4-4.5-1.1l.6-2.3c1.1.6 2.6 1.1 3.9 1.1 1.1 0 1.9-.5 1.9-1.3 0-.9-1-1.2-2.3-1.5-2.2-.5-3.9-1.4-3.9-3.6s1.8-3.6 4.6-3.6c1.4 0 3.1.4 4.2.9l-.6 2.3c-1.1-.6-2.6-.9-3.6-.9-1.1 0-1.7.4-1.7 1.1 0 .9 1 1.2 2.3 1.5 2.2.5 3.9 1.4 3.9 3.6s-1.8 3.8-4.8 3.8zM207.6 25.2c-2.6 0-3.9-1.1-3.8-3.9l.2-5.4-1.8-.2.1-1.9 1.8-.6v-2.5h2.8v2.7h3.2l-.1 2.4h-3.3l-.1 5.3c0 1.1.5 1.6 1.5 1.6.6 0 1.2-.1 1.8-.4l.4 2.4c-.9.3-1.7.5-2.7.5zM210.5 20v-2.5h7V20h-7zM231.6 23.5c-.8 1-1.8 1.7-3.2 1.7-2.1 0-3.6-1.4-3.6-3.2 0-2.1 1.5-3.9 6.8-4.1v-.3c0-1.5-.6-2.2-2.3-2.2-1.2 0-2.6.5-3.8 1.2l-.6-2.3c1.1-.7 2.9-1.3 4.8-1.3 3.5 0 4.9 1.6 4.8 4.7v4.1c0 .9.1 1 1 1l-.2 2.2c-2.2.2-3.2-.4-3.6-1.6h-.1zm0-4.1c-2.9.4-3.9.9-3.9 2.1 0 .9.7 1.5 1.7 1.5.9 0 1.7-.4 2.2-1v-2.6zM245 24.8v-7c0-1.7-.7-2.3-2-2.3-1 0-2 .5-2.5 1.1v8.2h-2.9V13.4l2.9-.4v1.8c1-1.1 2.4-1.8 3.8-1.8 2.3 0 3.7 1.5 3.7 4v7.9h-3zM258.5 8.1l2.9-.4v17.1h-2.9v-1.1c-.8.7-1.8 1.5-3.2 1.5-3 0-5-2.5-5-6 0-3.7 2.5-6.2 5.8-6.2.8 0 1.7.1 2.4.4V8.1zm-2.2 7.2c-2 0-3.1 1.6-3.1 3.7 0 2.2 1.1 3.7 2.9 3.7 1 0 1.7-.4 2.4-.9V16c-.6-.5-1.3-.7-2.2-.7zM37.4 53.2c-1.5 0-3.3-.4-4.5-1.1l.6-2.3c1.1.6 2.6 1.1 3.9 1.1 1.1 0 1.9-.5 1.9-1.3 0-.9-1-1.2-2.3-1.5-2.2-.5-3.9-1.4-3.9-3.6s1.8-3.6 4.6-3.6c1.4 0 3.1.4 4.2.9l-.6 2.3c-1.1-.6-2.6-.9-3.6-.9-1.1 0-1.7.4-1.7 1.1 0 .9 1 1.2 2.3 1.5 2.2.5 3.9 1.4 3.9 3.6s-1.9 3.8-4.8 3.8zM46.7 47.7c.1 1.9 1.4 3.1 3.4 3.1 1.2 0 2.5-.4 3.6-1l.4 2.4c-1.1.6-2.6.9-4.2.9-3.7 0-6.1-2.3-6.1-6s2.5-6.2 5.9-6.2c3 0 4.7 1.8 4.7 4.7 0 .6-.1 1.4-.2 1.9 0 0-7.5.1-7.5.2zm5-1.8v-.2c0-1.5-.7-2.5-2.2-2.5-1.6 0-2.6 1.3-2.7 2.7h4.9zM62.1 53.2c-3.7 0-6-2.3-6-6.1 0-3.7 2.4-6.2 6.1-6.2 1.6 0 2.9.3 4 1l-.6 2.4c-.9-.6-2-.9-3.1-.9-2.1 0-3.3 1.4-3.3 3.7 0 2.3 1.3 3.7 3.3 3.7 1.2 0 2.3-.3 3.2-.9l.5 2.4c-1.1.5-2.5.9-4.1.9zM73.3 53.2c-3.4 0-5.8-2.3-5.8-6.1s2.6-6.2 6-6.2 5.8 2.3 5.8 6.1-2.6 6.2-6 6.2zm.1-9.9c-1.9 0-3 1.5-3 3.8 0 2.2 1.1 3.7 3 3.7s2.9-1.5 2.9-3.7-1-3.8-2.9-3.8zM89.1 52.8v-7c0-1.7-.7-2.3-2-2.3-1 0-2 .5-2.5 1.1v8.2h-2.9V41.4l2.9-.4v1.8c1-1.1 2.4-1.8 3.8-1.8 2.3 0 3.7 1.5 3.7 4v7.9h-3zM102.6 36.1l2.9-.4v17.1h-2.9v-1.1c-.8.7-1.8 1.5-3.2 1.5-3 0-5-2.5-5-6 0-3.7 2.5-6.2 5.8-6.2.8 0 1.7.1 2.4.4v-5.3zm-2.2 7.2c-2 0-3.1 1.6-3.1 3.7 0 2.2 1.1 3.7 2.9 3.7 1 0 1.7-.4 2.4-.9V44c-.6-.5-1.3-.7-2.2-.7zM108.1 48v-2.5h7V48h-7zM122.5 51.3c0-1 .8-2 2.1-2.4-1.3-.6-2.1-1.9-2.1-3.5 0-2.4 1.9-4.4 5.1-4.4 1.3 0 2.4.4 3.2.7l3.1-.3.1 2.6-2.2-.4c.3.3.5 1.2.5 1.8 0 2.3-2 4.2-4.8 4.2-.5 0-.9-.1-1.6-.2-.4.1-.9.5-.9 1 0 .6.5.9 2.4.9h1.2c3.3 0 5.2.9 5.2 3.2 0 2.7-3.1 4.6-6.7 4.6-3 0-5.5-1.1-5.5-3.2 0-1.2.9-2.3 2.6-2.5-1-.5-1.7-1.2-1.7-2.1zm1.8 3.9c0 1.1 1.3 1.8 3.3 1.8 2 0 3.6-.8 3.6-1.9 0-1.1-1-1.3-3.2-1.3-.7 0-1.7 0-2.2-.1-.9.3-1.5.8-1.5 1.5zm3.3-7.5c1.3 0 2.1-.9 2.1-2.4 0-1.4-.7-2.3-2.2-2.3-1.3 0-2.1 1-2.1 2.4-.1 1.3.8 2.3 2.2 2.3zM138 47.7c.1 1.9 1.4 3.1 3.4 3.1 1.2 0 2.5-.4 3.6-1l.4 2.4c-1.1.6-2.6.9-4.2.9-3.7 0-6.1-2.3-6.1-6s2.5-6.2 5.9-6.2c3 0 4.7 1.8 4.7 4.7 0 .6-.1 1.4-.2 1.9 0 0-7.5.1-7.5.2zm5-1.8v-.2c0-1.5-.7-2.5-2.2-2.5-1.6 0-2.6 1.3-2.7 2.7h4.9zM155.6 52.8v-7c0-1.7-.7-2.3-2-2.3-1 0-2 .5-2.5 1.1v8.2h-2.9V41.4l2.9-.4v1.8c1-1.1 2.4-1.8 3.8-1.8 2.3 0 3.7 1.5 3.7 4v7.9h-3zM163.7 47.7c.1 1.9 1.4 3.1 3.4 3.1 1.2 0 2.5-.4 3.6-1l.4 2.4c-1.1.6-2.6.9-4.2.9-3.7 0-6.1-2.3-6.1-6s2.5-6.2 5.9-6.2c3 0 4.7 1.8 4.7 4.7 0 .6-.1 1.4-.2 1.9 0 0-7.5.1-7.5.2zm5-1.8v-.2c0-1.5-.7-2.5-2.2-2.5-1.6 0-2.6 1.3-2.7 2.7h4.9zM176.8 52.8h-2.9V41.4l2.9-.4v1.9c.7-1.2 1.6-1.9 3-1.9.7 0 1.4.1 2 .5l-.6 2.6c-.5-.3-1.1-.5-1.6-.5-1 0-2 .6-2.7 2v7.2zM189.9 51.5c-.8 1-1.8 1.7-3.2 1.7-2.1 0-3.6-1.4-3.6-3.2 0-2.1 1.5-3.9 6.8-4.1v-.3c0-1.5-.6-2.2-2.3-2.2-1.2 0-2.6.5-3.8 1.2l-.6-2.3c1.1-.7 2.9-1.3 4.8-1.3 3.5 0 4.9 1.6 4.8 4.7v4.1c0 .9.1 1 1 1l-.2 2.2c-2.2.2-3.2-.4-3.6-1.6h-.1zm0-4.1c-2.9.4-3.9.9-3.9 2.1 0 .9.7 1.5 1.7 1.5.9 0 1.7-.4 2.2-1v-2.6zM199.9 53.2c-2.6 0-3.9-1.1-3.8-3.9l.2-5.4-1.8-.2.1-1.9 1.8-.6v-2.5h2.8v2.7h3.2l-.1 2.4H199l-.1 5.3c0 1.1.5 1.6 1.5 1.6.6 0 1.2-.1 1.8-.4l.4 2.4c-.9.3-1.7.5-2.7.5zM205.9 39.2c-1.1 0-1.8-.7-1.8-1.8 0-1 .6-1.8 1.8-1.8 1.2 0 1.8.7 1.8 1.8.1 1.1-.6 1.8-1.8 1.8zm-1.4 13.6V41.4l2.9-.4v11.9h-2.9zM215.5 53.2c-3.4 0-5.8-2.3-5.8-6.1s2.6-6.2 6-6.2 5.8 2.3 5.8 6.1-2.6 6.2-6 6.2zm0-9.9c-1.9 0-3 1.5-3 3.8 0 2.2 1.1 3.7 3 3.7s2.9-1.5 2.9-3.7-1-3.8-2.9-3.8zM231.3 52.8v-7c0-1.7-.7-2.3-2-2.3-1 0-2 .5-2.5 1.1v8.2h-2.9V41.4l2.9-.4v1.8c1-1.1 2.4-1.8 3.8-1.8 2.3 0 3.7 1.5 3.7 4v7.9h-3zM62.5 79.5c-.8 1-1.8 1.7-3.2 1.7-2.1 0-3.6-1.4-3.6-3.2 0-2.1 1.5-3.9 6.8-4.1v-.3c0-1.5-.6-2.2-2.3-2.2-1.2 0-2.6.5-3.8 1.2l-.6-2.3c1.1-.7 2.9-1.3 4.8-1.3 3.5 0 4.9 1.6 4.8 4.7v4.1c0 .9.1 1 1 1l-.2 2.2c-2.2.2-3.2-.4-3.6-1.6h-.1zm0-4.1c-2.9.4-3.9.9-3.9 2.1 0 .9.7 1.5 1.7 1.5.9 0 1.7-.4 2.2-1v-2.6zM75.9 80.8v-7c0-1.7-.7-2.3-2-2.3-1 0-2 .5-2.5 1.1v8.2h-2.9V69.4l2.9-.4v1.8c1-1.1 2.4-1.8 3.8-1.8 2.3 0 3.7 1.5 3.7 4v7.9h-3zM85.9 81.2c-2.6 0-3.9-1.1-3.8-3.9l.2-5.4-1.8-.2.1-1.9 1.8-.6v-2.5h2.8v2.7h3.2l-.1 2.4H85l-.1 5.3c0 1.1.5 1.6 1.5 1.6.6 0 1.2-.1 1.8-.4l.4 2.4c-.9.3-1.7.5-2.7.5zM92 67.2c-1.1 0-1.8-.7-1.8-1.8 0-1 .6-1.8 1.8-1.8 1.2 0 1.8.7 1.8 1.8s-.7 1.8-1.8 1.8zm-1.5 13.6V69.4l2.9-.4v11.9h-2.9zM102.5 68.9c3 0 5 2.5 5 6 0 3.7-2.5 6.2-5.8 6.2-.7 0-1.7-.1-2.4-.3v5.5h-2.9v-17l2.9-.4v1.4c.8-.6 1.8-1.4 3.2-1.4zm-3.2 9.3c.5.4 1.3.6 2.2.6 2 0 3.1-1.6 3.1-3.7 0-2.2-1.1-3.7-2.9-3.7-1 0-1.7.4-2.4.9v5.9zM113.5 81.2c-1.5 0-3.3-.4-4.5-1.1l.6-2.3c1.1.6 2.6 1.1 3.9 1.1 1.1 0 1.9-.5 1.9-1.3 0-.9-1-1.2-2.3-1.5-2.2-.5-3.9-1.4-3.9-3.6s1.8-3.6 4.6-3.6c1.4 0 3.1.4 4.2.9l-.6 2.3c-1.1-.6-2.6-.9-3.6-.9-1.1 0-1.7.4-1.7 1.1 0 .9 1 1.2 2.3 1.5 2.2.5 3.9 1.4 3.9 3.6s-1.9 3.8-4.8 3.8zM126.9 80.6l-.7 1.8c-1.1 3.1-2.4 4.1-4.6 4.1-1 0-2-.2-2.9-.7l.9-2.4c.7.3 1.2.5 1.8.5.9 0 1.3-.4 1.9-1.9l.5-1.3-4.5-11.4h3.2l2.9 8.2 2.7-8.2h3.1l-4.3 11.3zM137.7 81.2c-3.7 0-6-2.3-6-6.1 0-3.7 2.4-6.2 6.1-6.2 1.6 0 2.9.3 4 1l-.6 2.4c-.9-.6-2-.9-3.1-.9-2.1 0-3.3 1.4-3.3 3.7 0 2.3 1.3 3.7 3.3 3.7 1.2 0 2.3-.3 3.2-.9l.5 2.4c-1.1.5-2.5.9-4.1.9zM151.5 80.8v-7c0-1.7-.7-2.3-1.9-2.3-1.1 0-2 .5-2.6 1.1v8.2h-3V64.1l2.9-.4v7c1-1.1 2.4-1.8 3.9-1.8 2.2 0 3.6 1.5 3.6 4v7.9h-2.9zM162.5 81.2c-3.4 0-5.8-2.3-5.8-6.1s2.6-6.2 6-6.2 5.8 2.3 5.8 6.1-2.6 6.2-6 6.2zm0-9.9c-1.9 0-3 1.5-3 3.8 0 2.2 1.1 3.7 3 3.7s2.9-1.5 2.9-3.7-1-3.8-2.9-3.8zM175 81.2c-2.6 0-3.9-1.1-3.8-3.9l.2-5.4-1.8-.2.1-1.9 1.8-.6v-2.5h2.8v2.7h3.2l-.1 2.4h-3.3l-.2 5.3c0 1.1.5 1.6 1.5 1.6.6 0 1.2-.1 1.8-.4l.4 2.4c-.8.3-1.6.5-2.6.5zM181 67.2c-1.1 0-1.8-.7-1.8-1.8 0-1 .6-1.8 1.8-1.8 1.2 0 1.8.7 1.8 1.8s-.6 1.8-1.8 1.8zm-1.5 13.6V69.4l2.9-.4v11.9h-2.9zM190.7 81.2c-3.7 0-6-2.3-6-6.1 0-3.7 2.4-6.2 6.1-6.2 1.6 0 2.9.3 4 1l-.6 2.4c-.9-.6-2-.9-3.1-.9-2.1 0-3.3 1.4-3.3 3.7 0 2.3 1.3 3.7 3.3 3.7 1.2 0 2.3-.3 3.2-.9l.5 2.4c-1.1.5-2.5.9-4.1.9zM200.8 81.2c-1.5 0-3.3-.4-4.5-1.1l.6-2.3c1.1.6 2.6 1.1 3.9 1.1 1.1 0 1.9-.5 1.9-1.3 0-.9-1-1.2-2.3-1.5-2.2-.5-3.9-1.4-3.9-3.6s1.8-3.6 4.6-3.6c1.4 0 3.1.4 4.2.9l-.6 2.3c-1.1-.6-2.6-.9-3.6-.9-1.1 0-1.7.4-1.7 1.1 0 .9 1 1.2 2.3 1.5 2.2.5 3.9 1.4 3.9 3.6s-1.9 3.8-4.8 3.8zM209.2 65.2l-2.2.5v-1.5l3.9-.9v9.2h-1.7v-7.3z"/></svg>