<svg xmlns="http://www.w3.org/2000/svg" viewBox="0 0 44.79 45.58"><style>.st0{display:none}.st1{fill:#fff}.st2{fill:#a6bbc3}</style><g id="Type"><path class="st1" d="M7.62 23.85a4.878 4.878 0 0 1 1.9-6.62l11.92-6.62c2.35-1.3 5.31-.45 6.62 1.9 1.3 2.35.45 5.31-1.9 6.62l-11.92 6.62c-2.35 1.3-5.31.45-6.62-1.9z"/><path class="st2" d="M11.9 26.85c-1.89 0-3.73-1-4.72-2.76a5.39 5.39 0 0 1 2.09-7.3l11.93-6.62a5.39 5.39 0 0 1 7.3 2.09 5.39 5.39 0 0 1-2.09 7.3l-11.93 6.62c-.81.46-1.7.67-2.58.67zm-3.84-3.24a4.39 4.39 0 0 0 5.94 1.7l11.92-6.61a4.39 4.39 0 0 0 1.7-5.94 4.387 4.387 0 0 0-5.94-1.7L9.76 17.67a4.39 4.39 0 0 0-1.7 5.94z"/><path class="st2" d="M18.93 23.65a.49.49 0 0 1-.44-.26.497.497 0 0 1 .2-.68c.19-.1.37-.54.26-1.42-.12-.92-.51-2.03-1.11-3.11-.6-1.08-1.32-2-2.05-2.58-.69-.56-1.15-.64-1.34-.53-.24.13-.55.05-.68-.2a.497.497 0 0 1 .2-.68c.64-.36 1.52-.13 2.45.63.82.67 1.63 1.69 2.29 2.88.66 1.19 1.09 2.42 1.23 3.46.15 1.2-.12 2.06-.76 2.42a.5.5 0 0 1-.25.07zM20.87 13.6a.43.43 0 0 1-.38-.23.43.43 0 0 1 .17-.59l1.52-.84c1.29-.73 2.93-.5 3.97.56.17.17.17.45 0 .62a.44.44 0 0 1-.62 0c-.77-.78-1.97-.95-2.92-.41l-1.52.85c-.08.02-.15.04-.22.04z"/><path id="Path_409" d="M22.22 43.52c-11.62 0-21.03-9.42-21.03-21.03S10.6 1.46 22.22 1.46s21.03 9.42 21.03 21.03c-.01 11.61-9.42 21.02-21.03 21.03zm0-40.43c-10.72 0-19.4 8.69-19.4 19.4s8.69 19.4 19.4 19.4 19.4-8.69 19.4-19.4c-.01-10.71-8.69-19.39-19.4-19.4z" fill="#595478"/><path class="st1" d="M14.31 23.96a4.876 4.876 0 0 1 5.61-3.99l13.45 2.27c2.65.45 4.43 2.96 3.99 5.61a4.876 4.876 0 0 1-5.61 3.99L18.3 29.57a4.881 4.881 0 0 1-3.99-5.61z"/><path class="st2" d="M32.55 32.4c-.29 0-.59-.02-.88-.07l-13.45-2.27c-2.91-.5-4.88-3.28-4.4-6.19.5-2.91 3.28-4.88 6.19-4.4l13.45 2.27c2.91.5 4.89 3.28 4.4 6.19-.45 2.62-2.74 4.47-5.31 4.47zM14.8 24.04a4.398 4.398 0 0 0 3.58 5.04l13.44 2.27c2.37.4 4.63-1.21 5.04-3.58a4.398 4.398 0 0 0-3.58-5.04l-13.44-2.27c-2.37-.4-4.63 1.21-5.04 3.58z"/><path class="st2" d="M23.72 30.97c-.07 0-.15-.01-.22-.02a.5.5 0 0 1-.41-.58c.05-.27.3-.45.58-.41.57.1 1.72-1.48 2.16-4.07.44-2.59-.13-4.45-.7-4.55a.5.5 0 0 1-.41-.58c.05-.27.3-.45.58-.41 1.57.27 1.95 3.14 1.52 5.7-.43 2.46-1.63 4.92-3.1 4.92zM35.44 27.12c-.22 0-.41-.17-.43-.39a2.43 2.43 0 0 0-2.03-2.14l-1.72-.29a.437.437 0 0 1-.36-.5c.04-.24.26-.4.5-.36l1.72.29c1.46.24 2.6 1.44 2.76 2.91.03.24-.15.46-.39.48h-.05z"/></g></svg>