<svg width="296" height="55" xmlns="http://www.w3.org/2000/svg" overflow="hidden"><defs><clipPath id="a"><path d="M946 42h296v55H946z"/></clipPath><clipPath id="b"><path d="M947 43h295v54H947z"/></clipPath><clipPath id="c"><path d="M947 43h295v54H947z"/></clipPath><clipPath id="d"><path d="M947 43h295v54H947z"/></clipPath><linearGradient x1="55.772" y1="17.106" x2="279.224" y2="17.106" gradientUnits="userSpaceOnUse" id="e"><stop offset="0" stop-color="#2B5F51"/><stop offset=".802" stop-color="#0BBAB4"/><stop offset="1" stop-color="#0BBAB4"/></linearGradient><linearGradient x1="22.712" y1="17.844" x2="44.654" y2="48.438" gradientUnits="userSpaceOnUse" id="f"><stop offset="0" stop-color="#0BBAB4"/><stop offset=".091" stop-color="#0BBAB4"/><stop offset=".367" stop-color="#538CA6"/><stop offset=".544" stop-color="#7C719E"/><stop offset=".716" stop-color="#A15998"/><stop offset=".9" stop-color="#C24393"/><stop offset="1" stop-color="#CF3B91"/></linearGradient><linearGradient x1="12.705" y1="31.601" x2="42.199" y2="1.636" gradientUnits="userSpaceOnUse" id="g"><stop offset="0" stop-color="#0BBAB4"/><stop offset=".463" stop-color="#0BBAB4"/><stop offset=".648" stop-color="#10ACA6"/><stop offset=".999" stop-color="#1C8880"/><stop offset="1" stop-color="#1C8880"/></linearGradient><linearGradient x1="37.05" y1="41.069" x2="-18.634" y2="17.475" gradientUnits="userSpaceOnUse" id="h"><stop offset="0" stop-color="#CF3B91"/><stop offset=".364" stop-color="#CF3B91"/><stop offset=".95" stop-color="#936"/><stop offset="1" stop-color="#936"/></linearGradient></defs><g clip-path="url(#a)" transform="translate(-946 -42)"><g clip-path="url(#b)"><g clip-path="url(#c)"><g clip-path="url(#d)"><path d="M1019.456 94.913h-6.216V77.016h6.042c3.76 0 5.58 1.992 5.58 4.503 0 2.368-1.474 3.667-3.209 4.158 1.995.346 3.614 2.194 3.614 4.445 0 2.685-2.023 4.792-5.811 4.792zm-.29-16.397h-4.105v6.409h4.192c2.43 0 3.788-1.241 3.788-3.233 0-1.934-1.301-3.176-3.874-3.176zm.087 7.881h-4.22v6.986h4.278c2.602 0 4.135-1.299 4.135-3.464.029-2.136-1.62-3.522-4.193-3.522zM1028.824 76.986h1.792v17.899h-1.792V76.986zM1042.875 95.087c-5.03 0-8.876-3.753-8.876-9.152 0-5.34 3.846-9.15 8.876-9.15 5.06 0 8.877 3.78 8.877 9.15 0 5.399-3.817 9.152-8.877 9.152zm0-1.56c3.99 0 7.026-2.886 7.026-7.592 0-4.676-3.064-7.563-7.026-7.563-3.96 0-7.025 2.858-7.025 7.563 0 4.706 3.064 7.593 7.025 7.593zM1060.223 95.087c-3.585 0-5.956-2.05-6.042-4.792h1.908c.144 1.472 1.243 3.29 4.163 3.29 2.487 0 3.961-1.472 3.961-3.29 0-5.283-9.859-1.935-9.859-8.69 0-2.771 2.284-4.792 5.754-4.792 3.411 0 5.464 1.905 5.782 4.36h-1.937c-.202-1.242-1.416-2.801-3.903-2.83-2.111-.029-3.846 1.126-3.846 3.204 0 5.168 9.86 1.992 9.86 8.66-.058 2.426-2.024 4.88-5.84 4.88zM1077.166 76.784c3.99 0 6.968 1.992 8.269 5.427h-2.11c-1.012-2.396-3.094-3.868-6.159-3.868-3.932 0-6.939 2.887-6.939 7.592 0 4.677 3.007 7.564 6.94 7.564 3.064 0 5.146-1.472 6.158-3.81h2.11c-1.272 3.377-4.25 5.369-8.269 5.369-4.972 0-8.79-3.753-8.79-9.123 0-5.37 3.788-9.15 8.79-9.15zM1088.818 76.986h1.793v17.899h-1.793V76.986zM1104.229 78.458h-7.576v6.698h6.796v1.472h-6.796v6.784h7.576v1.473h-9.368V76.957h9.368v1.501zM1120.767 76.986v17.899h-1.793l-9.917-15.04v15.069h-1.793V77.014h1.793l9.917 15.04v-15.04h1.793v-.029zM1132.91 76.784c3.99 0 6.969 1.992 8.27 5.427h-2.11c-1.013-2.396-3.094-3.868-6.16-3.868-3.932 0-6.939 2.887-6.939 7.592 0 4.677 3.007 7.564 6.94 7.564 3.065 0 5.146-1.472 6.158-3.81h2.11c-1.271 3.377-4.25 5.369-8.268 5.369-4.974 0-8.79-3.753-8.79-9.123.028-5.37 3.816-9.15 8.79-9.15zM1153.872 78.458h-7.575v6.698h6.795v1.472h-6.795v6.784h7.575v1.473h-9.367V76.957h9.367v1.501zM1162.026 95.087c-3.586 0-5.957-2.05-6.043-4.792h1.908c.144 1.472 1.243 3.29 4.164 3.29 2.486 0 3.96-1.472 3.96-3.29 0-5.283-9.858-1.935-9.858-8.69 0-2.771 2.283-4.792 5.753-4.792 3.412 0 5.465 1.905 5.782 4.36h-1.937c-.202-1.242-1.416-2.801-3.903-2.83-2.11-.029-3.846 1.126-3.846 3.204 0 5.168 9.86 1.992 9.86 8.66-.057 2.426-2.053 4.88-5.84 4.88z" fill="#6B6B6B"/><path d="M88.54 4.706V29.56h-6.063L72.344 14.232v15.33h-6.062V4.705h6.063L82.477 20.12V4.706h6.063zm19.168 4.878h-9.18v5.024h8.112v4.676h-8.112v5.456h9.18v4.85H92.466V4.734h15.242v4.85zm4.186-4.878h6.063v14.896c0 2.944 1.443 4.648 4.33 4.648 2.858 0 4.388-1.704 4.388-4.648V4.734h6.062v14.839c0 6.87-4.821 10.277-10.565 10.277-5.774 0-10.278-3.406-10.278-10.277V4.706zm34.412 0c6.091 0 9.151 3.493 9.151 7.823 0 3.118-1.703 6.062-5.514 7.188l5.745 9.844h-6.842l-5.167-9.382h-1.444v9.382h-6.062V4.706h10.133zm-.347 5.052h-3.753v6.149h3.753c2.281 0 3.32-1.155 3.32-3.118 0-1.848-1.039-3.031-3.32-3.031zm24.048 20.063c-7.044 0-12.789-5.283-12.789-12.76 0-7.477 5.745-12.702 12.789-12.702 7.072 0 12.702 5.254 12.702 12.702s-5.658 12.76-12.702 12.76zm0-5.514c3.955 0 6.553-2.858 6.553-7.217 0-4.417-2.598-7.217-6.553-7.217-4.042 0-6.582 2.8-6.582 7.217 0 4.36 2.54 7.217 6.582 7.217zM196.999 9.96c2.309 0 4.186 1.068 5.196 3.175h6.669c-1.415-5.37-5.889-8.718-11.808-8.718-7.332 0-12.5 5.254-12.5 12.673 0 7.448 5.168 12.645 12.5 12.645 5.919 0 10.364-3.291 11.808-8.69h-6.64c-1.039 2.136-2.916 3.176-5.196 3.176-3.724 0-6.265-2.772-6.265-7.16-.029-4.33 2.512-7.101 6.236-7.101zm34.267 2.598c0-4.33-3.06-7.824-9.152-7.824h-10.161V29.59h6.062v-9.382h1.443l5.168 9.382h6.842l-5.745-9.844c3.839-1.155 5.543-4.07 5.543-7.188zm-9.498 3.349h-3.753v-6.15h3.753c2.281 0 3.32 1.213 3.32 3.06 0 1.935-1.068 3.09-3.32 3.09zM235.25 29.59h6.062V4.734h-6.062V29.59zm25.779-9.469L250.896 4.706h-6.062V29.56h6.062V14.232l10.133 15.33h6.062V4.705h-6.062V20.12zm9.758 9.47h15.242v-4.85h-9.18v-5.457h8.112v-4.676h-8.112V9.584h9.18v-4.85h-15.242V29.59z" fill="url(#e)" transform="matrix(1.00154 0 0 1 947 43.008)"/><path d="M32.68 53.32c18.59-3.435 30.369-30.658 9.872-40.185-7.506-3.406-19.832-.953-21.651 8.141 25.577-6.524 24.278 24.51 6.495 31.034-1.414.52-2.944.895-4.561 1.068-.375.029-.78.087-1.155.087 3.609.721 7.362.663 11-.145z" fill="url(#f)" transform="matrix(1.00154 0 0 1 947 43.008)"/><path d="M41.426 10.22c4.244 1.327 7.968 3.983 10.508 7.592.116.144.203.289.29.433C47.228.779 19.283-7.852 9.006 9.353c-6.87 10.45 2.396 29.36 15.704 25.636-14.52-14.06-.433-29.648 16.715-24.77z" fill="url(#g)" transform="matrix(1.00154 0 0 1 947 43.008)"/><path d="M38.135 31.063a9.319 9.319 0 0 0-3.435-6.265C26.992 52.165-2.916 30.774 5.947 10.45c.173-.375.346-.721.52-1.097C-6.12 22.402.26 50.693 20.208 51.213c10.45.26 19.313-9.758 17.927-20.15z" fill="url(#h)" transform="matrix(1.00154 0 0 1 947 43.008)"/><path d="M1236.448 50.196c0-1.616 1.156-2.829 2.775-2.829 1.62 0 2.776 1.213 2.776 2.83 0 1.616-1.156 2.8-2.776 2.8-1.62.028-2.775-1.184-2.775-2.8zm.52 0c0 1.357.896 2.339 2.284 2.339 1.36 0 2.256-.982 2.256-2.339s-.897-2.338-2.256-2.338c-1.388 0-2.284.981-2.284 2.338zm2.747.26l.838 1.212h-.723l-.78-1.183h-.318v1.183h-.607v-3.03h1.3c.608 0 1.013.346 1.013.923.028.49-.26.808-.723.895zm-.954-1.241v.78h.665c.26 0 .462-.116.462-.405 0-.26-.202-.375-.462-.375h-.665z" fill="#0BBAB4"/></g></g></g></g></svg>