<svg xmlns="http://www.w3.org/2000/svg" viewBox="0 0 205.7 61.1"><style>.st0{fill:#a6bbc3}.st1{fill:#595478}.st2{fill:#231f20}</style><g id="Type"><path class="st0" d="M89 6.2l-3.5 8.7-9.3.6 7.1 6-2.2 9.1 7.9-4.9 7.9 4.9-2.2-9.1 7.1-6-9.3-.6zM56 6.2l-3.5 8.7-9.2.6 7.1 6-2.3 9.1 7.9-4.9 7.9 4.9-2.2-9.1 7.1-6-9.2-.6zM154.8 6.2l-3.5 8.7-9.2.6 7.1 6-2.3 9.1 7.9-4.9 7.9 4.9-2.2-9.1 7.1-6-9.2-.6zM187.8 6.2l-3.5 8.7-9.3.6 7.1 6-2.2 9.1 7.9-4.9 7.9 4.9-2.2-9.1 7.1-6-9.3-.6zM121.9 6.2l-3.5 8.7-9.3.6 7.1 6-2.2 9.1 7.9-4.9 7.9 4.9-2.2-9.1 7.1-6-9.3-.6z"/><path class="st1" d="M21 25.1c10.2 0 16.9 5.5 16.9 14.3 0 9.5-6.7 16.3-17.9 16.3-4.8 0-10.4-1.2-13.9-3.1l1.1-7.9c3 1.9 8.1 3.4 12.5 3.4 5.5 0 9.4-2.9 9.4-8.4 0-4.8-3.7-7.9-10.2-7.9-4.3 0-8 .9-10.3 1.9l-1.4-1.5L10.5 6h26.3l.2 7.9H17.5L16 25.6c1.2-.3 2.9-.5 5-.5zM45.9 35.8h5.5v1.6h-3.6V39h2.9v1.6h-2.9v2.9h-1.9v-7.7zM52.6 43.6v-7.7h2v7.7h-2zM60.6 43.6h-2.5l-2.6-7.7h2l1.8 5.8 1.8-5.8h2.1l-2.6 7.7zM64.1 43.6v-7.7h5.7v1.6h-3.7V39h3v1.6h-3V42h3.7v1.6h-5.7zM70.7 41.3v-1.5h3.9v1.5h-3.9zM79.6 41.4c0-.5-.6-.7-1.6-1-1.1-.3-2.5-.8-2.5-2.4 0-1.4 1.1-2.4 3-2.4 1.2 0 2.2.3 2.9.7l-.4 1.6c-.8-.4-1.7-.7-2.5-.7-.7 0-1 .2-1 .7 0 .5.7.7 1.6 1 1.2.3 2.4.9 2.4 2.3 0 1.5-1.1 2.5-3.2 2.5-1.2 0-2.3-.3-3-.7l.4-1.6c.8.4 1.7.7 2.7.7.7 0 1.2-.2 1.2-.7zM86.8 37.5v6.1h-2v-6.1h-2.5v-1.6h6.9v1.6h-2.4zM96.7 43.6h-2l-.6-1.6h-2.9l-.6 1.6h-2l2.8-7.7H94l2.7 7.7zm-3.9-6.3l-1 3h2l-1-3zM99.6 43.6h-2v-7.7h3.1c2.1 0 3.1 1 3.1 2.5 0 1-.5 1.8-1.6 2.2l2 3.1H102l-1.5-2.6-.9-.1v2.6zm1-4.1c.8-.1 1.3-.4 1.3-1.2 0-.7-.5-1-1.5-1h-.8v2.2h1zM116.2 44l-.8 1.6-3.4-1.8h-.2c-2.3 0-4-1.4-4-4 0-2.5 1.8-4.1 4.1-4.1s4.1 1.4 4.1 4c0 1.5-.7 2.7-1.8 3.4l2 .9zm-4.4-6.8c-1.3 0-2.1 1-2.1 2.4 0 1.5.8 2.5 2.1 2.5s2.1-1 2.1-2.5-.8-2.4-2.1-2.4zM120.5 43.7c-2 0-3.4-1-3.4-3.2v-4.8h2v4.5c0 1.2.5 1.8 1.5 1.8.9 0 1.4-.5 1.4-1.7v-4.6h2v4.6c-.1 2.3-1.4 3.4-3.5 3.4zM132.4 43.6h-2l-.6-1.6H127l-.6 1.6h-2l2.8-7.7h2.5l2.7 7.7zm-3.9-6.3l-1 3h2l-1-3zM133.3 43.6v-7.7h2V42h3.2v1.6h-5.2zM139.6 43.6v-7.7h2v7.7h-2zM147.1 37.5v6.1h-2v-6.1h-2.5v-1.6h6.9v1.6h-2.4zM154.8 40.6v2.9h-1.9v-2.9l-2.7-4.8h2.1l1.6 3.1 1.5-3.1h2.1l-2.7 4.8zM163.3 43.6h-2v-7.7h3.1c2.1 0 3.1 1 3.1 2.5 0 1-.5 1.8-1.6 2.2l2 3.1h-2.2l-1.5-2.6-.9.1v2.4zm.9-4.1c.8-.1 1.3-.4 1.3-1.2 0-.7-.5-1-1.5-1h-.8v2.2h1zM176.4 43.6h-2l-.6-1.6H171l-.6 1.6h-2l2.8-7.7h2.5l2.7 7.7zm-3.9-6.3l-1 3h2l-1-3zM180.5 37.5v6.1h-2v-6.1H176v-1.6h6.9v1.6h-2.4zM184 43.6v-7.7h5.7v1.6H186V39h3v1.6h-3V42h3.7v1.6H184zM193.9 43.6h-2.8v-7.7h2.9c2.7 0 4.3 1.5 4.3 3.8s-1.6 3.9-4.4 3.9zm0-6.2h-.8V42h.9c1.4 0 2.3-.7 2.3-2.3 0-1.6-.8-2.3-2.4-2.3z"/><g><path class="st2" d="M50 52.7c0 .8-.6 1.4-1.9 1.4h-1.7V49H48c1.2 0 1.8.6 1.8 1.3 0 .5-.3 1-1 1.2.8.2 1.2.6 1.2 1.2zm-1.9-3.2H47v1.9h1c.8 0 1.3-.3 1.3-.9 0-.6-.4-1-1.2-1zm-.1 2.3h-1v1.9h1.2c.9 0 1.3-.4 1.3-1-.1-.6-.6-.9-1.5-.9zM52.5 54.1l-.3.8c-.3.9-.7 1.2-1.2 1.2-.3 0-.5-.1-.7-.2l.2-.5c.2.1.4.2.6.2.3 0 .5-.2.8-.9l.3-.7-1.5-3.7h.6l1.2 3.1 1.2-3.1h.3l-1.5 3.8zM60.2 49.8c-.4-.3-.9-.4-1.4-.4-1.1 0-1.9.8-1.9 2.2 0 1.4.8 2.2 2 2.2.6 0 1.1-.2 1.4-.5l.1.5c-.4.2-.9.4-1.5.4-1.5 0-2.5-1-2.5-2.7 0-1.6 1-2.7 2.5-2.7.6 0 1.2.2 1.6.4l-.3.6zM61.6 52.3c0 .8.5 1.5 1.3 1.5.4 0 .8-.1 1.1-.3l.1.5c-.3.2-.7.3-1.2.3-1.1 0-1.8-.8-1.8-2s.8-2 1.8-2c.8 0 1.4.5 1.4 1.4 0 .2 0 .4-.1.6h-2.6zm2.1-.4v-.2c0-.6-.3-1-.9-1-.7 0-1.1.5-1.2 1.1l2.1.1zM67.8 54.2v-2.4c0-.7-.3-1-.8-1-.4 0-.8.2-1.1.5v2.9h-.5v-3.8l.5-.1v.6c.4-.4.9-.6 1.3-.6.8 0 1.2.5 1.2 1.3v2.6h-.6zM70.6 54.3c-.7 0-1-.4-1-1.2l.1-2.2h-.6v-.3l.6-.1v-.9h.5v.9h1.3v.5h-1.2l-.3 2.1c0 .5.2.7.6.7.2 0 .5-.1.7-.2l.1.4c-.3.2-.6.3-.8.3zM72.5 52.3c0 .8.5 1.5 1.3 1.5.4 0 .8-.1 1.1-.3l.1.5c-.3.2-.7.3-1.2.3-1.1 0-1.8-.8-1.8-2s.8-2 1.8-2c.8 0 1.4.5 1.4 1.4 0 .2 0 .4-.1.6h-2.6zm2.1-.4v-.2c0-.6-.3-1-.9-1-.7 0-1.1.5-1.2 1.1l2.1.1zM76.7 54.2h-.5v-3.8l.5-.1v.8c.2-.5.6-.8 1.1-.8.2 0 .5.1.7.2l-.1.5c-.2-.1-.4-.2-.6-.2-.4 0-.8.3-1.1 1v2.4zM80.2 54.3c-.4 0-.9-.1-1.2-.3l.1-.5c.3.2.7.3 1.1.3.5 0 .8-.2.8-.6 0-.5-.5-.6-.9-.7-.5-.2-1.1-.5-1.1-1.1 0-.7.6-1.1 1.3-1.1.4 0 .8.1 1.1.3l-.1.4c-.3-.2-.7-.3-1-.3-.5 0-.8.2-.8.6 0 .4.4.6.9.7.5.2 1.1.4 1.1 1.1 0 .7-.6 1.2-1.3 1.2zM86.1 49.1c-.2-.1-.4-.2-.6-.2-.4 0-.6.3-.6.9v.6h1.2v.5h-1.2v3.3h-.5v-3.3h-.6v-.3l.6-.1v-.6c0-1 .5-1.4 1.1-1.4.3 0 .5.1.7.2.1-.1-.1.4-.1.4zM88.4 54.3c-1 0-1.8-.8-1.8-2s.8-2 1.9-2 1.8.8 1.8 2-.8 2-1.9 2zm0-3.5c-.8 0-1.3.6-1.3 1.5s.5 1.5 1.3 1.5 1.3-.6 1.3-1.5c.1-.9-.5-1.5-1.3-1.5zM91.8 54.2h-.5v-3.8l.5-.1v.8c.2-.5.6-.8 1.1-.8.2 0 .5.1.7.2l-.1.5c-.2-.1-.4-.2-.6-.2-.4 0-.8.3-1.1 1v2.4zM100.6 49.7l-1.7 4.5h-.6l-1.7-4.5-.1 4.5H96l.2-5.1h.7l1.7 4.5 1.7-4.5h.7l.2 5.1h-.5l-.1-4.5zM102.8 52.3c0 .8.5 1.5 1.3 1.5.4 0 .8-.1 1.1-.3l.1.5c-.3.2-.7.3-1.2.3-1.1 0-1.8-.8-1.8-2s.8-2 1.8-2c.8 0 1.4.5 1.4 1.4 0 .2 0 .4-.1.6h-2.6zm2.1-.4v-.2c0-.6-.3-1-.9-1-.7 0-1.1.5-1.2 1.1l2.1.1zM109 48.6l.5-.1v5.7h-.5v-.4c-.2.2-.6.5-1.1.5-1 0-1.7-.8-1.7-2s.8-2 1.9-2c.3 0 .7.1.9.2v-1.9zm-.9 2.2c-.8 0-1.3.6-1.3 1.5s.5 1.5 1.3 1.5c.4 0 .7-.2 1-.4v-2.3c-.3-.2-.7-.3-1-.3zM111.1 49.5c-.2 0-.3-.2-.3-.4s.1-.4.3-.4c.2 0 .3.2.3.4 0 .3-.1.4-.3.4zm-.3 4.7v-3.8l.5-.1v3.9h-.5zM114.2 54.3c-1.1 0-1.8-.8-1.8-2s.8-2 1.9-2c.5 0 .9.1 1.2.3l-.1.5c-.3-.2-.6-.3-1-.3-.8 0-1.3.6-1.3 1.5s.5 1.5 1.3 1.5c.4 0 .8-.1 1-.3l.1.5c-.5.2-.9.3-1.3.3zM118.4 53.7c-.3.3-.7.6-1.1.6-.7 0-1.2-.4-1.2-1 0-.7.5-1.2 2.3-1.3v-.2c0-.6-.3-.9-.9-.9-.4 0-.9.2-1.2.5l-.1-.5c.3-.2.9-.5 1.4-.5.9 0 1.4.4 1.3 1.3v1.8c0 .3 0 .4.4.4v.4c-.6 0-.8-.2-.9-.6zm0-1.5c-1.3.1-1.8.4-1.8.9 0 .4.3.7.8.7.4 0 .7-.2 1-.5v-1.1zM120.7 54.2h-.5v-3.8l.5-.1v.8c.2-.5.6-.8 1.1-.8.2 0 .5.1.7.2l-.1.5c-.2-.1-.4-.2-.6-.2-.4 0-.8.3-1.1 1v2.4zM123.4 52.3c0 .8.5 1.5 1.3 1.5.4 0 .8-.1 1.1-.3l.1.5c-.3.2-.7.3-1.2.3-1.1 0-1.8-.8-1.8-2s.8-2 1.8-2c.8 0 1.4.5 1.4 1.4 0 .2 0 .4-.1.6h-2.6zm2.1-.4v-.2c0-.6-.3-1-.9-1-.7 0-1.1.5-1.2 1.1l2.1.1zM130.8 53.7c-.3.3-.7.6-1.1.6-.7 0-1.2-.4-1.2-1 0-.7.5-1.2 2.3-1.3v-.2c0-.6-.3-.9-.9-.9-.4 0-.9.2-1.2.5l-.1-.5c.3-.2.9-.5 1.4-.5.9 0 1.4.4 1.3 1.3v1.8c0 .3 0 .4.4.4v.4c-.5 0-.8-.2-.9-.6zm0-1.5c-1.3.1-1.8.4-1.8.9 0 .4.3.7.8.7.4 0 .7-.2 1-.5v-1.1zM135.1 54.2v-2.4c0-.7-.3-1-.8-1-.4 0-.8.2-1.1.5v2.9h-.5v-3.8l.5-.1v.6c.4-.4.9-.6 1.3-.6.8 0 1.2.5 1.2 1.3v2.6h-.6zM139.4 48.6l.5-.1v5.7h-.5v-.4c-.2.2-.6.5-1.1.5-1 0-1.7-.8-1.7-2s.8-2 1.9-2c.3 0 .7.1.9.2v-1.9zm-1 2.2c-.8 0-1.3.6-1.3 1.5s.5 1.5 1.3 1.5c.4 0 .7-.2 1-.4v-2.3c-.2-.2-.6-.3-1-.3zM147.5 49.7l-1.7 4.5h-.6l-1.7-4.5-.1 4.5h-.5l.2-5.1h.7l1.7 4.5 1.7-4.5h.7l.2 5.1h-.5l-.1-4.5zM149.6 52.3c0 .8.5 1.5 1.3 1.5.4 0 .8-.1 1.1-.3l.1.5c-.3.2-.7.3-1.2.3-1.1 0-1.8-.8-1.8-2s.8-2 1.8-2c.8 0 1.4.5 1.4 1.4 0 .2 0 .4-.1.6h-2.6zm2.2-.4v-.2c0-.6-.3-1-.9-1-.7 0-1.1.5-1.2 1.1l2.1.1zM155.9 48.6l.5-.1v5.7h-.5v-.4c-.2.2-.6.5-1.1.5-1 0-1.7-.8-1.7-2s.8-2 1.9-2c.3 0 .7.1.9.2v-1.9zm-1 2.2c-.8 0-1.3.6-1.3 1.5s.5 1.5 1.3 1.5c.4 0 .7-.2 1-.4v-2.3c-.3-.2-.6-.3-1-.3zM157.9 49.5c-.2 0-.3-.2-.3-.4s.1-.4.3-.4c.2 0 .3.2.3.4.1.3-.1.4-.3.4zm-.2 4.7v-3.8l.5-.1v3.9h-.5zM161 54.3c-1.1 0-1.8-.8-1.8-2s.8-2 1.9-2c.5 0 .9.1 1.2.3l-.1.5c-.3-.2-.6-.3-1-.3-.8 0-1.3.6-1.3 1.5s.5 1.5 1.3 1.5c.4 0 .8-.1 1-.3l.1.5c-.4.2-.9.3-1.3.3zM165.2 53.7c-.3.3-.7.6-1.1.6-.7 0-1.2-.4-1.2-1 0-.7.5-1.2 2.3-1.3v-.2c0-.6-.3-.9-.9-.9-.4 0-.9.2-1.2.5l-.1-.5c.3-.2.9-.5 1.4-.5.9 0 1.4.4 1.3 1.3v1.8c0 .3 0 .4.4.4v.4c-.5 0-.8-.2-.9-.6zm0-1.5c-1.3.1-1.8.4-1.8.9 0 .4.3.7.8.7.4 0 .7-.2 1-.5v-1.1zM167.2 49.5c-.2 0-.3-.2-.3-.4s.1-.4.3-.4c.2 0 .3.2.3.4.1.3 0 .4-.3.4zm-.2 4.7v-3.8l.5-.1v3.9h-.5zM171.3 48.6l.5-.1v5.7h-.5v-.4c-.2.2-.6.5-1.1.5-1 0-1.7-.8-1.7-2s.8-2 1.9-2c.3 0 .7.1.9.2v-1.9zm-.9 2.2c-.8 0-1.3.6-1.3 1.5s.5 1.5 1.3 1.5c.4 0 .7-.2 1-.4v-2.3c-.3-.2-.7-.3-1-.3zM177.5 52.8c0-.6-.5-.8-1.3-1.1-.7-.2-1.5-.5-1.5-1.4 0-.8.7-1.4 1.6-1.4.6 0 1.1.2 1.5.4l-.2.5c-.4-.3-.9-.4-1.3-.4-.8 0-1.1.4-1.1.9 0 .6.5.8 1.3 1 .7.2 1.5.6 1.5 1.5 0 .8-.7 1.5-1.7 1.5-.6 0-1.2-.2-1.7-.5l.2-.5c.4.3.9.5 1.5.5.7 0 1.2-.4 1.2-1zM179.3 52.3c0 .8.5 1.5 1.3 1.5.4 0 .8-.1 1.1-.3l.1.5c-.3.2-.7.3-1.2.3-1.1 0-1.8-.8-1.8-2s.8-2 1.8-2c.8 0 1.4.5 1.4 1.4 0 .2 0 .4-.1.6h-2.6zm2.1-.4v-.2c0-.6-.3-1-.9-1-.7 0-1.1.5-1.2 1.1l2.1.1zM183.5 54.2h-.5v-3.8l.5-.1v.8c.2-.5.6-.8 1.1-.8.2 0 .5.1.7.2l-.1.5c-.2-.1-.4-.2-.6-.2-.4 0-.8.3-1.1 1v2.4zM187.7 54.2h-.5l-1.5-3.8h.6l1.2 3.1 1.2-3.1h.5l-1.5 3.8zM190.2 49.5c-.2 0-.3-.2-.3-.4s.1-.4.3-.4c.2 0 .3.2.3.4.1.3 0 .4-.3.4zm-.2 4.7v-3.8l.5-.1v3.9h-.5zM192 52.3c0 .8.5 1.5 1.3 1.5.4 0 .8-.1 1.1-.3l.1.5c-.3.2-.7.3-1.2.3-1.1 0-1.8-.8-1.8-2s.8-2 1.8-2c.8 0 1.4.5 1.4 1.4 0 .2 0 .4-.1.6H192zm2.2-.4v-.2c0-.6-.3-1-.9-1-.7 0-1.1.5-1.2 1.1l2.1.1zM196.7 54.3c-.4 0-.9-.1-1.2-.3l.1-.5c.3.2.7.3 1.1.3.5 0 .8-.2.8-.6 0-.5-.5-.6-.9-.7-.5-.2-1.1-.4-1.1-1.1 0-.7.6-1.1 1.3-1.1.4 0 .8.1 1.1.3l-.1.5c-.3-.2-.7-.3-1-.3-.5 0-.8.2-.8.6 0 .4.4.6.9.7.5.2 1.1.4 1.1 1.1 0 .6-.6 1.1-1.3 1.1z"/></g></g></svg>