<svg xmlns="http://www.w3.org/2000/svg" viewBox="0 0 44.79 45.58"><style>.st0{display:none}.st2{fill:#a6bbc3}</style><g id="Type"><path id="Path_409" d="M22.22 43.52c-11.62 0-21.03-9.42-21.03-21.03S10.6 1.46 22.22 1.46s21.03 9.42 21.03 21.03c-.01 11.61-9.42 21.02-21.03 21.03zm0-40.43c-10.72 0-19.4 8.69-19.4 19.4s8.69 19.4 19.4 19.4 19.4-8.69 19.4-19.4c-.01-10.71-8.69-19.39-19.4-19.4z" fill="#595478"/><path class="st2" d="M11.35 29.82c-.02 3.7 2.99 6.71 6.72 6.72 3.72.01 6.76-2.97 6.77-6.67.01-3.7-2.99-6.71-6.72-6.72-3.73-.01-6.76 2.97-6.77 6.67zm.98 0c0-.43.05-.85.14-1.25.15-.1.37-.18.47-.15.14.04 3.28 1.16 3.53 1.24.28.1.34.45.05.61-.22.12-3.09 1.63-3.32 1.72-.14.05-.33-.01-.5-.1-.24-.64-.37-1.34-.37-2.07zm2.76-4.86c.13.05.24.11.28.18.07.13 1.52 3.13 1.63 3.37.13.27-.08.56-.39.47-.24-.07-3.34-1.02-3.57-1.11-.1-.04-.18-.16-.24-.3a5.806 5.806 0 0 1 2.29-2.61zm4.44-.65c.05.12.08.25.06.32-.04.14-1.21 3.26-1.3 3.51-.1.28-.46.33-.61.04-.11-.22-1.58-3.11-1.67-3.34-.04-.1-.01-.22.03-.34a5.878 5.878 0 0 1 3.49-.19zm3.5 2.59c-.05.14-.12.27-.19.31-.13.07-3.15 1.49-3.38 1.61-.27.13-.56-.08-.46-.39.07-.24 1.04-3.33 1.14-3.56.05-.11.17-.19.31-.24 1.08.48 1.98 1.28 2.58 2.27zm.24 4.39c-.14-.04-3.29-1.15-3.54-1.23-.28-.09-.34-.45-.05-.61.22-.12 3.08-1.64 3.31-1.73.13-.05.32.01.49.09.25.64.38 1.33.38 2.06 0 .44-.05.87-.15 1.29-.16.09-.35.15-.44.13zm-2.21 3.46c-.15-.05-.3-.13-.34-.2-.07-.13-1.5-3.14-1.62-3.38-.13-.27.08-.56.39-.47.24.07 3.34 1.03 3.56 1.13.13.06.22.23.27.4a5.69 5.69 0 0 1-2.26 2.52zm-4.32.66c-.09-.15-.16-.36-.13-.45.04-.14 1.19-3.27 1.28-3.52.1-.28.46-.33.61-.05.11.22 1.59 3.11 1.68 3.34.05.14-.01.33-.1.49a5.818 5.818 0 0 1-3.34.19zm-3.6-2.63c.05-.17.15-.35.23-.4.13-.07 3.19-1.39 3.43-1.5.27-.12.56.1.45.41-.08.23-1.15 3.3-1.26 3.52-.05.11-.18.18-.32.23a5.768 5.768 0 0 1-2.53-2.26z"/><path class="st2" d="M27.35 24.98c.12.92.29 6.01.29 6.01.04.02.07.04.07.04.03.17.01.55.01.55s-.2.07-.25.4c-.1.68.21 1.79.21 1.79.9 0 1.31-.24 1.31-.24.04.33.23.76.23.76.56-.01 2.02-.48 2.24-.55.22-.07 1.83-.44 2.5-.69.89-.33 1.02-.83 1.03-.93.01-.09-.17-.53-.36-.55-.19-.02-.76.04-1.09.06-.96.05-2.11-.58-2.28-.68-.17-.1-.26.07-.26.07l-.06-.23c2.05-.58 2.32-.9 2.32-.9-.47-1.06-2.29-7.06-2.79-8.12-.3-.64-1.05-.72-1.05-.72-.26-.26-.79-.35-1.35-.23-.34.07-1.88.4-3.17.67 0 0-.12-.35-.18-.48a.779.779 0 0 0-.26-.34c-.13-.09-.58-.42-.71-.54-.13-.12-.56-.41-.56-.41s-.08-.19-.21-.25c-.08-.04-.5-.27-.5-.27-.12-.21-.21-.57-.57-.69-.5-.17-.56-.36-.72-.49-.15-.13-.68-.6-.68-.6-.3-1.76-1.36-3.12-1.31-3.43.02-.12.15-.55.1-.65-.06-.1-.41-.38-.41-.38.09-.21.21-.41.36-.48s.84-.34 1.11-.45c.27-.1.24-.36.19-.5-.06-.14-.01-.31.01-.36.03-.08.01-.19-.06-.21 0 0 .08-.07.08-.11 0-.11-.09-.27-.1-.37 0 0 .27-.08.36-.17.09-.09.14-.24-.05-.41-.19-.17-.44-.37-.5-.47-.06-.1.02-.32.02-.45s-.22-.78-.43-.94c0 0 .1-.32.02-.36-3.25-1.53-4.3.52-4.42 1.34-.08.55-.22.98-.49 1.29-.27.31-.45.73-.31 1.29 0 0-.68.21-.59 1.04 0 0 .09-.18.21-.23 0 0 .28.43-.25.67 0 0 .09.05.19.05 0 0-.41.14-.43.8 0 0 .14-.32.37-.39.02.57-.87.9.08 2.28 0 0 1.29 6.14 1.45 6.76.4 1.51.84 2.37 2.15 2.97 1.93.88 9.49-.57 9.49-.57z"/><path class="st2" d="M12.59 16.53s.29-.05.57-.08c0 0 1.54-.27 1.69-.3.15-.03.19-.17.19-.17s.59-.18.85.46c0 0-1.21.18-1.62.09 0 0 .78 4.37 1.35 6.49l.11 2.54 1.22-.02s0 .99.03 1.24c.06.46.42.42.65.42.58 0 3.77-.25 3.77-.25l.4 3.01-2.47.18.41.61 7.7-.55s.01.28.01.33c0 .05.15.05.15.05v.11h-.18c-.04 0-.08 0-.1.05-.02.04-1.3 3.07-1.3 3.07l.29.5.82-.43s1.11-2.99 1.14-3.08c.02-.06-.02-.12-.09-.12h-.11v-.12s.12-.02.12-.08l-.01-1.44c0-.09-.17-.22-.41-.22v-.42s.29-.04.47-.14l1.66.01 2.03 5.34c-.22.06-.39.1-.45.12h-.01c.04.18.16.47.47.6l3.33-1s.03-.12-.07-.48l.08-.02s.12-.41-.22-.63l-2.88.79s-1.69-4.63-1.9-5.22c-.21-.58-.56-1.1-1.43-1.1h-1.19v-.11s.18-.2.25-.28c.11-.14-.03-.49-.35-.42 0 0 .03-.23-.03-.37h-.55s-.02-.13-.05-.21h-.3s.01-.43-.04-.75-.36-.99-1.27-.99c-.3 0-.89.02-1.17.02-.29 0-.82-.08-.84-.77-.02-.68-.04-.93-.04-1.18 0-.66-.2-1.24-1.06-1.28 0 0 0-.16-.03-.25s-.17-.28-.61-.25c-.43.03-4.04.27-4.29.28 0 0-.66-3.52-.74-3.68-.04-.08-.14-.08-.14-.08-.34-.96-1.44-.89-1.44-.89-.01-.05-.13-.07-.23-.07-.1.01-1.6.24-2.29.44-.13.43.15.7.15.7zM25.4 27.07l-.36.32s-.02-.19 0-.22.1-.1.14-.12c.05-.01.22.02.22.02zm.77-.91l-.29.02-.01-.12-.51.01-.01-.12.57-.05c.01.09.08.15.08.15h.17v.11zm.22.55l-.31.26-.01-.25.32-.01zm-.3.77c.07-.06.43-.36.43-.36s.16.08.29.02c.07-.04.4-.25.4-.25l.05 2.75-4.77.33-.47-3 2.43-.18.05.8.16.01c.18.61.36.8.36.8.18-.03.32-.13.32-.13-.03-.18-.15-.54-.15-.54m-8.94-5.63c.01-.6.36-1.07.84-1.11.47-.04 4.53-.28 4.98-.28.43.01.73.25.75.7.02.37.02.43.02.43l-6.59.26z"/><path class="st2" d="M23.99 34.52c0 1.25 1.01 2.26 2.26 2.26 1.25 0 2.26-1.01 2.26-2.26 0-1.25-1.01-2.26-2.26-2.26-1.25 0-2.26 1.01-2.26 2.26zm1.42-1.33c.08.04.13.09.15.14.03.08.24.85.22.89-.02.04-.79.27-.86.28-.05.01-.17-.08-.24-.15.05-.48.33-.91.73-1.16zm.84-.24c.41 0 .78.15 1.06.41-.02.08-.05.14-.1.17-.07.05-.76.45-.81.43-.05-.01-.46-.7-.49-.77-.02-.04.02-.14.06-.22.1-.01.19-.02.28-.02zm1.59 1.59c0 .21-.04.42-.12.61a.35.35 0 0 1-.16-.03c-.07-.05-.68-.56-.69-.61 0-.05.5-.67.55-.72.03-.03.12-.03.21-.02.13.22.21.49.21.77zm-1.69 1.58c-.05-.1-.07-.18-.05-.24.03-.08.33-.82.38-.83.05-.02.79.28.85.31.04.02.08.14.1.24-.29.32-.71.52-1.18.52a.17.17 0 0 1-.1 0zm-1.45-1.23c.08-.07.14-.11.21-.11.09 0 .88.09.91.13.03.04-.04.83-.06.91-.01.04-.11.11-.19.15-.43-.2-.76-.6-.87-1.08zM22.03 26.55c.51-.02.99.26 1.35.62.36.36.63.8.94 1.2.06.07.12.14.2.18.09.04.2.04.31.03.7-.06 1.4-.18 2.09-.34.13-.03.26-.07.35-.17.07-.08.09-.19.11-.29l.24-1.11c.15-.69.27-1.51-.2-2.04-.41-.46-1.11-.49-1.72-.44-1.53.14-3.03.66-4.31 1.51"/></g></svg>