<svg id="Layer_1" xmlns="http://www.w3.org/2000/svg" viewBox="0 0 314.2 116.5"><style>.st0{fill:#58596e}.st1{fill:#595478}.st2{stroke:#c7c8ca;stroke-width:.75;stroke-linecap:round}.st2,.st3{fill:none}.st4{fill:#1f213d}</style><path class="st0" d="M8 90.3c-.5.6-1.3 1.1-2.1 1.1-1.3 0-2.3-.9-2.3-2 0-1.3 1-2.4 4.4-2.6v-.4c0-1.1-.5-1.7-1.7-1.7-.8 0-1.7.4-2.4.9l-.2-.9c.6-.5 1.7-.9 2.7-.9 1.7 0 2.6.8 2.6 2.6v3.5c0 .5.1.7.7.7l-.1.8c-1 0-1.5-.4-1.6-1.1zm-.1-2.9c-2.5.3-3.4.8-3.4 1.8 0 .8.6 1.3 1.5 1.3.8 0 1.4-.4 1.9-.9v-2.2zm6.7-6c-.3-.2-.7-.3-1.1-.3-.8 0-1.2.5-1.2 1.7V84h2.3v.9h-2.2v6.3h-1v-6.3l-1.2-.1.1-.6 1.1-.3v-1.1c0-1.9.9-2.6 2.2-2.6.5 0 1 .2 1.3.3-.1 0-.3.9-.3.9zm3.2 10c-1.4 0-2-.8-1.9-2.3l.1-4.3-1.1-.1v-.6l1.1-.3v-1.6h.9v1.7h2.4v.9h-2.4l-.1 4.3c0 .9.3 1.4 1.1 1.4.5 0 .9-.2 1.4-.3l.2.9c-.6.1-1.2.3-1.7.3zm3.6-3.7c0 1.6 1 2.8 2.5 2.8.8 0 1.5-.2 2.1-.6l.2.9c-.6.4-1.4.6-2.3.6-2.1 0-3.5-1.6-3.5-3.7 0-2.3 1.4-3.9 3.4-3.9 1.6 0 2.6 1 2.6 2.7 0 .4-.1.8-.2 1.1l-4.8.1zm4.1-.9v-.3c0-1.1-.6-1.9-1.7-1.9-1.3 0-2.1 1-2.3 2.2h4zm3.8 4.3h-1v-7.2l1-.2v1.5c.5-.9 1.2-1.5 2.1-1.5.5 0 .9.1 1.3.3l-.3 1c-.3-.2-.7-.3-1.1-.3-.8 0-1.5.6-2 1.9v4.5zm9.6-6.3l-1.8.7v-.9l2.8-1v7.6h-1v-6.4zm10 6.3l-.6 1.6c-.7 1.8-1.4 2.3-2.3 2.3-.6 0-1-.1-1.4-.3l.3-.9c.3.2.7.3 1.1.3.6 0 1-.3 1.5-1.7l.5-1.3-2.8-7.1h1.1l2.3 6 2.2-6h1l-2.9 7.1zm4.4-3.4c0 1.6 1 2.8 2.5 2.8.8 0 1.5-.2 2.1-.6l.2.9c-.6.4-1.4.6-2.3.6-2.1 0-3.5-1.6-3.5-3.7 0-2.3 1.4-3.9 3.4-3.9 1.6 0 2.6 1 2.6 2.7 0 .4-.1.8-.2 1.1l-4.8.1zm4.1-.9v-.3c0-1.1-.6-1.9-1.7-1.9-1.3 0-2.1 1-2.3 2.2h4zm6.6 3.5c-.5.6-1.3 1.1-2.1 1.1-1.3 0-2.3-.9-2.3-2 0-1.3 1-2.4 4.4-2.6v-.4c0-1.1-.5-1.7-1.7-1.7-.8 0-1.7.4-2.4.9l-.2-.9c.6-.5 1.7-.9 2.7-.9 1.7 0 2.6.8 2.6 2.6v3.5c0 .5.1.7.7.7l-.1.8c-.9 0-1.5-.4-1.6-1.1zm0-2.9c-2.5.3-3.4.8-3.4 1.8 0 .8.6 1.3 1.5 1.3.8 0 1.4-.4 1.9-.9v-2.2zm4.1 3.7h-1v-7.2l1-.2v1.5c.5-.9 1.2-1.5 2.1-1.5.5 0 .9.1 1.3.3l-.3 1c-.3-.2-.7-.3-1.1-.3-.8 0-1.5.6-2 1.9v4.5z"/><path class="st1" d="M141 68.6c0 4.8-4.4 7.7-9.6 7.7-2.8 0-5.3-.7-7.3-1.8l.7-4.6c1.8 1 4.1 1.8 6.2 1.8 2.6.1 4.2-1 4.2-3 0-1.9-1.4-2.9-4.3-3-1.1 0-2.2.1-3.1.2v-4.2c3.3-.6 6.3-1.4 6.3-3.8 0-1.6-1.2-2.5-3.5-2.5-1.8 0-3.6.9-5.3 2l-1.3-4.2c2.1-1.5 4.7-2.6 8-2.6 4.7 0 8.2 2.4 8.2 6.2 0 2.8-2.1 4.9-4.8 5.8 3.8.7 5.6 3.2 5.6 6zm18.5.5v6.6h-5.4v-6.6h-10.4l-.7-3.6L153.2 51h6.3v13.5h3.6l.1 4.6h-3.7zm-5.1-13l-5.7 8.5h5.7v-8.5zM168.6 60.6c-2.9 0-4.6-1.9-4.6-4.6s1.8-4.6 4.6-4.6c2.9 0 4.6 1.9 4.6 4.6.1 2.7-1.7 4.6-4.6 4.6zm.6 8.3h-3l13.6-17.2h3l-13.6 17.2zm-.6-15.4c-1.2 0-1.9.9-1.9 2.5 0 1.5.7 2.4 1.9 2.4 1.1 0 1.9-.9 1.9-2.4.1-1.5-.7-2.5-1.9-2.5zm11.7 15.6c-2.9 0-4.6-1.9-4.6-4.6 0-2.7 1.8-4.6 4.6-4.6 2.9 0 4.6 1.9 4.6 4.6 0 2.8-1.7 4.6-4.6 4.6zm.1-7c-1.2 0-1.9.9-1.9 2.5 0 1.5.7 2.5 1.9 2.5s1.9-.9 1.9-2.5c-.1-1.6-.8-2.5-1.9-2.5z"/><path class="st0" d="M121.2 90.3c-.5.6-1.3 1.1-2.1 1.1-1.3 0-2.3-.9-2.3-2 0-1.3 1-2.4 4.4-2.6v-.4c0-1.1-.5-1.7-1.7-1.7-.8 0-1.7.4-2.4.9l-.2-.9c.6-.5 1.7-.9 2.7-.9 1.7 0 2.6.8 2.6 2.6v3.5c0 .5.1.7.7.7l-.1.8c-.9 0-1.4-.4-1.6-1.1zm0-2.9c-2.5.3-3.4.8-3.4 1.8 0 .8.6 1.3 1.5 1.3.8 0 1.4-.4 1.9-.9v-2.2zm6.6-6c-.3-.2-.7-.3-1.1-.3-.8 0-1.2.5-1.2 1.7V84h2.3v.9h-2.2v6.3h-1v-6.3l-1.2-.1.1-.6 1.1-.3v-1.1c0-1.9.9-2.6 2.2-2.6.5 0 1 .2 1.3.3l-.3.9zm3.2 10c-1.4 0-2-.8-1.9-2.3l.1-4.3-1.1-.1v-.6l1.1-.3v-1.6h.9v1.7h2.4v.9h-2.4l-.1 4.3c0 .9.3 1.4 1.1 1.4.5 0 .9-.2 1.4-.3l.2.9c-.6.1-1.1.3-1.7.3zm3.7-3.7c0 1.6 1 2.8 2.5 2.8.8 0 1.5-.2 2.1-.6l.2.9c-.6.4-1.4.6-2.3.6-2.1 0-3.5-1.6-3.5-3.7 0-2.3 1.4-3.9 3.4-3.9 1.6 0 2.6 1 2.6 2.7 0 .4-.1.8-.2 1.1l-4.8.1zm4-.9v-.3c0-1.1-.6-1.9-1.7-1.9-1.3 0-2.1 1-2.3 2.2h4zm3.8 4.3h-1v-7.2l1-.2v1.5c.5-.9 1.2-1.5 2.1-1.5.5 0 .9.1 1.3.3l-.3.9c-.3-.2-.7-.3-1.1-.3-.8 0-1.5.6-2 1.9v4.6zm7.9 0v-.9c2.6-2 4.3-3.1 4.3-4.3 0-.8-.6-1.5-1.7-1.5-.8 0-1.5.4-2.2.9l-.3-.8c.7-.6 1.6-1 2.7-1 1.5 0 2.6.9 2.6 2.3 0 1.7-1.8 2.8-3.9 4.4h4.3v.9h-5.8zm13.6 0l-.6 1.6c-.7 1.8-1.4 2.3-2.3 2.3-.6 0-1-.1-1.4-.3l.3-.9c.3.2.7.3 1.1.3.6 0 1-.3 1.5-1.7l.4-1.4-2.8-7.1h1.1l2.3 6 2.2-6h1l-2.8 7.2zm4.4-3.4c0 1.6 1 2.8 2.5 2.8.8 0 1.5-.2 2.1-.6l.2.9c-.6.4-1.4.6-2.3.6-2.1 0-3.5-1.6-3.5-3.7 0-2.3 1.4-3.9 3.4-3.9 1.6 0 2.6 1 2.6 2.7 0 .4-.1.8-.2 1.1l-4.8.1zm4.1-.9v-.3c0-1.1-.6-1.9-1.7-1.9-1.3 0-2.1 1-2.3 2.2h4zm6.6 3.5c-.5.6-1.3 1.1-2.1 1.1-1.3 0-2.3-.9-2.3-2 0-1.3 1-2.4 4.4-2.6v-.4c0-1.1-.5-1.7-1.7-1.7-.8 0-1.7.4-2.4.9l-.2-.9c.6-.5 1.7-.9 2.7-.9 1.7 0 2.6.8 2.6 2.6v3.5c0 .5.1.7.7.7l-.1.8c-1 0-1.5-.4-1.6-1.1zm0-2.9c-2.5.3-3.4.8-3.4 1.8 0 .8.6 1.3 1.5 1.3.8 0 1.4-.4 1.9-.9v-2.2zm4.1 3.7h-1v-7.2l1-.2v1.5c.5-.9 1.2-1.5 2.1-1.5.5 0 .9.1 1.3.3l-.3.9c-.3-.2-.7-.3-1.1-.3-.8 0-1.5.6-2 1.9v4.6zm6.4.3c-.9 0-1.7-.3-2.4-.6l.3-.9c.6.4 1.4.7 2.1.7.9 0 1.6-.4 1.6-1.2 0-.9-.9-1.1-1.8-1.4-1-.3-2.1-.8-2.1-2 0-1.3 1.1-2.1 2.4-2.1.8 0 1.6.2 2.2.5l-.3.9c-.6-.3-1.3-.5-2-.5-.9 0-1.4.4-1.4 1.1 0 .8.9 1.1 1.8 1.4 1 .3 2.1.8 2.1 2.1 0 1.1-1.1 2-2.5 2z"/><path class="st1" d="M254.1 60.6c5.4 0 8.4 3 8.4 7.1 0 5-3.7 8.6-9.6 8.6-2.3 0-5.1-.5-7.1-1.4l.5-4.9c1.7.8 4.4 1.6 6.3 1.6 2.7 0 4.3-1.3 4.3-3.5 0-2-1.4-3.4-4.8-3.4-1.8 0-3.5.3-4.7.7l-.8-.9 1.6-13.4H262l.1 4.7h-9.2l-.6 4.7c.4.1.9.1 1.8.1zm26.7 8c0 4.8-4.4 7.7-9.6 7.7-2.8 0-5.3-.7-7.3-1.8l.7-4.6c1.8 1 4.1 1.8 6.2 1.8 2.6.1 4.2-1 4.2-3 0-1.9-1.4-2.9-4.3-3-1.1 0-2.2.1-3.1.2v-4.2c3.3-.6 6.3-1.4 6.3-3.8 0-1.6-1.2-2.5-3.5-2.5-1.8 0-3.6.9-5.3 2l-1.3-4.2c2.1-1.5 4.7-2.6 8-2.6 4.7 0 8.2 2.4 8.2 6.2 0 2.8-2.1 4.9-4.8 5.8 3.7.7 5.6 3.2 5.6 6zM286.5 60.6c-2.9 0-4.6-1.9-4.6-4.6s1.8-4.6 4.6-4.6c2.9 0 4.6 1.9 4.6 4.6 0 2.7-1.7 4.6-4.6 4.6zm.6 8.3h-3l13.6-17.2h3l-13.6 17.2zm-.6-15.4c-1.2 0-1.9.9-1.9 2.5 0 1.5.7 2.4 1.9 2.4 1.1 0 1.9-.9 1.9-2.4s-.8-2.5-1.9-2.5zm11.7 15.6c-2.9 0-4.6-1.9-4.6-4.6 0-2.7 1.8-4.6 4.6-4.6 2.9 0 4.6 1.9 4.6 4.6 0 2.8-1.7 4.6-4.6 4.6zm0-7c-1.2 0-1.9.9-1.9 2.5 0 1.5.7 2.5 1.9 2.5s1.9-.9 1.9-2.5-.7-2.5-1.9-2.5z"/><path class="st0" d="M241 90.3c-.5.6-1.3 1.1-2.1 1.1-1.3 0-2.3-.9-2.3-2 0-1.3 1-2.4 4.4-2.6v-.4c0-1.1-.5-1.7-1.7-1.7-.8 0-1.7.4-2.4.9l-.2-.9c.6-.5 1.7-.9 2.7-.9 1.7 0 2.6.8 2.6 2.6v3.5c0 .5.1.7.7.7l-.1.8c-.9 0-1.5-.4-1.6-1.1zm0-2.9c-2.5.3-3.4.8-3.4 1.8 0 .8.6 1.3 1.5 1.3.8 0 1.4-.4 1.9-.9v-2.2zm6.6-6c-.3-.2-.7-.3-1.1-.3-.8 0-1.2.5-1.2 1.7V84h2.3v.9h-2.2v6.3h-1v-6.3l-1.2-.1.1-.6 1.1-.3v-1.1c0-1.9.9-2.6 2.2-2.6.5 0 1 .2 1.3.3-.1 0-.3.9-.3.9zm3.2 10c-1.4 0-2-.8-1.9-2.3l.1-4.3-1.1-.1v-.6l1.1-.3v-1.6h.9v1.7h2.4v.9h-2.4l-.1 4.3c0 .9.3 1.4 1.1 1.4.5 0 .9-.2 1.4-.3l.2.9c-.6.1-1.2.3-1.7.3zm3.6-3.7c0 1.6 1 2.8 2.5 2.8.8 0 1.5-.2 2.1-.6l.2.9c-.6.4-1.4.6-2.3.6-2.1 0-3.5-1.6-3.5-3.7 0-2.3 1.4-3.9 3.4-3.9 1.6 0 2.6 1 2.6 2.7 0 .4-.1.8-.2 1.1l-4.8.1zm4.1-.9v-.3c0-1.1-.6-1.9-1.7-1.9-1.3 0-2.1 1-2.3 2.2h4zm3.8 4.3h-1v-7.2l1-.2v1.5c.5-.9 1.2-1.5 2.1-1.5.5 0 .9.1 1.3.3l-.3.9c-.3-.2-.7-.3-1.1-.3-.8 0-1.5.6-2 1.9v4.6zm13.4-.1c0 1.9-1.5 3-3.4 3-.9 0-1.9-.2-2.5-.6l.3-.9c.5.3 1.4.6 2.3.6 1.4 0 2.4-.8 2.4-2.1 0-1.2-.9-1.9-2.2-1.9-.5 0-.9 0-1.4.1v-.8c1.9-.5 3.3-1.2 3.3-2.5 0-1.1-.7-1.6-1.9-1.6-.8 0-1.7.4-2.3.9l-.4-.8c.7-.6 1.7-1 2.8-1 1.7 0 2.8 1 2.8 2.4 0 1.2-1 2.1-2.2 2.6 1.4.2 2.4 1.4 2.4 2.6zm7.7.1l-.6 1.6c-.7 1.8-1.4 2.3-2.3 2.3-.6 0-1-.1-1.4-.3l.3-.9c.3.2.7.3 1.1.3.6 0 1-.3 1.5-1.7l.5-1.3-2.8-7.1h1.1l2.3 6 2.2-6h1l-2.9 7.1zm4.4-3.4c0 1.6 1 2.8 2.5 2.8.8 0 1.5-.2 2.1-.6l.2.9c-.6.4-1.4.6-2.3.6-2.1 0-3.5-1.6-3.5-3.7 0-2.3 1.4-3.9 3.4-3.9 1.6 0 2.6 1 2.6 2.7 0 .4-.1.8-.2 1.1l-4.8.1zm4.1-.9v-.3c0-1.1-.6-1.9-1.7-1.9-1.3 0-2.1 1-2.3 2.2h4zm6.6 3.5c-.5.6-1.3 1.1-2.1 1.1-1.3 0-2.3-.9-2.3-2 0-1.3 1-2.4 4.4-2.6v-.4c0-1.1-.5-1.7-1.7-1.7-.8 0-1.7.4-2.4.9l-.2-.9c.6-.5 1.7-.9 2.7-.9 1.7 0 2.6.8 2.6 2.6v3.5c0 .5.1.7.7.7l-.1.8c-.9 0-1.5-.4-1.6-1.1zm0-2.9c-2.5.3-3.4.8-3.4 1.8 0 .8.6 1.3 1.5 1.3.8 0 1.4-.4 1.9-.9v-2.2zm4.1 3.7h-1v-7.2l1-.2v1.5c.5-.9 1.2-1.5 2.1-1.5.5 0 .9.1 1.3.3l-.3.9c-.3-.2-.7-.3-1.1-.3-.8 0-1.5.6-2 1.9v4.6zm6.4.3c-.9 0-1.7-.3-2.4-.6l.3-.9c.6.4 1.4.7 2.1.7.9 0 1.6-.4 1.6-1.2 0-.9-.9-1.1-1.8-1.4-1-.3-2.1-.8-2.1-2 0-1.3 1.1-2.1 2.4-2.1.8 0 1.6.2 2.2.5l-.3.9c-.6-.3-1.3-.5-2-.5-.9 0-1.4.4-1.4 1.1 0 .8.9 1.1 1.8 1.4 1 .3 2.1.8 2.1 2.1.1 1.1-1.1 2-2.5 2z"/><path class="st2" d="M213.9 43.2v57.2M95.2 43.2v57.2"/><path class="st1" d="M9.8 75.8l-.1-4.3c7.4-7 10.6-9.4 10.6-12.8 0-1.8-1.4-3.2-3.4-3.2s-3.9 1-5.4 2.3l-1.9-4.4c2.1-1.6 5.2-2.9 8.4-2.9 5.4 0 8.3 3.2 8.3 7.2 0 4.3-3.2 7.4-9.8 13h10.4l.1 5H9.8zM38 60.6c5.5 0 8.7 2.9 8.7 7.3 0 5-3.3 8.5-9.6 8.5-2.3 0-5.3-.5-7.4-1.4l.6-5c1.6.9 4.2 1.7 6.5 1.7 2.4 0 4.3-1.2 4.3-3.6 0-2.2-1.8-3.5-4.8-3.5-2.2 0-4 .4-5.2.9l-.8-.9 1.6-13.5h14.3l.1 4.9h-9.9l-.6 4.8c.5-.1 1.4-.2 2.2-.2zM53.5 60.5c-2.9 0-4.6-1.9-4.6-4.6 0-2.7 1.8-4.6 4.6-4.6 2.9 0 4.6 1.9 4.6 4.6 0 2.7-1.7 4.6-4.6 4.6zm.6 8.2h-3l13.6-17.2h3L54.1 68.7zm-.6-15.3c-1.2 0-1.9.9-1.9 2.5 0 1.5.7 2.4 1.9 2.4 1.1 0 1.9-.9 1.9-2.4s-.8-2.5-1.9-2.5zM65.1 69c-2.9 0-4.6-1.9-4.6-4.6 0-2.7 1.8-4.6 4.6-4.6 2.9 0 4.6 1.9 4.6 4.6.1 2.8-1.7 4.6-4.6 4.6zm.1-7c-1.2 0-1.9.9-1.9 2.5 0 1.5.7 2.5 1.9 2.5s1.9-.9 1.9-2.5-.8-2.5-1.9-2.5z"/><path class="st3" d="M.8 8.4h318.9v34.3H.8z"/><path class="st4" d="M31.2 10.8c-.6-.4-1.2-.6-2-.6-1.5 0-2.4 1-2.4 2.6 0 1.7.9 2.7 2.5 2.7.8 0 1.5-.3 2.1-.7l.3 1.3c-.6.4-1.5.6-2.4.6-2.3 0-3.9-1.5-3.9-3.9s1.6-3.9 3.9-3.9c.9 0 1.8.2 2.4.6l-.5 1.3zM34.2 11v3.4c0 .8.3 1.1.9 1.1.5 0 .9-.2 1.2-.5v-4h1.4v5.5l-1.4.2v-.8c-.5.5-1.1.8-1.8.8-1.1 0-1.7-.7-1.7-1.9V11h1.4zM46.2 16.6v-3.4c0-.8-.3-1.1-.9-1.1-.5 0-.9.3-1.2.5v3.9h-1.4v-3.4c0-.8-.3-1.1-.9-1.1-.5 0-.9.2-1.2.5v4h-1.4V11l1.4-.2v.8c.5-.5 1.1-.8 1.8-.8s1.2.3 1.5.9c.6-.6 1.2-.9 2-.9 1 0 1.7.7 1.7 1.9v3.8h-1.4zM50.5 11v3.4c0 .8.3 1.1.9 1.1.5 0 .9-.2 1.2-.5v-4H54v5.5l-1.4.2v-.8c-.5.5-1.1.8-1.8.8-1.1 0-1.7-.7-1.7-1.9V11h1.4zM55.5 16.6v-8l1.5-.2v8.2h-1.5zM61.4 15.9c-.4.5-.9.8-1.6.8-1 0-1.7-.7-1.7-1.6 0-1 .7-1.9 3.3-2V13c0-.7-.3-1.1-1.1-1.1-.6 0-1.2.3-1.8.6l-.3-1.1c.5-.3 1.4-.6 2.3-.6 1.7 0 2.4.8 2.3 2.3v2c0 .4.1.5.5.5l-.1 1.1c-1.1.1-1.6-.2-1.8-.8zm0-1.9c-1.4.2-1.9.4-1.9 1 0 .4.3.7.8.7.4 0 .8-.2 1.1-.5V14zM66.2 16.8c-1.2 0-1.9-.5-1.8-1.9l.1-2.6-.9-.1v-.9l.9-.3V9.8h1.4v1.3h1.6v1.2h-1.6l-.1 2.6c0 .5.3.8.7.8.3 0 .6-.1.9-.2l.2 1.2c-.5 0-.9.1-1.4.1zM69.2 10c-.6 0-.9-.3-.9-.9 0-.5.3-.9.9-.9.6 0 .9.3.9.9 0 .6-.3.9-.9.9zm-.7 6.6v-5.5l1.4-.2v5.7h-1.4zM74.3 16.6h-1.5L70.7 11h1.5l1.4 4 1.3-4h1.5l-2.1 5.6zM78.2 14.1c.1.9.7 1.5 1.7 1.5.6 0 1.2-.2 1.7-.5l.2 1.2c-.5.3-1.3.5-2 .5-1.8 0-3-1.1-3-2.9 0-1.8 1.2-3 2.9-3 1.5 0 2.3.9 2.3 2.2 0 .3 0 .7-.1.9-.1 0-3.7.1-3.7.1zm2.4-.9c0-.8-.3-1.3-1.1-1.3s-1.2.6-1.3 1.3h2.4zM86.6 10c-.6 0-.9-.3-.9-.9 0-.5.3-.9.9-.9.6 0 .9.3.9.9 0 .6-.4.9-.9.9zm-.7 6.6v-5.5l1.4-.2v5.7h-1.4zM92.4 16.6v-3.4c0-.8-.3-1.1-1-1.1-.5 0-.9.3-1.2.5v3.9h-1.4V11l1.4-.2v.9c.5-.5 1.2-.9 1.8-.9 1.1 0 1.8.7 1.8 1.9v3.8h-1.4zM97.8 16.8c-1.8 0-2.9-1.1-2.9-2.9 0-1.8 1.2-3 2.9-3 .8 0 1.4.2 1.9.5l-.3 1.1c-.4-.3-.9-.5-1.4-.5-1 0-1.6.7-1.6 1.8s.6 1.8 1.6 1.8c.6 0 1.1-.2 1.5-.4l.2 1.2c-.4.2-1.1.4-1.9.4zM101.6 10c-.6 0-.9-.3-.9-.9 0-.5.3-.9.9-.9.6 0 .9.3.9.9 0 .6-.3.9-.9.9zm-.7 6.6v-5.5l1.4-.2v5.7h-1.4zM107.5 8.6l1.4-.2v8.2h-1.4v-.5c-.4.4-.9.7-1.6.7-1.5 0-2.4-1.2-2.4-2.9 0-1.8 1.2-3 2.8-3 .4 0 .8.1 1.2.2V8.6zm-1 3.4c-.9 0-1.5.8-1.5 1.8 0 1.1.5 1.8 1.4 1.8.5 0 .8-.2 1.1-.5v-2.8c-.3-.2-.6-.3-1-.3zM111.5 14.1c.1.9.7 1.5 1.7 1.5.6 0 1.2-.2 1.7-.5l.2 1.2c-.5.3-1.3.5-2 .5-1.8 0-3-1.1-3-2.9 0-1.8 1.2-3 2.9-3 1.5 0 2.3.9 2.3 2.2 0 .3 0 .7-.1.9-.1 0-3.7.1-3.7.1zm2.4-.9c0-.8-.3-1.3-1.1-1.3s-1.2.6-1.3 1.3h2.4zM120 16.6v-3.4c0-.8-.3-1.1-1-1.1-.5 0-.9.3-1.2.5v3.9h-1.4V11l1.4-.2v.9c.5-.5 1.2-.9 1.8-.9 1.1 0 1.8.7 1.8 1.9v3.8H120zM125.5 16.8c-1.8 0-2.9-1.1-2.9-2.9 0-1.8 1.2-3 2.9-3 .8 0 1.4.2 1.9.5l-.3 1.1c-.5-.3-1-.4-1.5-.4-1 0-1.6.7-1.6 1.8s.6 1.8 1.6 1.8c.6 0 1.1-.2 1.5-.4l.2 1.2c-.4.1-1.1.3-1.8.3zM129.6 14.1c.1.9.7 1.5 1.7 1.5.6 0 1.2-.2 1.7-.5l.2 1.2c-.5.3-1.3.5-2 .5-1.8 0-3-1.1-3-2.9 0-1.8 1.2-3 2.9-3 1.5 0 2.3.9 2.3 2.2 0 .3 0 .7-.1.9-.1 0-3.7.1-3.7.1zm2.4-.9c0-.8-.3-1.3-1.1-1.3s-1.2.6-1.3 1.3h2.4zM139.7 16.8c-1.6 0-2.8-1.1-2.8-2.9 0-1.8 1.2-3 2.9-3 1.6 0 2.8 1.1 2.8 3 0 1.7-1.3 2.9-2.9 2.9zm0-4.8c-.9 0-1.4.7-1.4 1.8s.5 1.8 1.5 1.8c.9 0 1.4-.7 1.4-1.8s-.6-1.8-1.5-1.8zM147 9.7c-.3-.1-.6-.2-.9-.2-.5 0-.7.3-.7 1v.6h1.6v1.2h-1.6v4.3H144v-4.3l-1-.1v-.9l1-.3v-.6c0-1.6.8-2.2 2-2.2.5 0 1 .2 1.3.3l-.3 1.2zM154 10.4v6.2h-1.5v-6.2H150V9.1h6.5v1.3H154zM160.1 16.6h-2.4V9.1h2.5c2.6 0 4 1.5 4 3.7.1 2.3-1.4 3.8-4.1 3.8zm0-6.3h-1v5h1.1c1.6 0 2.6-.8 2.6-2.5 0-1.6-1-2.5-2.7-2.5zM169.1 10c-.6 0-.9-.3-.9-.9 0-.5.3-.9.9-.9.6 0 .9.3.9.9-.1.6-.4.9-.9.9zm-.7 6.6v-5.5l1.4-.2v5.7h-1.4zM174.9 16.6v-3.4c0-.8-.3-1.1-1-1.1-.5 0-.9.3-1.2.5v3.9h-1.4V11l1.4-.2v.9c.5-.5 1.2-.9 1.8-.9 1.1 0 1.8.7 1.8 1.9v3.8h-1.4zM183 16.8c-1.6 0-2.8-1.1-2.8-2.9 0-1.8 1.2-3 2.9-3 1.6 0 2.8 1.1 2.8 3 0 1.7-1.3 2.9-2.9 2.9zm0-4.8c-.9 0-1.4.7-1.4 1.8s.5 1.8 1.5 1.8c.9 0 1.4-.7 1.4-1.8s-.6-1.8-1.5-1.8zM187 16.6v-8l1.4-.2v8.2H187zM193.6 8.6l1.4-.2v8.2h-1.4v-.5c-.4.4-.9.7-1.6.7-1.5 0-2.4-1.2-2.4-2.9 0-1.8 1.2-3 2.8-3 .4 0 .8.1 1.2.2V8.6zm-1 3.4c-.9 0-1.5.8-1.5 1.8 0 1.1.5 1.8 1.4 1.8.5 0 .8-.2 1.1-.5v-2.8c-.3-.2-.6-.3-1-.3zM197.6 14.1c.1.9.7 1.5 1.7 1.5.6 0 1.2-.2 1.7-.5l.2 1.2c-.5.3-1.3.5-2 .5-1.8 0-3-1.1-3-2.9 0-1.8 1.2-3 2.9-3 1.5 0 2.3.9 2.3 2.2 0 .3 0 .7-.1.9-.1 0-3.7.1-3.7.1zm2.4-.9c0-.8-.3-1.3-1.1-1.3s-1.2.6-1.3 1.3h2.4zM204 16.6h-1.4v-5.5l1.4-.2v.9c.3-.6.8-.9 1.4-.9.3 0 .7.1 1 .3l-.3 1.3c-.3-.1-.5-.2-.8-.2-.5 0-.9.3-1.3 1v3.3zM212.9 10.9c1.5 0 2.4 1.2 2.4 2.9 0 1.8-1.2 3-2.8 3-.4 0-.8 0-1.2-.2v2.6H210v-8.1l1.4-.2v.7c.4-.4.9-.7 1.5-.7zm-1.5 4.4c.3.2.6.3 1 .3.9 0 1.5-.8 1.5-1.8 0-1.1-.5-1.8-1.4-1.8-.5 0-.8.2-1.1.5v2.8zM219.4 15.9c-.4.5-.9.8-1.6.8-1 0-1.7-.7-1.7-1.6 0-1 .7-1.9 3.3-2V13c0-.7-.3-1.1-1.1-1.1-.6 0-1.2.3-1.8.6l-.3-1.1c.5-.3 1.4-.6 2.3-.6 1.7 0 2.4.8 2.3 2.3v2c0 .4.1.5.5.5l-.1 1.1c-1 .1-1.5-.2-1.8-.8zm0-1.9c-1.4.2-1.9.4-1.9 1 0 .4.3.7.8.7.4 0 .8-.2 1.1-.5V14zM224.3 16.8c-1.2 0-1.9-.5-1.8-1.9l.1-2.6-.9-.1v-.9l.9-.3V9.8h1.4v1.3h1.6v1.2H224l-.1 2.6c0 .5.3.8.7.8.3 0 .6-.1.9-.2l.2 1.2c-.6 0-.9.1-1.4.1zM227.3 10c-.6 0-.9-.3-.9-.9 0-.5.3-.9.9-.9.6 0 .9.3.9.9 0 .6-.3.9-.9.9zm-.7 6.6v-5.5l1.4-.2v5.7h-1.4zM230.6 14.1c.1.9.7 1.5 1.7 1.5.6 0 1.2-.2 1.7-.5l.2 1.2c-.5.3-1.3.5-2 .5-1.8 0-3-1.1-3-2.9 0-1.8 1.2-3 2.9-3 1.5 0 2.3.9 2.3 2.2 0 .3 0 .7-.1.9-.1 0-3.7.1-3.7.1zm2.4-.9c0-.8-.3-1.3-1.1-1.3s-1.2.6-1.3 1.3h2.4zM239.1 16.6v-3.4c0-.8-.3-1.1-1-1.1-.5 0-.9.3-1.2.5v3.9h-1.4V11l1.4-.2v.9c.5-.5 1.2-.9 1.8-.9 1.1 0 1.8.7 1.8 1.9v3.8h-1.4zM244 16.8c-1.2 0-1.9-.5-1.8-1.9l.1-2.6-.9-.1v-.9l.9-.3V9.8h1.4v1.3h1.6v1.2h-1.6l-.1 2.6c0 .5.3.8.7.8.3 0 .6-.1.9-.2l.2 1.2c-.6 0-.9.1-1.4.1zM248 16.8c-.7 0-1.6-.2-2.1-.5l.3-1.1c.6.3 1.3.5 1.9.5.6 0 .9-.2.9-.6 0-.4-.5-.6-1.1-.7-1-.2-1.9-.7-1.9-1.7s.9-1.7 2.2-1.7c.7 0 1.5.2 2 .4l-.3 1.1c-.5-.3-1.2-.5-1.7-.5s-.8.2-.8.6c0 .4.5.6 1.1.7 1.1.3 1.9.7 1.9 1.7-.1 1-1 1.8-2.4 1.8zM255.3 14.1c.1.9.7 1.5 1.7 1.5.6 0 1.2-.2 1.7-.5l.2 1.2c-.5.3-1.3.5-2 .5-1.8 0-3-1.1-3-2.9 0-1.8 1.2-3 2.9-3 1.5 0 2.3.9 2.3 2.2 0 .3 0 .7-.1.9-.1 0-3.7.1-3.7.1zm2.4-.9c0-.8-.3-1.3-1.1-1.3s-1.2.6-1.3 1.3h2.4zM263.4 16.6l-1.2-2-1.2 2h-1.6l1.9-2.8-1.8-2.7h1.5l1.1 1.8 1.1-1.8h1.5l-1.8 2.7 1.9 2.9h-1.4zM268.6 10.9c1.5 0 2.4 1.2 2.4 2.9 0 1.8-1.2 3-2.8 3-.4 0-.8 0-1.2-.2v2.6h-1.4v-8.1l1.4-.2v.7c.5-.4 1-.7 1.6-.7zm-1.5 4.4c.3.2.6.3 1 .3.9 0 1.5-.8 1.5-1.8 0-1.1-.5-1.8-1.4-1.8-.5 0-.8.2-1.1.5v2.8zM274.7 16.8c-1.6 0-2.8-1.1-2.8-2.9 0-1.8 1.2-3 2.9-3 1.6 0 2.8 1.1 2.8 3 0 1.7-1.3 2.9-2.9 2.9zm0-4.8c-.9 0-1.4.7-1.4 1.8s.5 1.8 1.5 1.8c.9 0 1.4-.7 1.4-1.8s-.5-1.8-1.5-1.8zM280.5 16.8c-.7 0-1.6-.2-2.1-.5l.3-1.1c.6.3 1.3.5 1.9.5.6 0 .9-.2.9-.6 0-.4-.5-.6-1.1-.7-1-.2-1.9-.7-1.9-1.7s.9-1.7 2.2-1.7c.7 0 1.5.2 2 .4l-.3 1.1c-.5-.3-1.2-.5-1.7-.5s-.8.2-.8.6c0 .4.5.6 1.1.7 1.1.3 1.9.7 1.9 1.7-.1 1-1 1.8-2.4 1.8zM285 14.1c.1.9.7 1.5 1.7 1.5.6 0 1.2-.2 1.7-.5l.2 1.2c-.5.3-1.3.5-2 .5-1.8 0-3-1.1-3-2.9 0-1.8 1.2-3 2.9-3 1.5 0 2.3.9 2.3 2.2 0 .3 0 .7-.1.9-.1 0-3.7.1-3.7.1zm2.4-.9c0-.8-.3-1.3-1.1-1.3s-1.2.6-1.3 1.3h2.4zM293.6 8.6l1.4-.2v8.2h-1.4v-.5c-.4.4-.9.7-1.6.7-1.5 0-2.4-1.2-2.4-2.9 0-1.8 1.2-3 2.8-3 .4 0 .8.1 1.2.2V8.6zm-1.1 3.4c-.9 0-1.5.8-1.5 1.8 0 1.1.5 1.8 1.4 1.8.5 0 .8-.2 1.1-.5v-2.8c-.2-.2-.5-.3-1-.3zM73.5 31.2c-1.2 0-1.9-.5-1.8-1.9l.1-2.6-.9-.1v-.9l.9-.3v-1.2h1.4v1.3h1.6v1.2h-1.6l-.2 2.5c0 .5.3.8.7.8.3 0 .6-.1.9-.2l.2 1.2c-.4.1-.8.2-1.3.2zM78.3 31.2c-1.6 0-2.8-1.1-2.8-2.9 0-1.8 1.2-3 2.9-3 1.6 0 2.8 1.1 2.8 3 0 1.7-1.3 2.9-2.9 2.9zm0-4.8c-.9 0-1.4.7-1.4 1.8s.5 1.8 1.5 1.8c.9 0 1.4-.7 1.4-1.8s-.6-1.8-1.5-1.8zM88.3 24.1c-.3-.1-.5-.2-.8-.2-.5 0-.7.3-.7 1v.6h1.6v1.2h-1.5V31h-1.4v-4.3l-1-.1v-.9l.9-.3v-.6c0-1.6.8-2.2 2-2.2.5 0 .9.1 1.2.2-.1.1-.3 1.3-.3 1.3zm1.5.4c-.6 0-.9-.3-.9-.8s.3-.9.9-.9.9.3.9.9c0 .5-.4.8-.9.8zm-.7 6.5v-5.5l1.4-.2V31h-1.4zM93.4 31H92v-5.5l1.4-.2v.9c.3-.6.8-.9 1.4-.9.3 0 .7.1 1 .3l-.3 1.3c-.3-.1-.5-.2-.8-.2-.5 0-.9.3-1.3 1V31zM98.4 31.2c-.7 0-1.6-.2-2.1-.5l.3-1.1c.6.3 1.3.5 1.9.5.6 0 .9-.2.9-.6 0-.4-.5-.6-1.1-.7-1-.2-1.9-.7-1.9-1.7s.9-1.7 2.2-1.7c.7 0 1.5.2 2 .4l-.3 1.1c-.5-.3-1.2-.5-1.7-.5s-.8.2-.8.6c0 .4.5.6 1.1.7 1.1.3 1.9.7 1.9 1.7-.1 1-1 1.8-2.4 1.8zM103.8 31.2c-1.2 0-1.9-.5-1.8-1.9l.1-2.6-.9-.1v-.9l.9-.3v-1.2h1.4v1.3h1.6v1.2h-1.6l-.1 2.6c0 .5.3.8.7.8.3 0 .6-.1.9-.2l.2 1.2c-.5 0-.9.1-1.4.1zM105.7 28.7v-1.2h3.4v1.2h-3.4zM109.9 30.2c0-.5.4-1 1-1.2-.6-.3-1-.9-1-1.7 0-1.1.9-2.1 2.4-2.1.6 0 1.2.2 1.6.3l1.5-.1.1 1.2-1.1-.2c.1.2.3.6.3.9 0 1.1-.9 2-2.3 2-.3 0-.5 0-.8-.1-.2.1-.4.3-.4.5 0 .3.3.4 1.1.4h.6c1.6 0 2.5.4 2.5 1.5 0 1.3-1.5 2.2-3.2 2.2-1.5 0-2.6-.5-2.6-1.5 0-.6.4-1.1 1.2-1.2-.6-.1-.9-.4-.9-.9zm.9 1.9c0 .5.6.9 1.6.9s1.7-.4 1.7-.9-.5-.6-1.5-.6h-1.1c-.4 0-.7.3-.7.6zm1.5-3.6c.6 0 1-.5 1-1.2s-.3-1.1-1.1-1.1c-.6 0-1 .5-1 1.2.1.7.5 1.1 1.1 1.1zM117.3 28.5c.1.9.7 1.5 1.7 1.5.6 0 1.2-.2 1.7-.5l.2 1.2c-.5.3-1.3.5-2 .5-1.8 0-3-1.1-3-2.9 0-1.8 1.2-3 2.9-3 1.5 0 2.3.9 2.3 2.2 0 .3 0 .7-.1.9-.1 0-3.7.1-3.7.1zm2.4-.9c0-.8-.3-1.3-1.1-1.3s-1.2.6-1.3 1.3h2.4zM125.8 31v-3.4c0-.8-.3-1.1-1-1.1-.5 0-.9.3-1.2.5v4h-1.4v-5.5l1.4-.2v.9c.5-.5 1.2-.9 1.8-.9 1.1 0 1.8.7 1.8 1.9V31h-1.4zM129.8 28.5c.1.9.7 1.5 1.7 1.5.6 0 1.2-.2 1.7-.5l.2 1.2c-.5.3-1.3.5-2 .5-1.8 0-3-1.1-3-2.9 0-1.8 1.2-3 2.9-3 1.5 0 2.3.9 2.3 2.2 0 .3 0 .7-.1.9-.1 0-3.7.1-3.7.1zm2.4-.9c0-.8-.3-1.3-1.1-1.3s-1.2.6-1.3 1.3h2.4zM136.1 31h-1.4v-5.5l1.4-.2v.9c.3-.6.8-.9 1.4-.9.3 0 .7.1 1 .3l-.3 1.3c-.3-.1-.5-.2-.8-.2-.5 0-.9.3-1.3 1V31zM142.2 30.3c-.4.5-.9.8-1.6.8-1 0-1.7-.7-1.7-1.6 0-1 .7-1.9 3.3-2v-.1c0-.7-.3-1.1-1.1-1.1-.6 0-1.2.3-1.8.6l-.3-1.1c.5-.3 1.4-.6 2.3-.6 1.7 0 2.4.8 2.3 2.3v2c0 .4.1.5.5.5l-.1 1.1c-1 .1-1.5-.2-1.8-.8zm0-1.9c-1.4.2-1.9.4-1.9 1 0 .4.3.7.8.7.4 0 .8-.2 1.1-.5v-1.2zM147 31.2c-1.2 0-1.9-.5-1.8-1.9l.1-2.6-.9-.1v-.9l.9-.3v-1.2h1.4v1.3h1.6v1.2h-1.6l-.1 2.6c0 .5.3.8.7.8.3 0 .6-.1.9-.2l.2 1.2c-.5 0-.9.1-1.4.1zM150.1 24.4c-.6 0-.9-.3-.9-.9 0-.5.3-.9.9-.9.6 0 .9.3.9.9 0 .6-.4.9-.9.9zm-.7 6.6v-5.5l1.4-.2V31h-1.4zM154.8 31.2c-1.6 0-2.8-1.1-2.8-2.9 0-1.8 1.2-3 2.9-3 1.6 0 2.8 1.1 2.8 3-.1 1.7-1.3 2.9-2.9 2.9zm0-4.8c-.9 0-1.4.7-1.4 1.8s.5 1.8 1.5 1.8c.9 0 1.4-.7 1.4-1.8s-.6-1.8-1.5-1.8zM162.4 31v-3.4c0-.8-.3-1.1-1-1.1-.5 0-.9.3-1.2.5v4h-1.4v-5.5l1.4-.2v.9c.5-.5 1.2-.9 1.8-.9 1.1 0 1.8.7 1.8 1.9V31h-1.4zM171 30.3c-.4.5-.9.8-1.6.8-1 0-1.7-.7-1.7-1.6 0-1 .7-1.9 3.3-2v-.1c0-.7-.3-1.1-1.1-1.1-.6 0-1.2.3-1.8.6l-.3-1.1c.5-.3 1.4-.6 2.3-.6 1.7 0 2.4.8 2.3 2.3v2c0 .4.1.5.5.5l-.1 1.1c-1.1.1-1.6-.2-1.8-.8zm0-1.9c-1.4.2-1.9.4-1.9 1 0 .4.3.7.8.7.4 0 .8-.2 1.1-.5v-1.2zM177.4 31v-3.4c0-.8-.3-1.1-1-1.1-.5 0-.9.3-1.2.5v4h-1.4v-5.5l1.4-.2v.9c.5-.5 1.2-.9 1.8-.9 1.1 0 1.8.7 1.8 1.9V31h-1.4zM182.3 31.2c-1.2 0-1.9-.5-1.8-1.9l.1-2.6-.9-.1v-.9l.9-.3v-1.2h1.4v1.3h1.6v1.2H182l-.1 2.6c0 .5.3.8.7.8.3 0 .6-.1.9-.2l.2 1.2c-.6 0-.9.1-1.4.1zM185.3 24.4c-.6 0-.9-.3-.9-.9 0-.5.3-.9.9-.9.6 0 .9.3.9.9 0 .6-.3.9-.9.9zm-.7 6.6v-5.5l1.4-.2V31h-1.4zM190.5 25.3c1.5 0 2.4 1.2 2.4 2.9 0 1.8-1.2 3-2.8 3-.4 0-.8 0-1.2-.2v2.6h-1.4v-8.1l1.4-.2v.7c.4-.4.9-.7 1.6-.7zm-1.5 4.4c.3.2.6.3 1 .3.9 0 1.5-.8 1.5-1.8 0-1.1-.5-1.8-1.4-1.8-.5 0-.8.2-1.1.5v2.8zM195.8 31.2c-.7 0-1.6-.2-2.1-.5l.3-1.1c.6.3 1.3.5 1.9.5.6 0 .9-.2.9-.6 0-.4-.5-.6-1.1-.7-1-.2-1.9-.7-1.9-1.7s.9-1.7 2.2-1.7c.7 0 1.5.2 2 .4l-.3 1.1c-.5-.3-1.2-.5-1.7-.5s-.8.2-.8.6c0 .4.5.6 1.1.7 1.1.3 1.9.7 1.9 1.7-.1 1-.9 1.8-2.4 1.8zM202.1 30.9l-.3.9c-.6 1.5-1.2 2-2.2 2-.5 0-1-.1-1.4-.3l.4-1.2c.3.2.6.3.9.3.4 0 .6-.2.9-.9l.2-.6-2.2-5.5h1.5l1.4 4 1.3-4h1.5l-2 5.3zM207.5 31.2c-1.8 0-2.9-1.1-2.9-2.9 0-1.8 1.2-3 2.9-3 .8 0 1.4.2 1.9.5l-.3 1.1c-.5-.3-1-.4-1.5-.4-1 0-1.6.7-1.6 1.8s.6 1.8 1.6 1.8c.6 0 1.1-.2 1.5-.4l.2 1.2c-.4.1-1.1.3-1.8.3zM214.2 31v-3.4c0-.8-.3-1.1-.9-1.1-.5 0-1 .3-1.3.5v4h-1.4v-8l1.4-.2v3.4c.5-.5 1.2-.9 1.9-.9 1.1 0 1.7.7 1.7 1.9V31h-1.4zM219.5 31.2c-1.6 0-2.8-1.1-2.8-2.9 0-1.8 1.2-3 2.9-3 1.6 0 2.8 1.1 2.8 3 0 1.7-1.3 2.9-2.9 2.9zm0-4.8c-.9 0-1.4.7-1.4 1.8s.5 1.8 1.5 1.8c.9 0 1.4-.7 1.4-1.8s-.5-1.8-1.5-1.8zM225.5 31.2c-1.2 0-1.9-.5-1.8-1.9l.1-2.6-.9-.1v-.9l.9-.3v-1.2h1.4v1.3h1.6v1.2h-1.6l-.1 2.6c0 .5.3.8.7.8.3 0 .6-.1.9-.2l.2 1.2c-.5 0-.9.1-1.4.1zM228.6 24.4c-.6 0-.9-.3-.9-.9 0-.5.3-.9.9-.9.6 0 .9.3.9.9 0 .6-.4.9-.9.9zm-.7 6.6v-5.5l1.4-.2V31h-1.4zM233.3 31.2c-1.8 0-2.9-1.1-2.9-2.9 0-1.8 1.2-3 2.9-3 .8 0 1.4.2 1.9.5l-.3 1.1c-.5-.3-1-.4-1.5-.4-1 0-1.6.7-1.6 1.8s.6 1.8 1.6 1.8c.6 0 1.1-.2 1.5-.4l.2 1.2c-.3.1-1 .3-1.8.3zM238.2 31.2c-.7 0-1.6-.2-2.1-.5l.3-1.1c.6.3 1.3.5 1.9.5.6 0 .9-.2.9-.6 0-.4-.5-.6-1.1-.7-1-.2-1.9-.7-1.9-1.7s.9-1.7 2.2-1.7c.7 0 1.5.2 2 .4l-.3 1.1c-.5-.3-1.2-.5-1.7-.5s-.8.2-.8.6c0 .4.5.6 1.1.7 1.1.3 1.9.7 1.9 1.7-.1 1-1 1.8-2.4 1.8zM241.2 27v-.6c1-.7 1.8-1.2 1.8-1.6 0-.3-.2-.5-.6-.5-.3 0-.7.1-1 .4l-.2-.6c.4-.3.9-.5 1.4-.5.8 0 1.3.4 1.3 1.1 0 .7-.6 1.1-1.5 1.7h1.6v.7h-2.8zM245 26c.4 0 .7.3.7.8 0 .6-.5 1.1-1.1 1.4l-.4-.3c.4-.3.7-.6.7-.8 0-.2-.1-.3-.6-.5.2-.4.4-.6.7-.6zM248.5 22.3l.8-.1V27h-.8v-.3c-.2.2-.5.4-.9.4-.9 0-1.4-.7-1.4-1.7s.7-1.7 1.6-1.7c.2 0 .5 0 .7.1v-1.5zm-.6 2c-.6 0-.9.5-.9 1 0 .6.3 1 .8 1 .3 0 .5-.1.7-.3v-1.6c-.1 0-.4-.1-.6-.1z"/><g><path class="st3" d="M.8 106.7h318.9v12.2H.8z"/><path class="st4" d="M2.2 106.5h.2v2.4h-.2v-.2c-.1.1-.3.2-.5.2-.4 0-.7-.3-.7-.8s.3-.8.8-.8c.1 0 .3 0 .4.1v-.9zm-.4.9c-.3 0-.6.3-.6.6 0 .4.2.6.5.6.2 0 .3-.1.4-.2v-1h-.3zM6.5 109.8c0 .6-.4 1-1.3 1H3.9v-3.7h1.2c.9 0 1.3.4 1.3 1 0 .4-.2.7-.7.9.5 0 .8.3.8.8zm-1.4-2.4h-.8v1.3H5c.6 0 .9-.2.9-.7.1-.3-.2-.6-.8-.6zm0 1.7h-.8v1.4h.9c.7 0 .9-.3.9-.7 0-.5-.4-.7-1-.7zM8.6 110.5c-.2.2-.5.4-.8.4-.5 0-.9-.3-.9-.8s.4-.9 1.7-1v-.2c0-.4-.2-.7-.6-.7-.3 0-.7.2-.9.3l-.1-.2c.2-.2.7-.3 1-.3.6 0 1 .3 1 1v1.3c0 .2 0 .3.3.3v.3c-.4 0-.6-.1-.7-.4zm0-1.1c-.9.1-1.3.3-1.3.7 0 .3.2.5.6.5.3 0 .5-.2.7-.4v-.8zM10.5 110.9c-.3 0-.7-.1-.9-.2l.1-.3c.2.2.5.3.8.3.3 0 .6-.2.6-.5s-.3-.4-.7-.5c-.4-.1-.8-.3-.8-.8s.4-.8.9-.8c.3 0 .6.1.8.2l-.1.3c-.2-.1-.5-.2-.7-.2-.3 0-.6.2-.6.4 0 .3.3.4.7.5.4.1.8.3.8.8s-.4.8-.9.8zM12.3 109.5c0 .6.4 1.1 1 1.1.3 0 .6-.1.8-.2l.1.3c-.2.1-.5.2-.9.2-.8 0-1.3-.6-1.3-1.4 0-.9.6-1.5 1.3-1.5.6 0 1 .4 1 1 0 .1 0 .3-.1.4l-1.9.1zm1.6-.3v-.1c0-.4-.2-.7-.7-.7-.5 0-.8.4-.9.8h1.6zM16.8 106.8l.4-.1v4.1h-.4v-.3c-.2.2-.5.3-.8.3-.7 0-1.2-.6-1.2-1.4 0-.9.6-1.5 1.4-1.5.2 0 .5.1.7.1v-1.2zm-.7 1.6c-.6 0-1 .5-1 1.1 0 .6.4 1.1.9 1.1.3 0 .5-.1.7-.3v-1.7c-.1-.2-.3-.2-.6-.2zM20.5 110.9c-.8 0-1.3-.6-1.3-1.4 0-.9.6-1.5 1.4-1.5s1.3.6 1.3 1.4c0 .9-.6 1.5-1.4 1.5zm0-2.6c-.6 0-1 .5-1 1.1 0 .7.4 1.1 1 1.1s1-.5 1-1.1c0-.6-.4-1.1-1-1.1zM24.4 110.8V109c0-.5-.2-.7-.6-.7-.3 0-.6.2-.8.4v2.1h-.4v-2.7l.4-.1v.4c.3-.3.6-.4.9-.4.6 0 .9.3.9.9v1.9h-.4zM28.4 110.5c-.2.2-.5.4-.8.4-.5 0-.9-.3-.9-.8s.4-.9 1.7-1v-.2c0-.4-.2-.7-.6-.7-.3 0-.7.2-.9.3l-.1-.3c.2-.2.7-.3 1-.3.6 0 1 .3 1 1v1.3c0 .2 0 .3.3.3v.3c-.4.1-.6 0-.7-.3zm0-1.1c-.9.1-1.3.3-1.3.7 0 .3.2.5.6.5.3 0 .5-.2.7-.4v-.8zM31.4 110.8V109c0-.5-.2-.7-.6-.7-.3 0-.6.2-.8.4v2.1h-.4v-2.7l.4-.1v.4c.3-.3.6-.4.9-.4.6 0 .9.3.9.9v1.9h-.4zM35.4 110.5c-.2.2-.5.4-.8.4-.5 0-.9-.3-.9-.8s.4-.9 1.7-1v-.2c0-.4-.2-.7-.6-.7-.3 0-.7.2-.9.3l-.1-.3c.2-.2.7-.3 1-.3.6 0 1 .3 1 1v1.3c0 .2 0 .3.3.3v.3c-.4.1-.6 0-.7-.3zm0-1.1c-.9.1-1.3.3-1.3.7 0 .3.2.5.6.5.3 0 .5-.2.7-.4v-.8zM38.4 110.8V109c0-.5-.2-.7-.6-.7-.3 0-.6.2-.8.4v2.1h-.4v-2.7l.4-.1v.4c.3-.3.6-.4.9-.4.6 0 .9.3.9.9v1.9h-.4zM41.1 110.5c-.2.2-.5.4-.8.4-.5 0-.9-.3-.9-.8s.4-.9 1.7-1v-.2c0-.4-.2-.7-.6-.7-.3 0-.7.2-.9.3l-.1-.3c.2-.2.7-.3 1-.3.6 0 1 .3 1 1v1.3c0 .2 0 .3.3.3v.3c-.4.1-.6 0-.7-.3zm0-1.1c-.9.1-1.3.3-1.3.7 0 .3.2.5.6.5.3 0 .5-.2.7-.4v-.8zM42.3 110.8v-4l.4-.1v4.1h-.4zM44.6 110.8l-.2.6c-.3.7-.5.9-.9.9-.2 0-.4-.1-.5-.1l.1-.3c.1.1.3.1.4.1.2 0 .4-.1.6-.6l.2-.5-1.1-2.7h.4l.9 2.3.8-2.3h.4l-1.1 2.6zM46.7 110.9c-.3 0-.7-.1-.9-.2l.1-.3c.2.2.5.3.8.3.3 0 .6-.2.6-.5s-.3-.4-.7-.5c-.4-.1-.8-.3-.8-.8s.4-.8.9-.8c.3 0 .6.1.8.2l-.1.3c-.2-.1-.5-.2-.7-.2-.3 0-.6.2-.6.4 0 .3.3.4.7.5.4.1.8.3.8.8.1.5-.3.8-.9.8zM48.6 107.5c-.2 0-.3-.1-.3-.3 0-.1.1-.3.3-.3s.3.1.3.3c-.1.1-.1.3-.3.3zm-.2 3.3v-2.7l.4-.1v2.8h-.4zM50.3 110.9c-.3 0-.7-.1-.9-.2l.1-.3c.2.2.5.3.8.3.3 0 .6-.2.6-.5s-.3-.4-.7-.5c-.4-.1-.8-.3-.8-.8s.4-.8.9-.8c.3 0 .6.1.8.2l-.1.3c-.2-.1-.5-.2-.7-.2-.3 0-.6.2-.6.4 0 .3.3.4.7.5.4.1.8.3.8.8.1.5-.3.8-.9.8zM54.5 110.9c-.8 0-1.3-.6-1.3-1.4 0-.9.6-1.5 1.4-1.5s1.3.6 1.3 1.4c-.1.9-.6 1.5-1.4 1.5zm0-2.6c-.6 0-1 .5-1 1.1 0 .7.4 1.1 1 1.1s1-.5 1-1.1c0-.6-.4-1.1-1-1.1zM57.9 107.1c-.1-.1-.3-.1-.4-.1-.3 0-.5.2-.5.6v.5h.9v.3H57v2.4h-.4v-2.4h-.4v-.2l.4-.1v-.4c0-.7.3-1 .8-1 .2 0 .4.1.5.1v.3zM61.1 110.5c-.2.2-.5.4-.8.4-.5 0-.9-.3-.9-.8s.4-.9 1.7-1v-.2c0-.4-.2-.7-.6-.7-.3 0-.7.2-.9.3l-.1-.3c.2-.2.7-.3 1-.3.6 0 1 .3 1 1v1.3c0 .2 0 .3.3.3v.3c-.4.1-.6 0-.7-.3zm0-1.1c-.9.1-1.3.3-1.3.7 0 .3.2.5.6.5.3 0 .5-.2.7-.4v-.8zM64.1 110.8V109c0-.5-.2-.7-.6-.7-.3 0-.6.2-.8.4v2.1h-.4v-2.7l.4-.1v.4c.3-.3.6-.4.9-.4.6 0 .9.3.9.9v1.9h-.4zM66.1 110.9c-.5 0-.8-.3-.7-.9v-1.6H65v-.2l.4-.1v-.6h.4v.6h.9v.3h-.9v1.6c0 .3.1.5.4.5.2 0 .4-.1.5-.1l.1.3c-.3.2-.5.2-.7.2zM67.5 107.5c-.2 0-.3-.1-.3-.3 0-.1.1-.3.3-.3s.3.1.3.3c0 .1-.1.3-.3.3zm-.2 3.3v-2.7l.4-.1v2.8h-.4zM69.7 108c.7 0 1.2.6 1.2 1.4 0 .9-.6 1.5-1.4 1.5-.2 0-.5-.1-.7-.1v1.5h-.4v-4.2l.6-.1v.4c.1-.2.4-.4.7-.4zm-.7 2.4c.2.1.4.2.7.2.6 0 1-.5 1-1.1 0-.6-.3-1.1-.9-1.1-.3 0-.5.1-.7.3-.1 0-.1 1.7-.1 1.7zM72.3 110.9c-.3 0-.7-.1-.9-.2l.1-.3c.2.2.5.3.8.3.3 0 .6-.2.6-.5s-.3-.4-.7-.5c-.4-.1-.8-.3-.8-.8s.4-.8.9-.8c.3 0 .6.1.8.2l-.1.3c-.2-.1-.5-.2-.7-.2-.3 0-.6.2-.6.4 0 .3.3.4.7.5.4.1.8.3.8.8.1.5-.3.8-.9.8zM75 110.8l-.2.6c-.3.7-.5.9-.9.9-.2 0-.4-.1-.5-.1l.1-.3c.1.1.3.1.4.1.2 0 .4-.1.6-.6l.2-.5-1.1-2.7h.4l.9 2.3.8-2.3h.4l-1.1 2.6zM77.7 110.9c-.8 0-1.3-.6-1.3-1.4 0-.9.6-1.5 1.3-1.5.3 0 .6.1.9.2l-.1.3c-.2-.1-.5-.2-.8-.2-.6 0-1 .4-1 1.1 0 .7.4 1.1 1 1.1.3 0 .6-.1.8-.2l.1.3c-.3.2-.6.3-.9.3zM81 110.8V109c0-.5-.2-.7-.6-.7-.3 0-.6.2-.9.4v2.1h-.4v-4l.4-.1v1.7c.3-.3.6-.4 1-.4.5 0 .9.3.9.9v1.9H81zM83.4 110.9c-.8 0-1.3-.6-1.3-1.4 0-.9.6-1.5 1.4-1.5s1.3.6 1.3 1.4c-.1.9-.7 1.5-1.4 1.5zm0-2.6c-.6 0-1 .5-1 1.1 0 .7.4 1.1 1 1.1s1-.5 1-1.1c0-.6-.4-1.1-1-1.1zM86.2 110.9c-.5 0-.8-.3-.7-.9v-1.6h-.4v-.2l.4-.1v-.6h.4v.6h.9v.3h-.9v1.6c0 .3.1.5.4.5.2 0 .4-.1.5-.1l.1.3c-.3.2-.5.2-.7.2zM87.6 107.5c-.2 0-.3-.1-.3-.3 0-.1.1-.3.3-.3s.3.1.3.3c-.1.1-.1.3-.3.3zm-.2 3.3v-2.7l.4-.1v2.8h-.4zM89.8 110.9c-.8 0-1.3-.6-1.3-1.4 0-.9.6-1.5 1.3-1.5.3 0 .6.1.9.2l-.1.3c-.2-.1-.5-.2-.8-.2-.6 0-1 .4-1 1.1 0 .7.4 1.1 1 1.1.3 0 .6-.1.8-.2l.1.3c-.3.2-.6.3-.9.3zM91.1 109.5v-.3h1.4v.3h-1.4zM94.9 110.8V109c0-.5-.2-.7-.6-.7-.3 0-.6.2-.8.4v2.1h-.4v-2.7l.4-.1v.4c.3-.3.6-.4.9-.4.6 0 .9.3.9.9v1.9h-.4zM97.6 110.5c-.2.2-.5.4-.8.4-.5 0-.9-.3-.9-.8s.4-.9 1.7-1v-.2c0-.4-.2-.7-.6-.7-.3 0-.7.2-.9.3l-.1-.3c.2-.2.7-.3 1-.3.6 0 1 .3 1 1v1.3c0 .2 0 .3.3.3v.3c-.5.1-.7 0-.7-.3zm0-1.1c-.9.1-1.3.3-1.3.7 0 .3.2.5.6.5.3 0 .5-.2.7-.4v-.8zM98.4 107.6c-.2 0-.3-.1-.3-.3 0-.2.1-.3.3-.3.2 0 .3.1.3.3 0 .1-.1.3-.3.3zm.4 3.2v-2.7l.4-.1v2.8h-.4zm.8-3.2c-.2 0-.3-.1-.3-.3 0-.2.1-.3.3-.3.2 0 .3.1.3.3 0 .1-.2.3-.3.3zM101 110.8h-.3l-1.1-2.8h.4l.9 2.3.8-2.3h.4l-1.1 2.8zM102.7 109.5c0 .6.4 1.1 1 1.1.3 0 .6-.1.8-.2l.1.3c-.2.1-.5.2-.9.2-.8 0-1.3-.6-1.3-1.4 0-.9.6-1.5 1.3-1.5.6 0 1 .4 1 1 0 .1 0 .3-.1.4l-1.9.1zm1.6-.3v-.1c0-.4-.2-.7-.7-.7-.5 0-.8.4-.9.8h1.6zM107.9 108c.7 0 1.2.6 1.2 1.4 0 .9-.6 1.5-1.4 1.5-.2 0-.5-.1-.7-.1v1.5h-.4v-4.2l.4-.1v.4c.3-.2.6-.4.9-.4zm-.8 2.4c.2.1.4.2.7.2.6 0 1-.5 1-1.1 0-.6-.3-1.1-.9-1.1-.3 0-.5.1-.7.3-.1 0-.1 1.7-.1 1.7zM111.3 110.5c-.2.2-.5.4-.8.4-.5 0-.9-.3-.9-.8s.4-.9 1.7-1v-.2c0-.4-.2-.7-.6-.7-.3 0-.7.2-.9.3l-.1-.3c.2-.2.7-.3 1-.3.6 0 1 .3 1 1v1.3c0 .2 0 .3.3.3v.3c-.5.1-.7 0-.7-.3zm0-1.1c-.9.1-1.3.3-1.3.7 0 .3.2.5.6.5.3 0 .5-.2.7-.4v-.8zM113.2 110.9c-.5 0-.8-.3-.7-.9v-1.6h-.4v-.2l.4-.1v-.6h.4v.6h.9v.3h-.9v1.6c0 .3.1.5.4.5.2 0 .4-.1.5-.1l.1.3c-.3.2-.5.2-.7.2zM114.6 107.5c-.2 0-.3-.1-.3-.3 0-.1.1-.3.3-.3s.3.1.3.3c0 .1-.1.3-.3.3zm-.2 3.3v-2.7l.4-.1v2.8h-.4zM115.9 109.5c0 .6.4 1.1 1 1.1.3 0 .6-.1.8-.2l.1.3c-.2.1-.5.2-.9.2-.8 0-1.3-.6-1.3-1.4 0-.9.6-1.5 1.3-1.5.6 0 1 .4 1 1 0 .1 0 .3-.1.4l-1.9.1zm1.5-.3v-.1c0-.4-.2-.7-.7-.7-.5 0-.8.4-.9.8h1.6zM120.3 110.8V109c0-.5-.2-.7-.6-.7-.3 0-.6.2-.8.4v2.1h-.4v-2.7l.4-.1v.4c.3-.3.6-.4.9-.4.6 0 .9.3.9.9v1.9h-.4zM122.3 110.9c-.5 0-.8-.3-.7-.9v-1.6h-.4v-.2l.4-.1v-.6h.4v.6h.9v.3h-.9v1.6c0 .3.1.5.4.5.2 0 .4-.1.5-.1l.1.3c-.3.2-.5.2-.7.2zM124.2 110.9c-.3 0-.7-.1-.9-.2l.1-.3c.2.2.5.3.8.3.3 0 .6-.2.6-.5s-.3-.4-.7-.5c-.4-.1-.8-.3-.8-.8s.4-.8.9-.8c.3 0 .6.1.8.2l-.1.3c-.2-.1-.5-.2-.7-.2-.3 0-.6.2-.6.4 0 .3.3.4.7.5.4.1.8.3.8.8.1.5-.4.8-.9.8zM127.1 110.8v-.3h2.1v.3h-2.1zm0-.9l1.8-.7v-.1l-1.8-.7v-.4l2.2.9v.4l-2.2.9v-.3zM130.8 109.5c.8 0 1.2.5 1.2 1.1 0 .8-.6 1.3-1.3 1.3-.3 0-.7-.1-1-.2l.1-.4c.2.1.6.3.9.3.5 0 .9-.4.9-.9s-.3-.8-.9-.8c-.3 0-.5 0-.7.1l-.1-.1.2-1.8h1.8v.4h-1.5l-.2 1.2c.3-.2.4-.2.6-.2zM133.3 109.5c.8 0 1.2.5 1.2 1.1 0 .8-.6 1.3-1.3 1.3-.3 0-.7-.1-1-.2l.1-.4c.2.1.6.3.9.3.5 0 .9-.4.9-.9s-.3-.8-.9-.8c-.3 0-.5 0-.7.1l-.1-.1.2-1.8h1.8v.4H133l-.2 1.2c.2-.2.3-.2.5-.2zM137.5 110.8l-.2.6c-.3.7-.5.9-.9.9-.2 0-.4-.1-.5-.1l.1-.3c.1.1.3.1.4.1.2 0 .4-.1.6-.6l.2-.5-1.1-2.7h.4l.9 2.3.8-2.3h.4l-1.1 2.6zM139.2 109.5c0 .6.4 1.1 1 1.1.3 0 .6-.1.8-.2l.1.3c-.2.1-.5.2-.9.2-.8 0-1.3-.6-1.3-1.4 0-.9.6-1.5 1.3-1.5.6 0 1 .4 1 1 0 .1 0 .3-.1.4l-1.9.1zm1.6-.3v-.1c0-.4-.2-.7-.7-.7-.5 0-.8.4-.9.8h1.6zM143.3 110.5c-.2.2-.5.4-.8.4-.5 0-.9-.3-.9-.8s.4-.9 1.7-1v-.2c0-.4-.2-.7-.6-.7-.3 0-.7.2-.9.3l-.1-.3c.2-.2.7-.3 1-.3.6 0 1 .3 1 1v1.3c0 .2 0 .3.3.3v.3c-.5.1-.7 0-.7-.3zm0-1.1c-.9.1-1.3.3-1.3.7 0 .3.2.5.6.5.3 0 .5-.2.7-.4v-.8zM144.9 110.8h-.4v-2.7l.4-.1v.6c.2-.4.4-.6.8-.6.2 0 .4.1.5.1l-.1.3c-.1-.1-.3-.1-.4-.1-.3 0-.6.2-.8.7v1.8zM147.3 110.9c-.3 0-.7-.1-.9-.2l.1-.3c.2.2.5.3.8.3.3 0 .6-.2.6-.5s-.3-.4-.7-.5c-.4-.1-.8-.3-.8-.8s.4-.8.9-.8c.3 0 .6.1.8.2l-.1.3c-.2-.1-.5-.2-.7-.2-.3 0-.6.2-.6.4 0 .3.3.4.7.5.4.1.8.3.8.8.1.5-.4.8-.9.8zM150.3 109.5c0-1.5.9-2.5 1.6-2.8l.2.3c-.6.3-1.5 1.3-1.5 2.5 0 1.3.8 2.2 1.5 2.5l-.2.3c-.7-.4-1.6-1.4-1.6-2.8zM154.2 110.8V109c0-.5-.2-.7-.6-.7-.3 0-.6.2-.8.4v2.1h-.4v-2.7l.4-.1v.4c.3-.3.6-.4.9-.4.6 0 .9.3.9.9v1.9h-.4zM155.2 109.1v-.3h2.3v.3h-2.3zm0 1v-.3h2.2v.3h-2.2zM158 110.8v-.3c1-.7 1.6-1.2 1.6-1.7 0-.3-.2-.6-.6-.6-.3 0-.6.1-.9.3l-.1-.3c.3-.2.6-.4 1-.4.6 0 1 .4 1 .9 0 .7-.7 1.1-1.5 1.7h1.6v.4H158zM162.7 107l.1.3c-1 .2-1.6.9-1.8 1.6.3-.2.6-.4 1-.4.6 0 1.1.4 1.1 1.1 0 .7-.5 1.2-1.2 1.2-.8 0-1.3-.7-1.3-1.5 0-.9.7-2 2.1-2.3zm-.8 3.6c.5 0 .8-.4.8-.9s-.3-.8-.8-.8c-.4 0-.7.2-.9.4v.2c0 .6.3 1.1.9 1.1zM164.3 108.4l-.7.3v-.3l1.1-.4v2.9h-.4v-2.5zM165.2 112c.6-.3 1.4-1.3 1.4-2.5 0-1.3-.8-2.2-1.4-2.5l.2-.3c.7.3 1.6 1.4 1.6 2.8 0 1.5-.9 2.5-1.6 2.8l-.2-.3zM168 110.9c-.2 0-.3-.1-.3-.3s.1-.3.3-.3c.2 0 .3.1.3.3s-.1.3-.3.3z"/></g></svg>